<?xml version="1.0" encoding="utf-8"?>
<!-- Generator: Adobe Illustrator 16.0.4, SVG Export Plug-In . SVG Version: 6.00 Build 0)  -->
<!DOCTYPE svg PUBLIC "-//W3C//DTD SVG 1.1//EN" "http://www.w3.org/Graphics/SVG/1.1/DTD/svg11.dtd">
<svg version="1.1" id="Layer_1" xmlns="http://www.w3.org/2000/svg" xmlns:xlink="http://www.w3.org/1999/xlink" x="0px" y="0px"
	 width="320px" height="210px" viewBox="0 0 320 210" enable-background="new 0 0 320 210" xml:space="preserve">
<symbol  id="Arrow_25" viewBox="-22.859 -13.141 45.718 26.281">
	<polygon fill="none" points="-22.859,-13.141 22.859,-13.141 22.859,13.141 -22.859,13.141 	"/>
	<g>
		<polygon fill="#F5F5F5" points="-5.512,2.214 8.487,2.214 8.487,-3.877 22.405,4.15 8.487,12.172 8.487,6.085 -5.512,6.085 		"/>
	</g>
</symbol>
<g>
	<g>
		<g>
			<path fill="#C6C6C5" d="M24.465,39.823c-0.449,8.335-12.486,8.335-12.935,0C11.081,31.482,24.019,31.526,24.465,39.823
				c0.104,1.924,3.104,1.934,3,0c-0.289-5.356-4.111-9.179-9.467-9.468c-5.346-0.288-9.203,4.545-9.468,9.468
				c-0.288,5.346,4.545,9.202,9.468,9.467c5.345,0.288,9.202-4.544,9.467-9.467C27.569,37.889,24.569,37.899,24.465,39.823z"/>
		</g>
	</g>
	<g enable-background="new    ">
		<path fill="#F5F5F5" d="M33.919,39.094c0-1.016,0.104-1.833,0.313-2.452c0.209-0.619,0.52-1.097,0.932-1.433
			s0.931-0.504,1.556-0.504c0.461,0,0.865,0.093,1.213,0.278s0.635,0.453,0.861,0.803s0.404,0.775,0.533,1.277
			s0.193,1.179,0.193,2.03c0,1.008-0.104,1.821-0.311,2.44c-0.207,0.619-0.517,1.098-0.929,1.436
			c-0.412,0.338-0.933,0.507-1.562,0.507c-0.828,0-1.479-0.297-1.951-0.891C34.202,41.871,33.919,40.707,33.919,39.094z
			 M35.003,39.094c0,1.41,0.165,2.349,0.495,2.815c0.33,0.466,0.737,0.7,1.222,0.7c0.485,0,0.892-0.234,1.222-0.703
			c0.33-0.469,0.495-1.406,0.495-2.812c0-1.414-0.165-2.354-0.495-2.818c-0.33-0.464-0.741-0.697-1.233-0.697
			c-0.484,0-0.871,0.205-1.16,0.615C35.185,36.717,35.003,37.684,35.003,39.094z"/>
		<path fill="#F5F5F5" d="M40.792,36.803c0-0.613,0.154-1.135,0.463-1.564c0.309-0.429,0.756-0.646,1.342-0.646
			c0.539,0,0.985,0.192,1.339,0.577c0.354,0.385,0.53,0.95,0.53,1.696c0,0.727-0.179,1.286-0.536,1.679s-0.798,0.589-1.321,0.589
			c-0.52,0-0.952-0.193-1.298-0.58C40.965,38.168,40.792,37.584,40.792,36.803z M42.626,35.32c-0.262,0-0.479,0.113-0.653,0.34
			c-0.174,0.227-0.261,0.643-0.261,1.248c0,0.551,0.088,0.938,0.264,1.163c0.176,0.225,0.393,0.337,0.65,0.337
			c0.266,0,0.485-0.113,0.659-0.34c0.174-0.227,0.261-0.641,0.261-1.242c0-0.555-0.088-0.944-0.264-1.169
			C43.106,35.432,42.888,35.32,42.626,35.32z M42.632,43.646l4.699-9.053h0.855l-4.682,9.053H42.632z M46.347,41.314
			c0-0.617,0.154-1.14,0.463-1.567c0.309-0.427,0.758-0.642,1.348-0.642c0.539,0,0.985,0.192,1.339,0.577
			c0.354,0.385,0.53,0.95,0.53,1.696c0,0.727-0.179,1.286-0.536,1.679c-0.357,0.393-0.8,0.589-1.327,0.589
			c-0.52,0-0.952-0.194-1.298-0.583C46.52,42.674,46.347,42.092,46.347,41.314z M48.187,39.832c-0.266,0-0.485,0.113-0.659,0.34
			c-0.174,0.227-0.261,0.643-0.261,1.248c0,0.547,0.088,0.934,0.264,1.16c0.176,0.226,0.393,0.34,0.65,0.34
			c0.27,0,0.491-0.113,0.665-0.34c0.174-0.227,0.261-0.641,0.261-1.242c0-0.555-0.088-0.944-0.264-1.169
			C48.667,39.944,48.448,39.832,48.187,39.832z"/>
		<path fill="#F5F5F5" d="M54.497,40.219c0-1.152,0.32-2.006,0.961-2.561c0.535-0.461,1.188-0.691,1.957-0.691
			c0.855,0,1.555,0.28,2.098,0.841s0.814,1.335,0.814,2.323c0,0.801-0.12,1.431-0.36,1.89c-0.24,0.459-0.59,0.815-1.049,1.069
			s-0.96,0.381-1.503,0.381c-0.871,0-1.575-0.279-2.112-0.838C54.766,42.074,54.497,41.27,54.497,40.219z M55.581,40.219
			c0,0.797,0.174,1.394,0.521,1.79s0.785,0.595,1.312,0.595c0.523,0,0.959-0.199,1.307-0.598c0.348-0.399,0.521-1.006,0.521-1.822
			c0-0.77-0.175-1.353-0.524-1.749c-0.349-0.396-0.784-0.595-1.304-0.595c-0.527,0-0.965,0.197-1.312,0.592
			S55.581,39.422,55.581,40.219z"/>
		<path fill="#F5F5F5" d="M61.552,43.33v-6.223h0.949v0.943c0.242-0.441,0.466-0.732,0.671-0.873
			c0.205-0.141,0.431-0.211,0.677-0.211c0.355,0,0.717,0.113,1.084,0.34l-0.363,0.979c-0.258-0.152-0.516-0.229-0.773-0.229
			c-0.23,0-0.438,0.069-0.621,0.208c-0.183,0.139-0.314,0.331-0.393,0.577c-0.117,0.375-0.176,0.785-0.176,1.23v3.258L61.552,43.33
			L61.552,43.33z"/>
		<path fill="#F5F5F5" d="M74.665,34.74h1.137v4.963c0,0.863-0.098,1.549-0.293,2.057c-0.195,0.508-0.548,0.921-1.058,1.239
			c-0.51,0.318-1.179,0.478-2.007,0.478c-0.805,0-1.463-0.139-1.975-0.416c-0.512-0.277-0.877-0.679-1.096-1.204
			c-0.219-0.525-0.328-1.243-0.328-2.153V34.74h1.137v4.957c0,0.746,0.069,1.296,0.208,1.649c0.139,0.353,0.377,0.626,0.715,0.817
			s0.751,0.287,1.239,0.287c0.836,0,1.432-0.189,1.787-0.568s0.533-1.107,0.533-2.186L74.665,34.74L74.665,34.74z"/>
		<path fill="#F5F5F5" d="M77.56,43.33v-6.223h0.949v0.885c0.457-0.684,1.117-1.025,1.98-1.025c0.375,0,0.72,0.067,1.034,0.202
			c0.314,0.135,0.55,0.312,0.706,0.53c0.156,0.218,0.266,0.479,0.328,0.779c0.039,0.195,0.059,0.537,0.059,1.025v3.826h-1.055
			v-3.785c0-0.43-0.041-0.751-0.123-0.964s-0.228-0.383-0.437-0.51s-0.454-0.19-0.735-0.19c-0.449,0-0.837,0.143-1.163,0.428
			c-0.326,0.285-0.489,0.826-0.489,1.623v3.398L77.56,43.33L77.56,43.33z"/>
		<path fill="#F5F5F5" d="M84.239,43.33v-8.59h1.055v4.898l2.496-2.531h1.365l-2.379,2.309l2.619,3.914h-1.301l-2.057-3.182
			l-0.744,0.715v2.467H84.239z"/>
		<path fill="#F5F5F5" d="M90.233,43.33v-6.223h0.949v0.885c0.457-0.684,1.117-1.025,1.98-1.025c0.375,0,0.72,0.067,1.034,0.202
			c0.314,0.135,0.55,0.312,0.706,0.53c0.156,0.218,0.266,0.479,0.328,0.779c0.039,0.195,0.059,0.537,0.059,1.025v3.826h-1.055
			v-3.785c0-0.43-0.041-0.751-0.123-0.964s-0.228-0.383-0.437-0.51s-0.454-0.19-0.735-0.19c-0.449,0-0.837,0.143-1.163,0.428
			c-0.326,0.285-0.489,0.826-0.489,1.623v3.398L90.233,43.33L90.233,43.33z"/>
		<path fill="#F5F5F5" d="M96.515,40.219c0-1.152,0.32-2.006,0.961-2.561c0.535-0.461,1.188-0.691,1.957-0.691
			c0.855,0,1.555,0.28,2.098,0.841c0.543,0.561,0.814,1.335,0.814,2.323c0,0.801-0.12,1.431-0.36,1.89
			c-0.24,0.459-0.59,0.815-1.049,1.069s-0.96,0.381-1.503,0.381c-0.871,0-1.575-0.279-2.112-0.838
			C96.784,42.074,96.515,41.27,96.515,40.219z M97.599,40.219c0,0.797,0.174,1.394,0.521,1.79c0.347,0.396,0.785,0.595,1.312,0.595
			c0.523,0,0.959-0.199,1.307-0.598c0.348-0.399,0.521-1.006,0.521-1.822c0-0.77-0.175-1.353-0.524-1.749
			c-0.349-0.396-0.784-0.595-1.304-0.595c-0.527,0-0.965,0.197-1.312,0.592C97.773,38.827,97.599,39.422,97.599,40.219z"/>
		<path fill="#F5F5F5" d="M104.729,43.33l-1.904-6.223h1.09l0.99,3.592l0.369,1.336c0.016-0.066,0.123-0.494,0.322-1.283l0.99-3.645
			h1.084l0.932,3.609l0.311,1.189l0.357-1.201l1.066-3.598h1.025l-1.945,6.223h-1.096l-0.99-3.727l-0.24-1.061l-1.26,4.787h-1.101
			V43.33z"/>
		<path fill="#F5F5F5" d="M112.247,43.33v-6.223h0.949v0.885c0.457-0.684,1.117-1.025,1.98-1.025c0.375,0,0.72,0.067,1.034,0.202
			c0.314,0.135,0.55,0.312,0.706,0.53c0.156,0.218,0.266,0.479,0.328,0.779c0.039,0.195,0.059,0.537,0.059,1.025v3.826h-1.055
			v-3.785c0-0.43-0.041-0.751-0.123-0.964s-0.228-0.383-0.437-0.51s-0.454-0.19-0.735-0.19c-0.449,0-0.837,0.143-1.163,0.428
			c-0.326,0.285-0.489,0.826-0.489,1.623v3.398L112.247,43.33L112.247,43.33z"/>
	</g>
</g>
<g>
	<g>
		<g>
			<path fill="#88A61B" d="M145.853,65.823c-0.449,8.335-12.486,8.335-12.935,0C132.468,57.482,145.406,57.526,145.853,65.823
				c0.104,1.924,3.104,1.934,3,0c-0.289-5.356-4.111-9.179-9.467-9.468c-5.346-0.288-9.203,4.545-9.468,9.468
				c-0.288,5.346,4.545,9.202,9.468,9.467c5.345,0.288,9.202-4.544,9.467-9.467C148.957,63.889,145.956,63.899,145.853,65.823z"/>
		</g>
	</g>
	<g enable-background="new    ">
		<path fill="#F5F5F5" d="M155.307,67.891l1.107-0.094c0.082,0.539,0.272,0.944,0.571,1.216c0.299,0.272,0.659,0.407,1.081,0.407
			c0.508,0,0.938-0.191,1.289-0.574c0.351-0.383,0.527-0.891,0.527-1.523c0-0.602-0.169-1.076-0.507-1.424s-0.78-0.521-1.327-0.521
			c-0.34,0-0.646,0.077-0.92,0.231c-0.274,0.154-0.488,0.354-0.645,0.601l-0.99-0.129l0.832-4.412h4.271v1.008h-3.428l-0.463,2.309
			c0.516-0.359,1.057-0.539,1.623-0.539c0.75,0,1.383,0.26,1.898,0.779s0.773,1.188,0.773,2.004c0,0.777-0.228,1.449-0.68,2.016
			c-0.551,0.695-1.303,1.043-2.256,1.043c-0.781,0-1.419-0.219-1.913-0.656C155.656,69.196,155.377,68.613,155.307,67.891z"/>
		<path fill="#F5F5F5" d="M165.953,70.141h-1.055V63.42c-0.254,0.242-0.588,0.484-1,0.727s-0.781,0.424-1.109,0.545v-1.02
			c0.59-0.277,1.105-0.613,1.547-1.008s0.754-0.777,0.938-1.148h0.681L165.953,70.141L165.953,70.141z"/>
		<path fill="#F5F5F5" d="M171.871,67.562v-1.061h3.24v1.061H171.871z"/>
		<path fill="#F5F5F5" d="M179.389,62.676v-1.014h5.562v0.82c-0.548,0.582-1.089,1.355-1.626,2.32
			c-0.537,0.965-0.952,1.957-1.245,2.977c-0.211,0.719-0.347,1.506-0.404,2.361h-1.084c0.013-0.676,0.146-1.492,0.397-2.449
			c0.254-0.957,0.619-1.88,1.094-2.769c0.475-0.889,0.979-1.638,1.516-2.247L179.389,62.676L179.389,62.676z"/>
		<path fill="#F5F5F5" d="M185.992,67.891l1.107-0.094c0.082,0.539,0.271,0.944,0.57,1.216s0.659,0.407,1.081,0.407
			c0.508,0,0.938-0.191,1.289-0.574c0.351-0.383,0.526-0.891,0.526-1.523c0-0.602-0.168-1.076-0.506-1.424s-0.781-0.521-1.328-0.521
			c-0.34,0-0.646,0.077-0.92,0.231c-0.273,0.154-0.487,0.354-0.645,0.601l-0.99-0.129l0.832-4.412h4.271v1.008h-3.428l-0.463,2.309
			c0.516-0.359,1.057-0.539,1.623-0.539c0.75,0,1.383,0.26,1.897,0.779s0.772,1.188,0.772,2.004c0,0.777-0.227,1.449-0.68,2.016
			c-0.551,0.695-1.303,1.043-2.256,1.043c-0.781,0-1.419-0.219-1.913-0.656S186.062,68.613,185.992,67.891z"/>
		<path fill="#F5F5F5" d="M192.865,63.613c0-0.613,0.154-1.135,0.463-1.564c0.309-0.429,0.756-0.645,1.342-0.645
			c0.539,0,0.984,0.192,1.339,0.577c0.354,0.385,0.53,0.95,0.53,1.696c0,0.727-0.18,1.286-0.536,1.679s-0.798,0.589-1.321,0.589
			c-0.52,0-0.951-0.193-1.298-0.58C193.038,64.978,192.865,64.395,192.865,63.613z M194.699,62.131c-0.262,0-0.479,0.113-0.653,0.34
			c-0.174,0.227-0.261,0.643-0.261,1.248c0,0.551,0.088,0.938,0.264,1.163c0.176,0.225,0.393,0.337,0.65,0.337
			c0.266,0,0.484-0.113,0.658-0.34c0.175-0.227,0.262-0.641,0.262-1.242c0-0.555-0.088-0.944-0.264-1.169
			C195.18,62.243,194.961,62.131,194.699,62.131z M194.705,70.457l4.699-9.053h0.854l-4.682,9.053H194.705z M198.42,68.125
			c0-0.617,0.154-1.14,0.463-1.567c0.309-0.427,0.758-0.642,1.348-0.642c0.539,0,0.985,0.192,1.34,0.577
			c0.354,0.385,0.529,0.95,0.529,1.696c0,0.727-0.179,1.286-0.535,1.679c-0.357,0.393-0.801,0.589-1.328,0.589
			c-0.52,0-0.951-0.194-1.297-0.583C198.593,69.485,198.42,68.902,198.42,68.125z M200.26,66.643c-0.266,0-0.484,0.113-0.658,0.34
			c-0.175,0.227-0.262,0.643-0.262,1.248c0,0.547,0.088,0.934,0.264,1.16s0.394,0.34,0.65,0.34c0.27,0,0.491-0.113,0.665-0.34
			s0.261-0.641,0.261-1.242c0-0.555-0.088-0.944-0.264-1.169S200.521,66.643,200.26,66.643z"/>
	</g>
</g>
<g>
	<g>
		<g>
			<path fill="#D92525" d="M24.465,65.741c-0.449,8.334-12.486,8.334-12.935,0C11.081,57.399,24.019,57.443,24.465,65.741
				c0.104,1.924,3.104,1.934,3,0c-0.289-5.356-4.111-9.18-9.467-9.469c-5.346-0.288-9.203,4.546-9.468,9.469
				c-0.288,5.345,4.545,9.201,9.468,9.466c5.344,0.288,9.202-4.544,9.467-9.466C27.569,63.807,24.569,63.817,24.465,65.741z"/>
		</g>
	</g>
	<g enable-background="new    ">
		<path fill="#F5F5F5" d="M37.892,69.657h-1.055v-6.721c-0.254,0.242-0.587,0.484-0.999,0.727s-0.782,0.424-1.11,0.545v-1.02
			c0.59-0.277,1.105-0.613,1.547-1.008s0.754-0.777,0.938-1.148h0.68L37.892,69.657L37.892,69.657z"/>
		<path fill="#F5F5F5" d="M43.81,67.079v-1.061h3.24v1.061H43.81z"/>
		<path fill="#F5F5F5" d="M56.8,68.644v1.014h-5.678c-0.008-0.254,0.033-0.498,0.123-0.732c0.145-0.387,0.376-0.768,0.694-1.143
			s0.778-0.809,1.38-1.301c0.934-0.766,1.564-1.372,1.893-1.819c0.329-0.447,0.492-0.87,0.492-1.269
			c0-0.418-0.149-0.771-0.448-1.058c-0.299-0.287-0.688-0.431-1.169-0.431c-0.508,0-0.914,0.152-1.219,0.457
			c-0.305,0.305-0.459,0.727-0.463,1.266l-1.084-0.111c0.074-0.809,0.354-1.425,0.838-1.849c0.484-0.424,1.135-0.636,1.951-0.636
			c0.824,0,1.477,0.229,1.957,0.686s0.721,1.023,0.721,1.699c0,0.344-0.07,0.682-0.211,1.014c-0.141,0.332-0.374,0.682-0.7,1.049
			s-0.868,0.871-1.626,1.512c-0.633,0.531-1.039,0.892-1.219,1.081c-0.18,0.189-0.328,0.38-0.445,0.571H56.8L56.8,68.644z"/>
		<path fill="#F5F5F5" d="M57.931,67.407l1.107-0.094c0.082,0.539,0.272,0.944,0.571,1.216c0.299,0.272,0.659,0.407,1.081,0.407
			c0.508,0,0.938-0.191,1.289-0.574c0.351-0.383,0.527-0.891,0.527-1.523c0-0.602-0.169-1.076-0.507-1.424s-0.78-0.521-1.327-0.521
			c-0.34,0-0.646,0.077-0.92,0.231s-0.488,0.354-0.645,0.601l-0.99-0.129l0.832-4.412h4.271v1.008h-3.428l-0.463,2.309
			c0.516-0.359,1.057-0.539,1.623-0.539c0.75,0,1.383,0.26,1.898,0.779c0.515,0.519,0.773,1.188,0.773,2.004
			c0,0.777-0.227,1.449-0.68,2.016c-0.551,0.695-1.303,1.043-2.256,1.043c-0.781,0-1.419-0.219-1.913-0.656
			S58.001,68.13,57.931,67.407z"/>
		<path fill="#F5F5F5" d="M64.804,63.13c0-0.613,0.154-1.135,0.463-1.564c0.309-0.429,0.756-0.645,1.342-0.645
			c0.539,0,0.985,0.192,1.339,0.577c0.354,0.385,0.53,0.95,0.53,1.696c0,0.727-0.179,1.286-0.536,1.679s-0.798,0.589-1.321,0.589
			c-0.52,0-0.952-0.193-1.298-0.58C64.977,64.495,64.804,63.911,64.804,63.13z M66.638,61.647c-0.262,0-0.479,0.113-0.653,0.34
			c-0.174,0.227-0.261,0.643-0.261,1.248c0,0.551,0.088,0.938,0.264,1.163c0.176,0.225,0.393,0.337,0.65,0.337
			c0.266,0,0.485-0.113,0.659-0.34c0.174-0.227,0.261-0.641,0.261-1.242c0-0.555-0.088-0.944-0.264-1.169
			C67.118,61.759,66.899,61.647,66.638,61.647z M66.644,69.974l4.699-9.053h0.855l-4.682,9.053H66.644z M70.358,67.642
			c0-0.617,0.154-1.14,0.463-1.567c0.309-0.427,0.758-0.642,1.348-0.642c0.539,0,0.985,0.192,1.339,0.577
			c0.354,0.385,0.53,0.95,0.53,1.696c0,0.727-0.179,1.286-0.536,1.679c-0.357,0.393-0.8,0.589-1.327,0.589
			c-0.52,0-0.952-0.194-1.298-0.583C70.531,69.002,70.358,68.419,70.358,67.642z M72.198,66.159c-0.266,0-0.485,0.113-0.659,0.34
			s-0.261,0.643-0.261,1.248c0,0.547,0.088,0.934,0.264,1.16c0.176,0.226,0.393,0.34,0.65,0.34c0.27,0,0.491-0.113,0.665-0.34
			c0.174-0.227,0.261-0.641,0.261-1.242c0-0.555-0.088-0.944-0.264-1.169S72.46,66.159,72.198,66.159z"/>
	</g>
</g>
<g>
	<g>
		<g>
			<path fill="#05A8F2" d="M239.662,39.741c-0.449,8.334-12.485,8.334-12.936,0C226.277,31.399,239.215,31.443,239.662,39.741
				c0.104,1.924,3.104,1.934,3,0c-0.288-5.356-4.11-9.18-9.467-9.469c-5.346-0.288-9.203,4.546-9.469,9.469
				c-0.287,5.345,4.547,9.201,9.469,9.466c5.344,0.288,9.201-4.544,9.467-9.466C242.768,37.807,239.766,37.817,239.662,39.741z"/>
		</g>
	</g>
	<g enable-background="new    ">
		<path fill="#F5F5F5" d="M249.188,36.192v-1.014h5.561v0.82c-0.547,0.582-1.089,1.355-1.626,2.32
			c-0.537,0.965-0.952,1.957-1.245,2.977c-0.211,0.719-0.346,1.506-0.404,2.361h-1.084c0.012-0.676,0.146-1.492,0.398-2.449
			s0.617-1.88,1.093-2.769s0.979-1.638,1.515-2.247L249.188,36.192L249.188,36.192z"/>
		<path fill="#F5F5F5" d="M261.264,37.171l-1.05,0.082c-0.094-0.414-0.228-0.715-0.397-0.902c-0.285-0.301-0.637-0.451-1.056-0.451
			c-0.336,0-0.631,0.094-0.885,0.281c-0.332,0.242-0.594,0.596-0.785,1.061c-0.19,0.465-0.291,1.127-0.299,1.986
			c0.254-0.387,0.563-0.674,0.933-0.861c0.367-0.187,0.752-0.281,1.153-0.281c0.703,0,1.302,0.259,1.796,0.776
			c0.494,0.517,0.741,1.187,0.741,2.007c0,0.539-0.116,1.04-0.349,1.503c-0.233,0.463-0.553,0.817-0.959,1.063
			c-0.405,0.246-0.867,0.369-1.383,0.369c-0.879,0-1.596-0.323-2.149-0.97s-0.832-1.712-0.832-3.196c0-1.66,0.307-2.867,0.92-3.621
			c0.534-0.656,1.256-0.984,2.162-0.984c0.676,0,1.229,0.189,1.661,0.568C260.918,35.98,261.177,36.503,261.264,37.171z
			 M256.956,40.874c0,0.363,0.077,0.711,0.231,1.043c0.153,0.332,0.369,0.585,0.646,0.759c0.277,0.174,0.568,0.261,0.873,0.261
			c0.445,0,0.828-0.18,1.148-0.539c0.319-0.359,0.479-0.848,0.479-1.465c0-0.594-0.158-1.062-0.476-1.403
			c-0.316-0.341-0.715-0.513-1.194-0.513c-0.478,0-0.881,0.171-1.213,0.513C257.12,39.872,256.956,40.319,256.956,40.874z"/>
		<path fill="#F5F5F5" d="M265.682,41.079v-1.061h3.239v1.061H265.682z"/>
		<path fill="#F5F5F5" d="M277.102,43.657h-1.056v-6.721c-0.254,0.242-0.587,0.484-0.999,0.727s-0.781,0.424-1.109,0.545v-1.02
			c0.59-0.277,1.104-0.613,1.547-1.008c0.441-0.395,0.754-0.777,0.938-1.148h0.68V43.657L277.102,43.657z"/>
		<path fill="#F5F5F5" d="M279.802,39.421c0-1.016,0.104-1.833,0.313-2.452c0.209-0.619,0.52-1.097,0.932-1.433
			s0.932-0.504,1.557-0.504c0.461,0,0.864,0.093,1.213,0.278c0.348,0.185,0.635,0.453,0.86,0.803
			c0.226,0.35,0.404,0.775,0.533,1.277s0.192,1.179,0.192,2.03c0,1.008-0.104,1.821-0.311,2.44
			c-0.207,0.619-0.517,1.098-0.929,1.436s-0.933,0.507-1.562,0.507c-0.828,0-1.479-0.297-1.951-0.891
			C280.085,42.198,279.802,41.034,279.802,39.421z M280.886,39.421c0,1.41,0.165,2.349,0.495,2.815c0.33,0.466,0.737,0.7,1.223,0.7
			c0.484,0,0.892-0.234,1.222-0.703c0.329-0.469,0.495-1.406,0.495-2.812c0-1.414-0.166-2.354-0.495-2.818
			c-0.33-0.464-0.741-0.697-1.233-0.697c-0.484,0-0.871,0.205-1.16,0.615C281.066,37.044,280.886,38.011,280.886,39.421z"/>
		<path fill="#F5F5F5" d="M286.477,39.421c0-1.016,0.104-1.833,0.312-2.452c0.209-0.619,0.52-1.097,0.932-1.433
			s0.932-0.504,1.557-0.504c0.461,0,0.865,0.093,1.213,0.278s0.635,0.453,0.861,0.803c0.226,0.35,0.403,0.775,0.532,1.277
			c0.13,0.502,0.193,1.179,0.193,2.03c0,1.008-0.104,1.821-0.312,2.44c-0.207,0.619-0.517,1.098-0.929,1.436
			s-0.933,0.507-1.562,0.507c-0.828,0-1.479-0.297-1.951-0.891C286.759,42.198,286.477,41.034,286.477,39.421z M287.561,39.421
			c0,1.41,0.164,2.349,0.494,2.815c0.33,0.466,0.737,0.7,1.223,0.7c0.484,0,0.892-0.234,1.222-0.703
			c0.33-0.469,0.495-1.406,0.495-2.812c0-1.414-0.165-2.354-0.495-2.818s-0.741-0.697-1.233-0.697c-0.484,0-0.871,0.205-1.16,0.615
			C287.741,37.044,287.561,38.011,287.561,39.421z"/>
		<path fill="#F5F5F5" d="M293.35,37.13c0-0.613,0.153-1.135,0.463-1.564c0.309-0.429,0.756-0.645,1.342-0.645
			c0.539,0,0.984,0.192,1.339,0.577c0.354,0.385,0.53,0.95,0.53,1.696c0,0.727-0.18,1.286-0.537,1.679
			c-0.356,0.393-0.797,0.589-1.32,0.589c-0.52,0-0.952-0.193-1.298-0.58C293.521,38.495,293.35,37.911,293.35,37.13z
			 M295.184,35.647c-0.263,0-0.479,0.113-0.654,0.34c-0.174,0.227-0.26,0.643-0.26,1.248c0,0.551,0.088,0.938,0.264,1.163
			s0.393,0.337,0.65,0.337c0.266,0,0.484-0.113,0.658-0.34s0.262-0.641,0.262-1.242c0-0.555-0.088-0.944-0.265-1.169
			C295.663,35.759,295.443,35.647,295.184,35.647z M295.188,43.974l4.699-9.053h0.855l-4.682,9.053H295.188z M298.902,41.642
			c0-0.617,0.154-1.14,0.464-1.567c0.309-0.427,0.758-0.642,1.348-0.642c0.539,0,0.985,0.192,1.339,0.577
			c0.354,0.385,0.53,0.95,0.53,1.696c0,0.727-0.179,1.286-0.536,1.679c-0.357,0.393-0.8,0.589-1.326,0.589
			c-0.521,0-0.953-0.194-1.299-0.583C299.076,43.002,298.902,42.419,298.902,41.642z M300.743,40.159
			c-0.267,0-0.485,0.113-0.659,0.34s-0.261,0.643-0.261,1.248c0,0.547,0.088,0.934,0.264,1.16c0.177,0.226,0.394,0.34,0.649,0.34
			c0.271,0,0.492-0.113,0.666-0.34c0.174-0.227,0.261-0.641,0.261-1.242c0-0.555-0.088-0.944-0.265-1.169
			C301.223,40.271,301.005,40.159,300.743,40.159z"/>
	</g>
</g>
<g>
	<g>
		<g>
			<path fill="#F29F05" d="M146.465,39.657c-0.449,8.336-12.486,8.336-12.935,0C133.081,31.316,146.019,31.36,146.465,39.657
				c0.104,1.924,3.104,1.934,3,0c-0.289-5.356-4.111-9.179-9.467-9.468c-5.346-0.288-9.203,4.545-9.468,9.468
				c-0.288,5.345,4.545,9.203,9.468,9.468c5.345,0.288,9.202-4.546,9.467-9.468C149.569,37.723,146.569,37.733,146.465,39.657z"/>
		</g>
	</g>
	<g enable-background="new    ">
		<path fill="#F5F5F5" d="M161.462,43.371v1.014h-5.678c-0.008-0.254,0.033-0.498,0.123-0.732c0.145-0.387,0.376-0.768,0.694-1.143
			s0.778-0.809,1.38-1.301c0.934-0.766,1.564-1.372,1.893-1.819c0.329-0.447,0.492-0.87,0.492-1.269
			c0-0.418-0.149-0.771-0.448-1.058s-0.688-0.431-1.169-0.431c-0.508,0-0.914,0.152-1.219,0.457
			c-0.305,0.305-0.459,0.727-0.463,1.266l-1.084-0.111c0.074-0.809,0.354-1.425,0.838-1.849c0.484-0.424,1.135-0.636,1.951-0.636
			c0.824,0,1.477,0.229,1.957,0.686c0.48,0.457,0.722,1.023,0.722,1.699c0,0.344-0.07,0.682-0.211,1.014
			c-0.142,0.332-0.374,0.682-0.7,1.049s-0.868,0.871-1.626,1.512c-0.633,0.531-1.039,0.892-1.219,1.081
			c-0.18,0.189-0.328,0.38-0.445,0.571H161.462z"/>
		<path fill="#F5F5F5" d="M168.064,37.898l-1.049,0.082c-0.094-0.414-0.227-0.715-0.397-0.902c-0.285-0.301-0.638-0.451-1.056-0.451
			c-0.336,0-0.631,0.094-0.885,0.281c-0.332,0.242-0.594,0.596-0.785,1.061c-0.19,0.465-0.291,1.127-0.299,1.986
			c0.254-0.387,0.564-0.674,0.932-0.861c0.369-0.187,0.752-0.281,1.154-0.281c0.703,0,1.303,0.259,1.797,0.776
			s0.74,1.187,0.74,2.007c0,0.539-0.115,1.04-0.349,1.503c-0.233,0.463-0.552,0.817-0.958,1.063s-0.867,0.369-1.383,0.369
			c-0.879,0-1.596-0.323-2.15-0.97c-0.554-0.647-0.832-1.712-0.832-3.196c0-1.66,0.307-2.867,0.92-3.621
			c0.535-0.656,1.256-0.984,2.162-0.984c0.676,0,1.229,0.189,1.661,0.568S167.979,37.23,168.064,37.898z M163.759,41.602
			c0,0.363,0.077,0.711,0.231,1.043s0.369,0.585,0.646,0.759c0.277,0.174,0.568,0.261,0.873,0.261c0.445,0,0.828-0.18,1.148-0.539
			s0.48-0.848,0.48-1.465c0-0.594-0.158-1.062-0.476-1.403c-0.317-0.341-0.715-0.513-1.195-0.513c-0.477,0-0.881,0.171-1.213,0.513
			C163.923,40.6,163.759,41.047,163.759,41.602z"/>
		<path fill="#F5F5F5" d="M172.482,41.807v-1.061h3.24v1.061H172.482z"/>
		<path fill="#F5F5F5" d="M179.932,42.135l1.106-0.094c0.082,0.539,0.272,0.944,0.571,1.216s0.658,0.407,1.08,0.407
			c0.508,0,0.938-0.191,1.289-0.574c0.352-0.383,0.527-0.891,0.527-1.523c0-0.602-0.169-1.076-0.507-1.424s-0.78-0.521-1.327-0.521
			c-0.34,0-0.646,0.077-0.92,0.231s-0.488,0.354-0.645,0.601l-0.99-0.129l0.832-4.412h4.271v1.008h-3.428l-0.463,2.309
			c0.517-0.359,1.057-0.539,1.623-0.539c0.75,0,1.383,0.26,1.897,0.779c0.516,0.519,0.773,1.188,0.773,2.004
			c0,0.777-0.227,1.449-0.68,2.016c-0.551,0.695-1.303,1.043-2.256,1.043c-0.781,0-1.42-0.219-1.914-0.656
			S180.001,42.857,179.932,42.135z"/>
		<path fill="#F5F5F5" d="M186.604,40.148c0-1.016,0.104-1.833,0.313-2.452c0.209-0.619,0.521-1.097,0.933-1.433
			c0.412-0.336,0.93-0.504,1.555-0.504c0.462,0,0.865,0.093,1.214,0.278c0.348,0.185,0.635,0.453,0.86,0.803
			c0.227,0.35,0.404,0.775,0.533,1.277s0.193,1.179,0.193,2.03c0,1.008-0.104,1.821-0.311,2.44s-0.518,1.098-0.93,1.436
			s-0.933,0.507-1.562,0.507c-0.827,0-1.479-0.297-1.95-0.891C186.889,42.926,186.604,41.762,186.604,40.148z M187.688,40.148
			c0,1.41,0.166,2.349,0.496,2.815c0.33,0.466,0.736,0.7,1.221,0.7c0.486,0,0.893-0.234,1.223-0.703
			c0.33-0.469,0.495-1.406,0.495-2.812c0-1.414-0.165-2.354-0.495-2.818s-0.74-0.697-1.232-0.697c-0.484,0-0.871,0.205-1.16,0.615
			C187.87,37.771,187.688,38.738,187.688,40.148z"/>
		<path fill="#F5F5F5" d="M193.479,37.857c0-0.613,0.153-1.135,0.463-1.564c0.309-0.429,0.756-0.645,1.342-0.645
			c0.539,0,0.984,0.192,1.339,0.577c0.354,0.385,0.53,0.95,0.53,1.696c0,0.727-0.18,1.286-0.536,1.679
			c-0.357,0.393-0.798,0.589-1.321,0.589c-0.52,0-0.952-0.193-1.298-0.58C193.65,39.222,193.479,38.639,193.479,37.857z
			 M195.312,36.375c-0.263,0-0.479,0.113-0.653,0.34c-0.175,0.227-0.261,0.643-0.261,1.248c0,0.551,0.088,0.938,0.264,1.163
			s0.393,0.337,0.65,0.337c0.266,0,0.484-0.113,0.658-0.34s0.262-0.641,0.262-1.242c0-0.555-0.088-0.944-0.265-1.169
			C195.792,36.487,195.573,36.375,195.312,36.375z M195.316,44.701l4.699-9.053h0.855l-4.682,9.053H195.316z M199.032,42.369
			c0-0.617,0.153-1.14,0.463-1.567c0.31-0.427,0.758-0.642,1.348-0.642c0.539,0,0.985,0.192,1.339,0.577
			c0.354,0.385,0.53,0.95,0.53,1.696c0,0.727-0.179,1.286-0.536,1.679s-0.8,0.589-1.326,0.589c-0.521,0-0.953-0.194-1.299-0.583
			C199.205,43.729,199.032,43.146,199.032,42.369z M200.872,40.887c-0.267,0-0.485,0.113-0.659,0.34s-0.261,0.643-0.261,1.248
			c0,0.547,0.088,0.934,0.264,1.16c0.177,0.226,0.394,0.34,0.65,0.34c0.271,0,0.491-0.113,0.665-0.34
			c0.174-0.227,0.261-0.641,0.261-1.242c0-0.555-0.088-0.944-0.265-1.169C201.352,40.999,201.134,40.887,200.872,40.887z"/>
	</g>
</g>
<g enable-background="new    ">
	<path fill="#F5F5F5" d="M6.999,13.604V3.582h3.247c1.23,0,2.033,0.05,2.406,0.15c0.574,0.15,1.055,0.478,1.442,0.98
		c0.387,0.504,0.581,1.154,0.581,1.952c0,0.615-0.112,1.133-0.335,1.552c-0.223,0.419-0.507,0.748-0.851,0.988
		c-0.344,0.238-0.694,0.397-1.049,0.475c-0.483,0.096-1.183,0.144-2.099,0.144H9.022v3.78L6.999,13.604L6.999,13.604z M9.022,5.277
		v2.844h1.107c0.797,0,1.331-0.053,1.6-0.157s0.479-0.269,0.632-0.492c0.153-0.223,0.229-0.483,0.229-0.779
		c0-0.364-0.107-0.665-0.321-0.902s-0.485-0.385-0.813-0.444C11.214,5.3,10.729,5.277,10,5.277H9.022z"/>
	<path fill="#F5F5F5" d="M20.527,11.293l1.914,0.321c-0.246,0.702-0.635,1.236-1.166,1.603c-0.531,0.367-1.195,0.551-1.993,0.551
		c-1.262,0-2.197-0.412-2.803-1.237c-0.479-0.661-0.718-1.495-0.718-2.502c0-1.203,0.314-2.146,0.943-2.827
		c0.629-0.681,1.424-1.021,2.386-1.021c1.08,0,1.932,0.356,2.557,1.07c0.625,0.713,0.923,1.806,0.896,3.277h-4.812
		c0.014,0.569,0.168,1.013,0.465,1.33c0.296,0.316,0.666,0.475,1.107,0.475c0.301,0,0.554-0.082,0.759-0.246
		S20.422,11.657,20.527,11.293z M20.637,9.352c-0.014-0.556-0.157-0.979-0.431-1.268c-0.273-0.29-0.606-0.435-0.998-0.435
		c-0.419,0-0.766,0.152-1.039,0.458s-0.408,0.72-0.403,1.244L20.637,9.352L20.637,9.352z"/>
	<path fill="#F5F5F5" d="M25.948,13.604h-1.921v-7.26h1.784v1.032c0.305-0.487,0.58-0.809,0.824-0.964
		c0.244-0.155,0.521-0.232,0.831-0.232c0.438,0,0.859,0.121,1.265,0.362l-0.595,1.675c-0.324-0.21-0.625-0.314-0.902-0.314
		c-0.269,0-0.497,0.074-0.684,0.223c-0.187,0.147-0.334,0.415-0.441,0.803c-0.107,0.388-0.161,1.198-0.161,2.434V13.604z"/>
	<path fill="#F5F5F5" d="M35.888,8.49l-1.894,0.342c-0.064-0.378-0.208-0.663-0.434-0.854S33.042,7.69,32.682,7.69
		c-0.479,0-0.86,0.165-1.145,0.495c-0.285,0.331-0.427,0.884-0.427,1.658c0,0.861,0.145,1.47,0.434,1.825s0.678,0.533,1.166,0.533
		c0.365,0,0.663-0.104,0.896-0.312c0.232-0.207,0.396-0.563,0.492-1.069l1.887,0.321c-0.196,0.866-0.572,1.52-1.128,1.962
		s-1.301,0.663-2.235,0.663c-1.062,0-1.908-0.335-2.54-1.005c-0.632-0.67-0.947-1.598-0.947-2.782c0-1.198,0.317-2.132,0.95-2.799
		c0.633-0.668,1.49-1.002,2.57-1.002c0.884,0,1.587,0.19,2.109,0.57C35.285,7.131,35.66,7.711,35.888,8.49z"/>
	<path fill="#F5F5F5" d="M41.548,11.293l1.914,0.321c-0.246,0.702-0.635,1.236-1.166,1.603c-0.531,0.367-1.195,0.551-1.993,0.551
		c-1.262,0-2.197-0.412-2.803-1.237c-0.479-0.661-0.718-1.495-0.718-2.502c0-1.203,0.314-2.146,0.943-2.827
		c0.629-0.681,1.424-1.021,2.386-1.021c1.08,0,1.932,0.356,2.557,1.07c0.625,0.713,0.923,1.806,0.896,3.277h-4.812
		c0.014,0.569,0.168,1.013,0.465,1.33c0.296,0.316,0.666,0.475,1.107,0.475c0.301,0,0.554-0.082,0.759-0.246
		S41.443,11.657,41.548,11.293z M41.657,9.352c-0.014-0.556-0.157-0.979-0.431-1.268c-0.273-0.29-0.606-0.435-0.998-0.435
		c-0.419,0-0.766,0.152-1.039,0.458s-0.408,0.72-0.403,1.244L41.657,9.352L41.657,9.352z"/>
	<path fill="#F5F5F5" d="M51.733,13.604h-1.921V9.898c0-0.784-0.041-1.291-0.123-1.521c-0.082-0.229-0.215-0.408-0.4-0.536
		S48.882,7.65,48.622,7.65c-0.333,0-0.631,0.091-0.896,0.273c-0.265,0.182-0.445,0.424-0.543,0.725
		c-0.098,0.301-0.147,0.856-0.147,1.668v3.288h-1.921v-7.26H46.9V7.41c0.633-0.82,1.431-1.23,2.393-1.23
		c0.424,0,0.811,0.076,1.162,0.229c0.351,0.153,0.616,0.348,0.796,0.585c0.18,0.237,0.305,0.506,0.376,0.807
		c0.071,0.301,0.106,0.731,0.106,1.292V13.604z"/>
	<path fill="#F5F5F5" d="M57.011,6.344v1.531h-1.312v2.926c0,0.593,0.013,0.938,0.038,1.035c0.025,0.099,0.082,0.18,0.171,0.243
		c0.089,0.063,0.197,0.096,0.325,0.096c0.178,0,0.435-0.062,0.772-0.185l0.164,1.49c-0.447,0.191-0.953,0.287-1.518,0.287
		c-0.346,0-0.659-0.059-0.937-0.174c-0.278-0.117-0.482-0.268-0.612-0.451c-0.13-0.186-0.22-0.435-0.27-0.749
		c-0.041-0.224-0.062-0.675-0.062-1.354V7.875h-0.882V6.344h0.882V4.901l1.928-1.121v2.563L57.011,6.344L57.011,6.344z"/>
	<path fill="#F5F5F5" d="M59.779,8.559l-1.743-0.314c0.196-0.702,0.533-1.222,1.012-1.559s1.189-0.506,2.133-0.506
		c0.857,0,1.495,0.102,1.914,0.305c0.419,0.202,0.714,0.46,0.885,0.771c0.171,0.312,0.256,0.886,0.256,1.72l-0.021,2.242
		c0,0.638,0.031,1.108,0.092,1.411c0.062,0.304,0.177,0.628,0.345,0.975h-1.9c-0.05-0.128-0.112-0.316-0.185-0.567
		c-0.032-0.114-0.055-0.189-0.068-0.226c-0.328,0.319-0.679,0.559-1.053,0.718c-0.374,0.159-0.772,0.239-1.196,0.239
		c-0.748,0-1.336-0.203-1.767-0.608c-0.431-0.405-0.646-0.918-0.646-1.538c0-0.41,0.098-0.775,0.294-1.098
		c0.196-0.32,0.471-0.566,0.824-0.738c0.353-0.17,0.862-0.319,1.528-0.447c0.898-0.169,1.52-0.326,1.866-0.472V8.675
		c0-0.369-0.091-0.632-0.273-0.79C61.894,7.729,61.55,7.65,61.044,7.65c-0.342,0-0.608,0.067-0.8,0.202
		C60.053,7.985,59.898,8.222,59.779,8.559z M62.35,10.117c-0.246,0.082-0.636,0.18-1.169,0.294
		c-0.533,0.114-0.882,0.226-1.046,0.335c-0.25,0.178-0.376,0.403-0.376,0.677c0,0.269,0.1,0.501,0.301,0.697
		c0.201,0.196,0.456,0.294,0.766,0.294c0.346,0,0.677-0.114,0.991-0.342c0.232-0.173,0.385-0.385,0.458-0.636
		c0.05-0.164,0.075-0.477,0.075-0.937V10.117z"/>
	<path fill="#F5F5F5" d="M65.952,14.082l2.194,0.267c0.037,0.255,0.121,0.431,0.253,0.526c0.182,0.137,0.469,0.205,0.861,0.205
		c0.501,0,0.877-0.075,1.128-0.226c0.168-0.101,0.296-0.262,0.383-0.485c0.059-0.159,0.089-0.453,0.089-0.882v-1.06
		c-0.574,0.784-1.299,1.176-2.174,1.176c-0.975,0-1.748-0.412-2.317-1.237c-0.447-0.651-0.67-1.463-0.67-2.434
		c0-1.217,0.293-2.146,0.878-2.789s1.313-0.964,2.184-0.964c0.898,0,1.638,0.395,2.222,1.183V6.344h1.798v6.515
		c0,0.856-0.071,1.497-0.212,1.921c-0.141,0.424-0.339,0.757-0.595,0.998c-0.256,0.241-0.596,0.431-1.022,0.567
		c-0.426,0.136-0.965,0.205-1.617,0.205c-1.23,0-2.103-0.211-2.618-0.632c-0.515-0.422-0.772-0.956-0.772-1.604
		C65.945,14.251,65.948,14.173,65.952,14.082z M67.668,9.823c0,0.771,0.149,1.334,0.448,1.692c0.298,0.357,0.667,0.536,1.104,0.536
		c0.469,0,0.866-0.184,1.189-0.55c0.324-0.367,0.485-0.911,0.485-1.631c0-0.752-0.155-1.311-0.465-1.675
		c-0.31-0.364-0.702-0.547-1.176-0.547c-0.46,0-0.84,0.179-1.138,0.536C67.817,8.544,67.668,9.09,67.668,9.823z"/>
	<path fill="#F5F5F5" d="M78.886,11.293l1.914,0.321c-0.246,0.702-0.635,1.236-1.166,1.603c-0.531,0.367-1.195,0.551-1.993,0.551
		c-1.262,0-2.197-0.412-2.803-1.237c-0.479-0.661-0.718-1.495-0.718-2.502c0-1.203,0.314-2.146,0.943-2.827
		c0.629-0.681,1.424-1.021,2.386-1.021c1.08,0,1.932,0.356,2.557,1.07c0.625,0.713,0.923,1.806,0.896,3.277H76.09
		c0.014,0.569,0.168,1.013,0.465,1.33c0.296,0.316,0.666,0.475,1.107,0.475c0.301,0,0.554-0.082,0.759-0.246
		S78.781,11.657,78.886,11.293z M78.995,9.352c-0.014-0.556-0.157-0.979-0.431-1.268c-0.273-0.29-0.606-0.435-0.998-0.435
		c-0.419,0-0.766,0.152-1.039,0.458s-0.408,0.72-0.403,1.244L78.995,9.352L78.995,9.352z"/>
	<path fill="#F5F5F5" d="M85.913,9.871c0-0.638,0.157-1.256,0.472-1.853c0.315-0.597,0.76-1.053,1.336-1.367
		c0.576-0.314,1.22-0.472,1.931-0.472c1.098,0,1.999,0.356,2.7,1.07c0.702,0.713,1.053,1.614,1.053,2.703
		c0,1.099-0.354,2.009-1.063,2.73c-0.708,0.723-1.601,1.084-2.676,1.084c-0.666,0-1.3-0.15-1.904-0.451
		c-0.604-0.301-1.063-0.742-1.377-1.322C86.07,11.412,85.913,10.705,85.913,9.871z M87.882,9.974c0,0.72,0.171,1.271,0.513,1.654
		s0.763,0.574,1.265,0.574s0.922-0.191,1.261-0.574S91.43,10.69,91.43,9.96c0-0.711-0.17-1.258-0.509-1.641
		c-0.339-0.383-0.76-0.574-1.261-0.574s-0.923,0.191-1.265,0.574C88.053,8.702,87.882,9.254,87.882,9.974z"/>
	<path fill="#F5F5F5" d="M94.068,6.344h1.066V5.797c0-0.61,0.065-1.066,0.195-1.367c0.13-0.301,0.369-0.546,0.718-0.734
		c0.349-0.189,0.79-0.284,1.323-0.284c0.547,0,1.083,0.082,1.606,0.246l-0.26,1.34c-0.305-0.073-0.599-0.109-0.882-0.109
		c-0.278,0-0.478,0.065-0.598,0.194c-0.121,0.131-0.181,0.38-0.181,0.749v0.513h1.436v1.511h-1.436v5.749h-1.921V7.854h-1.066V6.344
		z"/>
	<path fill="#F5F5F5" d="M105.375,3.582v3.685c0.62-0.725,1.36-1.087,2.222-1.087c0.442,0,0.841,0.082,1.196,0.246
		c0.355,0.164,0.623,0.374,0.803,0.629c0.18,0.255,0.303,0.538,0.369,0.848c0.066,0.31,0.099,0.791,0.099,1.442v4.259h-1.921V9.769
		c0-0.761-0.037-1.244-0.109-1.449c-0.072-0.205-0.202-0.368-0.386-0.489c-0.185-0.12-0.416-0.181-0.694-0.181
		c-0.319,0-0.604,0.077-0.854,0.232c-0.25,0.155-0.434,0.389-0.55,0.7c-0.116,0.312-0.174,0.774-0.174,1.385v3.637h-1.921V3.582
		H105.375z"/>
	<path fill="#F5F5F5" d="M113.448,8.559l-1.743-0.314c0.196-0.702,0.533-1.222,1.012-1.559s1.189-0.506,2.133-0.506
		c0.857,0,1.495,0.102,1.914,0.305c0.419,0.202,0.714,0.46,0.885,0.771c0.171,0.312,0.256,0.886,0.256,1.72l-0.021,2.242
		c0,0.638,0.031,1.108,0.092,1.411c0.062,0.304,0.177,0.628,0.345,0.975h-1.9c-0.05-0.128-0.112-0.316-0.185-0.567
		c-0.032-0.114-0.055-0.189-0.068-0.226c-0.328,0.319-0.679,0.559-1.053,0.718c-0.374,0.159-0.772,0.239-1.196,0.239
		c-0.748,0-1.336-0.203-1.767-0.608c-0.431-0.405-0.646-0.918-0.646-1.538c0-0.41,0.098-0.775,0.294-1.098
		c0.196-0.32,0.471-0.566,0.824-0.738c0.353-0.17,0.862-0.319,1.528-0.447c0.898-0.169,1.52-0.326,1.866-0.472V8.675
		c0-0.369-0.091-0.632-0.273-0.79c-0.182-0.156-0.526-0.235-1.032-0.235c-0.342,0-0.608,0.067-0.8,0.202
		C113.722,7.985,113.567,8.222,113.448,8.559z M116.019,10.117c-0.246,0.082-0.636,0.18-1.169,0.294
		c-0.533,0.114-0.882,0.226-1.046,0.335c-0.25,0.178-0.376,0.403-0.376,0.677c0,0.269,0.1,0.501,0.301,0.697
		c0.201,0.196,0.456,0.294,0.766,0.294c0.346,0,0.677-0.114,0.991-0.342c0.232-0.173,0.385-0.385,0.458-0.636
		c0.05-0.164,0.075-0.477,0.075-0.937V10.117z"/>
	<path fill="#F5F5F5" d="M119.799,13.604V3.582h1.921v10.021L119.799,13.604L119.799,13.604z"/>
	<path fill="#F5F5F5" d="M123.688,5.359V3.582h1.921v1.777H123.688z M123.688,13.604v-7.26h1.921v7.26H123.688z"/>
	<path fill="#F5F5F5" d="M127.496,13.604V3.582h1.921v3.609c0.592-0.675,1.294-1.012,2.105-1.012c0.884,0,1.616,0.32,2.194,0.961
		c0.579,0.64,0.868,1.56,0.868,2.758c0,1.239-0.295,2.194-0.885,2.864c-0.59,0.67-1.307,1.005-2.15,1.005
		c-0.415,0-0.824-0.104-1.227-0.311c-0.403-0.208-0.751-0.515-1.042-0.92v1.066h-1.784V13.604z M129.403,9.816
		c0,0.752,0.119,1.308,0.355,1.668c0.333,0.511,0.775,0.766,1.326,0.766c0.424,0,0.785-0.182,1.083-0.543
		c0.298-0.363,0.448-0.934,0.448-1.713c0-0.829-0.15-1.428-0.451-1.795c-0.301-0.366-0.686-0.55-1.155-0.55
		c-0.46,0-0.843,0.179-1.148,0.536C129.556,8.544,129.403,9.087,129.403,9.816z"/>
	<path fill="#F5F5F5" d="M140.908,13.604v-1.087c-0.264,0.388-0.612,0.692-1.042,0.916c-0.43,0.224-0.885,0.335-1.364,0.335
		c-0.488,0-0.925-0.107-1.312-0.321c-0.387-0.214-0.667-0.515-0.841-0.902c-0.174-0.387-0.26-0.923-0.26-1.606V6.344h1.921V9.68
		c0,1.021,0.035,1.646,0.106,1.877c0.071,0.229,0.199,0.412,0.386,0.547c0.187,0.134,0.424,0.201,0.711,0.201
		c0.328,0,0.622-0.09,0.882-0.27c0.26-0.181,0.438-0.404,0.533-0.67c0.096-0.268,0.144-0.92,0.144-1.959V6.344h1.921v7.26H140.908z"
		/>
	<path fill="#F5F5F5" d="M148.011,6.344v1.531h-1.312v2.926c0,0.593,0.013,0.938,0.038,1.035c0.025,0.099,0.082,0.18,0.171,0.243
		c0.089,0.063,0.197,0.096,0.325,0.096c0.178,0,0.435-0.062,0.772-0.185l0.164,1.49c-0.447,0.191-0.953,0.287-1.518,0.287
		c-0.346,0-0.659-0.059-0.937-0.174c-0.278-0.117-0.482-0.268-0.612-0.451c-0.13-0.186-0.22-0.435-0.27-0.749
		c-0.041-0.224-0.062-0.675-0.062-1.354V7.875h-0.882V6.344h0.882V4.901l1.928-1.121v2.563L148.011,6.344L148.011,6.344z"/>
	<path fill="#F5F5F5" d="M152.789,9.871c0-0.638,0.157-1.256,0.472-1.853c0.315-0.597,0.76-1.053,1.336-1.367
		c0.576-0.314,1.22-0.472,1.931-0.472c1.098,0,1.999,0.356,2.7,1.07c0.702,0.713,1.053,1.614,1.053,2.703
		c0,1.099-0.354,2.009-1.063,2.73c-0.708,0.723-1.601,1.084-2.676,1.084c-0.666,0-1.3-0.15-1.904-0.451
		c-0.604-0.301-1.063-0.742-1.377-1.322C152.946,11.412,152.789,10.705,152.789,9.871z M154.758,9.974
		c0,0.72,0.171,1.271,0.513,1.654s0.763,0.574,1.265,0.574s0.922-0.191,1.261-0.574c0.339-0.383,0.509-0.938,0.509-1.668
		c0-0.711-0.17-1.258-0.509-1.641c-0.339-0.383-0.76-0.574-1.261-0.574s-0.923,0.191-1.265,0.574
		C154.929,8.702,154.758,9.254,154.758,9.974z"/>
	<path fill="#F5F5F5" d="M163.781,13.604l-2.926-7.26h2.017l1.367,3.705l0.396,1.237c0.104-0.314,0.172-0.521,0.198-0.622
		c0.063-0.205,0.133-0.41,0.205-0.615l1.381-3.705h1.976l-2.885,7.26H163.781z"/>
	<path fill="#F5F5F5" d="M173.775,11.293l1.914,0.321c-0.246,0.702-0.635,1.236-1.166,1.603c-0.53,0.367-1.195,0.551-1.992,0.551
		c-1.262,0-2.197-0.412-2.803-1.237c-0.479-0.661-0.719-1.495-0.719-2.502c0-1.203,0.314-2.146,0.943-2.827
		c0.629-0.681,1.425-1.021,2.386-1.021c1.08,0,1.933,0.356,2.558,1.07c0.625,0.713,0.922,1.806,0.896,3.277h-4.812
		c0.014,0.569,0.168,1.013,0.465,1.33c0.296,0.316,0.664,0.475,1.106,0.475c0.302,0,0.554-0.082,0.759-0.246
		S173.67,11.657,173.775,11.293z M173.885,9.352c-0.014-0.556-0.156-0.979-0.431-1.268c-0.272-0.29-0.606-0.435-0.998-0.435
		c-0.419,0-0.767,0.152-1.039,0.458s-0.407,0.72-0.403,1.244L173.885,9.352L173.885,9.352z"/>
	<path fill="#F5F5F5" d="M179.195,13.604h-1.92v-7.26h1.783v1.032c0.307-0.487,0.58-0.809,0.823-0.964
		c0.244-0.155,0.521-0.232,0.831-0.232c0.438,0,0.857,0.121,1.266,0.362l-0.596,1.675c-0.322-0.21-0.624-0.314-0.902-0.314
		c-0.269,0-0.496,0.074-0.684,0.223c-0.188,0.147-0.334,0.415-0.439,0.803c-0.107,0.388-0.162,1.198-0.162,2.434V13.604
		L179.195,13.604z"/>
	<path fill="#F5F5F5" d="M186.217,10.944l1.859-0.226c0.06,0.474,0.219,0.836,0.479,1.087s0.574,0.376,0.943,0.376
		c0.396,0,0.73-0.15,1.001-0.451c0.271-0.301,0.407-0.706,0.407-1.217c0-0.483-0.131-0.866-0.391-1.148
		c-0.26-0.282-0.576-0.424-0.949-0.424c-0.246,0-0.541,0.048-0.883,0.144l0.213-1.565c0.52,0.014,0.916-0.1,1.188-0.338
		c0.272-0.24,0.41-0.558,0.41-0.954c0-0.337-0.101-0.606-0.302-0.807c-0.199-0.201-0.467-0.301-0.799-0.301
		c-0.328,0-0.608,0.114-0.842,0.342c-0.232,0.228-0.373,0.561-0.424,0.998l-1.771-0.301c0.123-0.606,0.31-1.091,0.558-1.452
		c0.249-0.363,0.597-0.647,1.039-0.855c0.444-0.207,0.942-0.311,1.494-0.311c0.942,0,1.7,0.301,2.27,0.902
		c0.47,0.492,0.704,1.048,0.704,1.668c0,0.88-0.48,1.581-1.441,2.105c0.574,0.123,1.033,0.398,1.377,0.827
		c0.345,0.429,0.517,0.945,0.517,1.552c0,0.88-0.321,1.629-0.964,2.249c-0.643,0.62-1.442,0.93-2.398,0.93
		c-0.908,0-1.66-0.261-2.257-0.782C186.658,12.47,186.312,11.787,186.217,10.944z"/>
	<path fill="#F5F5F5" d="M200.559,11.819v1.784h-6.732c0.072-0.675,0.292-1.313,0.656-1.918c0.363-0.604,1.084-1.404,2.16-2.402
		c0.865-0.807,1.396-1.354,1.592-1.641c0.266-0.396,0.396-0.788,0.396-1.176c0-0.429-0.115-0.758-0.346-0.988
		c-0.229-0.229-0.549-0.345-0.953-0.345c-0.4,0-0.721,0.121-0.957,0.362c-0.236,0.241-0.374,0.643-0.41,1.203l-1.914-0.191
		c0.114-1.058,0.473-1.816,1.073-2.276s1.354-0.69,2.256-0.69c0.989,0,1.767,0.267,2.331,0.8c0.564,0.533,0.848,1.196,0.848,1.989
		c0,0.451-0.08,0.881-0.242,1.289c-0.162,0.407-0.418,0.835-0.77,1.281c-0.232,0.296-0.65,0.723-1.258,1.278
		c-0.607,0.555-0.99,0.925-1.152,1.107c-0.16,0.183-0.291,0.36-0.393,0.533L200.559,11.819L200.559,11.819z"/>
	<path fill="#F5F5F5" d="M206.157,5.359V3.582h1.921v1.777H206.157z M206.157,13.604v-7.26h1.921v7.26H206.157z"/>
	<path fill="#F5F5F5" d="M216.65,13.604h-1.922V9.898c0-0.784-0.041-1.291-0.123-1.521c-0.082-0.229-0.215-0.408-0.399-0.536
		S213.8,7.65,213.54,7.65c-0.333,0-0.631,0.091-0.896,0.273c-0.266,0.182-0.445,0.424-0.545,0.725
		c-0.098,0.301-0.146,0.856-0.146,1.668v3.288h-1.921v-7.26h1.783V7.41c0.635-0.82,1.432-1.23,2.394-1.23
		c0.424,0,0.812,0.076,1.162,0.229c0.351,0.153,0.616,0.348,0.797,0.585c0.181,0.237,0.306,0.506,0.375,0.807
		c0.071,0.301,0.106,0.731,0.106,1.292V13.604z"/>
	<path fill="#F5F5F5" d="M224.93,8.49l-1.895,0.342c-0.062-0.378-0.209-0.663-0.434-0.854c-0.228-0.191-0.52-0.287-0.879-0.287
		c-0.479,0-0.861,0.165-1.146,0.495c-0.285,0.331-0.429,0.884-0.429,1.658c0,0.861,0.146,1.47,0.435,1.825
		c0.29,0.355,0.679,0.533,1.166,0.533c0.364,0,0.663-0.104,0.896-0.312c0.232-0.207,0.396-0.563,0.492-1.069l1.887,0.321
		c-0.195,0.866-0.571,1.52-1.127,1.962c-0.557,0.442-1.301,0.663-2.235,0.663c-1.062,0-1.908-0.335-2.54-1.005
		c-0.631-0.67-0.946-1.598-0.946-2.782c0-1.198,0.316-2.132,0.95-2.799c0.634-0.668,1.49-1.002,2.57-1.002
		c0.884,0,1.587,0.19,2.109,0.57C224.326,7.131,224.701,7.711,224.93,8.49z"/>
	<path fill="#F5F5F5" d="M228.299,3.582v3.685c0.62-0.725,1.36-1.087,2.223-1.087c0.441,0,0.84,0.082,1.195,0.246
		c0.355,0.164,0.623,0.374,0.805,0.629c0.18,0.255,0.303,0.538,0.369,0.848c0.064,0.31,0.098,0.791,0.098,1.442v4.259h-1.92V9.769
		c0-0.761-0.036-1.244-0.109-1.449c-0.072-0.205-0.201-0.368-0.387-0.489c-0.184-0.12-0.415-0.181-0.693-0.181
		c-0.318,0-0.604,0.077-0.854,0.232c-0.25,0.155-0.436,0.389-0.551,0.7c-0.117,0.312-0.175,0.774-0.175,1.385v3.637h-1.921V3.582
		H228.299z"/>
	<path fill="#F5F5F5" d="M239.141,11.293l1.914,0.321c-0.246,0.702-0.635,1.236-1.166,1.603c-0.529,0.367-1.193,0.551-1.992,0.551
		c-1.263,0-2.195-0.412-2.803-1.237c-0.479-0.661-0.718-1.495-0.718-2.502c0-1.203,0.313-2.146,0.942-2.827
		c0.63-0.681,1.425-1.021,2.387-1.021c1.08,0,1.934,0.356,2.557,1.07c0.625,0.713,0.924,1.806,0.896,3.277h-4.812
		c0.014,0.569,0.17,1.013,0.465,1.33c0.297,0.316,0.666,0.475,1.107,0.475c0.301,0,0.555-0.082,0.759-0.246
		C238.882,11.923,239.036,11.657,239.141,11.293z M239.25,9.352c-0.014-0.556-0.157-0.979-0.432-1.268
		c-0.272-0.29-0.605-0.435-0.998-0.435c-0.418,0-0.766,0.152-1.038,0.458c-0.273,0.306-0.408,0.72-0.403,1.244L239.25,9.352
		L239.25,9.352z"/>
	<path fill="#F5F5F5" d="M242.046,11.532l1.929-0.294c0.082,0.374,0.248,0.657,0.498,0.852c0.252,0.193,0.603,0.29,1.053,0.29
		c0.498,0,0.871-0.091,1.121-0.273c0.17-0.128,0.254-0.299,0.254-0.513c0-0.146-0.047-0.267-0.137-0.362
		c-0.097-0.091-0.311-0.176-0.644-0.253c-1.55-0.342-2.531-0.654-2.946-0.937c-0.574-0.392-0.861-0.937-0.861-1.634
		c0-0.629,0.248-1.157,0.746-1.586c0.496-0.429,1.267-0.643,2.311-0.643c0.992,0,1.73,0.162,2.215,0.485
		c0.484,0.323,0.814,0.802,0.998,1.436l-1.812,0.335c-0.076-0.282-0.225-0.499-0.439-0.649c-0.217-0.15-0.525-0.226-0.928-0.226
		c-0.506,0-0.867,0.07-1.086,0.212c-0.146,0.101-0.219,0.23-0.219,0.39c0,0.137,0.062,0.253,0.19,0.349
		c0.173,0.128,0.771,0.308,1.795,0.54c1.022,0.232,1.737,0.518,2.144,0.854c0.4,0.342,0.602,0.818,0.602,1.429
		c0,0.665-0.278,1.237-0.834,1.716c-0.557,0.479-1.379,0.718-2.469,0.718c-0.988,0-1.771-0.2-2.349-0.602
		C242.602,12.765,242.225,12.221,242.046,11.532z"/>
</g>
<g enable-background="new    ">
	<path fill="#F5F5F5" d="M10.255,117.229v-8.326H7.281v-1.694h7.964v1.694h-2.967v8.326H10.255z"/>
	<path fill="#F5F5F5" d="M15.054,113.496c0-0.639,0.157-1.256,0.472-1.854c0.315-0.597,0.76-1.053,1.336-1.367
		c0.576-0.313,1.22-0.471,1.931-0.471c1.098,0,1.999,0.355,2.7,1.069c0.702,0.713,1.053,1.614,1.053,2.703
		c0,1.099-0.354,2.009-1.063,2.729c-0.708,0.724-1.601,1.084-2.676,1.084c-0.666,0-1.3-0.149-1.904-0.451
		c-0.604-0.301-1.063-0.741-1.377-1.321C15.211,115.037,15.054,114.33,15.054,113.496z M17.022,113.6
		c0,0.719,0.171,1.271,0.513,1.653c0.342,0.383,0.763,0.574,1.265,0.574s0.922-0.191,1.261-0.574s0.509-0.938,0.509-1.668
		c0-0.711-0.17-1.258-0.509-1.642c-0.339-0.383-0.76-0.573-1.261-0.573s-0.923,0.19-1.265,0.573
		C17.193,112.327,17.022,112.879,17.022,113.6z"/>
	<path fill="#F5F5F5" d="M27.379,109.969v1.531h-1.312v2.926c0,0.594,0.013,0.938,0.038,1.035c0.025,0.1,0.082,0.18,0.171,0.243
		c0.089,0.063,0.197,0.096,0.325,0.096c0.178,0,0.435-0.062,0.772-0.185l0.164,1.49c-0.447,0.19-0.953,0.287-1.518,0.287
		c-0.346,0-0.659-0.06-0.937-0.175c-0.278-0.116-0.482-0.268-0.612-0.45c-0.13-0.187-0.22-0.436-0.27-0.75
		c-0.041-0.224-0.062-0.675-0.062-1.354V111.5h-0.882v-1.531h0.882v-1.441l1.928-1.121v2.562H27.379z"/>
	<path fill="#F5F5F5" d="M30.147,112.184l-1.743-0.313c0.196-0.702,0.533-1.222,1.012-1.56c0.479-0.336,1.189-0.506,2.133-0.506
		c0.857,0,1.495,0.103,1.914,0.305c0.419,0.203,0.714,0.461,0.885,0.771c0.171,0.312,0.256,0.887,0.256,1.721l-0.021,2.241
		c0,0.638,0.031,1.108,0.092,1.411c0.062,0.305,0.177,0.628,0.345,0.975h-1.9c-0.05-0.127-0.112-0.315-0.185-0.566
		c-0.032-0.114-0.055-0.189-0.068-0.227c-0.328,0.319-0.679,0.56-1.053,0.719c-0.374,0.158-0.772,0.238-1.196,0.238
		c-0.748,0-1.336-0.203-1.767-0.607c-0.431-0.405-0.646-0.918-0.646-1.538c0-0.41,0.098-0.774,0.294-1.099
		c0.196-0.319,0.471-0.565,0.824-0.737c0.353-0.17,0.862-0.319,1.528-0.447c0.898-0.169,1.52-0.325,1.866-0.472V112.3
		c0-0.368-0.091-0.632-0.273-0.79c-0.182-0.156-0.526-0.234-1.032-0.234c-0.342,0-0.608,0.066-0.8,0.201
		C30.421,111.609,30.266,111.848,30.147,112.184z M32.718,113.742c-0.246,0.082-0.636,0.18-1.169,0.294
		c-0.533,0.114-0.882,0.226-1.046,0.335c-0.25,0.178-0.376,0.402-0.376,0.677c0,0.269,0.1,0.501,0.301,0.697
		c0.201,0.196,0.456,0.294,0.766,0.294c0.346,0,0.677-0.114,0.991-0.342c0.232-0.174,0.385-0.385,0.458-0.637
		c0.05-0.164,0.075-0.477,0.075-0.937V113.742z"/>
	<path fill="#F5F5F5" d="M36.498,117.229v-10.021h1.921v10.021H36.498z"/>
	<path fill="#F5F5F5" d="M44.223,109.969h1.791v1.066c0.232-0.364,0.547-0.661,0.943-0.889c0.396-0.229,0.836-0.342,1.319-0.342
		c0.843,0,1.559,0.329,2.146,0.99s0.882,1.581,0.882,2.762c0,1.213-0.296,2.154-0.889,2.827c-0.592,0.673-1.31,1.009-2.153,1.009
		c-0.401,0-0.765-0.08-1.09-0.24c-0.325-0.158-0.669-0.432-1.029-0.819v3.657h-1.921L44.223,109.969L44.223,109.969z
		 M46.123,113.477c0,0.814,0.162,1.418,0.485,1.808c0.324,0.391,0.718,0.585,1.183,0.585c0.447,0,0.818-0.18,1.114-0.536
		c0.296-0.358,0.444-0.944,0.444-1.761c0-0.762-0.153-1.326-0.458-1.695c-0.305-0.369-0.684-0.554-1.135-0.554
		c-0.469,0-0.859,0.182-1.169,0.543C46.278,112.229,46.123,112.766,46.123,113.477z"/>
	<path fill="#F5F5F5" d="M52.385,113.496c0-0.639,0.157-1.256,0.472-1.854c0.315-0.597,0.76-1.053,1.336-1.367
		c0.576-0.313,1.22-0.471,1.931-0.471c1.098,0,1.999,0.355,2.7,1.069c0.702,0.713,1.053,1.614,1.053,2.703
		c0,1.099-0.354,2.009-1.063,2.729c-0.708,0.724-1.601,1.084-2.676,1.084c-0.666,0-1.3-0.149-1.904-0.451
		c-0.604-0.301-1.063-0.741-1.377-1.321C52.542,115.037,52.385,114.33,52.385,113.496z M54.354,113.6
		c0,0.719,0.171,1.271,0.513,1.653c0.342,0.383,0.763,0.574,1.265,0.574s0.922-0.191,1.261-0.574s0.509-0.938,0.509-1.668
		c0-0.711-0.17-1.258-0.509-1.642c-0.339-0.383-0.76-0.573-1.261-0.573s-0.923,0.19-1.265,0.573
		C54.525,112.327,54.354,112.879,54.354,113.6z"/>
	<path fill="#F5F5F5" d="M66.159,117.229v-1.086c-0.264,0.387-0.612,0.691-1.042,0.916c-0.43,0.224-0.885,0.334-1.364,0.334
		c-0.488,0-0.925-0.106-1.312-0.32c-0.387-0.215-0.667-0.516-0.841-0.902c-0.174-0.387-0.26-0.923-0.26-1.605v-4.594h1.921v3.336
		c0,1.021,0.035,1.646,0.106,1.877c0.071,0.229,0.199,0.412,0.386,0.547c0.187,0.133,0.424,0.201,0.711,0.201
		c0.328,0,0.622-0.091,0.882-0.271c0.26-0.181,0.438-0.404,0.533-0.67c0.096-0.269,0.144-0.921,0.144-1.959v-3.062h1.921v7.26
		h-1.785V117.229z"/>
	<path fill="#F5F5F5" d="M76.536,117.229h-1.921v-3.705c0-0.783-0.041-1.291-0.123-1.521s-0.215-0.407-0.4-0.536
		c-0.185-0.128-0.407-0.191-0.667-0.191c-0.333,0-0.631,0.092-0.896,0.273c-0.265,0.182-0.445,0.424-0.543,0.725
		c-0.098,0.302-0.147,0.856-0.147,1.668v3.289h-1.921v-7.261h1.784v1.066c0.633-0.82,1.431-1.229,2.393-1.229
		c0.424,0,0.811,0.075,1.162,0.229c0.351,0.152,0.616,0.348,0.796,0.585c0.18,0.237,0.305,0.506,0.376,0.807
		c0.071,0.302,0.106,0.731,0.106,1.292L76.536,117.229L76.536,117.229z"/>
	<path fill="#F5F5F5" d="M85.143,117.229h-1.784v-1.065c-0.296,0.415-0.646,0.724-1.049,0.926c-0.403,0.203-0.81,0.306-1.22,0.306
		c-0.834,0-1.548-0.336-2.143-1.009c-0.595-0.673-0.892-1.61-0.892-2.812c0-1.23,0.29-2.166,0.868-2.806
		c0.579-0.642,1.31-0.961,2.194-0.961c0.811,0,1.513,0.336,2.105,1.012v-3.609h1.921V117.229z M80.016,113.441
		c0,0.773,0.107,1.334,0.321,1.682c0.31,0.501,0.743,0.752,1.299,0.752c0.442,0,0.818-0.188,1.128-0.564
		c0.31-0.375,0.465-0.938,0.465-1.685c0-0.834-0.15-1.435-0.451-1.802c-0.301-0.366-0.686-0.551-1.155-0.551
		c-0.456,0-0.837,0.182-1.145,0.545C80.169,112.18,80.016,112.723,80.016,113.441z"/>
	<path fill="#F5F5F5" d="M86.359,115.157l1.928-0.294c0.082,0.373,0.249,0.656,0.499,0.852c0.25,0.193,0.602,0.29,1.053,0.29
		c0.497,0,0.871-0.091,1.121-0.272c0.168-0.129,0.253-0.299,0.253-0.514c0-0.146-0.045-0.267-0.137-0.361
		c-0.096-0.092-0.31-0.176-0.643-0.254c-1.549-0.342-2.532-0.653-2.946-0.937c-0.574-0.392-0.861-0.937-0.861-1.634
		c0-0.629,0.249-1.157,0.745-1.586c0.496-0.43,1.267-0.643,2.311-0.643c0.994,0,1.732,0.161,2.215,0.484
		c0.483,0.322,0.816,0.802,0.998,1.436l-1.812,0.336c-0.078-0.283-0.225-0.5-0.441-0.649c-0.216-0.15-0.525-0.226-0.926-0.226
		c-0.506,0-0.868,0.069-1.087,0.211c-0.146,0.102-0.219,0.23-0.219,0.391c0,0.137,0.064,0.253,0.191,0.349
		c0.173,0.128,0.771,0.308,1.794,0.54s1.737,0.518,2.143,0.854c0.401,0.343,0.602,0.818,0.602,1.43c0,0.665-0.278,1.236-0.834,1.716
		c-0.556,0.479-1.378,0.718-2.468,0.718c-0.989,0-1.771-0.199-2.348-0.602C86.913,116.389,86.537,115.846,86.359,115.157z"/>
	<path fill="#F5F5F5" d="M98.268,113.496c0-0.639,0.157-1.256,0.472-1.854c0.315-0.597,0.76-1.053,1.336-1.367
		c0.576-0.313,1.22-0.471,1.931-0.471c1.098,0,1.999,0.355,2.7,1.069c0.702,0.713,1.053,1.614,1.053,2.703
		c0,1.099-0.354,2.009-1.063,2.729c-0.708,0.724-1.601,1.084-2.676,1.084c-0.666,0-1.3-0.149-1.904-0.451
		c-0.604-0.301-1.063-0.741-1.377-1.321C98.425,115.037,98.268,114.33,98.268,113.496z M100.236,113.6
		c0,0.719,0.171,1.271,0.513,1.653s0.763,0.574,1.265,0.574s0.922-0.191,1.261-0.574c0.339-0.383,0.509-0.938,0.509-1.668
		c0-0.711-0.17-1.258-0.509-1.642c-0.339-0.383-0.76-0.573-1.261-0.573s-0.923,0.19-1.265,0.573
		C100.407,112.327,100.236,112.879,100.236,113.6z"/>
	<path fill="#F5F5F5" d="M106.423,109.969h1.066v-0.547c0-0.609,0.065-1.066,0.195-1.367s0.369-0.546,0.718-0.734
		c0.349-0.188,0.79-0.283,1.323-0.283c0.547,0,1.083,0.082,1.606,0.246l-0.26,1.34c-0.305-0.073-0.599-0.109-0.882-0.109
		c-0.278,0-0.478,0.065-0.598,0.194c-0.121,0.131-0.181,0.38-0.181,0.749v0.514h1.436v1.51h-1.436v5.75h-1.921v-5.75h-1.066V109.969
		z"/>
	<path fill="#F5F5F5" d="M117.729,107.207v3.686c0.62-0.726,1.36-1.088,2.222-1.088c0.442,0,0.841,0.082,1.196,0.246
		s0.623,0.374,0.803,0.629c0.18,0.256,0.303,0.538,0.369,0.848c0.066,0.311,0.099,0.791,0.099,1.443v4.258h-1.921v-3.834
		c0-0.762-0.037-1.244-0.109-1.449c-0.072-0.205-0.202-0.368-0.386-0.489c-0.185-0.12-0.416-0.181-0.694-0.181
		c-0.319,0-0.604,0.076-0.854,0.231s-0.434,0.39-0.55,0.7c-0.116,0.312-0.174,0.773-0.174,1.385v3.637h-1.921v-10.021
		L117.729,107.207L117.729,107.207z"/>
	<path fill="#F5F5F5" d="M125.803,112.184l-1.743-0.313c0.196-0.702,0.533-1.222,1.012-1.56c0.479-0.336,1.189-0.506,2.133-0.506
		c0.857,0,1.495,0.103,1.914,0.305c0.419,0.203,0.714,0.461,0.885,0.771c0.171,0.312,0.256,0.887,0.256,1.721l-0.021,2.241
		c0,0.638,0.031,1.108,0.092,1.411c0.062,0.305,0.177,0.628,0.345,0.975h-1.9c-0.05-0.127-0.112-0.315-0.185-0.566
		c-0.032-0.114-0.055-0.189-0.068-0.227c-0.328,0.319-0.679,0.56-1.053,0.719c-0.374,0.158-0.772,0.238-1.196,0.238
		c-0.748,0-1.336-0.203-1.767-0.607c-0.431-0.405-0.646-0.918-0.646-1.538c0-0.41,0.098-0.774,0.294-1.099
		c0.196-0.319,0.471-0.565,0.824-0.737c0.353-0.17,0.862-0.319,1.528-0.447c0.898-0.169,1.52-0.325,1.866-0.472V112.3
		c0-0.368-0.091-0.632-0.273-0.79c-0.182-0.156-0.526-0.234-1.032-0.234c-0.342,0-0.608,0.066-0.8,0.201
		C126.076,111.609,125.921,111.848,125.803,112.184z M128.373,113.742c-0.246,0.082-0.636,0.18-1.169,0.294
		c-0.533,0.114-0.882,0.226-1.046,0.335c-0.25,0.178-0.376,0.402-0.376,0.677c0,0.269,0.1,0.501,0.301,0.697
		s0.456,0.294,0.766,0.294c0.346,0,0.677-0.114,0.991-0.342c0.232-0.174,0.385-0.385,0.458-0.637
		c0.05-0.164,0.075-0.477,0.075-0.937V113.742z"/>
	<path fill="#F5F5F5" d="M132.153,117.229v-10.021h1.921v10.021H132.153z"/>
	<path fill="#F5F5F5" d="M136.043,108.984v-1.777h1.921v1.777H136.043z M136.043,117.229v-7.26h1.921v7.26H136.043z"/>
	<path fill="#F5F5F5" d="M139.851,117.229v-10.021h1.921v3.608c0.592-0.674,1.294-1.012,2.105-1.012c0.884,0,1.616,0.32,2.194,0.961
		c0.579,0.641,0.868,1.561,0.868,2.758c0,1.24-0.295,2.194-0.885,2.865c-0.59,0.67-1.307,1.004-2.15,1.004
		c-0.415,0-0.824-0.104-1.227-0.311c-0.403-0.208-0.751-0.516-1.042-0.92v1.066H139.851L139.851,117.229z M141.758,113.441
		c0,0.752,0.119,1.308,0.355,1.668c0.333,0.511,0.775,0.766,1.326,0.766c0.424,0,0.785-0.182,1.083-0.543
		c0.298-0.363,0.448-0.934,0.448-1.713c0-0.829-0.15-1.428-0.451-1.795c-0.301-0.366-0.686-0.551-1.155-0.551
		c-0.46,0-0.843,0.18-1.148,0.537C141.911,112.169,141.758,112.712,141.758,113.441z"/>
	<path fill="#F5F5F5" d="M153.263,117.229v-1.086c-0.264,0.387-0.612,0.691-1.042,0.916c-0.43,0.224-0.885,0.334-1.364,0.334
		c-0.488,0-0.925-0.106-1.312-0.32c-0.387-0.215-0.667-0.516-0.841-0.902c-0.174-0.387-0.26-0.923-0.26-1.605v-4.594h1.921v3.336
		c0,1.021,0.035,1.646,0.106,1.877c0.071,0.229,0.199,0.412,0.386,0.547c0.187,0.133,0.424,0.201,0.711,0.201
		c0.328,0,0.622-0.091,0.882-0.271c0.26-0.181,0.438-0.404,0.533-0.67c0.096-0.269,0.144-0.921,0.144-1.959v-3.062h1.921v7.26
		h-1.785V117.229z"/>
	<path fill="#F5F5F5" d="M160.365,109.969v1.531h-1.312v2.926c0,0.594,0.013,0.938,0.038,1.035c0.025,0.1,0.082,0.18,0.171,0.243
		c0.089,0.063,0.197,0.096,0.325,0.096c0.178,0,0.435-0.062,0.772-0.185l0.165,1.49c-0.447,0.19-0.954,0.287-1.519,0.287
		c-0.346,0-0.659-0.06-0.937-0.175c-0.278-0.116-0.482-0.268-0.612-0.45c-0.13-0.187-0.22-0.436-0.27-0.75
		c-0.041-0.224-0.062-0.675-0.062-1.354V111.5h-0.882v-1.531h0.882v-1.441l1.928-1.121v2.562H160.365z"/>
	<path fill="#F5F5F5" d="M165.533,109.969h1.791v1.066c0.232-0.364,0.547-0.661,0.943-0.889c0.396-0.229,0.836-0.342,1.318-0.342
		c0.844,0,1.559,0.329,2.146,0.99c0.586,0.661,0.881,1.581,0.881,2.762c0,1.213-0.297,2.154-0.889,2.827s-1.311,1.009-2.152,1.009
		c-0.401,0-0.766-0.08-1.092-0.24c-0.324-0.158-0.668-0.432-1.027-0.819v3.657h-1.921L165.533,109.969L165.533,109.969z
		 M167.434,113.477c0,0.814,0.162,1.418,0.485,1.808c0.323,0.391,0.718,0.585,1.183,0.585c0.447,0,0.818-0.18,1.114-0.536
		c0.296-0.358,0.444-0.944,0.444-1.761c0-0.762-0.152-1.326-0.458-1.695s-0.685-0.554-1.136-0.554c-0.469,0-0.857,0.182-1.168,0.543
		C167.588,112.229,167.434,112.766,167.434,113.477z"/>
	<path fill="#F5F5F5" d="M178.344,114.918l1.914,0.321c-0.246,0.702-0.635,1.235-1.166,1.603c-0.529,0.367-1.195,0.551-1.992,0.551
		c-1.262,0-2.197-0.412-2.803-1.236c-0.479-0.661-0.718-1.495-0.718-2.502c0-1.203,0.313-2.146,0.942-2.827s1.426-1.021,2.387-1.021
		c1.08,0,1.932,0.355,2.557,1.069c0.625,0.713,0.924,1.806,0.896,3.276h-4.812c0.014,0.57,0.169,1.014,0.465,1.33
		c0.297,0.316,0.666,0.476,1.107,0.476c0.301,0,0.554-0.082,0.759-0.246S178.238,115.282,178.344,114.918z M178.453,112.977
		c-0.014-0.556-0.157-0.979-0.432-1.268c-0.272-0.29-0.605-0.436-0.998-0.436c-0.418,0-0.766,0.152-1.039,0.459
		c-0.272,0.306-0.406,0.72-0.402,1.244H178.453L178.453,112.977z"/>
	<path fill="#F5F5F5" d="M183.766,117.229h-1.922v-7.26h1.784v1.032c0.306-0.487,0.58-0.81,0.823-0.964
		c0.244-0.155,0.521-0.232,0.831-0.232c0.438,0,0.858,0.121,1.265,0.362l-0.595,1.675c-0.323-0.21-0.624-0.314-0.902-0.314
		c-0.269,0-0.497,0.074-0.684,0.224c-0.187,0.147-0.334,0.415-0.44,0.804c-0.107,0.387-0.16,1.197-0.16,2.434V117.229
		L183.766,117.229z"/>
	<path fill="#F5F5F5" d="M190.587,115.157l1.929-0.294c0.082,0.373,0.248,0.656,0.498,0.852c0.252,0.193,0.603,0.29,1.053,0.29
		c0.498,0,0.871-0.091,1.121-0.272c0.17-0.129,0.254-0.299,0.254-0.514c0-0.146-0.047-0.267-0.137-0.361
		c-0.097-0.092-0.311-0.176-0.644-0.254c-1.55-0.342-2.531-0.653-2.946-0.937c-0.574-0.392-0.861-0.937-0.861-1.634
		c0-0.629,0.248-1.157,0.746-1.586c0.496-0.43,1.267-0.643,2.311-0.643c0.992,0,1.73,0.161,2.215,0.484
		c0.484,0.322,0.814,0.802,0.998,1.436l-1.812,0.336c-0.076-0.283-0.225-0.5-0.439-0.649c-0.217-0.15-0.525-0.226-0.928-0.226
		c-0.506,0-0.867,0.069-1.086,0.211c-0.146,0.102-0.219,0.23-0.219,0.391c0,0.137,0.062,0.253,0.19,0.349
		c0.173,0.128,0.771,0.308,1.795,0.54c1.022,0.232,1.737,0.518,2.144,0.854c0.4,0.343,0.602,0.818,0.602,1.43
		c0,0.665-0.278,1.236-0.834,1.716c-0.557,0.479-1.379,0.718-2.469,0.718c-0.988,0-1.771-0.199-2.349-0.602
		C191.143,116.391,190.766,115.846,190.587,115.157z"/>
	<path fill="#F5F5F5" d="M202.379,109.969v1.531h-1.312v2.926c0,0.594,0.014,0.938,0.037,1.035c0.025,0.1,0.082,0.18,0.172,0.243
		c0.088,0.063,0.197,0.096,0.324,0.096c0.178,0,0.437-0.062,0.772-0.185l0.164,1.49c-0.446,0.19-0.952,0.287-1.519,0.287
		c-0.347,0-0.658-0.06-0.937-0.175c-0.278-0.116-0.481-0.268-0.61-0.45c-0.132-0.187-0.222-0.436-0.271-0.75
		c-0.041-0.224-0.062-0.675-0.062-1.354V111.5h-0.882v-1.531h0.882v-1.441l1.928-1.121v2.562H202.379z"/>
	<path fill="#F5F5F5" d="M205.146,112.184l-1.742-0.313c0.195-0.702,0.533-1.222,1.012-1.56c0.479-0.336,1.189-0.506,2.133-0.506
		c0.855,0,1.495,0.103,1.914,0.305c0.419,0.203,0.715,0.461,0.885,0.771c0.172,0.312,0.258,0.887,0.258,1.721l-0.021,2.241
		c0,0.638,0.031,1.108,0.092,1.411c0.062,0.305,0.178,0.628,0.346,0.975h-1.899c-0.05-0.127-0.11-0.315-0.185-0.566
		c-0.033-0.114-0.056-0.189-0.068-0.227c-0.328,0.319-0.68,0.56-1.053,0.719c-0.375,0.158-0.772,0.238-1.196,0.238
		c-0.747,0-1.336-0.203-1.769-0.607c-0.43-0.405-0.646-0.918-0.646-1.538c0-0.41,0.099-0.774,0.294-1.099
		c0.195-0.319,0.471-0.565,0.824-0.737c0.354-0.17,0.861-0.319,1.527-0.447c0.896-0.169,1.52-0.325,1.865-0.472V112.3
		c0-0.368-0.091-0.632-0.273-0.79c-0.182-0.156-0.525-0.234-1.031-0.234c-0.342,0-0.607,0.066-0.801,0.201
		C205.421,111.609,205.266,111.848,205.146,112.184z M207.718,113.742c-0.245,0.082-0.636,0.18-1.169,0.294
		s-0.882,0.226-1.046,0.335c-0.251,0.178-0.376,0.402-0.376,0.677c0,0.269,0.102,0.501,0.301,0.697
		c0.2,0.196,0.456,0.294,0.766,0.294c0.348,0,0.678-0.114,0.992-0.342c0.231-0.174,0.385-0.385,0.457-0.637
		c0.051-0.164,0.075-0.477,0.075-0.937V113.742L207.718,113.742z"/>
	<path fill="#F5F5F5" d="M214.827,109.969v1.531h-1.312v2.926c0,0.594,0.012,0.938,0.036,1.035c0.025,0.1,0.082,0.18,0.173,0.243
		c0.088,0.063,0.195,0.096,0.323,0.096c0.179,0,0.437-0.062,0.772-0.185l0.164,1.49c-0.446,0.19-0.952,0.287-1.519,0.287
		c-0.347,0-0.657-0.06-0.937-0.175c-0.278-0.116-0.482-0.268-0.611-0.45c-0.131-0.187-0.221-0.436-0.271-0.75
		c-0.041-0.224-0.062-0.675-0.062-1.354V111.5h-0.882v-1.531h0.882v-1.441l1.929-1.121v2.562H214.827z"/>
	<path fill="#F5F5F5" d="M216.16,108.984v-1.777h1.921v1.777H216.16z M216.16,117.229v-7.26h1.921v7.26H216.16z"/>
	<path fill="#F5F5F5" d="M219.605,113.496c0-0.639,0.156-1.256,0.472-1.854c0.315-0.597,0.76-1.053,1.337-1.367
		c0.576-0.313,1.22-0.471,1.932-0.471c1.098,0,1.997,0.355,2.699,1.069c0.702,0.713,1.053,1.614,1.053,2.703
		c0,1.099-0.354,2.009-1.062,2.729c-0.709,0.724-1.603,1.084-2.677,1.084c-0.666,0-1.301-0.149-1.903-0.451
		c-0.604-0.301-1.063-0.741-1.378-1.321C219.764,115.037,219.605,114.33,219.605,113.496z M221.574,113.6
		c0,0.719,0.171,1.271,0.513,1.653c0.343,0.383,0.765,0.574,1.265,0.574c0.502,0,0.922-0.191,1.262-0.574s0.51-0.938,0.51-1.668
		c0-0.711-0.17-1.258-0.51-1.642c-0.34-0.383-0.76-0.573-1.262-0.573c-0.5,0-0.922,0.19-1.265,0.573
		C221.745,112.327,221.574,112.879,221.574,113.6z"/>
	<path fill="#F5F5F5" d="M235.205,117.229h-1.921v-3.705c0-0.783-0.041-1.291-0.123-1.521s-0.216-0.407-0.399-0.536
		c-0.185-0.128-0.406-0.191-0.666-0.191c-0.334,0-0.632,0.092-0.896,0.273c-0.266,0.182-0.445,0.424-0.545,0.725
		c-0.098,0.302-0.146,0.856-0.146,1.668v3.289h-1.921v-7.261h1.784v1.066c0.634-0.82,1.431-1.229,2.394-1.229
		c0.424,0,0.812,0.075,1.161,0.229c0.351,0.152,0.616,0.348,0.798,0.585c0.18,0.237,0.305,0.506,0.375,0.807
		c0.07,0.302,0.105,0.731,0.105,1.292V117.229z"/>
</g>
<g enable-background="new    ">
	<path fill="#F5F5F5" d="M12.073,197.402v-5.401h-0.932v-0.819h0.932v-0.662c0-0.418,0.037-0.729,0.111-0.933
		c0.102-0.272,0.28-0.495,0.536-0.665c0.256-0.17,0.614-0.255,1.075-0.255c0.297,0,0.625,0.035,0.984,0.104l-0.158,0.92
		c-0.219-0.039-0.426-0.059-0.621-0.059c-0.32,0-0.547,0.068-0.68,0.205c-0.133,0.137-0.199,0.393-0.199,0.768v0.574h1.213V192
		h-1.213v5.402H12.073L12.073,197.402z"/>
	<path fill="#F5F5F5" d="M19.415,195.398l1.09,0.136c-0.172,0.637-0.49,1.131-0.955,1.481c-0.465,0.352-1.059,0.527-1.781,0.527
		c-0.91,0-1.632-0.279-2.165-0.841s-0.8-1.347-0.8-2.358c0-1.047,0.27-1.859,0.809-2.438c0.539-0.579,1.238-0.867,2.098-0.867
		c0.832,0,1.512,0.283,2.039,0.85c0.527,0.567,0.791,1.363,0.791,2.391c0,0.062-0.002,0.156-0.006,0.281h-4.641
		c0.039,0.685,0.232,1.207,0.58,1.57c0.348,0.363,0.781,0.545,1.301,0.545c0.387,0,0.717-0.102,0.99-0.305
		S19.255,195.846,19.415,195.398z M15.952,193.693h3.475c-0.047-0.522-0.18-0.916-0.398-1.178c-0.336-0.406-0.771-0.608-1.307-0.608
		c-0.484,0-0.892,0.161-1.222,0.485S15.987,193.15,15.952,193.693z"/>
	<path fill="#F5F5F5" d="M22.978,197.402l-1.904-6.223h1.09l0.99,3.592l0.369,1.336c0.016-0.065,0.123-0.494,0.322-1.282l0.99-3.646
		h1.084l0.932,3.609l0.311,1.189l0.357-1.201l1.066-3.599h1.025l-1.945,6.224h-1.096l-0.99-3.728l-0.24-1.062l-1.26,4.787h-1.101
		V197.402z"/>
	<path fill="#F5F5F5" d="M34.755,195.398l1.09,0.136c-0.172,0.637-0.49,1.131-0.955,1.481c-0.465,0.352-1.059,0.527-1.781,0.527
		c-0.91,0-1.632-0.279-2.165-0.841c-0.533-0.562-0.8-1.347-0.8-2.358c0-1.047,0.27-1.859,0.809-2.438
		c0.539-0.579,1.238-0.867,2.098-0.867c0.832,0,1.512,0.283,2.039,0.85c0.527,0.567,0.791,1.363,0.791,2.391
		c0,0.062-0.002,0.156-0.006,0.281h-4.641c0.039,0.685,0.232,1.207,0.58,1.57s0.781,0.545,1.301,0.545
		c0.387,0,0.717-0.102,0.99-0.305S34.595,195.846,34.755,195.398z M31.292,193.693h3.475c-0.047-0.522-0.18-0.916-0.398-1.178
		c-0.336-0.406-0.771-0.608-1.307-0.608c-0.484,0-0.892,0.161-1.222,0.485S31.327,193.15,31.292,193.693z"/>
	<path fill="#F5F5F5" d="M37.157,197.402v-6.223h0.949v0.943c0.242-0.441,0.466-0.732,0.671-0.873s0.431-0.211,0.677-0.211
		c0.355,0,0.717,0.113,1.084,0.34l-0.363,0.979c-0.258-0.151-0.516-0.229-0.773-0.229c-0.23,0-0.438,0.068-0.621,0.208
		c-0.183,0.14-0.314,0.331-0.393,0.577c-0.117,0.375-0.176,0.785-0.176,1.23v3.258H37.157L37.157,197.402z"/>
</g>
<use xlink:href="#Arrow_25"  width="45.718" height="26.281" id="XMLID_2_" x="-22.859" y="-13.141" transform="matrix(0.405 0 0 -0.4985 209.7832 197.2861)" overflow="visible"/>
<line fill="none" stroke="#F5F5F5" stroke-width="1.6" stroke-miterlimit="10" x1="209.783" y1="195.275" x2="47.489" y2="195.145"/>
<g enable-background="new    ">
	<path fill="#F5F5F5" d="M226.291,198.145v-6.224h0.943v0.873c0.195-0.306,0.455-0.55,0.779-0.735
		c0.323-0.185,0.692-0.277,1.106-0.277c0.461,0,0.839,0.096,1.134,0.287c0.295,0.19,0.503,0.459,0.624,0.803
		c0.492-0.727,1.133-1.09,1.922-1.09c0.617,0,1.093,0.171,1.425,0.513s0.498,0.868,0.498,1.579v4.271h-1.05v-3.92
		c0-0.423-0.034-0.727-0.103-0.912c-0.069-0.185-0.192-0.334-0.372-0.447c-0.181-0.113-0.392-0.17-0.634-0.17
		c-0.438,0-0.801,0.146-1.09,0.437s-0.434,0.757-0.434,1.397v3.615h-1.055v-4.043c0-0.47-0.086-0.82-0.258-1.056
		s-0.453-0.353-0.845-0.353c-0.297,0-0.571,0.078-0.823,0.234s-0.435,0.385-0.547,0.686c-0.113,0.302-0.171,0.734-0.171,1.302v3.229
		H226.291z"/>
	<path fill="#F5F5F5" d="M235.895,195.032c0-1.152,0.32-2.007,0.961-2.562c0.535-0.461,1.188-0.691,1.957-0.691
		c0.855,0,1.556,0.281,2.099,0.842s0.813,1.335,0.813,2.322c0,0.802-0.119,1.432-0.359,1.891s-0.59,0.814-1.049,1.068
		c-0.459,0.255-0.961,0.382-1.504,0.382c-0.871,0-1.574-0.279-2.111-0.839C236.164,196.887,235.895,196.083,235.895,195.032z
		 M236.979,195.032c0,0.797,0.174,1.394,0.521,1.79c0.348,0.396,0.785,0.595,1.312,0.595c0.522,0,0.959-0.199,1.307-0.599
		c0.348-0.398,0.521-1.006,0.521-1.821c0-0.771-0.176-1.353-0.524-1.749s-0.784-0.596-1.304-0.596c-0.527,0-0.965,0.197-1.312,0.593
		S236.979,194.234,236.979,195.032z"/>
	<path fill="#F5F5F5" d="M242.949,198.145v-6.224h0.949v0.942c0.242-0.44,0.466-0.731,0.67-0.872
		c0.205-0.142,0.432-0.212,0.678-0.212c0.355,0,0.717,0.113,1.084,0.341l-0.363,0.979c-0.258-0.152-0.516-0.229-0.773-0.229
		c-0.229,0-0.438,0.069-0.62,0.208s-0.314,0.331-0.394,0.576c-0.117,0.375-0.176,0.785-0.176,1.23v3.258h-1.055V198.145z"/>
	<path fill="#F5F5F5" d="M251.217,196.141l1.09,0.135c-0.172,0.637-0.49,1.131-0.955,1.481s-1.059,0.527-1.781,0.527
		c-0.909,0-1.631-0.28-2.164-0.841c-0.533-0.562-0.801-1.348-0.801-2.358c0-1.047,0.271-1.858,0.81-2.438
		c0.539-0.578,1.237-0.867,2.099-0.867c0.832,0,1.512,0.283,2.038,0.851c0.527,0.567,0.791,1.363,0.791,2.392
		c0,0.062-0.002,0.155-0.006,0.28h-4.642c0.039,0.685,0.232,1.207,0.58,1.57c0.349,0.362,0.781,0.545,1.302,0.545
		c0.387,0,0.717-0.103,0.989-0.306C250.84,196.909,251.057,196.585,251.217,196.141z M247.754,194.436h3.475
		c-0.047-0.523-0.18-0.916-0.397-1.179c-0.336-0.405-0.771-0.608-1.308-0.608c-0.483,0-0.892,0.162-1.222,0.485
		C247.973,193.458,247.789,193.893,247.754,194.436z"/>
</g>
<g>
	<g>
		<path fill="#C6C6C5" d="M34.911,175.592c-0.021,0.381-0.555,0.381-0.575,0C34.315,175.211,34.89,175.216,34.911,175.592
			c0.104,1.924,3.104,1.934,3,0c-0.1-1.855-1.432-3.188-3.287-3.287c-1.852-0.1-3.196,1.581-3.288,3.287
			c-0.1,1.854,1.582,3.195,3.288,3.287c1.852,0.1,3.195-1.581,3.287-3.287C38.015,173.658,35.014,173.668,34.911,175.592z"/>
	</g>
	<g>
		<path fill="#C6C6C5" d="M60.044,173.802c-0.157,2.921-4.371,2.921-4.528,0C55.358,170.879,59.887,170.895,60.044,173.802
			c0.104,1.925,3.104,1.935,3,0c-0.16-2.975-2.29-5.104-5.265-5.265c-2.968-0.16-5.116,2.529-5.264,5.265
			c-0.16,2.968,2.53,5.116,5.264,5.265c2.968,0.16,5.117-2.523,5.265-5.265C63.148,171.868,60.147,171.878,60.044,173.802z"/>
	</g>
	<g>
		<path fill="#C6C6C5" d="M96.25,168.788c-0.505,9.38-14.05,9.38-14.555,0C81.19,159.402,95.748,159.453,96.25,168.788
			c0.104,1.924,3.104,1.935,3,0c-0.313-5.815-4.462-9.964-10.277-10.277c-5.804-0.312-9.99,4.933-10.278,10.277
			c-0.312,5.805,4.932,9.989,10.278,10.276c5.804,0.312,9.99-4.938,10.277-10.276C99.354,166.854,96.354,166.863,96.25,168.788z"/>
	</g>
	<g>
		<path fill="#C6C6C5" d="M193.834,160.093c-0.32,9.074-7.151,15.908-16.227,16.228c-9.07,0.325-15.926-7.629-16.229-16.228
			c-0.317-9.069,7.631-15.923,16.229-16.225C186.678,143.549,193.532,151.497,193.834,160.093c0.062,1.766,2.81,1.773,2.747,0
			c-0.373-10.602-8.371-18.599-18.974-18.972c-10.595-0.373-18.62,8.931-18.975,18.972c-0.373,10.597,8.934,18.62,18.975,18.975
			c10.596,0.372,18.619-8.935,18.974-18.975C196.644,158.32,193.896,158.327,193.834,160.093z"/>
	</g>
	<g>
		<path fill="#C6C6C5" d="M258.322,154.927c-0.303,11.972-9.578,21.249-21.55,21.552c-11.97,0.306-21.26-10.036-21.556-21.552
			c-0.306-11.97,10.042-21.257,21.556-21.548C248.743,133.075,258.031,143.413,258.322,154.927c0.043,1.666,2.633,1.672,2.59,0
			c-0.339-13.391-10.749-23.798-24.14-24.137c-13.395-0.339-23.812,11.254-24.145,24.137c-0.343,13.391,11.255,23.813,24.145,24.141
			c13.391,0.343,23.812-11.257,24.14-24.141C260.955,153.257,258.365,153.262,258.322,154.927z"/>
	</g>
	<g>
		<path fill="#C6C6C5" d="M139.215,164.908c-0.774,14.379-21.54,14.379-22.314,0c-0.34-6.311,5.343-10.842,11.158-11.155
			C134.368,153.413,138.901,159.094,139.215,164.908c0.104,1.924,3.104,1.934,3,0c-0.982-18.232-27.332-18.232-28.314,0
			c-0.431,8,6.792,13.761,14.158,14.156c7.999,0.432,13.76-6.791,14.156-14.156C142.319,162.975,139.318,162.984,139.215,164.908z"
			/>
	</g>
	<g>
		<path fill="#C6C6C5" d="M14.512,176.878c-0.013,0.232-0.338,0.232-0.35,0C14.149,176.646,14.499,176.649,14.512,176.878
			c0.063,1.172,1.891,1.178,1.828,0c-0.061-1.13-0.873-1.941-2.002-2.002c-1.128-0.061-1.946,0.963-2.002,2.002
			c-0.061,1.13,0.963,1.946,2.002,2.003c1.128,0.061,1.946-0.963,2.002-2.003C16.402,175.7,14.575,175.707,14.512,176.878z"/>
	</g>
</g>
<g>
</g>
<g>
</g>
<g>
</g>
</svg>
