<?xml version="1.0" encoding="utf-8"?>
<!-- Generator: Adobe Illustrator 16.0.4, SVG Export Plug-In . SVG Version: 6.00 Build 0)  -->
<!DOCTYPE svg PUBLIC "-//W3C//DTD SVG 1.1//EN" "http://www.w3.org/Graphics/SVG/1.1/DTD/svg11.dtd">
<svg version="1.1" id="Layer_1" xmlns="http://www.w3.org/2000/svg" xmlns:xlink="http://www.w3.org/1999/xlink" x="0px" y="0px"
	 width="320px" height="210px" viewBox="0 0 320 210" enable-background="new 0 0 320 210" xml:space="preserve">
<symbol  id="Arrow_25" viewBox="-22.859 -13.141 45.718 26.281">
	<polygon fill="none" points="-22.859,-13.141 22.859,-13.141 22.859,13.141 -22.859,13.141 	"/>
	<g>
		<polygon fill="#F5F5F5" points="-5.512,2.214 8.487,2.214 8.487,-3.877 22.405,4.15 8.487,12.172 8.487,6.085 -5.512,6.085 		"/>
	</g>
</symbol>
<g>
	<g>
		<path fill="#C6C6C5" d="M24.465,161.411c-0.449,8.335-12.486,8.335-12.935,0C11.081,153.07,24.019,153.113,24.465,161.411
			c0.104,1.924,3.104,1.935,3,0c-0.289-5.356-4.111-9.179-9.467-9.468c-5.346-0.289-9.203,4.545-9.468,9.468
			c-0.288,5.346,4.545,9.202,9.468,9.467c5.345,0.288,9.202-4.544,9.467-9.467C27.569,159.477,24.569,159.486,24.465,161.411z"/>
	</g>
</g>
<g enable-background="new    ">
	<path fill="#F5F5F5" stroke="#F5F5F5" stroke-width="0.5" stroke-miterlimit="10" d="M33.919,160.682
		c0-1.016,0.104-1.832,0.313-2.451s0.52-1.098,0.932-1.434s0.931-0.504,1.556-0.504c0.461,0,0.865,0.094,1.213,0.277
		c0.348,0.186,0.635,0.453,0.861,0.804s0.404,0.774,0.533,1.276s0.193,1.18,0.193,2.029c0,1.01-0.104,1.819-0.311,2.438
		c-0.207,0.616-0.517,1.098-0.929,1.438c-0.412,0.338-0.933,0.508-1.562,0.508c-0.828,0-1.479-0.297-1.951-0.895
		C34.202,163.459,33.919,162.295,33.919,160.682z M35.003,160.682c0,1.41,0.165,2.353,0.495,2.815s0.737,0.7,1.222,0.7
		c0.485,0,0.892-0.234,1.222-0.703s0.495-1.406,0.495-2.812c0-1.414-0.165-2.354-0.495-2.815s-0.741-0.696-1.233-0.696
		c-0.484,0-0.871,0.205-1.16,0.614C35.185,158.305,35.003,159.271,35.003,160.682z"/>
	<path fill="#F5F5F5" stroke="#F5F5F5" stroke-width="0.5" stroke-miterlimit="10" d="M40.792,158.391
		c0-0.613,0.154-1.135,0.463-1.562s0.756-0.646,1.342-0.646c0.539,0,0.985,0.19,1.339,0.575c0.354,0.388,0.53,0.95,0.53,1.696
		c0,0.729-0.179,1.286-0.536,1.679c-0.357,0.396-0.798,0.591-1.321,0.591c-0.52,0-0.952-0.191-1.298-0.578
		C40.965,159.757,40.792,159.172,40.792,158.391z M42.626,156.908c-0.262,0-0.479,0.113-0.653,0.34
		c-0.174,0.227-0.261,0.643-0.261,1.248c0,0.551,0.088,0.938,0.264,1.162c0.176,0.226,0.393,0.338,0.65,0.338
		c0.266,0,0.485-0.113,0.659-0.34c0.174-0.229,0.261-0.643,0.261-1.242c0-0.555-0.088-0.943-0.264-1.169
		C43.106,157.02,42.888,156.908,42.626,156.908z M42.632,165.234l4.699-9.055h0.855l-4.682,9.055H42.632L42.632,165.234z
		 M46.347,162.902c0-0.617,0.154-1.144,0.463-1.567s0.758-0.642,1.348-0.642c0.539,0,0.985,0.188,1.339,0.576
		c0.354,0.385,0.53,0.947,0.53,1.693c0,0.729-0.179,1.286-0.536,1.682c-0.357,0.394-0.8,0.59-1.327,0.59
		c-0.52,0-0.952-0.194-1.298-0.584C46.52,164.262,46.347,163.68,46.347,162.902z M48.187,161.42c-0.266,0-0.485,0.113-0.659,0.34
		c-0.174,0.227-0.261,0.643-0.261,1.248c0,0.547,0.088,0.934,0.264,1.16c0.176,0.227,0.393,0.34,0.65,0.34
		c0.27,0,0.491-0.113,0.665-0.34c0.174-0.227,0.261-0.641,0.261-1.242c0-0.555-0.088-0.943-0.264-1.169
		C48.667,161.531,48.448,161.42,48.187,161.42z"/>
	<path fill="#F5F5F5" stroke="#F5F5F5" stroke-width="0.5" stroke-miterlimit="10" d="M54.497,161.807
		c0-1.152,0.32-2.006,0.961-2.561c0.535-0.461,1.188-0.691,1.957-0.691c0.855,0,1.555,0.28,2.098,0.842
		c0.543,0.562,0.814,1.334,0.814,2.322c0,0.801-0.12,1.432-0.36,1.891c-0.24,0.459-0.59,0.814-1.049,1.068s-0.96,0.381-1.503,0.381
		c-0.871,0-1.575-0.279-2.112-0.838C54.766,163.662,54.497,162.857,54.497,161.807z M55.581,161.807
		c0,0.797,0.174,1.396,0.521,1.791c0.347,0.396,0.785,0.594,1.312,0.594c0.523,0,0.959-0.196,1.307-0.598
		c0.348-0.398,0.521-1.006,0.521-1.822c0-0.77-0.175-1.353-0.524-1.748c-0.349-0.396-0.784-0.596-1.304-0.596
		c-0.527,0-0.965,0.197-1.312,0.592C55.755,160.415,55.581,161.01,55.581,161.807z"/>
	<path fill="#F5F5F5" stroke="#F5F5F5" stroke-width="0.5" stroke-miterlimit="10" d="M61.552,164.918v-6.223h0.949v0.939
		c0.242-0.438,0.466-0.729,0.671-0.871s0.431-0.213,0.677-0.213c0.355,0,0.717,0.113,1.084,0.344l-0.363,0.979
		c-0.258-0.152-0.516-0.229-0.773-0.229c-0.23,0-0.438,0.065-0.621,0.207c-0.183,0.139-0.314,0.332-0.393,0.574
		c-0.117,0.375-0.176,0.785-0.176,1.229v3.26L61.552,164.918L61.552,164.918z"/>
	<path fill="#F5F5F5" stroke="#F5F5F5" stroke-width="0.5" stroke-miterlimit="10" d="M74.665,156.328h1.137v4.963
		c0,0.863-0.098,1.549-0.293,2.057c-0.195,0.508-0.548,0.922-1.058,1.239c-0.51,0.317-1.179,0.478-2.007,0.478
		c-0.805,0-1.463-0.139-1.975-0.416c-0.512-0.273-0.877-0.678-1.096-1.203c-0.219-0.522-0.328-1.24-0.328-2.15v-4.964h1.137v4.957
		c0,0.746,0.069,1.296,0.208,1.646c0.139,0.354,0.377,0.627,0.715,0.817s0.751,0.287,1.239,0.287c0.836,0,1.432-0.188,1.787-0.567
		c0.355-0.38,0.533-1.105,0.533-2.188L74.665,156.328L74.665,156.328z"/>
	<path fill="#F5F5F5" stroke="#F5F5F5" stroke-width="0.5" stroke-miterlimit="10" d="M77.56,164.918v-6.223h0.949v0.885
		c0.457-0.684,1.117-1.025,1.98-1.025c0.375,0,0.72,0.067,1.034,0.202c0.314,0.136,0.55,0.312,0.706,0.53
		c0.156,0.218,0.266,0.479,0.328,0.779c0.039,0.191,0.059,0.537,0.059,1.021v3.826h-1.055v-3.785c0-0.43-0.041-0.751-0.123-0.964
		s-0.228-0.383-0.437-0.511c-0.209-0.129-0.454-0.189-0.735-0.189c-0.449,0-0.837,0.146-1.163,0.432
		c-0.326,0.283-0.489,0.824-0.489,1.623v3.396L77.56,164.918L77.56,164.918z"/>
	<path fill="#F5F5F5" stroke="#F5F5F5" stroke-width="0.5" stroke-miterlimit="10" d="M84.239,164.918v-8.59h1.055v4.898
		l2.496-2.531h1.365l-2.379,2.309l2.619,3.914h-1.301l-2.057-3.182l-0.744,0.715v2.467H84.239L84.239,164.918z"/>
	<path fill="#F5F5F5" stroke="#F5F5F5" stroke-width="0.5" stroke-miterlimit="10" d="M90.233,164.918v-6.223h0.949v0.885
		c0.457-0.684,1.117-1.025,1.98-1.025c0.375,0,0.72,0.067,1.034,0.202c0.314,0.136,0.55,0.312,0.706,0.53
		c0.156,0.218,0.266,0.479,0.328,0.779c0.039,0.191,0.059,0.537,0.059,1.021v3.826h-1.055v-3.785c0-0.43-0.041-0.751-0.123-0.964
		s-0.228-0.383-0.437-0.511c-0.209-0.129-0.454-0.189-0.735-0.189c-0.449,0-0.837,0.146-1.163,0.432
		c-0.326,0.283-0.489,0.824-0.489,1.623v3.396L90.233,164.918L90.233,164.918z"/>
	<path fill="#F5F5F5" stroke="#F5F5F5" stroke-width="0.5" stroke-miterlimit="10" d="M96.515,161.807
		c0-1.152,0.32-2.006,0.961-2.561c0.535-0.461,1.188-0.691,1.957-0.691c0.855,0,1.555,0.28,2.098,0.842
		c0.543,0.562,0.814,1.334,0.814,2.322c0,0.801-0.12,1.432-0.36,1.891c-0.24,0.459-0.59,0.814-1.049,1.068s-0.96,0.381-1.503,0.381
		c-0.871,0-1.575-0.279-2.112-0.838C96.784,163.662,96.515,162.857,96.515,161.807z M97.599,161.807
		c0,0.797,0.174,1.396,0.521,1.791c0.347,0.396,0.785,0.594,1.312,0.594c0.523,0,0.959-0.196,1.307-0.598
		c0.348-0.398,0.521-1.006,0.521-1.822c0-0.77-0.175-1.353-0.524-1.748c-0.349-0.396-0.784-0.596-1.304-0.596
		c-0.527,0-0.965,0.197-1.312,0.592C97.773,160.415,97.599,161.01,97.599,161.807z"/>
	<path fill="#F5F5F5" stroke="#F5F5F5" stroke-width="0.5" stroke-miterlimit="10" d="M104.729,164.918l-1.904-6.223h1.09
		l0.99,3.592l0.369,1.336c0.016-0.066,0.123-0.494,0.322-1.283l0.99-3.645h1.084l0.932,3.605l0.311,1.188l0.357-1.199l1.066-3.602
		h1.025l-1.945,6.227h-1.096l-0.99-3.729l-0.24-1.062l-1.26,4.787h-1.101V164.918z"/>
	<path fill="#F5F5F5" stroke="#F5F5F5" stroke-width="0.5" stroke-miterlimit="10" d="M112.247,164.918v-6.223h0.949v0.885
		c0.457-0.684,1.117-1.025,1.98-1.025c0.375,0,0.72,0.067,1.034,0.202c0.314,0.136,0.55,0.312,0.706,0.53
		c0.156,0.218,0.266,0.479,0.328,0.779c0.039,0.191,0.059,0.537,0.059,1.021v3.826h-1.055v-3.785c0-0.43-0.041-0.751-0.123-0.964
		s-0.228-0.383-0.437-0.511c-0.209-0.129-0.454-0.189-0.735-0.189c-0.449,0-0.837,0.146-1.163,0.432
		c-0.326,0.283-0.489,0.824-0.489,1.623v3.396L112.247,164.918L112.247,164.918z"/>
</g>
<g>
	<g>
		<path fill="#88A61B" d="M145.853,187.411c-0.449,8.335-12.486,8.335-12.935,0C132.468,179.07,145.406,179.113,145.853,187.411
			c0.104,1.924,3.104,1.935,3,0c-0.289-5.356-4.111-9.179-9.467-9.468c-5.346-0.289-9.203,4.545-9.468,9.468
			c-0.288,5.346,4.545,9.202,9.468,9.467c5.345,0.288,9.202-4.544,9.467-9.467C148.957,185.477,145.956,185.486,145.853,187.411z"/>
	</g>
</g>
<g enable-background="new    ">
	<path fill="#F5F5F5" stroke="#F5F5F5" stroke-width="0.5" stroke-miterlimit="10" d="M155.307,189.479l1.107-0.094
		c0.082,0.539,0.272,0.944,0.571,1.217c0.299,0.271,0.659,0.406,1.081,0.406c0.508,0,0.938-0.191,1.289-0.574
		s0.527-0.891,0.527-1.521c0-0.604-0.169-1.076-0.507-1.427c-0.338-0.348-0.78-0.521-1.327-0.521c-0.34,0-0.646,0.077-0.92,0.23
		c-0.274,0.154-0.488,0.354-0.645,0.602l-0.99-0.129l0.832-4.412h4.271v1.01h-3.428l-0.463,2.311
		c0.516-0.359,1.057-0.539,1.623-0.539c0.75,0,1.383,0.26,1.898,0.777c0.515,0.521,0.773,1.188,0.773,2.004
		c0,0.777-0.228,1.449-0.68,2.018c-0.551,0.693-1.303,1.043-2.256,1.043c-0.781,0-1.419-0.219-1.913-0.654
		C155.656,190.783,155.377,190.201,155.307,189.479z"/>
	<path fill="#F5F5F5" stroke="#F5F5F5" stroke-width="0.5" stroke-miterlimit="10" d="M165.953,191.729h-1.055v-6.721
		c-0.254,0.242-0.588,0.484-1,0.727c-0.412,0.244-0.781,0.427-1.109,0.545v-1.02c0.59-0.277,1.105-0.613,1.547-1.008
		s0.754-0.777,0.938-1.148h0.685L165.953,191.729L165.953,191.729z"/>
	<path fill="#F5F5F5" stroke="#F5F5F5" stroke-width="0.5" stroke-miterlimit="10" d="M171.871,189.15v-1.062h3.24v1.062H171.871z"
		/>
	<path fill="#F5F5F5" stroke="#F5F5F5" stroke-width="0.5" stroke-miterlimit="10" d="M179.389,184.264v-1.014h5.562v0.82
		c-0.549,0.582-1.09,1.354-1.626,2.318c-0.537,0.967-0.952,1.957-1.245,2.979c-0.211,0.719-0.348,1.506-0.404,2.361h-1.084
		c0.014-0.68,0.146-1.492,0.396-2.449c0.255-0.957,0.619-1.881,1.095-2.771c0.476-0.889,0.979-1.638,1.517-2.246L179.389,184.264
		L179.389,184.264z"/>
	<path fill="#F5F5F5" stroke="#F5F5F5" stroke-width="0.5" stroke-miterlimit="10" d="M185.992,189.479l1.107-0.094
		c0.082,0.539,0.271,0.944,0.566,1.217c0.299,0.271,0.659,0.406,1.081,0.406c0.508,0,0.938-0.191,1.289-0.574
		s0.522-0.891,0.522-1.521c0-0.604-0.168-1.076-0.506-1.427c-0.338-0.348-0.781-0.521-1.328-0.521c-0.34,0-0.646,0.077-0.92,0.23
		c-0.271,0.154-0.484,0.354-0.645,0.602l-0.99-0.129l0.832-4.412h4.271v1.01h-3.428l-0.466,2.311
		c0.519-0.359,1.06-0.539,1.623-0.539c0.75,0,1.386,0.26,1.896,0.777c0.516,0.521,0.771,1.188,0.771,2.004
		c0,0.777-0.229,1.449-0.68,2.018c-0.553,0.693-1.305,1.043-2.258,1.043c-0.779,0-1.42-0.219-1.912-0.654
		C186.333,190.785,186.062,190.201,185.992,189.479z"/>
	<path fill="#F5F5F5" stroke="#F5F5F5" stroke-width="0.5" stroke-miterlimit="10" d="M192.865,185.201
		c0-0.613,0.154-1.135,0.463-1.564c0.309-0.429,0.756-0.645,1.342-0.645c0.539,0,0.984,0.191,1.339,0.576
		c0.354,0.386,0.53,0.951,0.53,1.695c0,0.729-0.18,1.284-0.536,1.68c-0.356,0.394-0.798,0.59-1.321,0.59
		c-0.52,0-0.951-0.193-1.298-0.58C193.038,186.566,192.865,185.982,192.865,185.201z M194.699,183.719
		c-0.262,0-0.479,0.113-0.653,0.34c-0.174,0.229-0.261,0.646-0.261,1.248c0,0.551,0.088,0.938,0.264,1.164
		c0.176,0.225,0.393,0.336,0.65,0.336c0.266,0,0.484-0.113,0.658-0.34c0.175-0.227,0.262-0.641,0.262-1.242
		c0-0.555-0.088-0.94-0.264-1.168C195.18,183.831,194.961,183.719,194.699,183.719z M194.705,192.045l4.699-9.053h0.854
		l-4.682,9.053H194.705z M198.42,189.713c0-0.617,0.154-1.141,0.463-1.566c0.309-0.428,0.758-0.643,1.348-0.643
		c0.539,0,0.985,0.191,1.34,0.577c0.354,0.385,0.529,0.95,0.529,1.696c0,0.727-0.179,1.285-0.535,1.679
		c-0.354,0.394-0.801,0.589-1.328,0.589c-0.52,0-0.947-0.193-1.297-0.583C198.593,191.072,198.42,190.49,198.42,189.713z
		 M200.26,188.23c-0.266,0-0.484,0.11-0.658,0.34c-0.175,0.228-0.262,0.644-0.262,1.248c0,0.547,0.088,0.935,0.264,1.16
		c0.176,0.227,0.396,0.34,0.65,0.34c0.27,0,0.491-0.112,0.665-0.34c0.174-0.229,0.261-0.644,0.261-1.242
		c0-0.555-0.088-0.943-0.264-1.168C200.74,188.343,200.521,188.23,200.26,188.23z"/>
</g>
<g>
	<g>
		<path fill="#D92525" d="M24.465,187.329c-0.449,8.334-12.486,8.334-12.935,0C11.081,178.986,24.019,179.031,24.465,187.329
			c0.104,1.924,3.104,1.935,3,0c-0.289-5.356-4.111-9.181-9.467-9.47c-5.346-0.287-9.203,4.547-9.468,9.47
			c-0.288,5.345,4.545,9.2,9.468,9.466c5.344,0.288,9.202-4.544,9.467-9.466C27.569,185.395,24.569,185.404,24.465,187.329z"/>
	</g>
</g>
<g enable-background="new    ">
	<path fill="#F5F5F5" stroke="#F5F5F5" stroke-width="0.5" stroke-miterlimit="10" d="M37.892,191.245h-1.055v-6.722
		c-0.254,0.242-0.587,0.481-0.999,0.728s-0.782,0.424-1.11,0.545v-1.021c0.59-0.276,1.105-0.612,1.547-1.008
		c0.442-0.396,0.754-0.777,0.938-1.147h0.68L37.892,191.245L37.892,191.245z"/>
	<path fill="#F5F5F5" stroke="#F5F5F5" stroke-width="0.5" stroke-miterlimit="10" d="M43.81,188.667v-1.062h3.24v1.062H43.81z"/>
	<path fill="#F5F5F5" stroke="#F5F5F5" stroke-width="0.5" stroke-miterlimit="10" d="M56.8,190.232v1.014h-5.678
		c-0.008-0.254,0.033-0.498,0.123-0.732c0.145-0.387,0.376-0.768,0.694-1.143s0.778-0.809,1.38-1.301
		c0.934-0.77,1.564-1.373,1.893-1.819s0.492-0.87,0.492-1.269c0-0.418-0.149-0.771-0.448-1.062
		c-0.299-0.284-0.688-0.433-1.169-0.433c-0.508,0-0.914,0.15-1.219,0.457c-0.305,0.307-0.459,0.729-0.463,1.268l-1.084-0.107
		c0.074-0.812,0.354-1.426,0.838-1.853c0.484-0.424,1.135-0.636,1.951-0.636c0.824,0,1.477,0.229,1.957,0.688
		c0.48,0.457,0.721,1.021,0.721,1.697c0,0.346-0.07,0.686-0.211,1.018c-0.141,0.332-0.374,0.682-0.7,1.049s-0.868,0.871-1.626,1.512
		c-0.633,0.531-1.039,0.893-1.219,1.081c-0.18,0.188-0.328,0.38-0.445,0.571H56.8L56.8,190.232z"/>
	<path fill="#F5F5F5" stroke="#F5F5F5" stroke-width="0.5" stroke-miterlimit="10" d="M57.931,188.995l1.107-0.095
		c0.082,0.539,0.272,0.941,0.571,1.217c0.299,0.271,0.659,0.406,1.081,0.406c0.508,0,0.938-0.19,1.289-0.574
		c0.351-0.383,0.527-0.891,0.527-1.522c0-0.603-0.169-1.075-0.507-1.424s-0.78-0.521-1.327-0.521c-0.34,0-0.646,0.076-0.92,0.229
		c-0.274,0.154-0.488,0.354-0.645,0.604l-0.99-0.129l0.832-4.412h4.271v1.009h-3.428l-0.463,2.309
		c0.516-0.358,1.057-0.539,1.623-0.539c0.75,0,1.383,0.261,1.898,0.779s0.773,1.188,0.773,2.004c0,0.776-0.227,1.449-0.68,2.017
		c-0.551,0.694-1.303,1.043-2.256,1.043c-0.781,0-1.419-0.22-1.913-0.656C58.28,190.3,58.001,189.718,57.931,188.995z"/>
	<path fill="#F5F5F5" stroke="#F5F5F5" stroke-width="0.5" stroke-miterlimit="10" d="M64.804,184.718
		c0-0.612,0.154-1.135,0.463-1.563c0.309-0.43,0.756-0.646,1.342-0.646c0.539,0,0.985,0.192,1.339,0.577
		c0.354,0.385,0.53,0.95,0.53,1.695c0,0.728-0.179,1.287-0.536,1.68s-0.798,0.589-1.321,0.589c-0.52,0-0.952-0.192-1.298-0.579
		C64.977,186.083,64.804,185.499,64.804,184.718z M66.638,183.234c-0.262,0-0.479,0.113-0.653,0.34
		c-0.174,0.228-0.261,0.644-0.261,1.248c0,0.552,0.088,0.938,0.264,1.164c0.176,0.225,0.393,0.336,0.65,0.336
		c0.266,0,0.485-0.112,0.659-0.34c0.174-0.229,0.261-0.644,0.261-1.242c0-0.555-0.088-0.943-0.264-1.168
		C67.118,183.348,66.899,183.234,66.638,183.234z M66.644,191.562l4.699-9.057h0.855l-4.682,9.057H66.644L66.644,191.562z
		 M70.358,189.23c0-0.617,0.154-1.144,0.463-1.567c0.309-0.427,0.758-0.642,1.348-0.642c0.539,0,0.985,0.188,1.339,0.576
		c0.354,0.385,0.53,0.947,0.53,1.693c0,0.729-0.179,1.286-0.536,1.682c-0.357,0.393-0.8,0.59-1.327,0.59
		c-0.52,0-0.952-0.195-1.298-0.584C70.531,190.59,70.358,190.007,70.358,189.23z M72.198,187.747c-0.266,0-0.485,0.112-0.659,0.34
		s-0.261,0.644-0.261,1.248c0,0.547,0.088,0.935,0.264,1.16s0.393,0.34,0.65,0.34c0.27,0,0.491-0.112,0.665-0.34
		c0.174-0.228,0.261-0.642,0.261-1.242c0-0.556-0.088-0.944-0.264-1.169S72.46,187.747,72.198,187.747z"/>
</g>
<g>
	<g>
		<path fill="#05A8F2" d="M232.662,161.329c-0.449,8.334-12.485,8.334-12.936,0C219.277,152.986,232.215,153.031,232.662,161.329
			c0.104,1.924,3.104,1.935,3,0c-0.288-5.356-4.11-9.181-9.467-9.47c-5.346-0.287-9.203,4.547-9.469,9.47
			c-0.287,5.345,4.547,9.2,9.469,9.466c5.344,0.288,9.201-4.544,9.467-9.466C235.768,159.395,232.766,159.404,232.662,161.329z"/>
	</g>
</g>
<g enable-background="new    ">
	<path fill="#F5F5F5" stroke="#F5F5F5" stroke-width="0.5" stroke-miterlimit="10" d="M242.188,157.779v-1.014h5.562v0.817
		c-0.547,0.582-1.089,1.354-1.626,2.317c-0.537,0.968-0.952,1.957-1.245,2.979c-0.211,0.722-0.346,1.509-0.402,2.361h-1.084
		c0.012-0.679,0.146-1.492,0.396-2.449s0.615-1.88,1.093-2.771c0.478-0.89,0.979-1.638,1.517-2.246h-4.211V157.779z"/>
	<path fill="#F5F5F5" stroke="#F5F5F5" stroke-width="0.5" stroke-miterlimit="10" d="M254.264,158.759l-1.05,0.082
		c-0.094-0.414-0.228-0.715-0.397-0.901c-0.281-0.301-0.637-0.451-1.055-0.451c-0.337,0-0.632,0.097-0.886,0.281
		c-0.332,0.242-0.594,0.599-0.785,1.062c-0.19,0.465-0.291,1.127-0.299,1.984c0.254-0.387,0.563-0.674,0.933-0.859
		c0.367-0.188,0.752-0.281,1.153-0.281c0.703,0,1.302,0.262,1.796,0.775c0.494,0.518,0.741,1.188,0.741,2.008
		c0,0.539-0.116,1.04-0.349,1.503c-0.233,0.463-0.553,0.815-0.959,1.062c-0.405,0.246-0.867,0.369-1.383,0.369
		c-0.879,0-1.6-0.324-2.149-0.971c-0.554-0.646-0.832-1.712-0.832-3.195c0-1.66,0.307-2.867,0.92-3.621
		c0.534-0.653,1.256-0.981,2.162-0.981c0.676,0,1.229,0.188,1.661,0.565C253.918,157.568,254.177,158.091,254.264,158.759z
		 M249.956,162.462c0,0.362,0.077,0.711,0.231,1.043c0.149,0.332,0.369,0.585,0.646,0.759s0.567,0.262,0.873,0.262
		c0.444,0,0.828-0.18,1.147-0.539c0.316-0.356,0.479-0.848,0.479-1.465c0-0.595-0.158-1.062-0.477-1.401
		c-0.315-0.343-0.715-0.515-1.193-0.515s-0.883,0.17-1.213,0.515C250.12,161.46,249.956,161.906,249.956,162.462z"/>
	<path fill="#F5F5F5" stroke="#F5F5F5" stroke-width="0.5" stroke-miterlimit="10" d="M258.682,162.667v-1.062h3.239v1.062H258.682z
		"/>
	<path fill="#F5F5F5" stroke="#F5F5F5" stroke-width="0.5" stroke-miterlimit="10" d="M270.102,165.245h-1.056v-6.722
		c-0.254,0.242-0.587,0.481-0.999,0.728s-0.781,0.424-1.109,0.545v-1.021c0.59-0.276,1.104-0.612,1.547-1.008
		c0.441-0.396,0.754-0.777,0.938-1.147h0.681v8.625H270.102z"/>
	<path fill="#F5F5F5" stroke="#F5F5F5" stroke-width="0.5" stroke-miterlimit="10" d="M272.802,161.009
		c0-1.017,0.104-1.833,0.313-2.452s0.52-1.097,0.932-1.433s0.932-0.504,1.557-0.504c0.461,0,0.864,0.093,1.213,0.278
		c0.352,0.185,0.639,0.453,0.86,0.803c0.226,0.35,0.404,0.775,0.533,1.277s0.192,1.178,0.192,2.026c0,1.011-0.104,1.821-0.312,2.438
		c-0.207,0.619-0.518,1.101-0.929,1.438c-0.412,0.34-0.935,0.51-1.562,0.51c-0.828,0-1.479-0.3-1.951-0.894
		C273.085,163.786,272.802,162.622,272.802,161.009z M273.886,161.009c0,1.41,0.165,2.349,0.495,2.815
		c0.33,0.466,0.737,0.699,1.223,0.699c0.484,0,0.896-0.233,1.226-0.703c0.325-0.469,0.491-1.405,0.491-2.812
		c0-1.414-0.166-2.354-0.491-2.816c-0.33-0.465-0.741-0.695-1.233-0.695c-0.48,0-0.867,0.205-1.156,0.613
		C274.066,158.632,273.886,159.6,273.886,161.009z"/>
	<path fill="#F5F5F5" stroke="#F5F5F5" stroke-width="0.5" stroke-miterlimit="10" d="M279.477,161.009
		c0-1.017,0.104-1.833,0.312-2.452c0.209-0.619,0.52-1.097,0.932-1.433s0.932-0.504,1.557-0.504c0.465,0,0.865,0.093,1.217,0.278
		c0.348,0.185,0.635,0.453,0.857,0.803c0.229,0.35,0.403,0.775,0.532,1.277c0.13,0.502,0.193,1.178,0.193,2.026
		c0,1.011-0.104,1.821-0.312,2.438c-0.207,0.619-0.521,1.101-0.933,1.438c-0.412,0.34-0.937,0.51-1.562,0.51
		c-0.828,0-1.479-0.3-1.951-0.894C279.759,163.786,279.477,162.622,279.477,161.009z M280.561,161.009
		c0,1.41,0.164,2.349,0.494,2.815c0.33,0.466,0.737,0.699,1.223,0.699c0.484,0,0.896-0.233,1.226-0.703
		c0.33-0.469,0.495-1.405,0.495-2.812c0-1.414-0.165-2.354-0.495-2.816c-0.33-0.465-0.741-0.695-1.229-0.695
		c-0.484,0-0.871,0.205-1.16,0.613C280.741,158.632,280.561,159.6,280.561,161.009z"/>
	<path fill="#F5F5F5" stroke="#F5F5F5" stroke-width="0.5" stroke-miterlimit="10" d="M286.35,158.718
		c0-0.612,0.153-1.135,0.463-1.563c0.312-0.43,0.756-0.646,1.346-0.646c0.535,0,0.98,0.192,1.339,0.577
		c0.354,0.385,0.526,0.95,0.526,1.695c0,0.728-0.18,1.287-0.537,1.68c-0.354,0.393-0.797,0.589-1.316,0.589
		s-0.951-0.192-1.298-0.579C286.521,160.083,286.35,159.499,286.35,158.718z M288.184,157.234c-0.263,0-0.479,0.113-0.654,0.34
		c-0.174,0.228-0.26,0.644-0.26,1.248c0,0.552,0.088,0.938,0.268,1.164c0.176,0.225,0.395,0.336,0.646,0.336
		c0.27,0,0.484-0.112,0.658-0.34c0.174-0.229,0.262-0.644,0.262-1.242c0-0.555-0.088-0.943-0.265-1.168
		C288.663,157.348,288.443,157.234,288.184,157.234z M288.188,165.562l4.699-9.057h0.855l-4.682,9.057H288.188L288.188,165.562z
		 M291.902,163.23c0-0.617,0.154-1.144,0.464-1.567c0.309-0.427,0.758-0.642,1.348-0.642c0.539,0,0.985,0.188,1.339,0.576
		c0.354,0.385,0.53,0.947,0.53,1.693c0,0.729-0.179,1.286-0.536,1.682c-0.357,0.393-0.8,0.59-1.326,0.59
		c-0.521,0-0.953-0.195-1.299-0.584C292.076,164.589,291.902,164.007,291.902,163.23z M293.743,161.747
		c-0.267,0-0.485,0.112-0.659,0.34s-0.261,0.644-0.261,1.248c0,0.547,0.088,0.935,0.264,1.16c0.177,0.226,0.394,0.34,0.649,0.34
		c0.271,0,0.492-0.112,0.666-0.34s0.261-0.642,0.261-1.242c0-0.556-0.088-0.944-0.265-1.169
		C294.223,161.859,294.005,161.747,293.743,161.747z"/>
</g>
<g>
	<g>
		<path fill="#F29F05" d="M146.465,161.245c-0.449,8.336-12.486,8.336-12.935,0C133.081,152.904,146.019,152.947,146.465,161.245
			c0.104,1.924,3.104,1.935,3,0c-0.289-5.356-4.111-9.179-9.467-9.468c-5.346-0.289-9.203,4.545-9.468,9.468
			c-0.288,5.345,4.545,9.202,9.468,9.468c5.345,0.288,9.202-4.546,9.467-9.468C149.569,159.311,146.569,159.32,146.465,161.245z"/>
	</g>
</g>
<g enable-background="new    ">
	<path fill="#F5F5F5" stroke="#F5F5F5" stroke-width="0.5" stroke-miterlimit="10" d="M161.462,164.959v1.014h-5.678
		c-0.008-0.254,0.033-0.498,0.123-0.729c0.145-0.39,0.376-0.771,0.694-1.146s0.778-0.809,1.38-1.301
		c0.934-0.766,1.564-1.372,1.893-1.818c0.329-0.444,0.492-0.871,0.492-1.27c0-0.418-0.149-0.771-0.448-1.059
		c-0.299-0.289-0.688-0.434-1.169-0.434c-0.508,0-0.914,0.152-1.219,0.457c-0.305,0.309-0.459,0.729-0.463,1.27l-1.084-0.111
		c0.074-0.809,0.354-1.426,0.838-1.85c0.484-0.424,1.135-0.637,1.951-0.637c0.824,0,1.477,0.229,1.957,0.688
		c0.48,0.457,0.726,1.021,0.726,1.699c0,0.344-0.07,0.682-0.211,1.014c-0.146,0.332-0.374,0.682-0.7,1.049s-0.868,0.871-1.626,1.512
		c-0.633,0.531-1.039,0.896-1.219,1.082c-0.18,0.188-0.328,0.379-0.445,0.57H161.462L161.462,164.959z"/>
	<path fill="#F5F5F5" stroke="#F5F5F5" stroke-width="0.5" stroke-miterlimit="10" d="M168.064,159.486l-1.049,0.082
		c-0.098-0.414-0.229-0.715-0.397-0.902c-0.285-0.301-0.638-0.451-1.056-0.451c-0.336,0-0.631,0.094-0.889,0.281
		c-0.328,0.242-0.594,0.596-0.781,1.061c-0.19,0.465-0.291,1.127-0.303,1.986c0.258-0.387,0.562-0.674,0.936-0.861
		c0.369-0.187,0.752-0.281,1.154-0.281c0.699,0,1.303,0.263,1.797,0.776c0.494,0.517,0.736,1.187,0.736,2.007
		c0,0.539-0.111,1.041-0.35,1.504c-0.232,0.463-0.555,0.816-0.957,1.062c-0.406,0.246-0.867,0.369-1.387,0.369
		c-0.879,0-1.596-0.323-2.146-0.971c-0.557-0.646-0.832-1.711-0.832-3.195c0-1.66,0.311-2.867,0.92-3.621
		c0.535-0.656,1.26-0.984,2.162-0.984c0.677,0,1.229,0.189,1.661,0.568C167.718,158.295,167.979,158.818,168.064,159.486z
		 M163.759,163.189c0,0.36,0.077,0.711,0.231,1.043s0.369,0.586,0.646,0.76c0.273,0.174,0.564,0.261,0.869,0.261
		c0.445,0,0.828-0.181,1.146-0.539s0.479-0.849,0.479-1.465c0-0.595-0.157-1.062-0.476-1.403c-0.317-0.341-0.717-0.513-1.195-0.513
		s-0.881,0.171-1.213,0.513C163.923,162.188,163.759,162.635,163.759,163.189z"/>
	<path fill="#F5F5F5" stroke="#F5F5F5" stroke-width="0.5" stroke-miterlimit="10" d="M172.482,163.395v-1.061h3.24v1.061H172.482z"
		/>
	<path fill="#F5F5F5" stroke="#F5F5F5" stroke-width="0.5" stroke-miterlimit="10" d="M179.932,163.723l1.106-0.094
		c0.082,0.539,0.272,0.943,0.571,1.217c0.299,0.272,0.658,0.406,1.08,0.406c0.508,0,0.938-0.191,1.289-0.574
		c0.351-0.383,0.523-0.891,0.523-1.523c0-0.602-0.169-1.072-0.507-1.424c-0.338-0.348-0.78-0.521-1.327-0.521
		c-0.34,0-0.646,0.077-0.92,0.231c-0.271,0.15-0.484,0.354-0.646,0.601l-0.987-0.129l0.831-4.412h4.271v1.008h-3.428l-0.463,2.31
		c0.52-0.356,1.057-0.539,1.623-0.539c0.75,0,1.383,0.263,1.896,0.779c0.519,0.521,0.772,1.188,0.772,2.004
		c0,0.776-0.228,1.449-0.681,2.019c-0.551,0.692-1.303,1.043-2.256,1.043c-0.781,0-1.42-0.222-1.914-0.656
		S180.001,164.445,179.932,163.723z"/>
	<path fill="#F5F5F5" stroke="#F5F5F5" stroke-width="0.5" stroke-miterlimit="10" d="M186.604,161.736
		c0-1.02,0.104-1.834,0.313-2.453c0.209-0.618,0.521-1.096,0.933-1.432c0.412-0.338,0.93-0.506,1.555-0.506
		c0.466,0,0.865,0.094,1.218,0.276c0.349,0.188,0.635,0.453,0.856,0.803c0.229,0.353,0.404,0.775,0.533,1.277
		s0.193,1.179,0.193,2.026c0,1.01-0.104,1.822-0.311,2.44c-0.207,0.619-0.521,1.099-0.934,1.437
		c-0.411,0.338-0.936,0.508-1.562,0.508c-0.826,0-1.479-0.299-1.948-0.893C186.889,164.514,186.604,163.35,186.604,161.736z
		 M187.688,161.736c0,1.41,0.166,2.349,0.496,2.812c0.33,0.47,0.736,0.7,1.221,0.7c0.486,0,0.896-0.23,1.227-0.703
		c0.33-0.469,0.495-1.402,0.495-2.812c0-1.414-0.165-2.354-0.495-2.816s-0.736-0.695-1.229-0.695c-0.484,0-0.871,0.203-1.16,0.613
		C187.87,159.359,187.688,160.326,187.688,161.736z"/>
	<path fill="#F5F5F5" stroke="#F5F5F5" stroke-width="0.5" stroke-miterlimit="10" d="M193.479,159.445
		c0-0.613,0.153-1.135,0.463-1.564c0.312-0.429,0.76-0.645,1.346-0.645c0.539,0,0.98,0.188,1.339,0.576
		c0.354,0.385,0.526,0.949,0.526,1.693c0,0.729-0.18,1.286-0.532,1.682c-0.354,0.394-0.802,0.59-1.321,0.59s-0.949-0.193-1.298-0.58
		C193.65,160.811,193.479,160.227,193.479,159.445z M195.312,157.963c-0.267,0-0.479,0.113-0.653,0.34
		c-0.175,0.227-0.261,0.643-0.261,1.248c0,0.551,0.088,0.938,0.264,1.163s0.393,0.337,0.65,0.337c0.266,0,0.48-0.113,0.658-0.34
		c0.174-0.227,0.262-0.641,0.262-1.242c0-0.555-0.088-0.943-0.269-1.169C195.792,158.074,195.573,157.963,195.312,157.963z
		 M195.316,166.289l4.699-9.053h0.854l-4.684,9.053H195.316z M199.032,163.957c0-0.617,0.153-1.141,0.463-1.566
		c0.31-0.427,0.758-0.643,1.348-0.643c0.539,0,0.985,0.191,1.339,0.576c0.354,0.386,0.53,0.951,0.53,1.697
		c0,0.727-0.179,1.285-0.536,1.678c-0.357,0.394-0.8,0.59-1.326,0.59c-0.521,0-0.953-0.193-1.299-0.583
		S199.032,164.734,199.032,163.957z M200.872,162.475c-0.267,0-0.485,0.113-0.659,0.34c-0.174,0.229-0.261,0.646-0.261,1.248
		c0,0.547,0.088,0.938,0.264,1.16c0.177,0.229,0.394,0.34,0.65,0.34c0.271,0,0.491-0.11,0.665-0.34
		c0.174-0.227,0.261-0.641,0.261-1.242c0-0.555-0.088-0.94-0.265-1.168C201.352,162.587,201.134,162.475,200.872,162.475z"/>
</g>
<g enable-background="new    ">
	<path fill="#F5F5F5" stroke="#F5F5F5" stroke-width="0.25" stroke-miterlimit="10" d="M6.999,134.191V124.17h3.247
		c1.23,0,2.033,0.051,2.406,0.15c0.574,0.146,1.055,0.478,1.442,0.979c0.387,0.504,0.581,1.154,0.581,1.952
		c0,0.615-0.112,1.133-0.335,1.552c-0.223,0.42-0.507,0.748-0.851,0.988c-0.344,0.236-0.694,0.396-1.049,0.477
		c-0.483,0.098-1.183,0.146-2.099,0.146H9.022v3.778H6.999L6.999,134.191z M9.022,125.865v2.844h1.107
		c0.797,0,1.331-0.053,1.6-0.157c0.269-0.104,0.479-0.269,0.632-0.491c0.153-0.224,0.229-0.48,0.229-0.776
		c0-0.364-0.107-0.666-0.321-0.902c-0.214-0.233-0.485-0.385-0.813-0.44c-0.242-0.049-0.727-0.07-1.456-0.07H9.022V125.865z"/>
	<path fill="#F5F5F5" stroke="#F5F5F5" stroke-width="0.25" stroke-miterlimit="10" d="M20.527,131.881l1.914,0.321
		c-0.246,0.702-0.635,1.235-1.166,1.603c-0.531,0.367-1.195,0.551-1.993,0.551c-1.262,0-2.197-0.412-2.803-1.233
		c-0.479-0.661-0.718-1.495-0.718-2.502c0-1.203,0.314-2.146,0.943-2.827s1.424-1.021,2.386-1.021c1.08,0,1.932,0.354,2.557,1.068
		c0.625,0.713,0.923,1.807,0.896,3.276h-4.812c0.014,0.569,0.168,1.014,0.465,1.329c0.296,0.314,0.666,0.477,1.107,0.477
		c0.301,0,0.554-0.082,0.759-0.246S20.422,132.245,20.527,131.881z M20.637,129.939c-0.014-0.559-0.157-0.979-0.431-1.271
		c-0.273-0.29-0.606-0.438-0.998-0.438c-0.419,0-0.766,0.152-1.039,0.459c-0.273,0.309-0.408,0.723-0.403,1.244h2.871V129.939z"/>
	<path fill="#F5F5F5" stroke="#F5F5F5" stroke-width="0.25" stroke-miterlimit="10" d="M25.948,134.191h-1.921v-7.26h1.784v1.029
		c0.305-0.484,0.58-0.812,0.824-0.964c0.244-0.155,0.521-0.229,0.831-0.229c0.438,0,0.859,0.121,1.265,0.359l-0.595,1.678
		c-0.324-0.213-0.625-0.314-0.902-0.314c-0.269,0-0.497,0.074-0.684,0.224c-0.187,0.147-0.334,0.415-0.441,0.804
		c-0.107,0.387-0.161,1.197-0.161,2.437V134.191z"/>
	<path fill="#F5F5F5" stroke="#F5F5F5" stroke-width="0.25" stroke-miterlimit="10" d="M35.888,129.078l-1.894,0.342
		c-0.064-0.378-0.208-0.663-0.434-0.854c-0.226-0.191-0.518-0.289-0.878-0.289c-0.479,0-0.86,0.166-1.145,0.496
		c-0.285,0.33-0.427,0.883-0.427,1.656c0,0.859,0.145,1.471,0.434,1.823s0.678,0.533,1.166,0.533c0.365,0,0.663-0.104,0.896-0.312
		c0.232-0.207,0.396-0.562,0.492-1.067l1.887,0.319c-0.196,0.864-0.572,1.521-1.128,1.963c-0.556,0.439-1.301,0.662-2.235,0.662
		c-1.062,0-1.908-0.334-2.54-1.006c-0.632-0.671-0.947-1.599-0.947-2.781c0-1.196,0.317-2.131,0.95-2.799s1.49-1.002,2.57-1.002
		c0.884,0,1.587,0.188,2.109,0.568C35.285,127.719,35.66,128.299,35.888,129.078z"/>
	<path fill="#F5F5F5" stroke="#F5F5F5" stroke-width="0.25" stroke-miterlimit="10" d="M41.548,131.881l1.914,0.321
		c-0.246,0.702-0.635,1.235-1.166,1.603c-0.531,0.367-1.195,0.551-1.993,0.551c-1.262,0-2.197-0.412-2.803-1.233
		c-0.479-0.661-0.718-1.495-0.718-2.502c0-1.203,0.314-2.146,0.943-2.827s1.424-1.021,2.386-1.021c1.08,0,1.932,0.354,2.557,1.068
		c0.625,0.713,0.923,1.807,0.896,3.276h-4.812c0.014,0.569,0.168,1.014,0.465,1.329c0.296,0.314,0.666,0.477,1.107,0.477
		c0.301,0,0.554-0.082,0.759-0.246S41.443,132.245,41.548,131.881z M41.657,129.939c-0.014-0.559-0.157-0.979-0.431-1.271
		c-0.273-0.29-0.606-0.438-0.998-0.438c-0.419,0-0.766,0.152-1.039,0.459c-0.273,0.309-0.408,0.723-0.403,1.244h2.871V129.939z"/>
	<path fill="#F5F5F5" stroke="#F5F5F5" stroke-width="0.25" stroke-miterlimit="10" d="M51.733,134.191h-1.921v-3.705
		c0-0.784-0.041-1.291-0.123-1.521c-0.082-0.229-0.215-0.408-0.4-0.535c-0.185-0.129-0.407-0.188-0.667-0.188
		c-0.333,0-0.631,0.091-0.896,0.271c-0.265,0.184-0.445,0.426-0.543,0.727c-0.098,0.303-0.147,0.854-0.147,1.668v3.287h-1.921v-7.26
		H46.9v1.065c0.633-0.819,1.431-1.229,2.393-1.229c0.424,0,0.811,0.075,1.162,0.229c0.351,0.152,0.616,0.35,0.796,0.585
		s0.305,0.506,0.376,0.808c0.071,0.301,0.106,0.73,0.106,1.293V134.191z"/>
	<path fill="#F5F5F5" stroke="#F5F5F5" stroke-width="0.25" stroke-miterlimit="10" d="M57.011,126.932v1.531h-1.312v2.926
		c0,0.594,0.013,0.938,0.038,1.035c0.025,0.1,0.082,0.18,0.171,0.243c0.089,0.063,0.197,0.097,0.325,0.097
		c0.178,0,0.435-0.062,0.772-0.186l0.164,1.49c-0.447,0.188-0.953,0.287-1.518,0.287c-0.346,0-0.659-0.062-0.937-0.176
		c-0.278-0.115-0.482-0.27-0.612-0.449c-0.13-0.188-0.22-0.438-0.27-0.75c-0.041-0.227-0.062-0.676-0.062-1.354v-3.164h-0.882v-1.53
		h0.882v-1.441l1.928-1.121v2.562H57.011L57.011,126.932z"/>
	<path fill="#F5F5F5" stroke="#F5F5F5" stroke-width="0.25" stroke-miterlimit="10" d="M59.779,129.146l-1.743-0.313
		c0.196-0.702,0.533-1.222,1.012-1.56c0.479-0.336,1.189-0.506,2.133-0.506c0.857,0,1.495,0.103,1.914,0.305
		c0.419,0.203,0.714,0.461,0.885,0.771c0.171,0.312,0.256,0.888,0.256,1.722l-0.021,2.24c0,0.639,0.031,1.108,0.092,1.411
		c0.062,0.306,0.177,0.628,0.345,0.976h-1.9c-0.05-0.127-0.112-0.313-0.185-0.564c-0.032-0.113-0.055-0.188-0.068-0.229
		c-0.328,0.318-0.679,0.562-1.053,0.721c-0.374,0.156-0.772,0.236-1.196,0.236c-0.748,0-1.336-0.203-1.767-0.605
		c-0.431-0.404-0.646-0.918-0.646-1.538c0-0.41,0.098-0.772,0.294-1.101c0.196-0.317,0.471-0.563,0.824-0.735
		c0.353-0.17,0.862-0.317,1.528-0.446c0.898-0.17,1.52-0.324,1.866-0.473v-0.189c0-0.369-0.091-0.635-0.273-0.791
		c-0.182-0.156-0.526-0.233-1.032-0.233c-0.342,0-0.608,0.065-0.8,0.2C60.053,128.572,59.898,128.811,59.779,129.146z
		 M62.35,130.705c-0.246,0.082-0.636,0.18-1.169,0.294c-0.533,0.114-0.882,0.226-1.046,0.335c-0.25,0.178-0.376,0.402-0.376,0.678
		c0,0.271,0.1,0.5,0.301,0.696s0.456,0.294,0.766,0.294c0.346,0,0.677-0.113,0.991-0.342c0.232-0.174,0.385-0.385,0.458-0.637
		c0.05-0.164,0.075-0.479,0.075-0.938V130.705z"/>
	<path fill="#F5F5F5" stroke="#F5F5F5" stroke-width="0.25" stroke-miterlimit="10" d="M65.952,134.67l2.194,0.268
		c0.037,0.254,0.121,0.433,0.253,0.525c0.182,0.137,0.469,0.205,0.861,0.205c0.501,0,0.877-0.075,1.128-0.227
		c0.168-0.104,0.296-0.262,0.383-0.484c0.059-0.159,0.089-0.453,0.089-0.883v-1.061c-0.574,0.782-1.299,1.178-2.174,1.178
		c-0.975,0-1.748-0.412-2.317-1.237c-0.447-0.651-0.67-1.464-0.67-2.435c0-1.22,0.293-2.146,0.878-2.789
		c0.585-0.646,1.313-0.963,2.184-0.963c0.898,0,1.638,0.395,2.222,1.182v-1.018h1.798v6.516c0,0.854-0.071,1.496-0.212,1.92
		c-0.141,0.425-0.339,0.758-0.595,0.998c-0.256,0.242-0.596,0.432-1.022,0.568c-0.426,0.135-0.965,0.201-1.617,0.201
		c-1.23,0-2.103-0.211-2.618-0.632c-0.515-0.422-0.772-0.956-0.772-1.604C65.945,134.839,65.948,134.761,65.952,134.67z
		 M67.668,130.411c0,0.771,0.149,1.334,0.448,1.692c0.298,0.354,0.667,0.535,1.104,0.535c0.469,0,0.866-0.187,1.189-0.553
		c0.324-0.365,0.485-0.911,0.485-1.631c0-0.752-0.155-1.312-0.465-1.676c-0.31-0.363-0.702-0.549-1.176-0.549
		c-0.46,0-0.84,0.182-1.138,0.535C67.817,129.132,67.668,129.678,67.668,130.411z"/>
	<path fill="#F5F5F5" stroke="#F5F5F5" stroke-width="0.25" stroke-miterlimit="10" d="M78.886,131.881l1.914,0.321
		c-0.246,0.702-0.635,1.235-1.166,1.603c-0.531,0.367-1.195,0.551-1.993,0.551c-1.262,0-2.197-0.412-2.803-1.233
		c-0.479-0.661-0.718-1.495-0.718-2.502c0-1.203,0.314-2.146,0.943-2.827s1.424-1.021,2.386-1.021c1.08,0,1.932,0.354,2.557,1.068
		c0.625,0.713,0.923,1.807,0.896,3.276H76.09c0.014,0.569,0.168,1.014,0.465,1.329c0.296,0.314,0.666,0.477,1.107,0.477
		c0.301,0,0.554-0.082,0.759-0.246S78.781,132.245,78.886,131.881z M78.995,129.939c-0.014-0.559-0.157-0.979-0.431-1.271
		c-0.273-0.29-0.606-0.438-0.998-0.438c-0.419,0-0.766,0.152-1.039,0.459c-0.273,0.309-0.408,0.723-0.403,1.244h2.871V129.939z"/>
	<path fill="#F5F5F5" stroke="#F5F5F5" stroke-width="0.25" stroke-miterlimit="10" d="M85.913,130.459
		c0-0.639,0.157-1.256,0.472-1.854c0.315-0.6,0.76-1.056,1.336-1.367c0.576-0.313,1.22-0.471,1.931-0.471
		c1.098,0,1.999,0.354,2.7,1.066c0.702,0.713,1.053,1.614,1.053,2.703c0,1.102-0.354,2.009-1.063,2.729
		c-0.708,0.725-1.601,1.084-2.676,1.084c-0.666,0-1.3-0.147-1.904-0.451c-0.604-0.301-1.063-0.739-1.377-1.319
		C86.07,132,85.913,131.293,85.913,130.459z M87.882,130.562c0,0.719,0.171,1.271,0.513,1.65c0.342,0.385,0.763,0.574,1.265,0.574
		s0.922-0.189,1.261-0.574c0.339-0.383,0.509-0.938,0.509-1.668c0-0.711-0.17-1.258-0.509-1.645c-0.339-0.383-0.76-0.57-1.261-0.57
		s-0.923,0.188-1.265,0.57C88.053,129.29,87.882,129.842,87.882,130.562z"/>
	<path fill="#F5F5F5" stroke="#F5F5F5" stroke-width="0.25" stroke-miterlimit="10" d="M94.068,126.932h1.066v-0.547
		c0-0.609,0.065-1.066,0.195-1.367s0.369-0.545,0.718-0.731c0.349-0.188,0.79-0.283,1.323-0.283c0.547,0,1.083,0.082,1.606,0.246
		l-0.26,1.34c-0.305-0.071-0.599-0.106-0.882-0.106c-0.278,0-0.478,0.062-0.598,0.191c-0.121,0.133-0.181,0.381-0.181,0.749v0.517
		h1.436v1.51h-1.436v5.75h-1.921v-5.752h-1.066V126.932z"/>
	<path fill="#F5F5F5" stroke="#F5F5F5" stroke-width="0.25" stroke-miterlimit="10" d="M105.375,124.17v3.686
		c0.62-0.726,1.36-1.088,2.222-1.088c0.442,0,0.841,0.082,1.196,0.246s0.623,0.375,0.803,0.629c0.18,0.256,0.303,0.539,0.369,0.851
		c0.066,0.312,0.099,0.791,0.099,1.44v4.258h-1.921v-3.834c0-0.762-0.037-1.241-0.109-1.446c-0.072-0.205-0.202-0.368-0.386-0.489
		c-0.185-0.12-0.416-0.181-0.694-0.181c-0.319,0-0.604,0.073-0.854,0.229c-0.25,0.154-0.434,0.389-0.55,0.699
		c-0.116,0.312-0.174,0.773-0.174,1.385v3.637h-1.921V124.17H105.375z"/>
	<path fill="#F5F5F5" stroke="#F5F5F5" stroke-width="0.25" stroke-miterlimit="10" d="M113.448,129.146l-1.743-0.313
		c0.196-0.702,0.533-1.222,1.012-1.56c0.479-0.336,1.189-0.506,2.133-0.506c0.857,0,1.495,0.103,1.914,0.305
		c0.419,0.203,0.714,0.461,0.885,0.771c0.171,0.312,0.256,0.888,0.256,1.722l-0.021,2.24c0,0.639,0.031,1.108,0.092,1.411
		c0.062,0.306,0.177,0.628,0.345,0.976h-1.9c-0.05-0.127-0.112-0.313-0.185-0.564c-0.032-0.113-0.055-0.188-0.068-0.229
		c-0.328,0.318-0.679,0.562-1.053,0.721c-0.374,0.156-0.772,0.236-1.196,0.236c-0.748,0-1.336-0.203-1.767-0.605
		c-0.431-0.404-0.646-0.918-0.646-1.538c0-0.41,0.098-0.772,0.294-1.101c0.196-0.317,0.471-0.563,0.824-0.735
		c0.353-0.17,0.862-0.317,1.528-0.446c0.898-0.17,1.52-0.324,1.866-0.473v-0.189c0-0.369-0.091-0.635-0.273-0.791
		c-0.182-0.156-0.526-0.233-1.032-0.233c-0.342,0-0.608,0.065-0.8,0.2C113.722,128.572,113.567,128.811,113.448,129.146z
		 M116.019,130.705c-0.246,0.082-0.636,0.18-1.169,0.294c-0.533,0.114-0.882,0.226-1.046,0.335c-0.25,0.178-0.376,0.402-0.376,0.678
		c0,0.271,0.1,0.5,0.301,0.696s0.456,0.294,0.766,0.294c0.346,0,0.677-0.113,0.991-0.342c0.232-0.174,0.385-0.385,0.458-0.637
		c0.05-0.164,0.075-0.479,0.075-0.938V130.705z"/>
	<path fill="#F5F5F5" stroke="#F5F5F5" stroke-width="0.25" stroke-miterlimit="10" d="M119.799,134.191V124.17h1.921v10.021
		H119.799L119.799,134.191z"/>
	<path fill="#F5F5F5" stroke="#F5F5F5" stroke-width="0.25" stroke-miterlimit="10" d="M123.688,125.947v-1.777h1.921v1.777H123.688
		z M123.688,134.191v-7.26h1.921v7.26H123.688z"/>
	<path fill="#F5F5F5" stroke="#F5F5F5" stroke-width="0.25" stroke-miterlimit="10" d="M127.496,134.191V124.17h1.921v3.609
		c0.592-0.676,1.294-1.012,2.105-1.012c0.884,0,1.616,0.316,2.194,0.961c0.579,0.639,0.868,1.56,0.868,2.758
		c0,1.238-0.295,2.193-0.885,2.863c-0.59,0.67-1.307,1.006-2.15,1.006c-0.415,0-0.824-0.104-1.227-0.312
		c-0.403-0.208-0.751-0.516-1.042-0.92v1.064h-1.784V134.191z M129.403,130.404c0,0.752,0.119,1.308,0.355,1.668
		c0.333,0.511,0.775,0.766,1.326,0.766c0.424,0,0.785-0.182,1.083-0.543c0.298-0.363,0.448-0.934,0.448-1.713
		c0-0.829-0.15-1.428-0.451-1.795c-0.301-0.366-0.686-0.551-1.155-0.551c-0.46,0-0.843,0.18-1.148,0.537
		C129.556,129.132,129.403,129.675,129.403,130.404z"/>
	<path fill="#F5F5F5" stroke="#F5F5F5" stroke-width="0.25" stroke-miterlimit="10" d="M140.908,134.191v-1.086
		c-0.264,0.387-0.612,0.688-1.042,0.916c-0.43,0.224-0.885,0.334-1.364,0.334c-0.488,0-0.925-0.106-1.312-0.32
		c-0.387-0.215-0.667-0.516-0.841-0.902c-0.174-0.387-0.26-0.923-0.26-1.605v-4.596h1.921v3.336c0,1.021,0.035,1.646,0.106,1.877
		c0.071,0.229,0.199,0.412,0.386,0.547c0.187,0.138,0.424,0.201,0.711,0.201c0.328,0,0.622-0.09,0.882-0.27
		c0.26-0.182,0.438-0.404,0.533-0.67c0.096-0.268,0.144-0.92,0.144-1.959v-3.062h1.921v7.26H140.908L140.908,134.191z"/>
	<path fill="#F5F5F5" stroke="#F5F5F5" stroke-width="0.25" stroke-miterlimit="10" d="M148.011,126.932v1.531h-1.312v2.926
		c0,0.594,0.013,0.938,0.038,1.035c0.025,0.1,0.082,0.18,0.171,0.243c0.089,0.063,0.197,0.097,0.325,0.097
		c0.178,0,0.435-0.062,0.772-0.186l0.164,1.49c-0.447,0.188-0.953,0.287-1.518,0.287c-0.346,0-0.659-0.062-0.937-0.176
		c-0.278-0.115-0.482-0.27-0.612-0.449c-0.13-0.188-0.22-0.438-0.27-0.75c-0.041-0.227-0.062-0.676-0.062-1.354v-3.164h-0.882v-1.53
		h0.882v-1.441l1.928-1.121v2.562H148.011L148.011,126.932z"/>
	<path fill="#F5F5F5" stroke="#F5F5F5" stroke-width="0.25" stroke-miterlimit="10" d="M152.789,130.459
		c0-0.639,0.157-1.256,0.472-1.854c0.315-0.6,0.76-1.056,1.336-1.367c0.576-0.313,1.22-0.471,1.931-0.471
		c1.098,0,1.999,0.354,2.7,1.066c0.702,0.713,1.053,1.614,1.053,2.703c0,1.102-0.354,2.009-1.063,2.729
		c-0.708,0.725-1.601,1.084-2.676,1.084c-0.666,0-1.3-0.147-1.904-0.451c-0.604-0.301-1.063-0.739-1.377-1.319
		C152.946,132,152.789,131.293,152.789,130.459z M154.758,130.562c0,0.719,0.171,1.271,0.513,1.65
		c0.342,0.385,0.763,0.574,1.265,0.574s0.922-0.189,1.261-0.574c0.339-0.383,0.509-0.938,0.509-1.668
		c0-0.711-0.17-1.258-0.509-1.645c-0.339-0.383-0.76-0.57-1.261-0.57s-0.923,0.188-1.265,0.57
		C154.929,129.29,154.758,129.842,154.758,130.562z"/>
	<path fill="#F5F5F5" stroke="#F5F5F5" stroke-width="0.25" stroke-miterlimit="10" d="M163.781,134.191l-2.926-7.26h2.017
		l1.367,3.702l0.396,1.237c0.104-0.312,0.172-0.521,0.198-0.622c0.063-0.205,0.133-0.41,0.205-0.615l1.381-3.702h1.976l-2.885,7.26
		H163.781z"/>
	<path fill="#F5F5F5" stroke="#F5F5F5" stroke-width="0.25" stroke-miterlimit="10" d="M173.775,131.881l1.914,0.321
		c-0.246,0.702-0.635,1.235-1.166,1.603c-0.53,0.367-1.195,0.551-1.992,0.551c-1.262,0-2.197-0.412-2.803-1.233
		c-0.479-0.661-0.723-1.495-0.723-2.502c0-1.203,0.312-2.146,0.943-2.827c0.629-0.682,1.425-1.021,2.386-1.021
		c1.08,0,1.937,0.354,2.562,1.068c0.625,0.713,0.922,1.807,0.896,3.276h-4.812c0.014,0.569,0.168,1.014,0.465,1.329
		c0.296,0.314,0.664,0.477,1.104,0.477c0.305,0,0.557-0.082,0.762-0.246S173.67,132.245,173.775,131.881z M173.885,129.939
		c-0.014-0.559-0.156-0.979-0.431-1.271c-0.272-0.29-0.606-0.438-0.998-0.438c-0.419,0-0.767,0.152-1.039,0.459
		c-0.272,0.309-0.407,0.723-0.403,1.244h2.871V129.939z"/>
	<path fill="#F5F5F5" stroke="#F5F5F5" stroke-width="0.25" stroke-miterlimit="10" d="M179.195,134.191h-1.92v-7.26h1.783v1.029
		c0.307-0.484,0.58-0.812,0.819-0.964c0.244-0.155,0.521-0.229,0.831-0.229c0.438,0,0.854,0.121,1.27,0.359l-0.6,1.678
		c-0.318-0.213-0.624-0.314-0.898-0.314c-0.271,0-0.496,0.074-0.688,0.224c-0.188,0.147-0.334,0.415-0.438,0.804
		c-0.106,0.387-0.162,1.197-0.162,2.437v2.237H179.195L179.195,134.191z"/>
	<path fill="#F5F5F5" stroke="#F5F5F5" stroke-width="0.25" stroke-miterlimit="10" d="M186.217,131.531l1.859-0.227
		c0.06,0.475,0.219,0.838,0.479,1.088c0.26,0.252,0.574,0.377,0.943,0.377c0.396,0,0.73-0.15,1.001-0.451s0.407-0.707,0.407-1.217
		c0-0.484-0.131-0.867-0.391-1.148c-0.264-0.282-0.576-0.424-0.949-0.424c-0.246,0-0.541,0.048-0.883,0.144l0.213-1.565
		c0.52,0.018,0.916-0.1,1.188-0.338c0.271-0.237,0.41-0.558,0.41-0.953c0-0.338-0.102-0.604-0.303-0.808
		c-0.198-0.2-0.467-0.301-0.799-0.301c-0.328,0-0.607,0.114-0.845,0.342c-0.229,0.228-0.373,0.562-0.424,0.998l-1.771-0.301
		c0.123-0.606,0.312-1.091,0.56-1.452c0.249-0.363,0.599-0.646,1.039-0.855c0.442-0.207,0.94-0.311,1.493-0.311
		c0.941,0,1.699,0.301,2.271,0.902c0.472,0.492,0.704,1.048,0.704,1.668c0,0.88-0.479,1.58-1.439,2.104
		c0.574,0.123,1.033,0.398,1.377,0.827c0.347,0.431,0.519,0.945,0.519,1.554c0,0.879-0.319,1.629-0.964,2.248
		s-1.441,0.93-2.396,0.93c-0.908,0-1.66-0.26-2.259-0.779C186.659,133.059,186.312,132.375,186.217,131.531z"/>
	<path fill="#F5F5F5" stroke="#F5F5F5" stroke-width="0.25" stroke-miterlimit="10" d="M200.559,132.406v1.785h-6.729
		c0.068-0.676,0.292-1.313,0.652-1.918c0.363-0.605,1.084-1.404,2.16-2.402c0.865-0.807,1.396-1.354,1.592-1.641
		c0.27-0.396,0.396-0.789,0.396-1.18c0-0.429-0.115-0.758-0.346-0.984c-0.229-0.229-0.549-0.346-0.953-0.346
		c-0.4,0-0.721,0.118-0.957,0.359c-0.236,0.24-0.374,0.646-0.41,1.203l-1.914-0.191c0.114-1.058,0.473-1.812,1.073-2.273
		c0.601-0.459,1.354-0.689,2.256-0.689c0.989,0,1.767,0.268,2.331,0.801c0.564,0.532,0.848,1.195,0.848,1.988
		c0,0.451-0.08,0.881-0.242,1.289c-0.162,0.406-0.418,0.835-0.77,1.281c-0.232,0.295-0.65,0.723-1.258,1.277
		c-0.607,0.553-0.99,0.926-1.152,1.104c-0.16,0.185-0.291,0.356-0.393,0.532L200.559,132.406L200.559,132.406z"/>
	<path fill="#F5F5F5" stroke="#F5F5F5" stroke-width="0.25" stroke-miterlimit="10" d="M206.157,125.947v-1.777h1.921v1.777H206.157
		z M206.157,134.191v-7.26h1.921v7.26H206.157z"/>
	<path fill="#F5F5F5" stroke="#F5F5F5" stroke-width="0.25" stroke-miterlimit="10" d="M216.65,134.191h-1.922v-3.705
		c0-0.784-0.041-1.291-0.123-1.521c-0.082-0.229-0.215-0.408-0.399-0.535c-0.185-0.129-0.406-0.188-0.666-0.188
		c-0.333,0-0.631,0.091-0.896,0.271c-0.27,0.184-0.445,0.426-0.545,0.727c-0.102,0.303-0.146,0.854-0.146,1.668v3.287h-1.921v-7.26
		h1.782v1.065c0.636-0.819,1.433-1.229,2.395-1.229c0.424,0,0.812,0.075,1.162,0.229c0.352,0.152,0.615,0.35,0.797,0.585
		s0.307,0.506,0.375,0.808c0.07,0.301,0.105,0.73,0.105,1.293v4.51h0.002V134.191z"/>
	<path fill="#F5F5F5" stroke="#F5F5F5" stroke-width="0.25" stroke-miterlimit="10" d="M224.93,129.078l-1.895,0.342
		c-0.062-0.378-0.209-0.663-0.434-0.854c-0.229-0.191-0.521-0.287-0.879-0.287c-0.479,0-0.861,0.164-1.146,0.494
		c-0.285,0.332-0.43,0.885-0.43,1.658c0,0.858,0.146,1.471,0.436,1.822s0.68,0.533,1.166,0.533c0.363,0,0.663-0.104,0.896-0.312
		c0.229-0.207,0.396-0.562,0.488-1.068l1.891,0.32c-0.195,0.864-0.571,1.521-1.127,1.961c-0.561,0.441-1.301,0.664-2.235,0.664
		c-1.062,0-1.908-0.336-2.54-1.006c-0.631-0.671-0.946-1.599-0.946-2.781c0-1.196,0.316-2.133,0.95-2.799
		c0.634-0.668,1.49-1.002,2.57-1.002c0.884,0,1.587,0.188,2.109,0.568C224.326,127.719,224.701,128.299,224.93,129.078z"/>
	<path fill="#F5F5F5" stroke="#F5F5F5" stroke-width="0.25" stroke-miterlimit="10" d="M228.299,124.17v3.686
		c0.62-0.726,1.36-1.088,2.223-1.088c0.441,0,0.84,0.082,1.195,0.246s0.623,0.375,0.805,0.629c0.184,0.256,0.307,0.539,0.369,0.851
		c0.064,0.312,0.102,0.791,0.102,1.44v4.258h-1.924v-3.834c0-0.762-0.032-1.241-0.105-1.446c-0.068-0.205-0.199-0.368-0.387-0.489
		c-0.188-0.12-0.415-0.181-0.693-0.181c-0.314,0-0.604,0.073-0.854,0.229c-0.25,0.154-0.438,0.389-0.551,0.699
		c-0.117,0.312-0.176,0.773-0.176,1.385v3.637h-1.922V124.17H228.299z"/>
	<path fill="#F5F5F5" stroke="#F5F5F5" stroke-width="0.25" stroke-miterlimit="10" d="M239.141,131.881l1.914,0.321
		c-0.246,0.702-0.635,1.235-1.166,1.603c-0.529,0.367-1.193,0.551-1.992,0.551c-1.263,0-2.191-0.412-2.803-1.233
		c-0.479-0.661-0.718-1.495-0.718-2.502c0-1.203,0.313-2.146,0.942-2.827c0.63-0.684,1.425-1.021,2.387-1.021
		c1.08,0,1.934,0.354,2.557,1.068c0.625,0.713,0.924,1.807,0.896,3.276h-4.812c0.014,0.569,0.17,1.014,0.465,1.329
		c0.297,0.314,0.666,0.477,1.107,0.477c0.301,0,0.555-0.082,0.759-0.246C238.882,132.511,239.036,132.245,239.141,131.881z
		 M239.25,129.939c-0.014-0.559-0.157-0.979-0.432-1.271c-0.272-0.29-0.605-0.438-0.998-0.438c-0.418,0-0.766,0.152-1.038,0.459
		c-0.273,0.309-0.408,0.723-0.403,1.244h2.871V129.939z"/>
	<path fill="#F5F5F5" stroke="#F5F5F5" stroke-width="0.25" stroke-miterlimit="10" d="M242.046,132.12l1.929-0.294
		c0.082,0.373,0.248,0.656,0.498,0.852c0.252,0.193,0.604,0.29,1.053,0.29c0.498,0,0.871-0.091,1.121-0.272
		c0.17-0.129,0.254-0.299,0.254-0.514c0-0.146-0.047-0.267-0.137-0.361c-0.097-0.092-0.311-0.176-0.644-0.254
		c-1.55-0.342-2.531-0.65-2.946-0.937c-0.574-0.392-0.861-0.937-0.861-1.634c0-0.629,0.248-1.157,0.746-1.586
		c0.496-0.43,1.271-0.643,2.312-0.643c0.99,0,1.729,0.158,2.215,0.481c0.482,0.321,0.812,0.802,0.998,1.438l-1.812,0.336
		c-0.076-0.283-0.226-0.5-0.438-0.649c-0.217-0.149-0.523-0.226-0.928-0.226c-0.508,0-0.867,0.066-1.088,0.211
		c-0.146,0.102-0.219,0.229-0.219,0.391c0,0.137,0.062,0.253,0.188,0.35c0.173,0.127,0.771,0.31,1.795,0.539
		c1.021,0.232,1.735,0.521,2.146,0.854c0.398,0.343,0.604,0.817,0.604,1.43c0,0.665-0.275,1.236-0.834,1.716
		c-0.559,0.48-1.379,0.719-2.471,0.719c-0.986,0-1.771-0.197-2.35-0.603C242.602,133.354,242.225,132.809,242.046,132.12z"/>
</g>
<g enable-background="new    ">
	<path fill="#F5F5F5" stroke="#F5F5F5" stroke-width="0.25" stroke-miterlimit="10" d="M10.255,11.19V2.864H7.281V1.171h7.964v1.693
		h-2.967v8.326H10.255z"/>
	<path fill="#F5F5F5" stroke="#F5F5F5" stroke-width="0.25" stroke-miterlimit="10" d="M15.054,7.458
		c0-0.639,0.157-1.256,0.472-1.854s0.76-1.054,1.336-1.367c0.576-0.313,1.22-0.471,1.931-0.471c1.098,0,1.999,0.354,2.7,1.068
		c0.702,0.713,1.053,1.613,1.053,2.703c0,1.099-0.354,2.009-1.063,2.729c-0.708,0.725-1.601,1.084-2.676,1.084
		c-0.666,0-1.3-0.148-1.904-0.451c-0.604-0.301-1.063-0.74-1.377-1.32C15.211,8.999,15.054,8.292,15.054,7.458z M17.022,7.562
		c0,0.719,0.171,1.271,0.513,1.653c0.342,0.383,0.763,0.574,1.265,0.574s0.922-0.191,1.261-0.574
		C20.4,8.832,20.57,8.277,20.57,7.547c0-0.711-0.17-1.258-0.509-1.642c-0.339-0.383-0.76-0.573-1.261-0.573s-0.923,0.19-1.265,0.573
		C17.193,6.289,17.022,6.841,17.022,7.562z"/>
	<path fill="#F5F5F5" stroke="#F5F5F5" stroke-width="0.25" stroke-miterlimit="10" d="M27.379,3.931v1.531h-1.312v2.926
		c0,0.594,0.013,0.938,0.038,1.035c0.025,0.1,0.082,0.18,0.171,0.243c0.089,0.063,0.197,0.096,0.325,0.096
		c0.178,0,0.435-0.062,0.772-0.185l0.164,1.49c-0.447,0.189-0.953,0.287-1.518,0.287c-0.346,0-0.659-0.061-0.937-0.176
		c-0.278-0.115-0.482-0.268-0.612-0.449c-0.13-0.188-0.22-0.437-0.27-0.75c-0.041-0.225-0.062-0.676-0.062-1.354V5.462h-0.882V3.931
		h0.882V2.489l1.928-1.12v2.562H27.379z"/>
	<path fill="#F5F5F5" stroke="#F5F5F5" stroke-width="0.25" stroke-miterlimit="10" d="M30.147,6.146l-1.743-0.312
		c0.196-0.702,0.533-1.223,1.012-1.561c0.479-0.336,1.189-0.506,2.133-0.506c0.857,0,1.495,0.104,1.914,0.305
		c0.419,0.203,0.714,0.461,0.885,0.771c0.171,0.312,0.256,0.887,0.256,1.721l-0.021,2.241c0,0.638,0.031,1.108,0.092,1.411
		c0.062,0.305,0.177,0.628,0.345,0.975h-1.9c-0.05-0.127-0.112-0.314-0.185-0.565c-0.032-0.114-0.055-0.188-0.068-0.228
		c-0.328,0.319-0.679,0.561-1.053,0.719c-0.374,0.158-0.772,0.238-1.196,0.238c-0.748,0-1.336-0.203-1.767-0.606
		c-0.431-0.405-0.646-0.918-0.646-1.538c0-0.41,0.098-0.773,0.294-1.1c0.196-0.318,0.471-0.564,0.824-0.736
		c0.353-0.17,0.862-0.319,1.528-0.447c0.898-0.169,1.52-0.324,1.866-0.472V6.262c0-0.368-0.091-0.632-0.273-0.79
		c-0.182-0.156-0.526-0.234-1.032-0.234c-0.342,0-0.608,0.066-0.8,0.201C30.421,5.571,30.266,5.81,30.147,6.146z M32.718,7.704
		c-0.246,0.082-0.636,0.18-1.169,0.294c-0.533,0.114-0.882,0.226-1.046,0.335c-0.25,0.178-0.376,0.402-0.376,0.677
		c0,0.269,0.1,0.501,0.301,0.697c0.201,0.196,0.456,0.294,0.766,0.294c0.346,0,0.677-0.114,0.991-0.342
		c0.232-0.174,0.385-0.385,0.458-0.637c0.05-0.164,0.075-0.478,0.075-0.938V7.704z"/>
	<path fill="#F5F5F5" stroke="#F5F5F5" stroke-width="0.25" stroke-miterlimit="10" d="M36.498,11.19V1.17h1.921v10.02H36.498z"/>
	<path fill="#F5F5F5" stroke="#F5F5F5" stroke-width="0.25" stroke-miterlimit="10" d="M44.223,3.931h1.791v1.066
		c0.232-0.364,0.547-0.661,0.943-0.889c0.396-0.229,0.836-0.342,1.319-0.342c0.843,0,1.559,0.328,2.146,0.989
		s0.882,1.581,0.882,2.763c0,1.213-0.296,2.153-0.889,2.826c-0.592,0.674-1.31,1.01-2.153,1.01c-0.401,0-0.765-0.08-1.09-0.24
		c-0.325-0.158-0.669-0.432-1.029-0.819v3.657h-1.921L44.223,3.931L44.223,3.931z M46.123,7.438c0,0.814,0.162,1.418,0.485,1.809
		c0.324,0.391,0.718,0.585,1.183,0.585c0.447,0,0.818-0.181,1.114-0.536c0.296-0.357,0.444-0.943,0.444-1.761
		c0-0.763-0.153-1.326-0.458-1.695c-0.305-0.369-0.684-0.554-1.135-0.554c-0.469,0-0.859,0.182-1.169,0.543
		C46.278,6.19,46.123,6.728,46.123,7.438z"/>
	<path fill="#F5F5F5" stroke="#F5F5F5" stroke-width="0.25" stroke-miterlimit="10" d="M52.385,7.458
		c0-0.639,0.157-1.256,0.472-1.854s0.76-1.054,1.336-1.367c0.576-0.313,1.22-0.471,1.931-0.471c1.098,0,1.999,0.354,2.7,1.068
		c0.702,0.713,1.053,1.613,1.053,2.703c0,1.099-0.354,2.009-1.063,2.729c-0.708,0.725-1.601,1.084-2.676,1.084
		c-0.666,0-1.3-0.148-1.904-0.451c-0.604-0.301-1.063-0.74-1.377-1.32C52.542,8.999,52.385,8.292,52.385,7.458z M54.354,7.562
		c0,0.719,0.171,1.271,0.513,1.653c0.342,0.383,0.763,0.574,1.265,0.574s0.922-0.191,1.261-0.574
		c0.339-0.383,0.509-0.938,0.509-1.668c0-0.711-0.17-1.258-0.509-1.642c-0.339-0.383-0.76-0.573-1.261-0.573
		s-0.923,0.19-1.265,0.573C54.525,6.289,54.354,6.841,54.354,7.562z"/>
	<path fill="#F5F5F5" stroke="#F5F5F5" stroke-width="0.25" stroke-miterlimit="10" d="M66.159,11.19v-1.086
		c-0.264,0.387-0.612,0.691-1.042,0.916c-0.43,0.225-0.885,0.334-1.364,0.334c-0.488,0-0.925-0.105-1.312-0.319
		c-0.387-0.216-0.667-0.517-0.841-0.902c-0.174-0.387-0.26-0.923-0.26-1.604V3.935h1.921v3.336c0,1.021,0.035,1.646,0.106,1.877
		c0.071,0.229,0.199,0.412,0.386,0.547c0.187,0.133,0.424,0.201,0.711,0.201c0.328,0,0.622-0.092,0.882-0.271
		c0.26-0.182,0.438-0.404,0.533-0.67c0.096-0.27,0.144-0.922,0.144-1.959V3.933h1.921v7.26h-1.785V11.19z"/>
	<path fill="#F5F5F5" stroke="#F5F5F5" stroke-width="0.25" stroke-miterlimit="10" d="M76.536,11.19h-1.921V7.485
		c0-0.782-0.041-1.291-0.123-1.521s-0.215-0.407-0.4-0.536c-0.185-0.128-0.407-0.191-0.667-0.191c-0.333,0-0.631,0.093-0.896,0.273
		c-0.265,0.182-0.445,0.424-0.543,0.725c-0.098,0.303-0.147,0.856-0.147,1.668v3.289h-1.921v-7.26h1.784v1.066
		c0.633-0.82,1.431-1.229,2.393-1.229c0.424,0,0.811,0.075,1.162,0.229c0.351,0.151,0.616,0.348,0.796,0.585
		c0.18,0.236,0.305,0.506,0.376,0.807c0.071,0.303,0.106,0.731,0.106,1.292L76.536,11.19L76.536,11.19z"/>
	<path fill="#F5F5F5" stroke="#F5F5F5" stroke-width="0.25" stroke-miterlimit="10" d="M85.143,11.19h-1.784v-1.064
		c-0.296,0.415-0.646,0.725-1.049,0.926c-0.403,0.203-0.81,0.307-1.22,0.307c-0.834,0-1.548-0.336-2.143-1.01
		c-0.595-0.673-0.892-1.609-0.892-2.812c0-1.229,0.29-2.166,0.868-2.806c0.579-0.643,1.31-0.961,2.194-0.961
		c0.811,0,1.513,0.336,2.105,1.012V1.173h1.921V11.19z M80.016,7.403c0,0.772,0.107,1.334,0.321,1.682
		c0.31,0.501,0.743,0.752,1.299,0.752c0.442,0,0.818-0.188,1.128-0.564c0.31-0.375,0.465-0.938,0.465-1.685
		c0-0.834-0.15-1.435-0.451-1.802c-0.301-0.366-0.686-0.551-1.155-0.551c-0.456,0-0.837,0.182-1.145,0.545
		C80.169,6.142,80.016,6.685,80.016,7.403z"/>
	<path fill="#F5F5F5" stroke="#F5F5F5" stroke-width="0.25" stroke-miterlimit="10" d="M86.359,9.119l1.928-0.294
		c0.082,0.373,0.249,0.656,0.499,0.852c0.25,0.193,0.602,0.29,1.053,0.29c0.497,0,0.871-0.091,1.121-0.272
		c0.168-0.129,0.253-0.299,0.253-0.514c0-0.146-0.045-0.267-0.137-0.361c-0.096-0.092-0.31-0.176-0.643-0.254
		c-1.549-0.342-2.532-0.652-2.946-0.937c-0.574-0.392-0.861-0.937-0.861-1.634c0-0.629,0.249-1.157,0.745-1.586
		c0.496-0.43,1.267-0.643,2.311-0.643c0.994,0,1.732,0.16,2.215,0.483c0.483,0.321,0.816,0.802,0.998,1.437l-1.812,0.336
		c-0.078-0.283-0.225-0.5-0.441-0.649c-0.216-0.15-0.525-0.226-0.926-0.226c-0.506,0-0.868,0.068-1.087,0.211
		c-0.146,0.102-0.219,0.23-0.219,0.391c0,0.137,0.064,0.253,0.191,0.349c0.173,0.128,0.771,0.308,1.794,0.54
		s1.737,0.518,2.143,0.854c0.401,0.344,0.602,0.818,0.602,1.431c0,0.665-0.278,1.235-0.834,1.716
		c-0.556,0.479-1.378,0.719-2.468,0.719c-0.989,0-1.771-0.199-2.348-0.603C86.913,10.351,86.537,9.808,86.359,9.119z"/>
	<path fill="#F5F5F5" stroke="#F5F5F5" stroke-width="0.25" stroke-miterlimit="10" d="M98.268,7.458
		c0-0.639,0.157-1.256,0.472-1.854c0.315-0.598,0.76-1.054,1.336-1.367c0.576-0.313,1.22-0.471,1.931-0.471
		c1.098,0,1.999,0.354,2.7,1.068c0.702,0.713,1.053,1.613,1.053,2.703c0,1.099-0.354,2.009-1.063,2.729
		c-0.708,0.725-1.601,1.084-2.676,1.084c-0.666,0-1.3-0.148-1.904-0.451c-0.604-0.301-1.063-0.74-1.377-1.32
		C98.425,8.999,98.268,8.292,98.268,7.458z M100.236,7.562c0,0.719,0.171,1.271,0.513,1.653c0.342,0.382,0.763,0.574,1.265,0.574
		s0.922-0.191,1.261-0.574c0.339-0.383,0.509-0.938,0.509-1.668c0-0.711-0.17-1.258-0.509-1.642
		c-0.339-0.383-0.76-0.573-1.261-0.573s-0.923,0.19-1.265,0.573C100.407,6.289,100.236,6.841,100.236,7.562z"/>
	<path fill="#F5F5F5" stroke="#F5F5F5" stroke-width="0.25" stroke-miterlimit="10" d="M106.423,3.931h1.066V3.384
		c0-0.609,0.065-1.066,0.195-1.367c0.13-0.301,0.369-0.546,0.718-0.734C108.751,1.095,109.192,1,109.725,1
		c0.547,0,1.083,0.082,1.606,0.246l-0.26,1.34c-0.305-0.073-0.599-0.108-0.882-0.108c-0.278,0-0.478,0.064-0.598,0.193
		c-0.121,0.131-0.181,0.38-0.181,0.749v0.515h1.436v1.51h-1.436v5.75h-1.921v-5.75h-1.066V3.931z"/>
	<path fill="#F5F5F5" stroke="#F5F5F5" stroke-width="0.25" stroke-miterlimit="10" d="M117.729,1.169v3.686
		c0.62-0.726,1.36-1.088,2.222-1.088c0.442,0,0.841,0.082,1.196,0.246c0.355,0.164,0.623,0.374,0.803,0.629
		c0.18,0.256,0.303,0.538,0.369,0.848c0.066,0.312,0.099,0.791,0.099,1.443v4.258h-1.921V7.356c0-0.762-0.037-1.244-0.109-1.449
		c-0.072-0.204-0.202-0.367-0.386-0.488c-0.185-0.12-0.416-0.182-0.694-0.182c-0.319,0-0.604,0.076-0.854,0.231
		c-0.25,0.155-0.434,0.39-0.55,0.7c-0.116,0.312-0.174,0.773-0.174,1.385v3.637h-1.921V1.17L117.729,1.169L117.729,1.169z"/>
	<path fill="#F5F5F5" stroke="#F5F5F5" stroke-width="0.25" stroke-miterlimit="10" d="M125.803,6.146l-1.743-0.312
		c0.196-0.702,0.533-1.223,1.012-1.561c0.479-0.336,1.189-0.506,2.133-0.506c0.857,0,1.495,0.104,1.914,0.305
		c0.419,0.203,0.714,0.461,0.885,0.771c0.171,0.312,0.256,0.887,0.256,1.721l-0.021,2.241c0,0.638,0.031,1.108,0.092,1.411
		c0.062,0.305,0.177,0.628,0.345,0.975h-1.9c-0.05-0.127-0.112-0.314-0.185-0.565c-0.032-0.114-0.055-0.188-0.068-0.228
		c-0.328,0.319-0.679,0.561-1.053,0.719c-0.374,0.158-0.772,0.238-1.196,0.238c-0.748,0-1.336-0.203-1.767-0.606
		c-0.431-0.405-0.646-0.918-0.646-1.538c0-0.41,0.098-0.773,0.294-1.1c0.196-0.318,0.471-0.564,0.824-0.736
		c0.353-0.17,0.862-0.319,1.528-0.447c0.898-0.169,1.52-0.324,1.866-0.472V6.262c0-0.368-0.091-0.632-0.273-0.79
		c-0.182-0.156-0.526-0.234-1.032-0.234c-0.342,0-0.608,0.066-0.8,0.201C126.076,5.571,125.921,5.81,125.803,6.146z M128.373,7.704
		c-0.246,0.082-0.636,0.18-1.169,0.294c-0.533,0.114-0.882,0.226-1.046,0.335c-0.25,0.178-0.376,0.402-0.376,0.677
		c0,0.269,0.1,0.501,0.301,0.697c0.201,0.196,0.456,0.294,0.766,0.294c0.346,0,0.677-0.114,0.991-0.342
		c0.232-0.174,0.385-0.385,0.458-0.637c0.05-0.164,0.075-0.478,0.075-0.938V7.704z"/>
	<path fill="#F5F5F5" stroke="#F5F5F5" stroke-width="0.25" stroke-miterlimit="10" d="M132.153,11.19V1.17h1.921v10.02H132.153z"/>
	<path fill="#F5F5F5" stroke="#F5F5F5" stroke-width="0.25" stroke-miterlimit="10" d="M136.043,2.946V1.169h1.921v1.777H136.043z
		 M136.043,11.19V3.93h1.921v7.26H136.043z"/>
	<path fill="#F5F5F5" stroke="#F5F5F5" stroke-width="0.25" stroke-miterlimit="10" d="M139.851,11.19V1.17h1.921v3.608
		c0.592-0.674,1.294-1.012,2.105-1.012c0.884,0,1.616,0.319,2.194,0.961c0.579,0.641,0.868,1.561,0.868,2.758
		c0,1.24-0.295,2.193-0.885,2.865c-0.59,0.67-1.307,1.004-2.15,1.004c-0.415,0-0.824-0.104-1.227-0.312
		c-0.403-0.208-0.751-0.517-1.042-0.92v1.065h-1.784V11.19z M141.758,7.403c0,0.752,0.119,1.308,0.355,1.668
		c0.333,0.511,0.775,0.766,1.326,0.766c0.424,0,0.785-0.182,1.083-0.543c0.298-0.363,0.448-0.934,0.448-1.713
		c0-0.829-0.15-1.428-0.451-1.795c-0.301-0.366-0.686-0.551-1.155-0.551c-0.46,0-0.843,0.18-1.148,0.537
		C141.911,6.131,141.758,6.674,141.758,7.403z"/>
	<path fill="#F5F5F5" stroke="#F5F5F5" stroke-width="0.25" stroke-miterlimit="10" d="M153.263,11.19v-1.086
		c-0.264,0.387-0.612,0.691-1.042,0.916c-0.43,0.225-0.885,0.334-1.364,0.334c-0.488,0-0.925-0.105-1.312-0.319
		c-0.387-0.216-0.667-0.517-0.841-0.902c-0.174-0.387-0.26-0.923-0.26-1.604V3.935h1.921v3.336c0,1.021,0.035,1.646,0.106,1.877
		c0.071,0.229,0.199,0.412,0.386,0.547c0.187,0.133,0.424,0.201,0.711,0.201c0.328,0,0.622-0.092,0.882-0.271
		c0.26-0.182,0.438-0.404,0.533-0.67c0.096-0.27,0.144-0.922,0.144-1.959V3.933h1.921v7.26h-1.785V11.19L153.263,11.19z"/>
	<path fill="#F5F5F5" stroke="#F5F5F5" stroke-width="0.25" stroke-miterlimit="10" d="M160.365,3.931v1.531h-1.312v2.926
		c0,0.594,0.013,0.938,0.038,1.035c0.025,0.1,0.082,0.18,0.171,0.243c0.089,0.063,0.197,0.096,0.325,0.096
		c0.178,0,0.435-0.062,0.772-0.185l0.165,1.49c-0.443,0.189-0.954,0.287-1.519,0.287c-0.346,0-0.659-0.061-0.937-0.176
		c-0.278-0.115-0.482-0.268-0.612-0.449c-0.13-0.188-0.22-0.437-0.27-0.75c-0.041-0.225-0.062-0.676-0.062-1.354V5.462h-0.882V3.931
		h0.882V2.489l1.928-1.12v2.562H160.365z"/>
	<path fill="#F5F5F5" stroke="#F5F5F5" stroke-width="0.25" stroke-miterlimit="10" d="M165.533,3.931h1.791v1.066
		c0.232-0.364,0.547-0.661,0.943-0.889c0.396-0.229,0.836-0.342,1.314-0.342c0.848,0,1.562,0.328,2.146,0.989
		c0.586,0.661,0.881,1.581,0.881,2.763c0,1.213-0.297,2.153-0.889,2.826c-0.594,0.674-1.312,1.01-2.152,1.01
		c-0.399,0-0.767-0.08-1.092-0.24c-0.324-0.158-0.668-0.432-1.025-0.819v3.657h-1.922L165.533,3.931L165.533,3.931z M167.434,7.438
		c0,0.814,0.162,1.418,0.485,1.809s0.718,0.585,1.183,0.585c0.447,0,0.818-0.181,1.114-0.536c0.296-0.357,0.444-0.943,0.444-1.761
		c0-0.763-0.152-1.326-0.458-1.695c-0.306-0.369-0.685-0.554-1.136-0.554c-0.469,0-0.857,0.182-1.168,0.543
		C167.587,6.19,167.434,6.728,167.434,7.438z"/>
	<path fill="#F5F5F5" stroke="#F5F5F5" stroke-width="0.25" stroke-miterlimit="10" d="M178.344,8.88l1.914,0.321
		c-0.246,0.702-0.635,1.235-1.166,1.603c-0.529,0.367-1.195,0.551-1.992,0.551c-1.262,0-2.197-0.412-2.803-1.235
		c-0.479-0.661-0.718-1.495-0.718-2.503c0-1.202,0.313-2.146,0.942-2.826c0.629-0.682,1.426-1.021,2.387-1.021
		c1.08,0,1.932,0.355,2.557,1.069c0.625,0.713,0.924,1.806,0.896,3.276h-4.812c0.014,0.57,0.169,1.014,0.465,1.33
		c0.297,0.315,0.666,0.476,1.107,0.476c0.301,0,0.554-0.082,0.759-0.246S178.238,9.244,178.344,8.88z M178.453,6.938
		c-0.014-0.556-0.157-0.979-0.432-1.268c-0.272-0.29-0.605-0.436-0.998-0.436c-0.418,0-0.77,0.151-1.039,0.459
		c-0.272,0.306-0.406,0.72-0.402,1.244L178.453,6.938L178.453,6.938z"/>
	<path fill="#F5F5F5" stroke="#F5F5F5" stroke-width="0.25" stroke-miterlimit="10" d="M183.766,11.19h-1.922V3.93h1.784v1.032
		c0.306-0.487,0.58-0.81,0.823-0.964c0.244-0.155,0.521-0.232,0.831-0.232c0.438,0,0.858,0.121,1.265,0.362l-0.595,1.675
		c-0.323-0.21-0.624-0.314-0.902-0.314c-0.269,0-0.497,0.074-0.684,0.225c-0.187,0.146-0.334,0.415-0.44,0.805
		c-0.107,0.387-0.16,1.196-0.16,2.434V11.19L183.766,11.19z"/>
	<path fill="#F5F5F5" stroke="#F5F5F5" stroke-width="0.25" stroke-miterlimit="10" d="M190.587,9.119l1.929-0.294
		c0.082,0.373,0.248,0.656,0.498,0.852c0.252,0.193,0.604,0.29,1.053,0.29c0.498,0,0.871-0.091,1.121-0.272
		c0.17-0.129,0.254-0.299,0.254-0.514c0-0.146-0.047-0.267-0.137-0.361c-0.097-0.092-0.311-0.176-0.644-0.254
		c-1.55-0.342-2.531-0.652-2.946-0.937c-0.574-0.392-0.861-0.937-0.861-1.634c0-0.629,0.248-1.157,0.746-1.586
		c0.496-0.43,1.271-0.643,2.312-0.643c0.99,0,1.729,0.16,2.215,0.483c0.482,0.321,0.812,0.802,0.998,1.437l-1.812,0.336
		c-0.076-0.283-0.226-0.5-0.438-0.649c-0.217-0.15-0.523-0.226-0.93-0.226c-0.506,0-0.865,0.068-1.086,0.211
		c-0.146,0.102-0.219,0.229-0.219,0.391c0,0.137,0.062,0.253,0.188,0.349c0.173,0.128,0.771,0.308,1.795,0.54
		c1.021,0.232,1.735,0.518,2.146,0.854c0.398,0.344,0.604,0.818,0.604,1.431c0,0.665-0.275,1.235-0.834,1.716
		c-0.559,0.479-1.379,0.719-2.471,0.719c-0.986,0-1.771-0.199-2.35-0.603C191.143,10.353,190.766,9.808,190.587,9.119z"/>
	<path fill="#F5F5F5" stroke="#F5F5F5" stroke-width="0.25" stroke-miterlimit="10" d="M202.379,3.931v1.531h-1.312v2.926
		c0,0.594,0.018,0.938,0.037,1.035c0.025,0.1,0.082,0.18,0.172,0.243c0.088,0.063,0.197,0.096,0.324,0.096
		c0.178,0,0.438-0.062,0.772-0.185l0.164,1.49c-0.446,0.189-0.952,0.287-1.519,0.287c-0.351,0-0.658-0.061-0.938-0.176
		c-0.276-0.115-0.479-0.268-0.608-0.449c-0.134-0.188-0.224-0.437-0.271-0.75c-0.041-0.225-0.062-0.676-0.062-1.354V5.462h-0.884
		V3.931h0.884V2.489l1.928-1.12v2.562H202.379z"/>
	<path fill="#F5F5F5" stroke="#F5F5F5" stroke-width="0.25" stroke-miterlimit="10" d="M205.146,6.146l-1.742-0.312
		c0.195-0.702,0.533-1.223,1.012-1.561c0.479-0.336,1.189-0.506,2.133-0.506c0.855,0,1.495,0.104,1.914,0.305
		c0.419,0.203,0.715,0.461,0.885,0.771c0.172,0.312,0.258,0.887,0.258,1.721l-0.021,2.241c0,0.638,0.031,1.108,0.092,1.411
		c0.062,0.305,0.179,0.628,0.347,0.975h-1.896c-0.05-0.127-0.107-0.314-0.188-0.565c-0.033-0.114-0.057-0.188-0.065-0.228
		c-0.328,0.319-0.683,0.561-1.056,0.719c-0.375,0.158-0.771,0.238-1.193,0.238c-0.747,0-1.336-0.203-1.771-0.606
		c-0.431-0.405-0.646-0.918-0.646-1.538c0-0.41,0.101-0.773,0.294-1.1c0.193-0.318,0.473-0.564,0.824-0.736
		c0.354-0.17,0.859-0.319,1.525-0.447c0.896-0.169,1.521-0.324,1.863-0.472V6.262c0-0.368-0.091-0.632-0.271-0.79
		c-0.184-0.156-0.523-0.234-1.029-0.234c-0.344,0-0.605,0.066-0.803,0.201C205.421,5.571,205.266,5.81,205.146,6.146z
		 M207.718,7.704c-0.245,0.082-0.636,0.18-1.169,0.294c-0.533,0.114-0.882,0.226-1.046,0.335c-0.251,0.178-0.376,0.402-0.376,0.677
		c0,0.269,0.102,0.501,0.301,0.697c0.2,0.196,0.456,0.294,0.766,0.294c0.352,0,0.682-0.114,0.992-0.342
		c0.231-0.174,0.385-0.385,0.457-0.637c0.051-0.164,0.075-0.478,0.075-0.938V7.704L207.718,7.704z"/>
	<path fill="#F5F5F5" stroke="#F5F5F5" stroke-width="0.25" stroke-miterlimit="10" d="M214.827,3.931v1.531h-1.312v2.926
		c0,0.594,0.012,0.938,0.032,1.035c0.025,0.1,0.082,0.18,0.177,0.243c0.088,0.063,0.191,0.096,0.319,0.096
		c0.183,0,0.438-0.062,0.771-0.185l0.164,1.49c-0.443,0.189-0.951,0.287-1.52,0.287c-0.348,0-0.656-0.061-0.938-0.176
		c-0.277-0.115-0.481-0.268-0.61-0.449c-0.132-0.188-0.222-0.437-0.271-0.75c-0.041-0.225-0.062-0.676-0.062-1.354V5.462h-0.883
		V3.931h0.883V2.489l1.929-1.12v2.562H214.827z"/>
	<path fill="#F5F5F5" stroke="#F5F5F5" stroke-width="0.25" stroke-miterlimit="10" d="M216.16,2.946V1.169h1.921v1.777H216.16z
		 M216.16,11.19V3.93h1.921v7.26H216.16z"/>
	<path fill="#F5F5F5" stroke="#F5F5F5" stroke-width="0.25" stroke-miterlimit="10" d="M219.605,7.458
		c0-0.639,0.156-1.256,0.472-1.854s0.76-1.054,1.337-1.367c0.576-0.313,1.22-0.471,1.932-0.471c1.098,0,1.997,0.354,2.699,1.068
		c0.702,0.713,1.053,1.613,1.053,2.703c0,1.099-0.354,2.009-1.062,2.729c-0.709,0.725-1.603,1.084-2.677,1.084
		c-0.666,0-1.301-0.148-1.903-0.451c-0.604-0.301-1.063-0.74-1.378-1.32S219.605,8.292,219.605,7.458z M221.574,7.562
		c0,0.719,0.171,1.271,0.513,1.653c0.343,0.383,0.765,0.574,1.265,0.574c0.502,0,0.922-0.191,1.262-0.574
		c0.344-0.383,0.514-0.938,0.514-1.668c0-0.711-0.17-1.258-0.514-1.642c-0.34-0.383-0.76-0.573-1.262-0.573
		c-0.5,0-0.922,0.19-1.265,0.573C221.745,6.289,221.574,6.841,221.574,7.562z"/>
	<path fill="#F5F5F5" stroke="#F5F5F5" stroke-width="0.25" stroke-miterlimit="10" d="M235.205,11.19h-1.921V7.485
		c0-0.782-0.041-1.291-0.123-1.521s-0.216-0.407-0.399-0.536c-0.185-0.128-0.406-0.191-0.666-0.191
		c-0.334,0-0.632,0.093-0.896,0.273c-0.267,0.182-0.445,0.424-0.546,0.725c-0.098,0.303-0.146,0.856-0.146,1.668v3.289h-1.921v-7.26
		h1.784v1.066c0.634-0.82,1.431-1.229,2.395-1.229c0.424,0,0.812,0.075,1.16,0.229c0.352,0.151,0.616,0.348,0.799,0.585
		c0.18,0.236,0.305,0.506,0.375,0.807c0.069,0.303,0.104,0.731,0.104,1.292L235.205,11.19L235.205,11.19z"/>
</g>
<g enable-background="new    ">
	<path fill="#F5F5F5" stroke="#F5F5F5" stroke-width="0.5" stroke-miterlimit="10" d="M12.073,90.364v-5.401h-0.932v-0.819h0.932
		v-0.662c0-0.418,0.037-0.729,0.111-0.933c0.102-0.272,0.28-0.495,0.536-0.665c0.256-0.17,0.614-0.255,1.075-0.255
		c0.297,0,0.625,0.035,0.984,0.104l-0.158,0.92c-0.219-0.039-0.426-0.06-0.621-0.06c-0.32,0-0.547,0.068-0.68,0.205
		c-0.133,0.138-0.199,0.394-0.199,0.769v0.574h1.213v0.82h-1.213v5.402h-1.048V90.364z"/>
	<path fill="#F5F5F5" stroke="#F5F5F5" stroke-width="0.5" stroke-miterlimit="10" d="M19.415,88.36l1.09,0.136
		c-0.172,0.637-0.49,1.131-0.955,1.481c-0.465,0.352-1.059,0.526-1.781,0.526c-0.91,0-1.632-0.278-2.165-0.841s-0.8-1.348-0.8-2.358
		c0-1.047,0.27-1.858,0.809-2.438C16.152,84.288,16.851,84,17.711,84c0.832,0,1.512,0.282,2.039,0.851
		c0.527,0.566,0.791,1.362,0.791,2.391c0,0.062-0.002,0.156-0.006,0.281h-4.641c0.039,0.685,0.232,1.207,0.58,1.569
		c0.348,0.363,0.781,0.545,1.301,0.545c0.387,0,0.717-0.102,0.99-0.305S19.255,88.808,19.415,88.36z M15.952,86.655h3.475
		c-0.047-0.522-0.18-0.916-0.398-1.178c-0.336-0.406-0.771-0.608-1.307-0.608c-0.484,0-0.892,0.161-1.222,0.485
		S15.987,86.112,15.952,86.655z"/>
	<path fill="#F5F5F5" stroke="#F5F5F5" stroke-width="0.5" stroke-miterlimit="10" d="M22.978,90.364l-1.904-6.223h1.09l0.99,3.592
		l0.369,1.336c0.016-0.065,0.123-0.494,0.322-1.282l0.99-3.646h1.084l0.932,3.608l0.311,1.188l0.357-1.201l1.066-3.599h1.025
		l-1.945,6.224h-1.096l-0.99-3.728l-0.24-1.062l-1.26,4.787h-1.101V90.364z"/>
	<path fill="#F5F5F5" stroke="#F5F5F5" stroke-width="0.5" stroke-miterlimit="10" d="M34.755,88.36l1.09,0.136
		c-0.172,0.637-0.49,1.131-0.955,1.481c-0.465,0.352-1.059,0.526-1.781,0.526c-0.91,0-1.632-0.278-2.165-0.841
		c-0.533-0.562-0.8-1.348-0.8-2.358c0-1.047,0.27-1.858,0.809-2.438C31.492,84.288,32.191,84,33.051,84
		c0.832,0,1.512,0.282,2.039,0.851c0.527,0.566,0.791,1.362,0.791,2.391c0,0.062-0.002,0.156-0.006,0.281h-4.641
		c0.039,0.685,0.232,1.207,0.58,1.569c0.348,0.363,0.781,0.545,1.301,0.545c0.387,0,0.717-0.102,0.99-0.305
		S34.595,88.808,34.755,88.36z M31.292,86.655h3.475c-0.047-0.522-0.18-0.916-0.398-1.178c-0.336-0.406-0.771-0.608-1.307-0.608
		c-0.484,0-0.892,0.161-1.222,0.485S31.327,86.112,31.292,86.655z"/>
	<path fill="#F5F5F5" stroke="#F5F5F5" stroke-width="0.5" stroke-miterlimit="10" d="M37.157,90.364v-6.223h0.949v0.942
		c0.242-0.44,0.466-0.731,0.671-0.873S39.208,84,39.454,84c0.355,0,0.717,0.112,1.084,0.34l-0.363,0.979
		c-0.258-0.151-0.516-0.229-0.773-0.229c-0.23,0-0.438,0.067-0.621,0.208c-0.183,0.141-0.314,0.331-0.393,0.577
		c-0.117,0.375-0.176,0.784-0.176,1.229v3.258h-1.055V90.364z"/>
</g>
<use xlink:href="#Arrow_25"  width="45.718" height="26.281" id="XMLID_2_" x="-22.859" y="-13.141" transform="matrix(0.405 0 0 -0.4985 239.7832 90.248)" overflow="visible"/>
<line fill="none" stroke="#F5F5F5" stroke-width="1.6" stroke-miterlimit="10" x1="243.783" y1="88.237" x2="47.05" y2="88.106"/>
<g enable-background="new    ">
	<path fill="#F5F5F5" stroke="#F5F5F5" stroke-width="0.5" stroke-miterlimit="10" d="M256.291,91.106v-6.224h0.943v0.873
		c0.195-0.306,0.455-0.55,0.779-0.735c0.319-0.185,0.688-0.276,1.104-0.276c0.461,0,0.839,0.096,1.134,0.286
		c0.295,0.19,0.503,0.459,0.624,0.804c0.492-0.728,1.133-1.09,1.922-1.09c0.617,0,1.096,0.171,1.428,0.513
		c0.332,0.342,0.498,0.868,0.498,1.579v4.271h-1.053v-3.92c0-0.423-0.031-0.727-0.104-0.912c-0.067-0.185-0.19-0.334-0.371-0.446
		c-0.183-0.113-0.395-0.171-0.635-0.171c-0.438,0-0.803,0.146-1.091,0.438s-0.435,0.758-0.435,1.396v3.615h-1.057v-4.043
		c0-0.47-0.086-0.819-0.258-1.056c-0.173-0.235-0.453-0.353-0.847-0.353c-0.297,0-0.569,0.078-0.821,0.233
		c-0.252,0.156-0.438,0.386-0.548,0.687c-0.112,0.302-0.172,0.734-0.172,1.302v3.229H256.291L256.291,91.106z"/>
	<path fill="#F5F5F5" stroke="#F5F5F5" stroke-width="0.5" stroke-miterlimit="10" d="M265.895,87.994
		c0-1.152,0.32-2.007,0.961-2.562c0.535-0.462,1.188-0.691,1.957-0.691c0.855,0,1.56,0.281,2.103,0.842s0.812,1.335,0.812,2.322
		c0,0.802-0.119,1.432-0.356,1.891c-0.24,0.459-0.593,0.814-1.052,1.068c-0.459,0.255-0.961,0.382-1.504,0.382
		c-0.871,0-1.571-0.279-2.108-0.839C266.164,89.849,265.895,89.045,265.895,87.994z M266.979,87.994c0,0.797,0.174,1.394,0.521,1.79
		s0.785,0.595,1.312,0.595c0.521,0,0.959-0.199,1.307-0.599c0.348-0.398,0.521-1.006,0.521-1.821c0-0.771-0.18-1.353-0.524-1.749
		c-0.349-0.396-0.784-0.596-1.304-0.596c-0.527,0-0.965,0.197-1.312,0.593S266.979,87.196,266.979,87.994z"/>
	<path fill="#F5F5F5" stroke="#F5F5F5" stroke-width="0.5" stroke-miterlimit="10" d="M272.949,91.106v-6.224h0.949v0.942
		c0.242-0.44,0.466-0.731,0.67-0.872c0.205-0.142,0.432-0.212,0.678-0.212c0.355,0,0.717,0.113,1.084,0.341l-0.363,0.979
		c-0.258-0.152-0.516-0.229-0.773-0.229c-0.229,0-0.438,0.069-0.616,0.208s-0.312,0.331-0.396,0.576
		c-0.117,0.375-0.177,0.785-0.177,1.229v3.259h-1.055L272.949,91.106L272.949,91.106z"/>
	<path fill="#F5F5F5" stroke="#F5F5F5" stroke-width="0.5" stroke-miterlimit="10" d="M281.217,89.103l1.09,0.135
		c-0.172,0.638-0.49,1.132-0.955,1.481c-0.465,0.351-1.059,0.527-1.781,0.527c-0.905,0-1.631-0.28-2.16-0.841
		c-0.533-0.562-0.805-1.348-0.805-2.358c0-1.047,0.271-1.858,0.812-2.438c0.539-0.578,1.234-0.867,2.102-0.867
		c0.832,0,1.513,0.283,2.037,0.852c0.525,0.566,0.791,1.363,0.791,2.393c0,0.062-0.004,0.154-0.008,0.279h-4.645
		c0.039,0.686,0.231,1.207,0.58,1.57c0.352,0.361,0.781,0.545,1.305,0.545c0.387,0,0.717-0.104,0.986-0.307
		C280.84,89.871,281.057,89.547,281.217,89.103z M277.754,87.397h3.475c-0.047-0.522-0.18-0.916-0.396-1.179
		c-0.336-0.405-0.771-0.608-1.31-0.608c-0.481,0-0.894,0.162-1.223,0.485C277.973,86.42,277.789,86.854,277.754,87.397z"/>
</g>
<g>
	<path fill="#C6C6C5" d="M39.911,67.554c-0.021,0.381-0.555,0.381-0.575,0C39.315,67.173,39.89,67.178,39.911,67.554
		c0.104,1.924,3.104,1.934,3,0c-0.1-1.855-1.432-3.188-3.287-3.287c-1.852-0.1-3.196,1.581-3.288,3.287
		c-0.1,1.854,1.582,3.195,3.288,3.287c1.852,0.1,3.195-1.581,3.287-3.287C43.015,65.62,40.014,65.63,39.911,67.554z"/>
</g>
<g>
	<path fill="#C6C6C5" d="M70.044,65.764c-0.157,2.921-4.371,2.921-4.528,0C65.358,62.841,69.887,62.856,70.044,65.764
		c0.104,1.925,3.104,1.935,3,0c-0.16-2.975-2.29-5.104-5.265-5.265c-2.968-0.16-5.116,2.529-5.264,5.265
		c-0.16,2.968,2.53,5.116,5.264,5.265c2.968,0.16,5.117-2.522,5.265-5.265C73.148,63.83,70.147,63.84,70.044,65.764z"/>
</g>
<g>
	<path fill="#C6C6C5" d="M111.25,60.75c-0.505,9.38-14.05,9.38-14.555,0C96.19,51.364,110.748,51.415,111.25,60.75
		c0.104,1.924,3.104,1.935,3,0c-0.313-5.815-4.462-9.964-10.277-10.277c-5.804-0.312-9.99,4.933-10.278,10.277
		c-0.312,5.805,4.932,9.989,10.278,10.276c5.804,0.312,9.99-4.938,10.277-10.276C114.354,58.815,111.354,58.825,111.25,60.75z"/>
</g>
<g>
	<path fill="#C6C6C5" d="M217.834,52.055c-0.32,9.074-7.15,15.908-16.227,16.228c-9.07,0.326-15.926-7.629-16.229-16.228
		c-0.317-9.069,7.631-15.923,16.229-16.225C210.678,35.511,217.532,43.459,217.834,52.055c0.062,1.767,2.811,1.773,2.747,0
		c-0.373-10.602-8.371-18.599-18.974-18.972c-10.596-0.373-18.621,8.931-18.979,18.972c-0.373,10.597,8.938,18.62,18.979,18.976
		c10.596,0.371,18.619-8.936,18.974-18.976C220.645,50.282,217.896,50.289,217.834,52.055z"/>
</g>
<g>
	<path fill="#C6C6C5" d="M285.322,46.889c-0.303,11.972-9.578,21.249-21.551,21.552c-11.973,0.307-21.26-10.035-21.559-21.552
		c-0.306-11.97,10.042-21.257,21.559-21.548C275.743,25.037,285.031,35.375,285.322,46.889c0.043,1.666,2.633,1.673,2.59,0
		c-0.339-13.391-10.749-23.798-24.141-24.137c-13.396-0.339-23.812,11.254-24.146,24.137c-0.343,13.392,11.255,23.813,24.146,24.142
		c13.392,0.343,23.812-11.258,24.141-24.142C287.955,45.219,285.365,45.224,285.322,46.889z"/>
</g>
<g>
	<path fill="#C6C6C5" d="M159.215,56.87c-0.773,14.379-21.54,14.379-22.314,0c-0.34-6.311,5.343-10.842,11.158-11.155
		C154.368,45.375,158.9,51.056,159.215,56.87c0.104,1.924,3.104,1.934,3,0c-0.982-18.232-27.332-18.232-28.314,0
		c-0.431,8,6.792,13.761,14.158,14.156c7.999,0.432,13.759-6.791,14.156-14.156C162.318,54.937,159.318,54.946,159.215,56.87z"/>
</g>
<g>
	<path fill="#C6C6C5" d="M14.512,68.84c-0.013,0.231-0.338,0.231-0.35,0C14.149,68.608,14.499,68.61,14.512,68.84
		c0.063,1.172,1.891,1.179,1.828,0c-0.061-1.13-0.873-1.94-2.002-2.002c-1.128-0.062-1.946,0.963-2.002,2.002
		c-0.061,1.13,0.963,1.946,2.002,2.003c1.128,0.061,1.946-0.963,2.002-2.003C16.402,67.662,14.575,67.669,14.512,68.84z"/>
</g>
</svg>
