<?xml version="1.0" encoding="utf-8"?>
<!-- Generator: Adobe Illustrator 16.0.4, SVG Export Plug-In . SVG Version: 6.00 Build 0)  -->
<!DOCTYPE svg PUBLIC "-//W3C//DTD SVG 1.1//EN" "http://www.w3.org/Graphics/SVG/1.1/DTD/svg11.dtd">
<svg version="1.1" id="Layer_2" xmlns="http://www.w3.org/2000/svg" xmlns:xlink="http://www.w3.org/1999/xlink" x="0px" y="0px"
	 width="360px" height="200px" viewBox="0 0 360 200" enable-background="new 0 0 360 200" xml:space="preserve">
<symbol  id="Arrow_25" viewBox="-22.859 -13.141 45.719 26.281">
	<polygon fill="none" points="-22.859,-13.141 22.859,-13.141 22.859,13.141 -22.859,13.141 	"/>
	<g>
		<polygon fill="#F5F5F5" points="-5.512,2.214 8.487,2.214 8.487,-3.877 22.405,4.15 8.487,12.172 8.487,6.085 -5.512,6.085 		"/>
	</g>
</symbol>
<g>
	<g>
		<g>
			<path fill="#C6C6C5" d="M25.465,37.823c-0.449,8.335-12.486,8.335-12.935,0C12.081,29.482,25.019,29.526,25.465,37.823
				c0.104,1.924,3.104,1.934,3,0c-0.289-5.356-4.111-9.179-9.467-9.468c-5.346-0.288-9.203,4.545-9.468,9.468
				c-0.288,5.346,4.545,9.202,9.468,9.467c5.345,0.288,9.202-4.544,9.467-9.467C28.569,35.889,25.569,35.899,25.465,37.823z"/>
		</g>
	</g>
	<text transform="matrix(1 0 0 1 34.4209 41.3301)" fill="#F5F5F5" font-family="'MyriadPro-Regular'" font-size="11.3387">0% or Unknown</text>
</g>
<g>
	<g>
		<g>
			<path fill="#88A61B" d="M137.853,63.823c-0.449,8.335-12.486,8.335-12.935,0C124.468,55.482,137.406,55.526,137.853,63.823
				c0.104,1.924,3.104,1.934,3,0c-0.289-5.356-4.111-9.179-9.467-9.468c-5.346-0.288-9.203,4.545-9.468,9.468
				c-0.288,5.346,4.545,9.202,9.468,9.467c5.345,0.288,9.202-4.544,9.467-9.467C140.957,61.889,137.956,61.899,137.853,63.823z"/>
		</g>
	</g>
	<text transform="matrix(1 0 0 1 146.8086 68.1406)" fill="#F5F5F5" font-family="'MyriadPro-Regular'" font-size="11.3387">51 - 75%</text>
</g>
<g>
	<g>
		<path fill="#D92525" d="M25.465,63.741c-0.449,8.334-12.486,8.334-12.935,0C12.081,55.399,25.019,55.443,25.465,63.741
			c0.104,1.924,3.104,1.934,3,0c-0.289-5.356-4.111-9.18-9.467-9.469c-5.346-0.288-9.203,4.546-9.468,9.469
			c-0.288,5.345,4.545,9.201,9.468,9.466c5.344,0.288,9.202-4.544,9.467-9.466C28.569,61.807,25.569,61.817,25.465,63.741z"/>
	</g>
</g>
<text transform="matrix(1 0 0 1 34.4209 67.6572)" fill="#F5F5F5" font-family="'MyriadPro-Regular'" font-size="11.3387">1 - 25%</text>
<g>
	<g>
		<g>
			<path fill="#05A8F2" d="M221.662,37.741c-0.449,8.334-12.485,8.334-12.936,0C208.277,29.399,221.215,29.443,221.662,37.741
				c0.104,1.924,3.104,1.934,3,0c-0.288-5.356-4.11-9.18-9.467-9.469c-5.346-0.288-9.203,4.546-9.469,9.469
				c-0.287,5.345,4.547,9.201,9.469,9.466c5.344,0.288,9.201-4.544,9.467-9.466C224.768,35.807,221.766,35.817,221.662,37.741z"/>
		</g>
	</g>
	<text transform="matrix(1 0 0 1 230.6182 41.6572)" fill="#F5F5F5" font-family="'MyriadPro-Regular'" font-size="11.3387">76 - 100%</text>
</g>
<g>
	<g>
		<g>
			<path fill="#F29F05" d="M138.465,37.657c-0.449,8.336-12.486,8.336-12.935,0C125.081,29.316,138.019,29.36,138.465,37.657
				c0.104,1.924,3.104,1.934,3,0c-0.289-5.356-4.111-9.179-9.467-9.468c-5.346-0.288-9.203,4.545-9.468,9.468
				c-0.288,5.345,4.545,9.203,9.468,9.468c5.345,0.288,9.202-4.546,9.467-9.468C141.569,35.723,138.569,35.733,138.465,37.657z"/>
		</g>
	</g>
	<text transform="matrix(1 0 0 1 147.4209 42.3848)" fill="#F5F5F5" font-family="'MyriadPro-Regular'" font-size="11.3387">26 - 50%</text>
</g>
<text transform="matrix(1 0 0 1 11.0303 166.4033)" fill="#F5F5F5" font-family="'MyriadPro-Regular'" font-size="11.3387">fewer                                           </text>
<g>
	<g>
		<path fill="#C6C6C5" d="M14.911,144.592c-0.021,0.381-0.555,0.381-0.575,0C14.315,144.211,14.89,144.216,14.911,144.592
			c0.104,1.924,3.104,1.934,3,0c-0.1-1.855-1.432-3.188-3.287-3.287c-1.852-0.1-3.196,1.581-3.288,3.287
			c-0.1,1.854,1.582,3.195,3.288,3.287c1.852,0.1,3.195-1.581,3.287-3.287C18.015,142.658,15.014,142.668,14.911,144.592z"/>
	</g>
</g>
<g>
	<g>
		<path fill="#C6C6C5" d="M40.044,142.802c-0.157,2.921-4.371,2.921-4.528,0C35.358,139.879,39.887,139.895,40.044,142.802
			c0.104,1.925,3.104,1.935,3,0c-0.16-2.975-2.29-5.104-5.265-5.265c-2.968-0.16-5.116,2.529-5.264,5.265
			c-0.16,2.968,2.53,5.116,5.264,5.265c2.968,0.16,5.117-2.529,5.265-5.265C43.148,140.868,40.147,140.878,40.044,142.802z"/>
	</g>
</g>
<g>
	<g>
		<path fill="#C6C6C5" d="M73.25,137.788c-0.505,9.38-14.05,9.38-14.555,0C58.19,128.402,72.748,128.453,73.25,137.788
			c0.104,1.924,3.104,1.935,3,0c-0.313-5.815-4.462-9.964-10.277-10.277c-5.804-0.312-9.99,4.933-10.278,10.277
			c-0.312,5.805,4.932,9.989,10.278,10.276c5.804,0.312,9.99-4.933,10.277-10.276C76.354,135.854,73.354,135.864,73.25,137.788z"/>
	</g>
</g>
<g>
	<g>
		<path fill="#C6C6C5" d="M171.08,127.343c-0.349,9.91-7.811,17.374-17.722,17.724c-9.907,0.349-17.393-8.332-17.723-17.724
			c-0.348-9.905,8.333-17.391,17.723-17.721C163.263,109.273,170.75,117.954,171.08,127.343c0.068,1.929,3.068,1.937,3,0
			c-0.407-11.579-9.143-20.313-20.722-20.721c-11.572-0.407-20.337,9.754-20.723,20.721c-0.407,11.573,9.756,20.337,20.723,20.724
			c11.572,0.406,20.336-9.758,20.722-20.724C174.148,125.407,171.148,125.414,171.08,127.343z"/>
	</g>
</g>
<g>
	<g>
		<path fill="#C6C6C5" d="M243.58,122.093c-0.352,13.872-11.1,24.622-24.973,24.974c-13.871,0.351-24.635-11.629-24.973-24.974
			c-0.351-13.87,11.631-24.633,24.973-24.97C232.479,96.772,243.242,108.751,243.58,122.093c0.049,1.931,3.049,1.937,3,0
			c-0.393-15.518-12.455-27.578-27.973-27.97c-15.516-0.393-27.594,13.041-27.973,27.97c-0.393,15.517,13.042,27.595,27.973,27.974
			c15.517,0.393,27.595-13.045,27.973-27.974C246.629,120.157,243.629,120.162,243.58,122.093z"/>
	</g>
</g>
<g>
	<g>
		<path fill="#C6C6C5" d="M114.215,133.908c-0.774,14.379-21.54,14.379-22.314,0c-0.34-6.311,5.343-10.842,11.158-11.155
			C109.368,122.413,113.901,128.094,114.215,133.908c0.104,1.924,3.104,1.934,3,0c-0.982-18.232-27.332-18.232-28.314,0
			c-0.431,8,6.792,13.761,14.158,14.156c7.999,0.432,13.76-6.791,14.156-14.156C117.319,131.975,114.318,131.984,114.215,133.908z"
			/>
	</g>
</g>
<use xlink:href="#Arrow_25"  width="45.719" height="26.281" id="XMLID_2_" x="-22.859" y="-13.141" transform="matrix(0.405 0 0 -0.4985 185.7832 166.2861)" overflow="visible"/>
<line fill="none" stroke="#F5F5F5" stroke-width="1.6" stroke-miterlimit="10" x1="183.552" y1="164.275" x2="47.489" y2="164.145"/>
<text transform="matrix(1 0 0 1 6.9805 14.6035)" fill="#F5F5F5" font-family="'MyriadPro-Bold'" font-size="12.9585">Percentage over 32 inches</text>
<text transform="matrix(1 0 0 1 6.9805 103.2285)" fill="#F5F5F5" font-family="'MyriadPro-Bold'" font-size="12.9585">Total pounds</text>
<text transform="matrix(1 0 0 1 203.5 167.1436)" fill="#F5F5F5" font-family="'MyriadPro-Regular'" font-size="12">more</text>
</svg>
