<?xml version="1.0" encoding="utf-8"?>
<!-- Generator: Adobe Illustrator 16.0.4, SVG Export Plug-In . SVG Version: 6.00 Build 0)  -->
<!DOCTYPE svg PUBLIC "-//W3C//DTD SVG 1.1//EN" "http://www.w3.org/Graphics/SVG/1.1/DTD/svg11.dtd">
<svg version="1.1" id="Layer_1" xmlns="http://www.w3.org/2000/svg" xmlns:xlink="http://www.w3.org/1999/xlink" x="0px" y="0px"
	 width="320px" height="210px" viewBox="0 0 320 210" enable-background="new 0 0 320 210" xml:space="preserve">
<symbol  id="Arrow_25" viewBox="-22.859 -13.141 45.718 26.281">
	<polygon fill="none" points="-22.859,-13.141 22.859,-13.141 22.859,13.141 -22.859,13.141 	"/>
	<g>
		<polygon fill="#F5F5F5" points="-5.512,2.214 8.487,2.214 8.487,-3.877 22.405,4.15 8.487,12.172 8.487,6.085 -5.512,6.085 		"/>
	</g>
</symbol>
<g>
	<g>
		<path fill="#C6C6C5" d="M22.921,162.516c-0.435,8.075-12.097,8.075-12.533,0C9.954,154.435,22.489,154.476,22.921,162.516
			c0.101,1.864,3.007,1.874,2.906,0c-0.28-5.189-3.983-8.894-9.172-9.173c-5.18-0.28-8.917,4.403-9.174,9.173
			c-0.278,5.179,4.404,8.916,9.174,9.172c5.178,0.279,8.916-4.402,9.172-9.172C25.929,160.642,23.022,160.65,22.921,162.516z"/>
	</g>
</g>
<g enable-background="new    ">
	<path fill="#F5F5F5" stroke="#F5F5F5" stroke-width="0.5" stroke-miterlimit="10" d="M32.081,161.809
		c0-0.984,0.101-1.775,0.303-2.375s0.504-1.063,0.903-1.389c0.399-0.325,0.902-0.488,1.507-0.488c0.447,0,0.838,0.091,1.175,0.269
		c0.337,0.18,0.615,0.439,0.834,0.779c0.219,0.339,0.392,0.75,0.517,1.236s0.187,1.143,0.187,1.966c0,0.979-0.101,1.762-0.301,2.361
		c-0.201,0.597-0.501,1.063-0.9,1.394c-0.399,0.327-0.904,0.491-1.513,0.491c-0.802,0-1.433-0.287-1.89-0.866
		C32.355,164.5,32.081,163.372,32.081,161.809z M33.131,161.809c0,1.366,0.16,2.28,0.479,2.728c0.32,0.448,0.714,0.679,1.184,0.679
		c0.47,0,0.864-0.227,1.184-0.682c0.32-0.454,0.48-1.362,0.48-2.725c0-1.37-0.16-2.28-0.48-2.727
		c-0.319-0.447-0.717-0.675-1.194-0.675c-0.469,0-0.844,0.198-1.124,0.595C33.308,159.506,33.131,160.442,33.131,161.809z"/>
	<path fill="#F5F5F5" stroke="#F5F5F5" stroke-width="0.5" stroke-miterlimit="10" d="M38.74,159.589c0-0.594,0.149-1.1,0.448-1.513
		c0.3-0.414,0.733-0.626,1.301-0.626c0.522,0,0.954,0.184,1.297,0.557c0.343,0.377,0.514,0.921,0.514,1.644
		c0,0.707-0.173,1.246-0.519,1.627c-0.346,0.384-0.773,0.573-1.28,0.573c-0.504,0-0.922-0.186-1.257-0.561
		C38.908,160.913,38.74,160.346,38.74,159.589z M40.517,158.152c-0.254,0-0.464,0.11-0.633,0.33
		c-0.168,0.219-0.253,0.622-0.253,1.209c0,0.533,0.085,0.908,0.256,1.126c0.17,0.219,0.381,0.327,0.63,0.327
		c0.258,0,0.47-0.109,0.639-0.329c0.168-0.223,0.252-0.623,0.252-1.204c0-0.537-0.085-0.914-0.255-1.132
		C40.982,158.261,40.771,158.152,40.517,158.152z M40.522,166.22l4.553-8.772h0.828l-4.536,8.772H40.522L40.522,166.22z
		 M44.123,163.96c0-0.598,0.149-1.108,0.448-1.519c0.299-0.409,0.734-0.621,1.306-0.621c0.522,0,0.954,0.182,1.297,0.558
		c0.343,0.373,0.513,0.917,0.513,1.64c0,0.707-0.173,1.246-0.519,1.631c-0.346,0.381-0.775,0.571-1.286,0.571
		c-0.504,0-0.922-0.188-1.257-0.565C44.29,165.277,44.123,164.714,44.123,163.96z M45.905,162.524c-0.258,0-0.47,0.109-0.639,0.329
		c-0.168,0.22-0.252,0.622-0.252,1.209c0,0.53,0.085,0.904,0.256,1.124c0.17,0.22,0.38,0.329,0.63,0.329
		c0.262,0,0.475-0.109,0.644-0.329c0.168-0.22,0.253-0.621,0.253-1.203c0-0.538-0.085-0.914-0.256-1.133
		S46.158,162.524,45.905,162.524z"/>
	<path fill="#F5F5F5" stroke="#F5F5F5" stroke-width="0.5" stroke-miterlimit="10" d="M52.019,162.898
		c0-1.116,0.31-1.943,0.931-2.48c0.519-0.446,1.151-0.67,1.896-0.67c0.829,0,1.507,0.271,2.033,0.815
		c0.526,0.545,0.789,1.293,0.789,2.25c0,0.776-0.116,1.387-0.349,1.832c-0.232,0.444-0.571,0.789-1.016,1.035
		c-0.444,0.246-0.93,0.369-1.456,0.369c-0.844,0-1.526-0.271-2.046-0.812C52.279,164.696,52.019,163.917,52.019,162.898z
		 M53.069,162.898c0,0.772,0.168,1.354,0.505,1.735c0.336,0.385,0.761,0.575,1.271,0.575c0.507,0,0.929-0.189,1.267-0.579
		c0.337-0.386,0.505-0.975,0.505-1.766c0-0.745-0.17-1.311-0.508-1.693c-0.338-0.383-0.759-0.577-1.263-0.577
		c-0.51,0-0.935,0.191-1.271,0.573C53.237,161.551,53.069,162.127,53.069,162.898z"/>
	<path fill="#F5F5F5" stroke="#F5F5F5" stroke-width="0.5" stroke-miterlimit="10" d="M58.854,165.913v-6.029h0.92v0.909
		c0.234-0.425,0.451-0.706,0.65-0.843c0.199-0.138,0.418-0.207,0.656-0.207c0.344,0,0.694,0.109,1.05,0.334l-0.352,0.948
		c-0.25-0.147-0.5-0.222-0.749-0.222c-0.223,0-0.424,0.062-0.602,0.201c-0.177,0.134-0.304,0.321-0.38,0.555
		c-0.114,0.363-0.171,0.761-0.171,1.191v3.158L58.854,165.913L58.854,165.913z"/>
	<path fill="#F5F5F5" stroke="#F5F5F5" stroke-width="0.5" stroke-miterlimit="10" d="M71.559,157.591h1.102v4.809
		c0,0.836-0.095,1.5-0.284,1.992s-0.531,0.894-1.025,1.201s-1.143,0.462-1.945,0.462c-0.78,0-1.417-0.134-1.914-0.402
		c-0.496-0.265-0.85-0.657-1.062-1.166c-0.212-0.505-0.318-1.2-0.318-2.082v-4.81h1.102v4.803c0,0.723,0.067,1.255,0.202,1.595
		c0.134,0.343,0.365,0.607,0.692,0.791c0.328,0.184,0.728,0.278,1.2,0.278c0.811,0,1.388-0.182,1.732-0.549
		c0.344-0.369,0.517-1.071,0.517-2.12L71.559,157.591L71.559,157.591z"/>
	<path fill="#F5F5F5" stroke="#F5F5F5" stroke-width="0.5" stroke-miterlimit="10" d="M74.364,165.913v-6.029h0.919v0.857
		c0.443-0.662,1.083-0.993,1.918-0.993c0.363,0,0.698,0.065,1.002,0.195c0.304,0.132,0.533,0.303,0.684,0.515
		c0.151,0.211,0.258,0.463,0.318,0.755c0.038,0.185,0.058,0.521,0.058,0.988v3.707H78.24v-3.667c0-0.416-0.04-0.728-0.119-0.934
		c-0.08-0.207-0.221-0.371-0.423-0.496c-0.203-0.125-0.44-0.183-0.712-0.183c-0.435,0-0.811,0.141-1.126,0.419
		c-0.316,0.274-0.474,0.799-0.474,1.572v3.29L74.364,165.913L74.364,165.913z"/>
	<path fill="#F5F5F5" stroke="#F5F5F5" stroke-width="0.5" stroke-miterlimit="10" d="M80.834,165.913v-8.322h1.022v4.746
		l2.418-2.453h1.322l-2.305,2.237l2.538,3.792h-1.261l-1.992-3.083l-0.721,0.693v2.39H80.834L80.834,165.913z"/>
	<path fill="#F5F5F5" stroke="#F5F5F5" stroke-width="0.5" stroke-miterlimit="10" d="M86.642,165.913v-6.029h0.92v0.857
		c0.442-0.662,1.082-0.993,1.918-0.993c0.363,0,0.697,0.065,1.001,0.195c0.304,0.132,0.533,0.303,0.684,0.515
		c0.151,0.211,0.258,0.463,0.318,0.755c0.038,0.185,0.058,0.521,0.058,0.988v3.707h-1.022v-3.667c0-0.416-0.04-0.728-0.119-0.934
		c-0.08-0.207-0.221-0.371-0.423-0.496c-0.203-0.125-0.439-0.183-0.712-0.183c-0.435,0-0.811,0.141-1.127,0.419
		c-0.316,0.274-0.474,0.799-0.474,1.572v3.29L86.642,165.913L86.642,165.913z"/>
	<path fill="#F5F5F5" stroke="#F5F5F5" stroke-width="0.5" stroke-miterlimit="10" d="M92.729,162.898
		c0-1.116,0.31-1.943,0.931-2.48c0.519-0.446,1.151-0.67,1.896-0.67c0.828,0,1.506,0.271,2.033,0.815
		c0.526,0.545,0.789,1.293,0.789,2.25c0,0.776-0.116,1.387-0.349,1.832c-0.232,0.444-0.571,0.789-1.016,1.035
		s-0.93,0.369-1.456,0.369c-0.844,0-1.526-0.271-2.047-0.812C92.989,164.696,92.729,163.917,92.729,162.898z M93.779,162.898
		c0,0.772,0.168,1.354,0.505,1.735c0.336,0.385,0.76,0.575,1.271,0.575c0.506,0,0.929-0.189,1.266-0.579
		c0.337-0.386,0.505-0.975,0.505-1.766c0-0.745-0.169-1.311-0.507-1.693s-0.76-0.577-1.263-0.577c-0.511,0-0.936,0.191-1.271,0.573
		C93.947,161.551,93.779,162.127,93.779,162.898z"/>
	<path fill="#F5F5F5" stroke="#F5F5F5" stroke-width="0.5" stroke-miterlimit="10" d="M100.687,165.913l-1.845-6.029h1.056
		l0.959,3.48l0.357,1.294c0.016-0.064,0.119-0.479,0.312-1.243l0.959-3.531h1.05l0.903,3.493l0.301,1.151l0.346-1.162l1.033-3.489
		h0.993l-1.884,6.032h-1.062l-0.959-3.612l-0.233-1.029l-1.22,4.638h-1.067V165.913z"/>
	<path fill="#F5F5F5" stroke="#F5F5F5" stroke-width="0.5" stroke-miterlimit="10" d="M107.971,165.913v-6.029h0.919v0.857
		c0.443-0.662,1.083-0.993,1.918-0.993c0.363,0,0.698,0.065,1.002,0.195c0.304,0.132,0.533,0.303,0.684,0.515
		c0.151,0.211,0.258,0.463,0.318,0.755c0.038,0.185,0.057,0.521,0.057,0.988v3.707h-1.022v-3.667c0-0.416-0.04-0.728-0.119-0.934
		c-0.08-0.207-0.221-0.371-0.424-0.496c-0.202-0.125-0.44-0.183-0.712-0.183c-0.435,0-0.811,0.141-1.127,0.419
		c-0.316,0.274-0.474,0.799-0.474,1.572v3.29L107.971,165.913L107.971,165.913z"/>
</g>
<g>
	<g>
		<path fill="#88A61B" d="M140.531,187.706c-0.435,8.075-12.097,8.075-12.532,0C127.562,179.625,140.098,179.667,140.531,187.706
			c0.101,1.864,3.008,1.874,2.907,0c-0.28-5.189-3.983-8.893-9.172-9.173c-5.18-0.28-8.917,4.403-9.174,9.173
			c-0.279,5.18,4.403,8.916,9.174,9.172c5.178,0.279,8.915-4.402,9.172-9.172C143.539,185.832,140.631,185.841,140.531,187.706z"/>
	</g>
</g>
<g enable-background="new    ">
	<path fill="#F5F5F5" stroke="#F5F5F5" stroke-width="0.5" stroke-miterlimit="10" d="M149.691,189.709l1.072-0.091
		c0.08,0.522,0.264,0.915,0.553,1.179c0.29,0.264,0.639,0.394,1.047,0.394c0.492,0,0.909-0.185,1.249-0.556
		c0.34-0.371,0.51-0.863,0.51-1.474c0-0.585-0.164-1.042-0.491-1.382c-0.327-0.337-0.755-0.506-1.286-0.506
		c-0.329,0-0.626,0.075-0.891,0.224c-0.266,0.149-0.473,0.343-0.625,0.583l-0.959-0.125l0.806-4.274h4.138v0.978h-3.321l-0.448,2.24
		c0.5-0.349,1.024-0.522,1.572-0.522c0.727,0,1.34,0.252,1.839,0.752c0.499,0.506,0.749,1.151,0.749,1.941
		c0,0.754-0.221,1.404-0.659,1.956c-0.534,0.671-1.262,1.011-2.186,1.011c-0.756,0-1.375-0.212-1.854-0.633
		C150.029,190.974,149.758,190.409,149.691,189.709z"/>
	<path fill="#F5F5F5" stroke="#F5F5F5" stroke-width="0.5" stroke-miterlimit="10" d="M160.006,191.89h-1.022v-6.512
		c-0.246,0.234-0.569,0.469-0.969,0.704c-0.399,0.236-0.757,0.414-1.075,0.527v-0.987c0.571-0.269,1.071-0.595,1.499-0.977
		c0.428-0.383,0.73-0.753,0.908-1.113h0.664L160.006,191.89L160.006,191.89z"/>
	<path fill="#F5F5F5" stroke="#F5F5F5" stroke-width="0.5" stroke-miterlimit="10" d="M165.739,189.392v-1.029h3.14v1.029H165.739z"
		/>
	<path fill="#F5F5F5" stroke="#F5F5F5" stroke-width="0.5" stroke-miterlimit="10" d="M173.022,184.656v-0.981h5.39v0.795
		c-0.532,0.563-1.056,1.311-1.575,2.246c-0.521,0.937-0.923,1.896-1.206,2.886c-0.205,0.696-0.337,1.459-0.393,2.288h-1.05
		c0.014-0.66,0.142-1.446,0.384-2.373c0.247-0.928,0.601-1.822,1.061-2.686c0.461-0.861,0.949-1.587,1.47-2.176L173.022,184.656
		L173.022,184.656z"/>
	<path fill="#F5F5F5" stroke="#F5F5F5" stroke-width="0.5" stroke-miterlimit="10" d="M179.421,189.709l1.073-0.091
		c0.079,0.522,0.262,0.915,0.547,1.179c0.29,0.264,0.639,0.394,1.048,0.394c0.492,0,0.908-0.185,1.249-0.556
		c0.34-0.371,0.505-0.863,0.505-1.474c0-0.585-0.162-1.042-0.49-1.382c-0.327-0.337-0.757-0.506-1.286-0.506
		c-0.329,0-0.626,0.075-0.892,0.224c-0.262,0.149-0.469,0.343-0.624,0.583l-0.96-0.125l0.807-4.274h4.139v0.978h-3.322l-0.451,2.24
		c0.503-0.349,1.027-0.522,1.572-0.522c0.727,0,1.343,0.252,1.837,0.752c0.5,0.506,0.747,1.151,0.747,1.941
		c0,0.754-0.223,1.404-0.659,1.956c-0.536,0.671-1.265,1.011-2.188,1.011c-0.755,0-1.376-0.212-1.853-0.633
		C179.751,190.976,179.489,190.409,179.421,189.709z"/>
	<path fill="#F5F5F5" stroke="#F5F5F5" stroke-width="0.5" stroke-miterlimit="10" d="M186.08,185.565
		c0-0.595,0.149-1.1,0.448-1.517c0.299-0.415,0.732-0.624,1.3-0.624c0.522,0,0.954,0.186,1.298,0.559
		c0.343,0.373,0.514,0.921,0.514,1.643c0,0.705-0.175,1.243-0.52,1.627c-0.346,0.381-0.773,0.571-1.28,0.571
		c-0.504,0-0.922-0.188-1.258-0.562C186.247,186.888,186.08,186.322,186.08,185.565z M187.856,184.129
		c-0.253,0-0.463,0.109-0.633,0.329c-0.168,0.223-0.253,0.626-0.253,1.209c0,0.534,0.086,0.909,0.256,1.128
		c0.17,0.218,0.381,0.325,0.63,0.325c0.258,0,0.47-0.109,0.638-0.329c0.17-0.22,0.254-0.62,0.254-1.203
		c0-0.537-0.085-0.91-0.256-1.132C188.322,184.237,188.11,184.129,187.856,184.129z M187.862,192.195l4.553-8.771h0.827
		l-4.536,8.771H187.862z M191.462,189.937c0-0.599,0.149-1.105,0.448-1.518c0.299-0.415,0.734-0.623,1.306-0.623
		c0.522,0,0.955,0.186,1.298,0.56c0.344,0.373,0.513,0.92,0.513,1.644c0,0.704-0.173,1.245-0.519,1.626
		c-0.342,0.382-0.775,0.57-1.286,0.57c-0.504,0-0.917-0.187-1.257-0.564C191.629,191.253,191.462,190.689,191.462,189.937z
		 M193.244,188.5c-0.257,0-0.469,0.106-0.638,0.329c-0.169,0.221-0.254,0.624-0.254,1.209c0,0.53,0.086,0.906,0.256,1.124
		c0.17,0.22,0.384,0.33,0.63,0.33c0.262,0,0.477-0.109,0.645-0.33c0.168-0.222,0.253-0.624,0.253-1.203
		c0-0.537-0.085-0.914-0.256-1.132C193.71,188.608,193.498,188.5,193.244,188.5z"/>
</g>
<g>
	<g>
		<path fill="#D92525" d="M22.921,187.627c-0.435,8.074-12.097,8.074-12.533,0C9.954,179.544,22.489,179.587,22.921,187.627
			c0.101,1.863,3.007,1.874,2.906,0c-0.28-5.19-3.983-8.896-9.172-9.175c-5.18-0.278-8.917,4.405-9.174,9.175
			c-0.278,5.178,4.404,8.914,9.174,9.171c5.177,0.279,8.916-4.402,9.172-9.171C25.929,185.752,23.022,185.762,22.921,187.627z"/>
	</g>
</g>
<g enable-background="new    ">
	<path fill="#F5F5F5" stroke="#F5F5F5" stroke-width="0.5" stroke-miterlimit="10" d="M35.931,191.421h-1.022v-6.513
		c-0.246,0.234-0.569,0.466-0.968,0.705c-0.399,0.239-0.758,0.41-1.076,0.528v-0.989c0.572-0.268,1.071-0.593,1.499-0.977
		s0.73-0.753,0.909-1.111h0.659L35.931,191.421L35.931,191.421z"/>
	<path fill="#F5F5F5" stroke="#F5F5F5" stroke-width="0.5" stroke-miterlimit="10" d="M41.664,188.923v-1.028h3.139v1.028H41.664z"
		/>
	<path fill="#F5F5F5" stroke="#F5F5F5" stroke-width="0.5" stroke-miterlimit="10" d="M54.25,190.439v0.982h-5.501
		c-0.008-0.246,0.032-0.482,0.119-0.71c0.141-0.374,0.364-0.743,0.672-1.106s0.754-0.784,1.337-1.261
		c0.905-0.746,1.516-1.33,1.834-1.763s0.477-0.843,0.477-1.229c0-0.405-0.144-0.748-0.434-1.03c-0.29-0.274-0.667-0.42-1.133-0.42
		c-0.492,0-0.885,0.146-1.181,0.443c-0.296,0.298-0.445,0.706-0.449,1.229l-1.05-0.103c0.072-0.787,0.343-1.382,0.812-1.796
		c0.469-0.411,1.1-0.616,1.89-0.616c0.798,0,1.431,0.223,1.896,0.667c0.465,0.442,0.699,0.988,0.699,1.644
		c0,0.336-0.068,0.665-0.204,0.986c-0.137,0.322-0.363,0.661-0.679,1.017s-0.841,0.844-1.575,1.465
		c-0.613,0.515-1.007,0.864-1.181,1.047c-0.175,0.183-0.318,0.368-0.432,0.554H54.25L54.25,190.439z"/>
	<path fill="#F5F5F5" stroke="#F5F5F5" stroke-width="0.5" stroke-miterlimit="10" d="M55.346,189.241l1.073-0.092
		c0.079,0.521,0.263,0.911,0.553,1.179c0.29,0.263,0.639,0.394,1.047,0.394c0.493,0,0.909-0.185,1.249-0.557
		c0.34-0.371,0.511-0.862,0.511-1.475c0-0.584-0.164-1.042-0.491-1.38c-0.328-0.338-0.756-0.504-1.286-0.504
		c-0.329,0-0.625,0.073-0.891,0.221c-0.265,0.15-0.473,0.343-0.625,0.585l-0.959-0.125l0.806-4.274h4.138v0.979h-3.321l-0.449,2.236
		c0.5-0.346,1.024-0.522,1.573-0.522c0.727,0,1.339,0.254,1.839,0.756c0.499,0.501,0.749,1.15,0.749,1.941
		c0,0.751-0.22,1.403-0.659,1.954c-0.534,0.672-1.262,1.011-2.186,1.011c-0.757,0-1.375-0.214-1.854-0.636
		C55.684,190.505,55.414,189.941,55.346,189.241z"/>
	<path fill="#F5F5F5" stroke="#F5F5F5" stroke-width="0.5" stroke-miterlimit="10" d="M62.005,185.097
		c0-0.594,0.149-1.1,0.449-1.515c0.299-0.416,0.732-0.626,1.3-0.626c0.522,0,0.954,0.187,1.298,0.56
		c0.342,0.373,0.513,0.921,0.513,1.643c0,0.705-0.174,1.247-0.52,1.627c-0.346,0.381-0.773,0.571-1.28,0.571
		c-0.504,0-0.922-0.187-1.257-0.562C62.172,186.419,62.005,185.854,62.005,185.097z M63.782,183.659
		c-0.254,0-0.464,0.11-0.633,0.329c-0.168,0.221-0.253,0.624-0.253,1.21c0,0.534,0.085,0.908,0.256,1.128
		c0.17,0.217,0.381,0.325,0.63,0.325c0.257,0,0.47-0.109,0.638-0.329c0.169-0.223,0.253-0.625,0.253-1.204
		c0-0.537-0.085-0.914-0.256-1.132C64.247,183.77,64.035,183.659,63.782,183.659z M63.788,191.729l4.552-8.775h0.829l-4.537,8.775
		H63.788L63.788,191.729z M67.386,189.469c0-0.598,0.149-1.108,0.449-1.519c0.299-0.413,0.734-0.621,1.306-0.621
		c0.522,0,0.954,0.182,1.297,0.558c0.343,0.373,0.514,0.917,0.514,1.64c0,0.707-0.173,1.246-0.519,1.631
		c-0.346,0.38-0.775,0.571-1.286,0.571c-0.504,0-0.922-0.189-1.257-0.566C67.554,190.786,67.386,190.221,67.386,189.469z
		 M69.169,188.031c-0.258,0-0.47,0.109-0.639,0.33c-0.168,0.22-0.253,0.623-0.253,1.209c0,0.529,0.086,0.905,0.256,1.124
		c0.17,0.219,0.381,0.329,0.629,0.329c0.262,0,0.476-0.108,0.645-0.329c0.169-0.221,0.253-0.622,0.253-1.204
		c0-0.538-0.085-0.914-0.256-1.132S69.422,188.031,69.169,188.031z"/>
</g>
<g>
	<g>
		<path fill="#05A8F2" d="M224.638,162.436c-0.435,8.075-12.097,8.075-12.532,0C211.67,154.353,224.205,154.396,224.638,162.436
			c0.101,1.864,3.007,1.875,2.907,0c-0.279-5.189-3.982-8.895-9.173-9.175c-5.179-0.278-8.916,4.405-9.174,9.175
			c-0.278,5.179,4.405,8.914,9.174,9.172c5.178,0.279,8.915-4.402,9.173-9.172C227.646,160.562,224.738,160.571,224.638,162.436z"/>
	</g>
</g>
<g enable-background="new    ">
	<path fill="#F5F5F5" stroke="#F5F5F5" stroke-width="0.5" stroke-miterlimit="10" d="M233.867,158.997v-0.982h5.389v0.791
		c-0.529,0.563-1.055,1.312-1.575,2.244c-0.521,0.938-0.922,1.896-1.206,2.887c-0.204,0.699-0.335,1.462-0.39,2.288h-1.051
		c0.012-0.658,0.143-1.446,0.385-2.373c0.242-0.928,0.596-1.821,1.059-2.685c0.463-0.862,0.949-1.588,1.469-2.176h-4.079V158.997z"
		/>
	<path fill="#F5F5F5" stroke="#F5F5F5" stroke-width="0.5" stroke-miterlimit="10" d="M245.567,159.945l-1.018,0.08
		c-0.091-0.401-0.221-0.692-0.385-0.873c-0.271-0.292-0.617-0.438-1.022-0.438c-0.326,0-0.611,0.095-0.857,0.272
		c-0.322,0.234-0.575,0.581-0.761,1.029c-0.185,0.45-0.282,1.092-0.29,1.923c0.246-0.375,0.546-0.653,0.904-0.833
		c0.355-0.182,0.729-0.272,1.117-0.272c0.681,0,1.261,0.254,1.74,0.751c0.479,0.502,0.718,1.151,0.718,1.945
		c0,0.522-0.112,1.008-0.338,1.457c-0.227,0.448-0.535,0.79-0.929,1.028c-0.393,0.238-0.841,0.357-1.34,0.357
		c-0.852,0-1.551-0.314-2.083-0.94c-0.536-0.627-0.806-1.659-0.806-3.096c0-1.608,0.297-2.778,0.891-3.509
		c0.518-0.632,1.217-0.95,2.095-0.95c0.655,0,1.191,0.182,1.61,0.547C245.232,158.792,245.483,159.299,245.567,159.945z
		 M241.394,163.533c0,0.352,0.075,0.689,0.225,1.011c0.144,0.322,0.357,0.566,0.625,0.735c0.268,0.168,0.55,0.254,0.846,0.254
		c0.431,0,0.803-0.175,1.112-0.522c0.306-0.345,0.463-0.821,0.463-1.42c0-0.576-0.153-1.028-0.461-1.356
		c-0.306-0.333-0.693-0.499-1.156-0.499c-0.464,0-0.855,0.164-1.176,0.499C241.553,162.562,241.394,162.995,241.394,163.533z"/>
	<path fill="#F5F5F5" stroke="#F5F5F5" stroke-width="0.5" stroke-miterlimit="10" d="M249.848,163.732v-1.028h3.139v1.028H249.848z
		"/>
	<path fill="#F5F5F5" stroke="#F5F5F5" stroke-width="0.5" stroke-miterlimit="10" d="M260.912,166.23h-1.022v-6.513
		c-0.246,0.234-0.569,0.466-0.969,0.705c-0.398,0.239-0.757,0.41-1.074,0.527v-0.988c0.571-0.268,1.07-0.594,1.499-0.977
		c0.427-0.384,0.729-0.753,0.909-1.111h0.659v8.356H260.912z"/>
	<path fill="#F5F5F5" stroke="#F5F5F5" stroke-width="0.5" stroke-miterlimit="10" d="M263.528,162.126
		c0-0.985,0.102-1.776,0.304-2.376s0.503-1.062,0.902-1.389c0.399-0.325,0.902-0.487,1.509-0.487c0.446,0,0.837,0.09,1.175,0.27
		c0.342,0.179,0.62,0.438,0.834,0.777c0.218,0.339,0.392,0.751,0.516,1.237c0.125,0.486,0.187,1.142,0.187,1.963
		c0,0.98-0.101,1.765-0.303,2.361c-0.2,0.6-0.501,1.067-0.899,1.394c-0.399,0.33-0.905,0.495-1.513,0.495
		c-0.803,0-1.434-0.291-1.891-0.866C263.803,164.816,263.528,163.688,263.528,162.126z M264.578,162.126
		c0,1.366,0.16,2.275,0.48,2.728c0.319,0.451,0.714,0.678,1.185,0.678c0.469,0,0.868-0.227,1.188-0.682
		c0.313-0.454,0.475-1.361,0.475-2.725c0-1.37-0.161-2.28-0.475-2.729c-0.32-0.45-0.719-0.672-1.194-0.672
		c-0.466,0-0.841,0.198-1.12,0.593C264.754,159.822,264.578,160.761,264.578,162.126z"/>
	<path fill="#F5F5F5" stroke="#F5F5F5" stroke-width="0.5" stroke-miterlimit="10" d="M269.995,162.126
		c0-0.985,0.102-1.776,0.303-2.376c0.202-0.6,0.504-1.062,0.902-1.389c0.399-0.325,0.903-0.487,1.509-0.487
		c0.451,0,0.838,0.09,1.18,0.27c0.337,0.179,0.615,0.438,0.83,0.777c0.222,0.339,0.391,0.751,0.516,1.237
		c0.126,0.486,0.188,1.142,0.188,1.963c0,0.98-0.102,1.765-0.302,2.361c-0.201,0.6-0.506,1.067-0.905,1.394
		c-0.399,0.33-0.908,0.495-1.514,0.495c-0.803,0-1.433-0.291-1.891-0.866C270.269,164.816,269.995,163.688,269.995,162.126z
		 M271.046,162.126c0,1.366,0.158,2.275,0.479,2.728c0.319,0.451,0.714,0.678,1.185,0.678c0.469,0,0.868-0.227,1.188-0.682
		c0.319-0.454,0.479-1.361,0.479-2.725c0-1.37-0.16-2.28-0.479-2.729c-0.32-0.45-0.718-0.672-1.19-0.672
		c-0.47,0-0.844,0.198-1.124,0.593C271.221,159.822,271.046,160.761,271.046,162.126z"/>
	<path fill="#F5F5F5" stroke="#F5F5F5" stroke-width="0.5" stroke-miterlimit="10" d="M276.654,159.906
		c0-0.594,0.148-1.1,0.448-1.515c0.303-0.417,0.732-0.626,1.305-0.626c0.518,0,0.949,0.187,1.298,0.56
		c0.342,0.372,0.509,0.92,0.509,1.643c0,0.704-0.174,1.247-0.521,1.627c-0.343,0.381-0.771,0.57-1.274,0.57
		c-0.502,0-0.921-0.187-1.258-0.561C276.821,161.229,276.654,160.663,276.654,159.906z M278.432,158.469
		c-0.255,0-0.464,0.109-0.635,0.329c-0.168,0.221-0.251,0.624-0.251,1.209c0,0.535,0.085,0.908,0.26,1.128
		c0.171,0.218,0.384,0.326,0.626,0.326c0.262,0,0.469-0.109,0.638-0.33c0.168-0.222,0.253-0.624,0.253-1.203
		c0-0.537-0.085-0.914-0.256-1.132S278.683,158.469,278.432,158.469z M278.436,166.538l4.553-8.776h0.828l-4.535,8.776H278.436
		L278.436,166.538z M282.034,164.278c0-0.598,0.149-1.109,0.449-1.519c0.299-0.414,0.734-0.622,1.306-0.622
		c0.522,0,0.955,0.182,1.298,0.559c0.343,0.373,0.514,0.917,0.514,1.64c0,0.707-0.174,1.246-0.52,1.63
		c-0.347,0.381-0.775,0.572-1.285,0.572c-0.504,0-0.923-0.189-1.258-0.566S282.034,165.03,282.034,164.278z M283.817,162.841
		c-0.258,0-0.47,0.109-0.639,0.329c-0.168,0.221-0.252,0.624-0.252,1.21c0,0.529,0.085,0.905,0.255,1.124
		c0.172,0.218,0.382,0.329,0.63,0.329c0.262,0,0.477-0.109,0.645-0.329c0.169-0.221,0.253-0.622,0.253-1.204
		c0-0.538-0.085-0.915-0.256-1.133C284.282,162.95,284.071,162.841,283.817,162.841z"/>
</g>
<g>
	<g>
		<path fill="#F29F05" d="M141.124,162.354c-0.435,8.076-12.097,8.076-12.532,0C128.157,154.273,140.692,154.315,141.124,162.354
			c0.101,1.864,3.008,1.874,2.907,0c-0.28-5.189-3.983-8.893-9.172-9.173c-5.18-0.28-8.917,4.403-9.174,9.173
			c-0.278,5.179,4.404,8.916,9.174,9.173c5.178,0.279,8.916-4.404,9.172-9.173C144.131,160.48,141.225,160.489,141.124,162.354z"/>
	</g>
</g>
<g enable-background="new    ">
	<path fill="#F5F5F5" stroke="#F5F5F5" stroke-width="0.5" stroke-miterlimit="10" d="M155.654,165.953v0.981h-5.501
		c-0.008-0.245,0.032-0.482,0.119-0.705c0.141-0.379,0.365-0.748,0.672-1.111c0.308-0.363,0.754-0.783,1.337-1.26
		c0.905-0.742,1.516-1.33,1.834-1.762c0.319-0.43,0.477-0.845,0.477-1.23c0-0.405-0.145-0.747-0.434-1.025
		c-0.29-0.28-0.667-0.421-1.133-0.421c-0.492,0-0.885,0.147-1.181,0.442c-0.296,0.3-0.445,0.707-0.449,1.231l-1.05-0.108
		c0.072-0.783,0.343-1.381,0.812-1.792c0.469-0.41,1.1-0.617,1.891-0.617c0.798,0,1.431,0.222,1.896,0.667
		c0.466,0.442,0.704,0.989,0.704,1.646c0,0.333-0.068,0.661-0.205,0.982c-0.142,0.321-0.362,0.66-0.678,1.017
		c-0.315,0.355-0.841,0.844-1.575,1.464c-0.613,0.516-1.007,0.869-1.181,1.049c-0.174,0.183-0.318,0.367-0.431,0.553H155.654
		L155.654,165.953z"/>
	<path fill="#F5F5F5" stroke="#F5F5F5" stroke-width="0.5" stroke-miterlimit="10" d="M162.051,160.65l-1.016,0.08
		c-0.096-0.401-0.223-0.693-0.386-0.875c-0.276-0.291-0.617-0.437-1.022-0.437c-0.326,0-0.611,0.091-0.862,0.272
		c-0.317,0.234-0.575,0.577-0.756,1.027c-0.184,0.45-0.282,1.092-0.294,1.925c0.25-0.375,0.544-0.653,0.907-0.835
		c0.358-0.181,0.729-0.272,1.118-0.272c0.677,0,1.263,0.256,1.741,0.752c0.479,0.501,0.713,1.149,0.713,1.944
		c0,0.522-0.107,1.009-0.34,1.457c-0.225,0.449-0.538,0.791-0.928,1.03c-0.393,0.238-0.839,0.357-1.344,0.357
		c-0.851,0-1.545-0.313-2.078-0.94c-0.541-0.627-0.806-1.658-0.806-3.096c0-1.609,0.302-2.778,0.891-3.509
		c0.519-0.636,1.222-0.954,2.095-0.954c0.656,0,1.191,0.184,1.609,0.551C161.715,159.496,161.968,160.003,162.051,160.65z
		 M157.879,164.238c0,0.349,0.075,0.689,0.224,1.011s0.358,0.567,0.626,0.736c0.264,0.168,0.546,0.252,0.841,0.252
		c0.432,0,0.802-0.175,1.109-0.521c0.309-0.348,0.465-0.822,0.465-1.42c0-0.576-0.152-1.028-0.461-1.359
		c-0.308-0.33-0.694-0.497-1.158-0.497c-0.463,0-0.853,0.166-1.175,0.497C158.038,163.268,157.879,163.701,157.879,164.238z"/>
	<path fill="#F5F5F5" stroke="#F5F5F5" stroke-width="0.5" stroke-miterlimit="10" d="M166.331,164.438v-1.028h3.14v1.028H166.331z"
		/>
	<path fill="#F5F5F5" stroke="#F5F5F5" stroke-width="0.5" stroke-miterlimit="10" d="M173.549,164.755l1.072-0.091
		c0.079,0.522,0.264,0.914,0.554,1.179c0.289,0.265,0.638,0.394,1.046,0.394c0.492,0,0.908-0.185,1.249-0.556
		c0.34-0.371,0.506-0.863,0.506-1.477c0-0.583-0.163-1.038-0.491-1.379c-0.327-0.337-0.756-0.505-1.285-0.505
		c-0.329,0-0.626,0.075-0.892,0.225c-0.262,0.145-0.468,0.343-0.625,0.582l-0.957-0.125l0.806-4.275h4.138v0.977h-3.321
		l-0.448,2.238c0.504-0.345,1.023-0.522,1.572-0.522c0.727,0,1.34,0.256,1.836,0.755c0.504,0.505,0.749,1.151,0.749,1.941
		c0,0.752-0.221,1.404-0.66,1.957c-0.534,0.67-1.263,1.011-2.186,1.011c-0.757,0-1.376-0.216-1.854-0.636
		C173.878,166.026,173.616,165.455,173.549,164.755z"/>
	<path fill="#F5F5F5" stroke="#F5F5F5" stroke-width="0.5" stroke-miterlimit="10" d="M180.013,162.83
		c0-0.988,0.102-1.776,0.304-2.376c0.203-0.6,0.505-1.062,0.904-1.388c0.398-0.327,0.9-0.49,1.506-0.49
		c0.452,0,0.838,0.091,1.181,0.268c0.339,0.182,0.615,0.438,0.829,0.777c0.223,0.343,0.392,0.751,0.517,1.237
		s0.188,1.143,0.188,1.963c0,0.979-0.101,1.766-0.301,2.364c-0.201,0.6-0.506,1.064-0.906,1.392
		c-0.397,0.327-0.907,0.492-1.513,0.492c-0.8,0-1.434-0.289-1.888-0.865C180.289,165.521,180.013,164.394,180.013,162.83z
		 M181.063,162.83c0,1.367,0.16,2.276,0.48,2.725c0.319,0.455,0.714,0.679,1.183,0.679c0.472,0,0.868-0.224,1.189-0.682
		c0.319-0.454,0.479-1.358,0.479-2.725c0-1.37-0.16-2.28-0.479-2.729c-0.32-0.447-0.713-0.673-1.191-0.673
		c-0.468,0-0.843,0.196-1.123,0.594C181.24,160.527,181.063,161.464,181.063,162.83z"/>
	<path fill="#F5F5F5" stroke="#F5F5F5" stroke-width="0.5" stroke-miterlimit="10" d="M186.674,160.611
		c0-0.595,0.148-1.1,0.448-1.517c0.303-0.415,0.737-0.624,1.306-0.624c0.521,0,0.948,0.182,1.297,0.559
		c0.343,0.372,0.509,0.919,0.509,1.64c0,0.706-0.174,1.246-0.515,1.63c-0.343,0.381-0.777,0.571-1.28,0.571
		c-0.502,0-0.919-0.188-1.257-0.562C186.841,161.934,186.674,161.368,186.674,160.611z M188.451,159.175
		c-0.26,0-0.465,0.109-0.633,0.329c-0.17,0.22-0.253,0.622-0.253,1.209c0,0.534,0.085,0.908,0.255,1.127
		c0.171,0.219,0.381,0.326,0.631,0.326c0.257,0,0.464-0.109,0.638-0.329c0.168-0.22,0.253-0.62,0.253-1.203
		c0-0.538-0.085-0.914-0.261-1.133C188.915,159.282,188.703,159.175,188.451,159.175z M188.455,167.241l4.553-8.771h0.827
		l-4.538,8.771H188.455z M192.055,164.982c0-0.599,0.148-1.105,0.448-1.518c0.301-0.414,0.734-0.623,1.306-0.623
		c0.522,0,0.955,0.186,1.298,0.559s0.514,0.921,0.514,1.645c0,0.703-0.173,1.245-0.52,1.625c-0.347,0.382-0.775,0.571-1.285,0.571
		c-0.504,0-0.923-0.187-1.258-0.564S192.055,165.735,192.055,164.982z M193.838,163.546c-0.259,0-0.471,0.109-0.639,0.329
		c-0.169,0.223-0.253,0.627-0.253,1.209c0,0.53,0.085,0.909,0.255,1.124c0.172,0.223,0.382,0.33,0.631,0.33
		c0.262,0,0.476-0.106,0.645-0.33c0.168-0.219,0.252-0.62,0.252-1.203c0-0.537-0.085-0.91-0.256-1.132
		C194.302,163.654,194.091,163.546,193.838,163.546z"/>
</g>
<g enable-background="new    ">
	<path fill="#F5F5F5" stroke="#F5F5F5" stroke-width="0.25" stroke-miterlimit="10" d="M5.999,136.143v-9.709h3.146
		c1.192,0,1.969,0.049,2.331,0.146c0.556,0.141,1.022,0.463,1.397,0.948c0.375,0.488,0.563,1.118,0.563,1.892
		c0,0.596-0.108,1.098-0.325,1.503c-0.216,0.407-0.491,0.725-0.825,0.958c-0.333,0.229-0.672,0.384-1.016,0.462
		c-0.468,0.095-1.146,0.142-2.034,0.142H7.959v3.659H5.999L5.999,136.143z M7.959,128.076v2.755h1.072
		c0.772,0,1.29-0.051,1.55-0.152c0.261-0.101,0.464-0.26,0.612-0.476c0.148-0.217,0.222-0.465,0.222-0.751
		c0-0.354-0.104-0.646-0.311-0.875c-0.207-0.225-0.47-0.372-0.788-0.426c-0.235-0.047-0.705-0.067-1.411-0.067H7.959V128.076z"/>
	<path fill="#F5F5F5" stroke="#F5F5F5" stroke-width="0.25" stroke-miterlimit="10" d="M19.106,133.904l1.854,0.312
		c-0.239,0.68-0.615,1.196-1.13,1.553c-0.514,0.355-1.158,0.533-1.931,0.533c-1.223,0-2.129-0.399-2.716-1.194
		c-0.464-0.64-0.696-1.448-0.696-2.424c0-1.165,0.304-2.079,0.914-2.739c0.609-0.659,1.38-0.988,2.312-0.988
		c1.046,0,1.872,0.343,2.478,1.034s0.894,1.751,0.868,3.174h-4.662c0.014,0.551,0.163,0.982,0.45,1.287
		c0.287,0.305,0.646,0.463,1.073,0.463c0.291,0,0.536-0.08,0.735-0.238S19.004,134.257,19.106,133.904z M19.213,132.023
		c-0.014-0.542-0.152-0.949-0.418-1.232c-0.265-0.28-0.587-0.424-0.967-0.424c-0.406,0-0.742,0.147-1.007,0.445
		c-0.265,0.299-0.395,0.7-0.39,1.205h2.782V132.023z"/>
	<path fill="#F5F5F5" stroke="#F5F5F5" stroke-width="0.25" stroke-miterlimit="10" d="M24.358,136.143h-1.861v-7.033h1.729v0.996
		c0.295-0.469,0.562-0.786,0.798-0.934c0.237-0.15,0.505-0.222,0.805-0.222c0.424,0,0.833,0.117,1.226,0.348l-0.576,1.626
		c-0.314-0.207-0.606-0.305-0.875-0.305c-0.261,0-0.481,0.072-0.663,0.217c-0.181,0.143-0.324,0.402-0.427,0.778
		c-0.104,0.375-0.156,1.16-0.156,2.362V136.143z"/>
	<path fill="#F5F5F5" stroke="#F5F5F5" stroke-width="0.25" stroke-miterlimit="10" d="M33.989,131.188l-1.835,0.332
		c-0.062-0.366-0.202-0.643-0.42-0.827c-0.219-0.186-0.502-0.28-0.851-0.28c-0.464,0-0.833,0.161-1.109,0.48
		c-0.276,0.32-0.414,0.855-0.414,1.604c0,0.832,0.141,1.425,0.42,1.766c0.28,0.341,0.657,0.517,1.13,0.517
		c0.354,0,0.643-0.1,0.868-0.303c0.225-0.2,0.384-0.544,0.477-1.033l1.828,0.309c-0.189,0.838-0.554,1.475-1.093,1.901
		c-0.539,0.426-1.26,0.642-2.165,0.642c-1.029,0-1.849-0.323-2.461-0.975c-0.612-0.649-0.918-1.549-0.918-2.694
		c0-1.158,0.308-2.064,0.92-2.712c0.613-0.646,1.444-0.971,2.49-0.971c0.856,0,1.538,0.183,2.043,0.551
		C33.405,129.872,33.768,130.434,33.989,131.188z"/>
	<path fill="#F5F5F5" stroke="#F5F5F5" stroke-width="0.25" stroke-miterlimit="10" d="M39.473,133.904l1.854,0.312
		c-0.239,0.68-0.615,1.196-1.13,1.553c-0.514,0.355-1.158,0.533-1.931,0.533c-1.223,0-2.129-0.399-2.716-1.194
		c-0.464-0.64-0.696-1.448-0.696-2.424c0-1.165,0.304-2.079,0.914-2.739c0.609-0.659,1.38-0.988,2.312-0.988
		c1.046,0,1.872,0.343,2.478,1.034s0.894,1.751,0.868,3.174h-4.662c0.014,0.551,0.163,0.982,0.45,1.287
		c0.287,0.305,0.646,0.463,1.073,0.463c0.291,0,0.536-0.08,0.735-0.238S39.371,134.257,39.473,133.904z M39.579,132.023
		c-0.014-0.542-0.152-0.949-0.418-1.232c-0.264-0.28-0.587-0.424-0.967-0.424c-0.406,0-0.742,0.147-1.007,0.445
		c-0.265,0.299-0.395,0.7-0.39,1.205h2.782V132.023z"/>
	<path fill="#F5F5F5" stroke="#F5F5F5" stroke-width="0.25" stroke-miterlimit="10" d="M49.34,136.143h-1.861v-3.589
		c0-0.76-0.04-1.251-0.119-1.475c-0.08-0.222-0.208-0.396-0.388-0.519c-0.179-0.125-0.395-0.182-0.646-0.182
		c-0.323,0-0.611,0.088-0.868,0.263c-0.257,0.179-0.431,0.413-0.526,0.704c-0.095,0.294-0.142,0.827-0.142,1.616v3.185h-1.861
		v-7.033h1.729v1.031c0.614-0.793,1.387-1.19,2.319-1.19c0.411,0,0.786,0.072,1.126,0.222c0.34,0.147,0.597,0.339,0.771,0.566
		c0.175,0.229,0.296,0.49,0.364,0.782c0.069,0.292,0.103,0.708,0.103,1.253V136.143z"/>
	<path fill="#F5F5F5" stroke="#F5F5F5" stroke-width="0.25" stroke-miterlimit="10" d="M54.455,129.109v1.483h-1.271v2.835
		c0,0.575,0.013,0.909,0.037,1.003c0.024,0.097,0.08,0.174,0.166,0.235c0.086,0.062,0.191,0.094,0.314,0.094
		c0.173,0,0.422-0.06,0.748-0.18l0.159,1.443c-0.433,0.182-0.923,0.278-1.471,0.278c-0.335,0-0.638-0.061-0.908-0.17
		c-0.269-0.112-0.467-0.263-0.593-0.436c-0.125-0.183-0.213-0.425-0.261-0.727c-0.04-0.221-0.061-0.654-0.061-1.312v-3.065H50.46
		v-1.482h0.854v-1.396l1.869-1.087v2.482H54.455L54.455,129.109z"/>
	<path fill="#F5F5F5" stroke="#F5F5F5" stroke-width="0.25" stroke-miterlimit="10" d="M57.136,131.255l-1.688-0.304
		c0.189-0.68,0.516-1.184,0.98-1.511c0.464-0.325,1.152-0.49,2.067-0.49c0.83,0,1.448,0.1,1.854,0.295
		c0.406,0.197,0.692,0.447,0.857,0.747c0.166,0.302,0.248,0.859,0.248,1.668l-0.02,2.171c0,0.618,0.03,1.073,0.089,1.367
		c0.06,0.296,0.171,0.608,0.334,0.944h-1.841c-0.048-0.123-0.108-0.303-0.179-0.546c-0.031-0.108-0.053-0.183-0.066-0.222
		c-0.318,0.309-0.658,0.545-1.021,0.699c-0.362,0.15-0.748,0.228-1.159,0.228c-0.725,0-1.294-0.196-1.712-0.586
		c-0.417-0.391-0.626-0.889-0.626-1.489c0-0.397,0.095-0.748,0.285-1.067c0.19-0.307,0.457-0.545,0.799-0.712
		c0.342-0.165,0.835-0.307,1.48-0.432c0.87-0.165,1.473-0.313,1.808-0.459v-0.183c0-0.357-0.089-0.615-0.265-0.766
		c-0.176-0.151-0.51-0.227-1-0.227c-0.331,0-0.589,0.063-0.775,0.194C57.402,130.699,57.251,130.93,57.136,131.255z M59.627,132.766
		c-0.239,0.079-0.617,0.174-1.133,0.284c-0.517,0.111-0.855,0.219-1.014,0.325c-0.242,0.172-0.364,0.39-0.364,0.656
		c0,0.263,0.097,0.484,0.292,0.675c0.195,0.189,0.442,0.284,0.743,0.284c0.335,0,0.656-0.109,0.959-0.331
		c0.225-0.168,0.374-0.372,0.444-0.616c0.049-0.159,0.073-0.465,0.073-0.91V132.766z"/>
	<path fill="#F5F5F5" stroke="#F5F5F5" stroke-width="0.25" stroke-miterlimit="10" d="M63.117,136.606l2.125,0.26
		c0.036,0.246,0.117,0.42,0.245,0.509c0.176,0.133,0.455,0.198,0.834,0.198c0.486,0,0.85-0.072,1.093-0.219
		c0.163-0.102,0.287-0.254,0.371-0.47c0.057-0.154,0.086-0.439,0.086-0.855v-1.027c-0.556,0.757-1.258,1.141-2.106,1.141
		c-0.945,0-1.694-0.398-2.245-1.198c-0.433-0.631-0.649-1.418-0.649-2.359c0-1.183,0.284-2.079,0.851-2.702
		c0.567-0.626,1.272-0.933,2.116-0.933c0.871,0,1.587,0.382,2.153,1.145v-0.985h1.742v6.312c0,0.827-0.069,1.449-0.206,1.86
		c-0.136,0.411-0.328,0.734-0.576,0.967c-0.249,0.234-0.578,0.418-0.99,0.551c-0.413,0.131-0.935,0.194-1.567,0.194
		c-1.191,0-2.038-0.205-2.537-0.612c-0.499-0.409-0.748-0.927-0.748-1.554C63.11,136.771,63.113,136.694,63.117,136.606z
		 M64.78,132.48c0,0.746,0.144,1.292,0.434,1.64c0.289,0.343,0.646,0.519,1.07,0.519c0.454,0,0.838-0.182,1.152-0.536
		c0.313-0.354,0.47-0.883,0.47-1.58c0-0.729-0.15-1.271-0.451-1.625c-0.3-0.351-0.68-0.532-1.14-0.532
		c-0.445,0-0.813,0.178-1.102,0.519C64.924,131.241,64.78,131.77,64.78,132.48z"/>
	<path fill="#F5F5F5" stroke="#F5F5F5" stroke-width="0.25" stroke-miterlimit="10" d="M75.648,133.904l1.854,0.312
		c-0.238,0.68-0.615,1.196-1.129,1.553c-0.514,0.355-1.158,0.533-1.931,0.533c-1.223,0-2.129-0.399-2.716-1.194
		c-0.464-0.64-0.695-1.448-0.695-2.424c0-1.165,0.304-2.079,0.914-2.739c0.609-0.659,1.379-0.988,2.312-0.988
		c1.046,0,1.872,0.343,2.477,1.034s0.895,1.751,0.868,3.174h-4.662c0.014,0.551,0.163,0.982,0.451,1.287
		c0.287,0.305,0.646,0.463,1.072,0.463c0.292,0,0.537-0.08,0.735-0.238S75.547,134.257,75.648,133.904z M75.754,132.023
		c-0.014-0.542-0.152-0.949-0.417-1.232c-0.265-0.28-0.587-0.424-0.967-0.424c-0.406,0-0.743,0.147-1.007,0.445
		c-0.265,0.299-0.395,0.7-0.391,1.205h2.782V132.023z"/>
	<path fill="#F5F5F5" stroke="#F5F5F5" stroke-width="0.25" stroke-miterlimit="10" d="M82.457,132.526
		c0-0.618,0.152-1.217,0.457-1.796c0.306-0.581,0.737-1.023,1.295-1.324c0.558-0.304,1.182-0.456,1.871-0.456
		c1.064,0,1.937,0.343,2.616,1.032c0.68,0.69,1.02,1.564,1.02,2.619c0,1.068-0.343,1.946-1.03,2.645
		c-0.686,0.702-1.551,1.05-2.593,1.05c-0.645,0-1.259-0.143-1.844-0.437c-0.585-0.292-1.03-0.717-1.335-1.278
		C82.608,134.02,82.457,133.335,82.457,132.526z M84.364,132.627c0,0.696,0.166,1.231,0.497,1.599
		c0.331,0.373,0.74,0.556,1.226,0.556s0.893-0.183,1.221-0.556c0.329-0.371,0.494-0.91,0.494-1.616c0-0.689-0.165-1.219-0.494-1.595
		c-0.328-0.371-0.736-0.552-1.221-0.552c-0.486,0-0.895,0.183-1.226,0.552C84.53,131.395,84.364,131.929,84.364,132.627z"/>
	<path fill="#F5F5F5" stroke="#F5F5F5" stroke-width="0.25" stroke-miterlimit="10" d="M90.358,129.109h1.033v-0.53
		c0-0.59,0.063-1.033,0.189-1.324c0.126-0.292,0.358-0.528,0.695-0.708c0.338-0.182,0.766-0.274,1.282-0.274
		c0.53,0,1.049,0.08,1.556,0.238l-0.252,1.299c-0.295-0.068-0.58-0.103-0.854-0.103c-0.27,0-0.463,0.06-0.58,0.185
		c-0.117,0.13-0.175,0.37-0.175,0.726v0.502h1.392v1.462h-1.392v5.571h-1.861v-5.573h-1.033V129.109z"/>
	<path fill="#F5F5F5" stroke="#F5F5F5" stroke-width="0.25" stroke-miterlimit="10" d="M101.313,126.434v3.57
		c0.601-0.702,1.317-1.054,2.153-1.054c0.428,0,0.815,0.079,1.159,0.238s0.604,0.363,0.778,0.609
		c0.174,0.248,0.293,0.522,0.357,0.825c0.064,0.303,0.096,0.767,0.096,1.395v4.125h-1.861v-3.714c0-0.738-0.036-1.202-0.105-1.4
		c-0.07-0.199-0.196-0.357-0.374-0.475c-0.179-0.116-0.403-0.175-0.672-0.175c-0.31,0-0.585,0.07-0.827,0.222
		c-0.242,0.149-0.421,0.376-0.533,0.677c-0.112,0.304-0.168,0.75-0.168,1.342v3.523h-1.861v-9.709H101.313z"/>
	<path fill="#F5F5F5" stroke="#F5F5F5" stroke-width="0.25" stroke-miterlimit="10" d="M109.135,131.255l-1.689-0.304
		c0.19-0.68,0.516-1.184,0.98-1.511c0.464-0.325,1.152-0.49,2.067-0.49c0.83,0,1.448,0.1,1.854,0.295
		c0.406,0.197,0.691,0.447,0.857,0.747c0.166,0.302,0.248,0.859,0.248,1.668l-0.021,2.171c0,0.618,0.03,1.073,0.089,1.367
		c0.061,0.296,0.171,0.608,0.334,0.944h-1.841c-0.048-0.123-0.108-0.303-0.18-0.546c-0.031-0.108-0.053-0.183-0.065-0.222
		c-0.318,0.309-0.658,0.545-1.02,0.699c-0.362,0.15-0.749,0.228-1.159,0.228c-0.725,0-1.294-0.196-1.712-0.586
		c-0.417-0.391-0.626-0.889-0.626-1.489c0-0.397,0.095-0.748,0.285-1.067c0.19-0.307,0.457-0.545,0.799-0.712
		c0.342-0.165,0.835-0.307,1.48-0.432c0.87-0.165,1.473-0.313,1.808-0.459v-0.183c0-0.357-0.088-0.615-0.264-0.766
		c-0.177-0.151-0.51-0.227-1-0.227c-0.332,0-0.589,0.063-0.775,0.194C109.4,130.699,109.25,130.93,109.135,131.255z
		 M111.625,132.766c-0.238,0.079-0.616,0.174-1.132,0.284c-0.517,0.111-0.855,0.219-1.014,0.325
		c-0.242,0.172-0.364,0.39-0.364,0.656c0,0.263,0.097,0.484,0.292,0.675c0.195,0.189,0.442,0.284,0.742,0.284
		c0.335,0,0.656-0.109,0.96-0.331c0.225-0.168,0.374-0.372,0.444-0.616c0.049-0.159,0.073-0.465,0.073-0.91V132.766z"/>
	<path fill="#F5F5F5" stroke="#F5F5F5" stroke-width="0.25" stroke-miterlimit="10" d="M115.288,136.143v-9.709h1.862v9.709H115.288
		L115.288,136.143z"/>
	<path fill="#F5F5F5" stroke="#F5F5F5" stroke-width="0.25" stroke-miterlimit="10" d="M119.056,128.155v-1.722h1.861v1.722H119.056
		z M119.056,136.143v-7.033h1.861v7.033H119.056z"/>
	<path fill="#F5F5F5" stroke="#F5F5F5" stroke-width="0.25" stroke-miterlimit="10" d="M122.746,136.143v-9.709h1.861v3.497
		c0.573-0.655,1.254-0.98,2.04-0.98c0.857,0,1.566,0.306,2.125,0.931c0.561,0.619,0.841,1.512,0.841,2.673
		c0,1.199-0.286,2.125-0.857,2.773c-0.572,0.649-1.266,0.975-2.083,0.975c-0.402,0-0.798-0.101-1.189-0.303
		c-0.39-0.201-0.728-0.499-1.009-0.892v1.032h-1.728V136.143z M124.593,132.474c0,0.729,0.115,1.267,0.344,1.616
		c0.323,0.495,0.751,0.742,1.285,0.742c0.411,0,0.761-0.177,1.049-0.526c0.289-0.353,0.434-0.904,0.434-1.66
		c0-0.803-0.146-1.383-0.437-1.738c-0.292-0.355-0.665-0.534-1.119-0.534c-0.446,0-0.817,0.175-1.112,0.521
		C124.741,131.241,124.593,131.767,124.593,132.474z"/>
	<path fill="#F5F5F5" stroke="#F5F5F5" stroke-width="0.25" stroke-miterlimit="10" d="M135.74,136.143v-1.052
		c-0.256,0.375-0.593,0.666-1.01,0.888c-0.417,0.217-0.858,0.323-1.322,0.323c-0.473,0-0.896-0.103-1.271-0.311
		s-0.646-0.499-0.815-0.874c-0.169-0.374-0.252-0.894-0.252-1.556v-4.452h1.861v3.232c0,0.989,0.034,1.595,0.104,1.818
		c0.068,0.222,0.192,0.399,0.374,0.529c0.181,0.135,0.411,0.195,0.689,0.195c0.318,0,0.603-0.087,0.854-0.262
		c0.252-0.176,0.425-0.392,0.517-0.648c0.093-0.26,0.139-0.892,0.139-1.898v-2.967h1.861v7.033H135.74L135.74,136.143z"/>
	<path fill="#F5F5F5" stroke="#F5F5F5" stroke-width="0.25" stroke-miterlimit="10" d="M142.622,129.109v1.483h-1.271v2.835
		c0,0.575,0.013,0.909,0.037,1.003c0.024,0.097,0.08,0.174,0.166,0.235c0.086,0.062,0.191,0.094,0.314,0.094
		c0.173,0,0.422-0.06,0.748-0.18l0.159,1.443c-0.433,0.182-0.923,0.278-1.471,0.278c-0.335,0-0.638-0.061-0.908-0.17
		c-0.269-0.112-0.467-0.263-0.593-0.436c-0.125-0.183-0.213-0.425-0.262-0.727c-0.04-0.221-0.06-0.654-0.06-1.312v-3.065h-0.854
		v-1.482h0.854v-1.396l1.869-1.087v2.482H142.622L142.622,129.109z"/>
	<path fill="#F5F5F5" stroke="#F5F5F5" stroke-width="0.25" stroke-miterlimit="10" d="M147.251,132.526
		c0-0.618,0.152-1.217,0.458-1.796c0.305-0.581,0.736-1.023,1.294-1.324c0.558-0.304,1.182-0.456,1.871-0.456
		c1.064,0,1.937,0.343,2.616,1.032c0.68,0.69,1.02,1.564,1.02,2.619c0,1.068-0.343,1.946-1.03,2.645
		c-0.686,0.702-1.551,1.05-2.592,1.05c-0.646,0-1.259-0.143-1.845-0.437c-0.585-0.292-1.03-0.717-1.334-1.278
		C147.403,134.02,147.251,133.335,147.251,132.526z M149.159,132.627c0,0.696,0.166,1.231,0.497,1.599
		c0.331,0.373,0.739,0.556,1.226,0.556s0.894-0.183,1.222-0.556c0.329-0.371,0.494-0.91,0.494-1.616
		c0-0.689-0.165-1.219-0.494-1.595c-0.328-0.371-0.736-0.552-1.222-0.552s-0.895,0.183-1.226,0.552
		C149.325,131.395,149.159,131.929,149.159,132.627z"/>
	<path fill="#F5F5F5" stroke="#F5F5F5" stroke-width="0.25" stroke-miterlimit="10" d="M157.901,136.143l-2.835-7.033h1.954
		l1.325,3.586l0.383,1.198c0.101-0.302,0.167-0.504,0.192-0.603c0.062-0.198,0.129-0.397,0.199-0.596l1.338-3.586h1.914
		l-2.795,7.033H157.901z"/>
	<path fill="#F5F5F5" stroke="#F5F5F5" stroke-width="0.25" stroke-miterlimit="10" d="M167.584,133.904l1.854,0.312
		c-0.238,0.68-0.615,1.196-1.13,1.553c-0.514,0.355-1.158,0.533-1.93,0.533c-1.223,0-2.129-0.399-2.716-1.194
		c-0.465-0.64-0.701-1.448-0.701-2.424c0-1.165,0.302-2.079,0.913-2.739c0.61-0.661,1.382-0.988,2.312-0.988
		c1.047,0,1.877,0.343,2.482,1.034c0.606,0.691,0.894,1.751,0.868,3.174h-4.662c0.014,0.551,0.163,0.982,0.45,1.287
		s0.644,0.463,1.069,0.463c0.296,0,0.54-0.08,0.738-0.238S167.482,134.257,167.584,133.904z M167.69,132.023
		c-0.014-0.542-0.151-0.949-0.418-1.232c-0.264-0.28-0.587-0.424-0.967-0.424c-0.405,0-0.742,0.147-1.007,0.445
		c-0.264,0.299-0.395,0.7-0.391,1.205h2.782V132.023z"/>
	<path fill="#F5F5F5" stroke="#F5F5F5" stroke-width="0.25" stroke-miterlimit="10" d="M172.835,136.143h-1.859v-7.033h1.728v0.996
		c0.297-0.469,0.562-0.786,0.793-0.934c0.236-0.15,0.505-0.222,0.805-0.222c0.425,0,0.828,0.117,1.231,0.348l-0.582,1.626
		c-0.308-0.207-0.604-0.305-0.87-0.305c-0.263,0-0.48,0.072-0.667,0.217c-0.183,0.143-0.323,0.402-0.425,0.778
		c-0.102,0.375-0.156,1.16-0.156,2.362v2.166H172.835L172.835,136.143z"/>
	<path fill="#F5F5F5" stroke="#F5F5F5" stroke-width="0.25" stroke-miterlimit="10" d="M179.639,133.565l1.801-0.22
		c0.058,0.46,0.212,0.812,0.464,1.055c0.252,0.244,0.557,0.365,0.914,0.365c0.384,0,0.708-0.146,0.97-0.438
		c0.263-0.291,0.395-0.685,0.395-1.179c0-0.47-0.127-0.84-0.378-1.112c-0.257-0.273-0.559-0.411-0.92-0.411
		c-0.238,0-0.524,0.047-0.855,0.139l0.206-1.517c0.504,0.019,0.888-0.096,1.15-0.327c0.264-0.229,0.397-0.54,0.397-0.923
		c0-0.328-0.098-0.585-0.293-0.783c-0.192-0.193-0.452-0.291-0.774-0.291c-0.317,0-0.588,0.11-0.819,0.331
		c-0.221,0.221-0.361,0.544-0.41,0.967l-1.717-0.291c0.119-0.588,0.303-1.058,0.544-1.407c0.241-0.352,0.58-0.626,1.006-0.829
		c0.428-0.2,0.91-0.301,1.446-0.301c0.912,0,1.646,0.292,2.2,0.874c0.458,0.478,0.683,1.016,0.683,1.616
		c0,0.853-0.465,1.531-1.394,2.038c0.557,0.119,1.001,0.387,1.334,0.802c0.336,0.417,0.502,0.916,0.502,1.505
		c0,0.852-0.309,1.578-0.934,2.179c-0.624,0.6-1.396,0.9-2.321,0.9c-0.881,0-1.609-0.252-2.188-0.754
		C180.067,135.046,179.731,134.383,179.639,133.565z"/>
	<path fill="#F5F5F5" stroke="#F5F5F5" stroke-width="0.25" stroke-miterlimit="10" d="M193.534,134.413v1.729h-6.52
		c0.066-0.654,0.283-1.272,0.632-1.857c0.353-0.587,1.051-1.361,2.093-2.328c0.838-0.781,1.353-1.312,1.543-1.59
		c0.261-0.384,0.383-0.764,0.383-1.144c0-0.415-0.11-0.734-0.335-0.953c-0.223-0.222-0.532-0.335-0.924-0.335
		c-0.387,0-0.699,0.114-0.927,0.348c-0.229,0.231-0.362,0.625-0.397,1.166l-1.854-0.186c0.11-1.025,0.459-1.756,1.04-2.202
		c0.583-0.444,1.312-0.668,2.186-0.668c0.958,0,1.713,0.26,2.259,0.776c0.546,0.516,0.822,1.158,0.822,1.926
		c0,0.438-0.078,0.854-0.235,1.249c-0.157,0.394-0.404,0.81-0.746,1.241c-0.225,0.286-0.629,0.7-1.219,1.238
		c-0.588,0.535-0.96,0.896-1.116,1.068c-0.154,0.181-0.281,0.345-0.381,0.516L193.534,134.413L193.534,134.413z"/>
	<path fill="#F5F5F5" stroke="#F5F5F5" stroke-width="0.25" stroke-miterlimit="10" d="M198.958,128.155v-1.722h1.861v1.722H198.958
		z M198.958,136.143v-7.033h1.861v7.033H198.958z"/>
	<path fill="#F5F5F5" stroke="#F5F5F5" stroke-width="0.25" stroke-miterlimit="10" d="M209.125,136.143h-1.862v-3.589
		c0-0.76-0.04-1.251-0.119-1.475c-0.08-0.222-0.208-0.396-0.387-0.519c-0.18-0.125-0.395-0.182-0.646-0.182
		c-0.323,0-0.611,0.088-0.868,0.263c-0.262,0.179-0.431,0.413-0.527,0.704c-0.1,0.294-0.143,0.827-0.143,1.616v3.185h-1.86v-7.033
		h1.727v1.031c0.615-0.793,1.388-1.19,2.319-1.19c0.411,0,0.788,0.072,1.126,0.222c0.341,0.147,0.597,0.339,0.772,0.566
		c0.176,0.229,0.297,0.49,0.363,0.782c0.068,0.292,0.103,0.708,0.103,1.253v4.369h0.002V136.143z"/>
	<path fill="#F5F5F5" stroke="#F5F5F5" stroke-width="0.25" stroke-miterlimit="10" d="M217.146,131.188l-1.836,0.332
		c-0.061-0.366-0.202-0.643-0.42-0.827c-0.223-0.186-0.505-0.278-0.852-0.278c-0.465,0-0.835,0.159-1.111,0.479
		c-0.275,0.322-0.416,0.857-0.416,1.606c0,0.831,0.142,1.425,0.422,1.765c0.281,0.34,0.659,0.517,1.13,0.517
		c0.353,0,0.643-0.101,0.869-0.302c0.221-0.2,0.383-0.545,0.472-1.035l1.833,0.311c-0.189,0.836-0.554,1.474-1.092,1.899
		c-0.544,0.427-1.261,0.644-2.166,0.644c-1.028,0-1.849-0.325-2.461-0.975c-0.611-0.65-0.917-1.55-0.917-2.694
		c0-1.159,0.307-2.066,0.921-2.712c0.614-0.646,1.443-0.971,2.49-0.971c0.856,0,1.537,0.182,2.044,0.55
		C216.562,129.872,216.925,130.434,217.146,131.188z"/>
	<path fill="#F5F5F5" stroke="#F5F5F5" stroke-width="0.25" stroke-miterlimit="10" d="M220.41,126.434v3.57
		c0.602-0.702,1.318-1.054,2.154-1.054c0.427,0,0.813,0.079,1.157,0.238c0.345,0.159,0.604,0.363,0.78,0.609
		c0.179,0.248,0.298,0.522,0.357,0.825c0.062,0.303,0.1,0.767,0.1,1.395v4.125h-1.865v-3.714c0-0.738-0.03-1.202-0.102-1.4
		c-0.064-0.199-0.191-0.357-0.374-0.475c-0.183-0.116-0.402-0.175-0.672-0.175c-0.304,0-0.585,0.07-0.827,0.222
		c-0.242,0.149-0.425,0.376-0.534,0.677c-0.114,0.304-0.171,0.75-0.171,1.342v3.523h-1.862v-9.709H220.41z"/>
	<path fill="#F5F5F5" stroke="#F5F5F5" stroke-width="0.25" stroke-miterlimit="10" d="M230.915,133.904l1.854,0.312
		c-0.238,0.68-0.615,1.196-1.13,1.553c-0.513,0.355-1.156,0.533-1.931,0.533c-1.223,0-2.122-0.399-2.715-1.194
		c-0.464-0.64-0.695-1.448-0.695-2.424c0-1.165,0.304-2.079,0.913-2.739c0.61-0.663,1.38-0.988,2.312-0.988
		c1.046,0,1.873,0.343,2.477,1.034c0.605,0.691,0.896,1.751,0.868,3.174h-4.662c0.013,0.551,0.164,0.982,0.45,1.287
		c0.288,0.305,0.646,0.463,1.073,0.463c0.291,0,0.537-0.08,0.735-0.238C230.664,134.515,230.813,134.257,230.915,133.904z
		 M231.021,132.023c-0.013-0.542-0.152-0.949-0.418-1.232c-0.264-0.28-0.587-0.424-0.967-0.424c-0.405,0-0.742,0.147-1.006,0.445
		c-0.265,0.299-0.396,0.7-0.391,1.205h2.781V132.023z"/>
	<path fill="#F5F5F5" stroke="#F5F5F5" stroke-width="0.25" stroke-miterlimit="10" d="M233.729,134.136l1.869-0.284
		c0.079,0.361,0.24,0.636,0.482,0.825c0.244,0.188,0.586,0.28,1.02,0.28c0.482,0,0.845-0.088,1.087-0.264
		c0.164-0.125,0.245-0.289,0.245-0.498c0-0.141-0.045-0.258-0.132-0.35c-0.094-0.089-0.301-0.17-0.624-0.246
		c-1.501-0.331-2.452-0.629-2.854-0.907c-0.556-0.38-0.834-0.907-0.834-1.583c0-0.609,0.24-1.121,0.723-1.536
		c0.48-0.417,1.231-0.623,2.24-0.623c0.96,0,1.675,0.152,2.146,0.466c0.467,0.311,0.787,0.776,0.967,1.393l-1.756,0.325
		c-0.074-0.274-0.219-0.484-0.424-0.628c-0.211-0.144-0.508-0.22-0.899-0.22c-0.492,0-0.84,0.064-1.054,0.204
		c-0.143,0.1-0.212,0.223-0.212,0.38c0,0.133,0.06,0.245,0.182,0.34c0.167,0.123,0.747,0.3,1.739,0.522
		c0.989,0.224,1.68,0.504,2.079,0.826c0.385,0.332,0.585,0.791,0.585,1.386c0,0.645-0.267,1.197-0.809,1.663
		c-0.541,0.465-1.336,0.696-2.394,0.696c-0.955,0-1.716-0.191-2.276-0.585C234.268,135.331,233.902,134.804,233.729,134.136z"/>
</g>
<g enable-background="new    ">
	<path fill="#F5F5F5" stroke="#F5F5F5" stroke-width="0.25" stroke-miterlimit="10" d="M9.153,12.97V4.904H6.272V3.263h7.716v1.641
		h-2.875v8.066H9.153z"/>
	<path fill="#F5F5F5" stroke="#F5F5F5" stroke-width="0.25" stroke-miterlimit="10" d="M13.804,9.354
		c0-0.619,0.152-1.217,0.457-1.796c0.305-0.58,0.737-1.021,1.294-1.325c0.559-0.303,1.182-0.456,1.871-0.456
		c1.064,0,1.937,0.343,2.616,1.035c0.68,0.691,1.02,1.562,1.02,2.619c0,1.064-0.343,1.946-1.03,2.644
		c-0.686,0.703-1.551,1.05-2.593,1.05c-0.645,0-1.26-0.144-1.845-0.438c-0.585-0.291-1.03-0.716-1.334-1.278
		C13.956,10.848,13.804,10.163,13.804,9.354z M15.71,9.455c0,0.697,0.166,1.231,0.497,1.602c0.332,0.371,0.739,0.556,1.226,0.556
		s0.894-0.185,1.222-0.556c0.329-0.371,0.493-0.909,0.493-1.616c0-0.689-0.165-1.219-0.493-1.591
		c-0.328-0.371-0.736-0.555-1.222-0.555s-0.894,0.184-1.226,0.555C15.875,8.222,15.71,8.756,15.71,9.455z"/>
	<path fill="#F5F5F5" stroke="#F5F5F5" stroke-width="0.25" stroke-miterlimit="10" d="M25.745,5.938V7.42h-1.271v2.835
		c0,0.575,0.013,0.909,0.037,1.002c0.024,0.097,0.08,0.174,0.166,0.235c0.086,0.061,0.191,0.093,0.315,0.093
		c0.172,0,0.422-0.06,0.748-0.179l0.159,1.443c-0.434,0.183-0.923,0.278-1.471,0.278c-0.335,0-0.639-0.059-0.908-0.17
		c-0.269-0.112-0.467-0.26-0.593-0.436c-0.126-0.182-0.213-0.423-0.262-0.727c-0.04-0.218-0.06-0.655-0.06-1.312V7.42H21.75V5.938
		h0.854V4.541l1.868-1.085v2.482H25.745z"/>
	<path fill="#F5F5F5" stroke="#F5F5F5" stroke-width="0.25" stroke-miterlimit="10" d="M28.426,8.083l-1.689-0.302
		c0.19-0.68,0.517-1.185,0.981-1.512c0.464-0.326,1.152-0.49,2.066-0.49c0.831,0,1.449,0.101,1.854,0.295
		c0.406,0.197,0.691,0.447,0.858,0.747c0.166,0.302,0.248,0.859,0.248,1.667l-0.02,2.171c0,0.618,0.03,1.073,0.089,1.367
		c0.06,0.296,0.171,0.608,0.334,0.945h-1.841c-0.049-0.123-0.109-0.304-0.179-0.547c-0.031-0.11-0.054-0.182-0.066-0.221
		c-0.318,0.309-0.658,0.544-1.021,0.697c-0.362,0.153-0.748,0.23-1.159,0.23c-0.725,0-1.294-0.197-1.712-0.587
		c-0.418-0.393-0.626-0.889-0.626-1.49c0-0.397,0.095-0.749,0.285-1.066c0.19-0.308,0.457-0.546,0.799-0.713
		c0.341-0.165,0.835-0.309,1.48-0.433c0.87-0.165,1.473-0.314,1.808-0.458V8.196c0-0.357-0.088-0.613-0.265-0.766
		c-0.176-0.151-0.51-0.227-1-0.227c-0.332,0-0.589,0.064-0.775,0.195C28.692,7.526,28.542,7.758,28.426,8.083z M30.917,9.593
		c-0.238,0.08-0.616,0.174-1.132,0.285c-0.516,0.11-0.854,0.219-1.013,0.325c-0.242,0.172-0.364,0.389-0.364,0.656
		c0,0.261,0.097,0.485,0.292,0.675s0.441,0.285,0.742,0.285c0.335,0,0.656-0.11,0.96-0.331c0.225-0.169,0.373-0.374,0.444-0.618
		c0.048-0.159,0.072-0.463,0.072-0.909V9.593z"/>
	<path fill="#F5F5F5" stroke="#F5F5F5" stroke-width="0.25" stroke-miterlimit="10" d="M34.58,12.97V3.262h1.861v9.708H34.58z"/>
	<path fill="#F5F5F5" stroke="#F5F5F5" stroke-width="0.25" stroke-miterlimit="10" d="M42.064,5.938H43.8V6.97
		c0.225-0.353,0.53-0.641,0.914-0.862c0.384-0.222,0.81-0.331,1.278-0.331c0.817,0,1.51,0.317,2.079,0.958
		c0.568,0.641,0.855,1.532,0.855,2.677c0,1.175-0.287,2.086-0.862,2.738c-0.573,0.653-1.269,0.979-2.085,0.979
		c-0.389,0-0.742-0.077-1.057-0.232c-0.314-0.153-0.648-0.419-0.997-0.794v3.543h-1.861L42.064,5.938L42.064,5.938z M43.905,9.335
		c0,0.789,0.157,1.374,0.47,1.753c0.314,0.379,0.696,0.566,1.146,0.566c0.433,0,0.792-0.175,1.079-0.519
		c0.287-0.346,0.43-0.914,0.43-1.706c0-0.739-0.148-1.285-0.444-1.643s-0.663-0.537-1.1-0.537c-0.454,0-0.832,0.176-1.133,0.526
		C44.055,8.126,43.905,8.647,43.905,9.335z"/>
	<path fill="#F5F5F5" stroke="#F5F5F5" stroke-width="0.25" stroke-miterlimit="10" d="M49.972,9.354
		c0-0.619,0.152-1.217,0.458-1.796s0.736-1.021,1.294-1.325s1.182-0.456,1.871-0.456c1.064,0,1.937,0.343,2.616,1.035
		c0.68,0.691,1.02,1.562,1.02,2.619c0,1.064-0.343,1.946-1.03,2.644c-0.686,0.703-1.551,1.05-2.592,1.05
		c-0.646,0-1.26-0.144-1.845-0.438c-0.585-0.291-1.03-0.716-1.334-1.278C50.125,10.848,49.972,10.163,49.972,9.354z M51.88,9.455
		c0,0.697,0.166,1.231,0.498,1.602c0.331,0.371,0.739,0.556,1.225,0.556s0.894-0.185,1.222-0.556
		c0.328-0.371,0.493-0.909,0.493-1.616c0-0.689-0.165-1.219-0.493-1.591c-0.329-0.371-0.737-0.555-1.222-0.555
		s-0.894,0.184-1.225,0.555C52.045,8.222,51.88,8.756,51.88,9.455z"/>
	<path fill="#F5F5F5" stroke="#F5F5F5" stroke-width="0.25" stroke-miterlimit="10" d="M63.318,12.97v-1.052
		c-0.256,0.375-0.593,0.669-1.01,0.888c-0.417,0.218-0.857,0.323-1.322,0.323c-0.473,0-0.896-0.102-1.271-0.309
		c-0.375-0.209-0.646-0.501-0.815-0.875c-0.169-0.375-0.252-0.894-0.252-1.554V5.941h1.861v3.232c0,0.989,0.034,1.595,0.103,1.818
		c0.068,0.222,0.192,0.399,0.374,0.53c0.181,0.129,0.411,0.195,0.689,0.195c0.318,0,0.603-0.089,0.855-0.262
		c0.251-0.177,0.424-0.392,0.516-0.649c0.093-0.261,0.139-0.893,0.139-1.898V5.939h1.861v7.034h-1.729V12.97z"/>
	<path fill="#F5F5F5" stroke="#F5F5F5" stroke-width="0.25" stroke-miterlimit="10" d="M73.372,12.97h-1.861V9.38
		c0-0.757-0.04-1.251-0.12-1.474c-0.079-0.223-0.208-0.394-0.388-0.519c-0.179-0.125-0.394-0.186-0.646-0.186
		c-0.323,0-0.611,0.09-0.868,0.265c-0.256,0.176-0.431,0.411-0.526,0.703c-0.095,0.293-0.142,0.829-0.142,1.616v3.187h-1.861V5.938
		h1.729v1.033c0.613-0.794,1.386-1.191,2.319-1.191c0.411,0,0.785,0.072,1.125,0.222c0.34,0.146,0.597,0.337,0.771,0.567
		c0.174,0.229,0.295,0.49,0.364,0.782c0.068,0.293,0.103,0.708,0.103,1.251L73.372,12.97L73.372,12.97z"/>
	<path fill="#F5F5F5" stroke="#F5F5F5" stroke-width="0.25" stroke-miterlimit="10" d="M81.711,12.97h-1.729v-1.031
		c-0.287,0.402-0.626,0.702-1.016,0.897c-0.39,0.197-0.785,0.297-1.182,0.297c-0.808,0-1.5-0.325-2.076-0.979
		c-0.577-0.652-0.864-1.559-0.864-2.724c0-1.191,0.281-2.099,0.841-2.719c0.561-0.623,1.27-0.931,2.126-0.931
		c0.786,0,1.466,0.325,2.04,0.98V3.265h1.861V12.97z M76.743,9.301c0,0.748,0.104,1.292,0.311,1.63
		c0.3,0.485,0.72,0.729,1.259,0.729c0.428,0,0.792-0.182,1.093-0.546c0.3-0.363,0.451-0.909,0.451-1.632
		c0-0.808-0.146-1.391-0.438-1.746C79.127,7.38,78.754,7.201,78.3,7.201c-0.442,0-0.811,0.176-1.109,0.528
		C76.892,8.08,76.743,8.605,76.743,9.301z"/>
	<path fill="#F5F5F5" stroke="#F5F5F5" stroke-width="0.25" stroke-miterlimit="10" d="M82.889,10.964l1.868-0.285
		c0.08,0.361,0.241,0.635,0.483,0.825c0.242,0.188,0.583,0.281,1.02,0.281c0.481,0,0.844-0.088,1.086-0.264
		c0.163-0.125,0.245-0.29,0.245-0.498c0-0.142-0.044-0.259-0.133-0.35c-0.093-0.089-0.3-0.17-0.623-0.246
		c-1.501-0.331-2.453-0.631-2.854-0.908c-0.556-0.38-0.834-0.908-0.834-1.583c0-0.609,0.241-1.121,0.722-1.537
		c0.481-0.417,1.228-0.623,2.239-0.623c0.963,0,1.678,0.155,2.146,0.468c0.468,0.311,0.791,0.777,0.967,1.393l-1.755,0.325
		c-0.076-0.274-0.218-0.484-0.427-0.628c-0.209-0.146-0.509-0.219-0.897-0.219c-0.49,0-0.841,0.066-1.053,0.205
		c-0.141,0.099-0.212,0.223-0.212,0.379c0,0.132,0.062,0.245,0.185,0.338c0.167,0.124,0.747,0.298,1.738,0.523
		s1.683,0.502,2.076,0.828c0.389,0.333,0.583,0.792,0.583,1.386c0,0.645-0.27,1.197-0.808,1.663
		c-0.539,0.464-1.335,0.696-2.392,0.696c-0.958,0-1.716-0.192-2.274-0.584C83.426,12.157,83.062,11.631,82.889,10.964z"/>
	<path fill="#F5F5F5" stroke="#F5F5F5" stroke-width="0.25" stroke-miterlimit="10" d="M94.427,9.354
		c0-0.619,0.152-1.217,0.458-1.796c0.305-0.58,0.736-1.021,1.294-1.325c0.558-0.303,1.182-0.456,1.871-0.456
		c1.063,0,1.937,0.343,2.616,1.035c0.681,0.691,1.02,1.562,1.02,2.619c0,1.064-0.342,1.946-1.03,2.644
		c-0.686,0.703-1.551,1.05-2.592,1.05c-0.646,0-1.26-0.144-1.845-0.438c-0.585-0.291-1.03-0.716-1.334-1.278
		C94.579,10.848,94.427,10.163,94.427,9.354z M96.333,9.455c0,0.697,0.166,1.231,0.498,1.602c0.331,0.37,0.739,0.556,1.226,0.556
		s0.893-0.185,1.222-0.556c0.328-0.371,0.493-0.909,0.493-1.616c0-0.689-0.165-1.219-0.493-1.591
		c-0.329-0.371-0.736-0.555-1.222-0.555s-0.895,0.184-1.226,0.555C96.5,8.222,96.333,8.756,96.333,9.455z"/>
	<path fill="#F5F5F5" stroke="#F5F5F5" stroke-width="0.25" stroke-miterlimit="10" d="M102.328,5.938h1.033v-0.53
		c0-0.59,0.063-1.033,0.189-1.324c0.125-0.292,0.357-0.529,0.695-0.711c0.338-0.182,0.765-0.274,1.282-0.274
		c0.53,0,1.049,0.079,1.556,0.238l-0.252,1.298c-0.295-0.07-0.58-0.104-0.854-0.104c-0.269,0-0.463,0.062-0.58,0.187
		c-0.117,0.127-0.175,0.368-0.175,0.726v0.499h1.391v1.463h-1.391v5.571h-1.862V7.404h-1.033V5.938z"/>
	<path fill="#F5F5F5" stroke="#F5F5F5" stroke-width="0.25" stroke-miterlimit="10" d="M113.282,3.261v3.571
		c0.601-0.704,1.318-1.054,2.153-1.054c0.428,0,0.814,0.08,1.158,0.238c0.344,0.159,0.604,0.363,0.778,0.609
		c0.174,0.248,0.293,0.521,0.357,0.822c0.063,0.302,0.096,0.767,0.096,1.398v4.125h-1.861V9.255c0-0.738-0.036-1.205-0.105-1.403
		c-0.07-0.198-0.196-0.356-0.375-0.473c-0.179-0.117-0.403-0.177-0.672-0.177c-0.31,0-0.585,0.074-0.828,0.224
		c-0.242,0.15-0.42,0.378-0.533,0.678c-0.112,0.302-0.168,0.749-0.168,1.342v3.523h-1.861V3.262L113.282,3.261L113.282,3.261z"/>
	<path fill="#F5F5F5" stroke="#F5F5F5" stroke-width="0.25" stroke-miterlimit="10" d="M121.105,8.083l-1.689-0.302
		c0.189-0.68,0.516-1.185,0.98-1.512c0.464-0.326,1.152-0.49,2.067-0.49c0.831,0,1.449,0.101,1.854,0.295
		c0.406,0.197,0.692,0.447,0.857,0.747c0.166,0.302,0.248,0.859,0.248,1.667l-0.02,2.171c0,0.618,0.03,1.073,0.089,1.367
		c0.06,0.296,0.171,0.608,0.334,0.945h-1.841c-0.048-0.123-0.108-0.304-0.179-0.547c-0.031-0.11-0.053-0.182-0.066-0.221
		c-0.318,0.309-0.658,0.544-1.02,0.697c-0.362,0.153-0.748,0.23-1.159,0.23c-0.725,0-1.294-0.197-1.712-0.587
		c-0.417-0.393-0.626-0.889-0.626-1.49c0-0.397,0.095-0.749,0.285-1.066c0.19-0.308,0.457-0.546,0.798-0.713
		c0.342-0.165,0.835-0.309,1.48-0.433c0.87-0.165,1.473-0.314,1.808-0.458V8.196c0-0.357-0.088-0.613-0.265-0.766
		c-0.176-0.151-0.509-0.227-1-0.227c-0.331,0-0.589,0.064-0.775,0.195C121.37,7.526,121.219,7.758,121.105,8.083z M123.595,9.593
		c-0.239,0.08-0.617,0.174-1.133,0.285c-0.517,0.11-0.855,0.219-1.013,0.325c-0.242,0.172-0.364,0.389-0.364,0.656
		c0,0.261,0.097,0.485,0.292,0.675s0.442,0.285,0.742,0.285c0.335,0,0.656-0.11,0.96-0.331c0.225-0.169,0.373-0.374,0.444-0.618
		c0.048-0.159,0.073-0.463,0.073-0.909V9.593z"/>
	<path fill="#F5F5F5" stroke="#F5F5F5" stroke-width="0.25" stroke-miterlimit="10" d="M127.257,12.97V3.262h1.861v9.708H127.257z"
		/>
	<path fill="#F5F5F5" stroke="#F5F5F5" stroke-width="0.25" stroke-miterlimit="10" d="M131.026,4.982V3.261h1.861v1.721H131.026z
		 M131.026,12.97V5.937h1.861v7.034H131.026z"/>
	<path fill="#F5F5F5" stroke="#F5F5F5" stroke-width="0.25" stroke-miterlimit="10" d="M134.716,12.97V3.262h1.861v3.496
		c0.573-0.653,1.253-0.98,2.039-0.98c0.857,0,1.566,0.309,2.126,0.931c0.561,0.621,0.841,1.512,0.841,2.672
		c0,1.202-0.286,2.125-0.857,2.776c-0.572,0.649-1.267,0.973-2.083,0.973c-0.402,0-0.798-0.101-1.189-0.302
		c-0.39-0.201-0.728-0.501-1.01-0.891v1.032h-1.728V12.97z M136.563,9.301c0,0.729,0.116,1.268,0.344,1.616
		c0.323,0.495,0.751,0.742,1.285,0.742c0.411,0,0.761-0.176,1.049-0.526c0.289-0.352,0.435-0.905,0.435-1.66
		c0-0.803-0.146-1.384-0.438-1.739c-0.292-0.354-0.665-0.534-1.119-0.534c-0.446,0-0.816,0.174-1.112,0.52
		C136.712,8.068,136.563,8.595,136.563,9.301z"/>
	<path fill="#F5F5F5" stroke="#F5F5F5" stroke-width="0.25" stroke-miterlimit="10" d="M147.71,12.97v-1.052
		c-0.256,0.375-0.593,0.669-1.01,0.888c-0.417,0.218-0.857,0.323-1.322,0.323c-0.473,0-0.896-0.102-1.271-0.309
		c-0.375-0.209-0.646-0.501-0.814-0.875c-0.169-0.375-0.252-0.894-0.252-1.554V5.941h1.862v3.232c0,0.989,0.034,1.595,0.103,1.818
		c0.069,0.222,0.192,0.399,0.374,0.53c0.182,0.129,0.411,0.195,0.689,0.195c0.318,0,0.603-0.089,0.855-0.262
		c0.251-0.177,0.424-0.392,0.516-0.649c0.093-0.261,0.14-0.893,0.14-1.898V5.939h1.861v7.034h-1.729V12.97L147.71,12.97z"/>
	<path fill="#F5F5F5" stroke="#F5F5F5" stroke-width="0.25" stroke-miterlimit="10" d="M154.591,5.938V7.42h-1.271v2.835
		c0,0.575,0.012,0.909,0.037,1.002c0.024,0.097,0.079,0.174,0.166,0.235c0.086,0.061,0.19,0.093,0.314,0.093
		c0.173,0,0.421-0.06,0.748-0.179l0.159,1.443c-0.429,0.183-0.924,0.278-1.471,0.278c-0.335,0-0.638-0.059-0.908-0.17
		c-0.27-0.112-0.467-0.26-0.593-0.436c-0.126-0.182-0.213-0.423-0.262-0.727c-0.04-0.218-0.06-0.655-0.06-1.312V7.42h-0.854V5.938
		h0.854V4.541l1.868-1.085v2.482H154.591z"/>
	<path fill="#F5F5F5" stroke="#F5F5F5" stroke-width="0.25" stroke-miterlimit="10" d="M159.599,5.938h1.735V6.97
		c0.225-0.353,0.529-0.641,0.914-0.862c0.383-0.222,0.81-0.331,1.272-0.331c0.822,0,1.513,0.317,2.079,0.958
		c0.567,0.641,0.853,1.532,0.853,2.677c0,1.175-0.287,2.086-0.86,2.738c-0.575,0.653-1.271,0.979-2.086,0.979
		c-0.386,0-0.742-0.077-1.058-0.232c-0.313-0.153-0.647-0.419-0.992-0.794v3.543h-1.863L159.599,5.938L159.599,5.938z
		 M161.439,9.335c0,0.789,0.157,1.374,0.471,1.753s0.695,0.566,1.146,0.566c0.434,0,0.793-0.175,1.08-0.519
		c0.286-0.346,0.431-0.914,0.431-1.706c0-0.739-0.148-1.285-0.444-1.643s-0.663-0.537-1.101-0.537c-0.454,0-0.83,0.176-1.131,0.526
		C161.588,8.126,161.439,8.647,161.439,9.335z"/>
	<path fill="#F5F5F5" stroke="#F5F5F5" stroke-width="0.25" stroke-miterlimit="10" d="M172.011,10.732l1.854,0.312
		c-0.239,0.68-0.615,1.196-1.13,1.553c-0.513,0.355-1.158,0.533-1.931,0.533c-1.223,0-2.129-0.399-2.715-1.196
		c-0.464-0.641-0.696-1.449-0.696-2.425c0-1.165,0.304-2.08,0.913-2.738c0.609-0.661,1.382-0.989,2.312-0.989
		c1.047,0,1.872,0.344,2.478,1.036c0.605,0.69,0.895,1.75,0.868,3.174h-4.662c0.013,0.552,0.163,0.982,0.45,1.288
		c0.287,0.305,0.646,0.461,1.073,0.461c0.291,0,0.536-0.08,0.734-0.239C171.76,11.343,171.908,11.085,172.011,10.732z
		 M172.116,8.851c-0.013-0.539-0.152-0.949-0.418-1.229c-0.264-0.281-0.587-0.422-0.967-0.422c-0.405,0-0.747,0.146-1.007,0.444
		c-0.265,0.297-0.394,0.698-0.39,1.206L172.116,8.851L172.116,8.851z"/>
	<path fill="#F5F5F5" stroke="#F5F5F5" stroke-width="0.25" stroke-miterlimit="10" d="M177.264,12.97h-1.862V5.937h1.729v1
		c0.296-0.472,0.562-0.785,0.798-0.934c0.236-0.15,0.505-0.225,0.805-0.225c0.425,0,0.832,0.117,1.226,0.351l-0.576,1.623
		c-0.313-0.204-0.604-0.304-0.874-0.304c-0.261,0-0.481,0.072-0.662,0.218c-0.181,0.142-0.324,0.402-0.427,0.78
		c-0.104,0.375-0.155,1.158-0.155,2.358V12.97L177.264,12.97z"/>
	<path fill="#F5F5F5" stroke="#F5F5F5" stroke-width="0.25" stroke-miterlimit="10" d="M183.872,10.964l1.869-0.285
		c0.079,0.361,0.24,0.635,0.482,0.825c0.244,0.188,0.586,0.281,1.02,0.281c0.483,0,0.845-0.088,1.087-0.264
		c0.164-0.125,0.246-0.29,0.246-0.498c0-0.142-0.046-0.259-0.133-0.35c-0.094-0.089-0.301-0.17-0.623-0.246
		c-1.502-0.331-2.453-0.631-2.855-0.908c-0.556-0.38-0.834-0.908-0.834-1.583c0-0.609,0.24-1.121,0.723-1.537
		c0.48-0.417,1.232-0.623,2.24-0.623c0.96,0,1.675,0.155,2.146,0.468c0.467,0.311,0.787,0.777,0.967,1.393l-1.756,0.325
		c-0.074-0.274-0.219-0.484-0.424-0.628c-0.21-0.146-0.508-0.219-0.901-0.219c-0.49,0-0.838,0.066-1.052,0.205
		c-0.142,0.099-0.212,0.222-0.212,0.379c0,0.132,0.06,0.245,0.182,0.338c0.167,0.124,0.747,0.298,1.739,0.523
		c0.989,0.225,1.68,0.502,2.079,0.828c0.386,0.333,0.585,0.792,0.585,1.386c0,0.645-0.267,1.197-0.808,1.663
		c-0.542,0.464-1.336,0.696-2.395,0.696c-0.955,0-1.716-0.192-2.276-0.584C184.411,12.159,184.046,11.631,183.872,10.964z"/>
	<path fill="#F5F5F5" stroke="#F5F5F5" stroke-width="0.25" stroke-miterlimit="10" d="M195.298,5.938V7.42h-1.272v2.835
		c0,0.575,0.019,0.909,0.036,1.002c0.024,0.097,0.08,0.174,0.167,0.235c0.085,0.061,0.19,0.093,0.313,0.093
		c0.173,0,0.425-0.06,0.749-0.179l0.158,1.443c-0.432,0.183-0.922,0.278-1.471,0.278c-0.341,0-0.638-0.059-0.909-0.17
		c-0.268-0.112-0.465-0.26-0.59-0.436c-0.13-0.182-0.217-0.423-0.262-0.727c-0.04-0.218-0.06-0.655-0.06-1.312V7.42h-0.857V5.938
		h0.857V4.541l1.867-1.085v2.482H195.298z"/>
	<path fill="#F5F5F5" stroke="#F5F5F5" stroke-width="0.25" stroke-miterlimit="10" d="M197.979,8.083l-1.688-0.302
		c0.189-0.68,0.517-1.185,0.98-1.512c0.463-0.326,1.152-0.49,2.066-0.49c0.828,0,1.448,0.101,1.854,0.295
		c0.405,0.197,0.692,0.447,0.856,0.747c0.167,0.302,0.25,0.859,0.25,1.667l-0.02,2.171c0,0.618,0.03,1.073,0.089,1.367
		c0.06,0.296,0.173,0.608,0.336,0.945h-1.837c-0.048-0.123-0.103-0.304-0.183-0.547c-0.032-0.11-0.055-0.182-0.062-0.221
		c-0.317,0.309-0.662,0.544-1.023,0.697c-0.363,0.153-0.746,0.23-1.155,0.23c-0.724,0-1.294-0.197-1.716-0.587
		c-0.418-0.393-0.626-0.889-0.626-1.49c0-0.397,0.099-0.749,0.285-1.066c0.187-0.308,0.459-0.546,0.798-0.713
		c0.344-0.165,0.832-0.309,1.478-0.433c0.868-0.165,1.474-0.314,1.805-0.458V8.196c0-0.357-0.088-0.613-0.263-0.766
		c-0.178-0.151-0.506-0.227-0.996-0.227c-0.334,0-0.586,0.064-0.779,0.195C198.245,7.526,198.094,7.758,197.979,8.083z
		 M200.47,9.593c-0.237,0.08-0.615,0.174-1.132,0.285s-0.854,0.219-1.014,0.325c-0.243,0.172-0.364,0.389-0.364,0.656
		c0,0.261,0.099,0.485,0.291,0.675c0.194,0.19,0.442,0.285,0.742,0.285c0.342,0,0.661-0.11,0.961-0.331
		c0.225-0.169,0.373-0.374,0.443-0.618c0.049-0.159,0.072-0.463,0.072-0.909V9.593L200.47,9.593z"/>
	<path fill="#F5F5F5" stroke="#F5F5F5" stroke-width="0.25" stroke-miterlimit="10" d="M207.358,5.938V7.42h-1.271v2.835
		c0,0.575,0.011,0.909,0.03,1.002c0.024,0.097,0.079,0.174,0.172,0.235c0.085,0.061,0.185,0.093,0.309,0.093
		c0.178,0,0.424-0.06,0.747-0.179l0.159,1.443c-0.43,0.183-0.922,0.278-1.474,0.278c-0.338,0-0.636-0.059-0.909-0.17
		c-0.268-0.112-0.465-0.26-0.59-0.436c-0.129-0.182-0.216-0.423-0.264-0.727c-0.039-0.218-0.06-0.655-0.06-1.312V7.42h-0.855V5.938
		h0.855V4.541l1.869-1.085v2.482H207.358z"/>
	<path fill="#F5F5F5" stroke="#F5F5F5" stroke-width="0.25" stroke-miterlimit="10" d="M208.649,4.982V3.261h1.861v1.721H208.649z
		 M208.649,12.97V5.937h1.861v7.034H208.649z"/>
	<path fill="#F5F5F5" stroke="#F5F5F5" stroke-width="0.25" stroke-miterlimit="10" d="M211.987,9.354
		c0-0.619,0.151-1.217,0.457-1.796s0.736-1.021,1.296-1.325c0.558-0.303,1.182-0.456,1.871-0.456c1.063,0,1.936,0.343,2.615,1.035
		c0.681,0.691,1.021,1.562,1.021,2.619c0,1.064-0.343,1.946-1.029,2.644c-0.687,0.703-1.552,1.05-2.593,1.05
		c-0.646,0-1.261-0.144-1.845-0.438c-0.585-0.291-1.03-0.716-1.335-1.278S211.987,10.163,211.987,9.354z M213.896,9.455
		c0,0.697,0.165,1.231,0.496,1.602c0.332,0.371,0.741,0.556,1.226,0.556c0.486,0,0.894-0.185,1.223-0.556
		c0.334-0.371,0.498-0.909,0.498-1.616c0-0.689-0.164-1.219-0.498-1.591c-0.329-0.371-0.736-0.555-1.223-0.555
		c-0.484,0-0.894,0.184-1.226,0.555C214.061,8.222,213.896,8.756,213.896,9.455z"/>
	<path fill="#F5F5F5" stroke="#F5F5F5" stroke-width="0.25" stroke-miterlimit="10" d="M227.102,12.97h-1.861V9.38
		c0-0.757-0.039-1.251-0.119-1.474c-0.079-0.223-0.209-0.394-0.387-0.519c-0.179-0.125-0.394-0.186-0.646-0.186
		c-0.323,0-0.612,0.09-0.867,0.265c-0.259,0.176-0.432,0.411-0.529,0.703c-0.095,0.293-0.142,0.829-0.142,1.616v3.187h-1.861V5.938
		h1.729v1.033c0.614-0.794,1.387-1.191,2.32-1.191c0.41,0,0.787,0.072,1.124,0.222c0.341,0.146,0.597,0.337,0.774,0.567
		c0.174,0.229,0.295,0.49,0.363,0.782c0.066,0.293,0.101,0.708,0.101,1.251L227.102,12.97L227.102,12.97z"/>
</g>
<g enable-background="new    ">
	<path fill="#F5F5F5" stroke="#F5F5F5" stroke-width="0.5" stroke-miterlimit="10" d="M10.916,89.68v-5.233h-0.903v-0.793h0.903
		v-0.642c0-0.405,0.035-0.706,0.107-0.904c0.099-0.264,0.271-0.479,0.52-0.645c0.248-0.165,0.595-0.247,1.042-0.247
		c0.288,0,0.605,0.034,0.953,0.101l-0.153,0.891c-0.212-0.038-0.413-0.058-0.602-0.058c-0.31,0-0.53,0.066-0.659,0.199
		c-0.128,0.134-0.192,0.382-0.192,0.745v0.556h1.175v0.794h-1.175v5.234h-1.015V89.68z"/>
	<path fill="#F5F5F5" stroke="#F5F5F5" stroke-width="0.5" stroke-miterlimit="10" d="M18.029,87.738l1.056,0.132
		c-0.167,0.617-0.475,1.096-0.925,1.435c-0.45,0.341-1.026,0.51-1.726,0.51c-0.882,0-1.581-0.269-2.098-0.814
		c-0.517-0.546-0.775-1.307-0.775-2.285c0-1.015,0.262-1.801,0.784-2.362c0.522-0.56,1.2-0.839,2.033-0.839
		c0.806,0,1.465,0.273,1.976,0.825c0.511,0.548,0.767,1.319,0.767,2.317c0,0.06-0.002,0.151-0.006,0.272h-4.497
		c0.038,0.664,0.225,1.169,0.562,1.52c0.337,0.352,0.756,0.528,1.26,0.528c0.375,0,0.695-0.099,0.959-0.295
		S17.874,88.172,18.029,87.738z M14.673,86.086h3.367c-0.045-0.506-0.174-0.887-0.386-1.141c-0.325-0.394-0.747-0.589-1.266-0.589
		c-0.469,0-0.864,0.156-1.184,0.47S14.707,85.56,14.673,86.086z"/>
	<path fill="#F5F5F5" stroke="#F5F5F5" stroke-width="0.5" stroke-miterlimit="10" d="M21.48,89.68l-1.844-6.03h1.056l0.959,3.48
		l0.358,1.294c0.016-0.063,0.119-0.478,0.312-1.242l0.959-3.533h1.05l0.903,3.496l0.302,1.151l0.346-1.164l1.033-3.486h0.993
		l-1.884,6.03h-1.062l-0.958-3.612l-0.233-1.029l-1.221,4.638H21.48V89.68z"/>
	<path fill="#F5F5F5" stroke="#F5F5F5" stroke-width="0.5" stroke-miterlimit="10" d="M32.891,87.738l1.056,0.132
		c-0.167,0.617-0.475,1.096-0.925,1.435c-0.451,0.341-1.026,0.51-1.726,0.51c-0.881,0-1.581-0.269-2.098-0.814
		c-0.516-0.545-0.775-1.307-0.775-2.285c0-1.015,0.261-1.801,0.784-2.362c0.522-0.56,1.199-0.839,2.032-0.839
		c0.806,0,1.465,0.273,1.976,0.825c0.511,0.548,0.767,1.319,0.767,2.317c0,0.06-0.002,0.151-0.006,0.272h-4.497
		c0.038,0.664,0.225,1.169,0.562,1.52c0.337,0.352,0.757,0.528,1.261,0.528c0.375,0,0.694-0.099,0.959-0.295
		S32.736,88.172,32.891,87.738z M29.536,86.086h3.367c-0.045-0.506-0.175-0.887-0.386-1.141c-0.325-0.394-0.747-0.589-1.266-0.589
		c-0.469,0-0.865,0.156-1.185,0.47C29.747,85.14,29.57,85.56,29.536,86.086z"/>
	<path fill="#F5F5F5" stroke="#F5F5F5" stroke-width="0.5" stroke-miterlimit="10" d="M35.218,89.68v-6.03h0.919v0.913
		c0.235-0.426,0.451-0.708,0.65-0.846s0.418-0.204,0.656-0.204c0.344,0,0.694,0.108,1.05,0.33l-0.352,0.948
		c-0.25-0.146-0.5-0.222-0.749-0.222c-0.223,0-0.424,0.065-0.601,0.202c-0.177,0.137-0.305,0.321-0.381,0.559
		c-0.114,0.363-0.171,0.76-0.171,1.191v3.156h-1.022V89.68z"/>
</g>
<use xlink:href="#Arrow_25"  width="45.718" height="26.281" id="XMLID_2_" x="-22.859" y="-13.141" transform="matrix(0.3924 0 0 -0.483 231.5371 89.5674)" overflow="visible"/>
<line fill="none" stroke="#F5F5F5" stroke-width="1.6" stroke-miterlimit="10" x1="235.413" y1="87.619" x2="44.803" y2="87.492"/>
<g enable-background="new    ">
	<path fill="#F5F5F5" stroke="#F5F5F5" stroke-width="0.5" stroke-miterlimit="10" d="M247.531,90.398v-6.03h0.914v0.846
		c0.189-0.296,0.441-0.533,0.755-0.712c0.309-0.179,0.666-0.267,1.069-0.267c0.446,0,0.812,0.093,1.099,0.277
		c0.286,0.185,0.487,0.445,0.604,0.779c0.477-0.706,1.098-1.056,1.862-1.056c0.598,0,1.062,0.166,1.383,0.497
		c0.322,0.332,0.482,0.841,0.482,1.53v4.138h-1.02v-3.798c0-0.41-0.03-0.704-0.101-0.884c-0.065-0.179-0.185-0.323-0.359-0.432
		c-0.178-0.11-0.383-0.166-0.615-0.166c-0.425,0-0.778,0.141-1.058,0.424c-0.278,0.283-0.421,0.734-0.421,1.353v3.502h-1.024v-3.917
		c0-0.455-0.084-0.793-0.25-1.023c-0.168-0.228-0.439-0.341-0.82-0.341c-0.288,0-0.552,0.075-0.796,0.226
		c-0.244,0.151-0.424,0.374-0.531,0.666c-0.108,0.292-0.166,0.711-0.166,1.261v3.128H247.531L247.531,90.398z"/>
	<path fill="#F5F5F5" stroke="#F5F5F5" stroke-width="0.5" stroke-miterlimit="10" d="M256.836,87.384
		c0-1.117,0.311-1.945,0.931-2.482c0.519-0.447,1.152-0.669,1.896-0.669c0.829,0,1.512,0.272,2.038,0.816
		c0.526,0.543,0.787,1.293,0.787,2.25c0,0.777-0.115,1.387-0.346,1.832c-0.232,0.445-0.574,0.789-1.019,1.035
		c-0.444,0.247-0.931,0.37-1.457,0.37c-0.844,0-1.522-0.271-2.043-0.813C257.097,89.181,256.836,88.402,256.836,87.384z
		 M257.887,87.384c0,0.772,0.168,1.351,0.505,1.734c0.337,0.383,0.761,0.576,1.271,0.576c0.504,0,0.929-0.193,1.266-0.581
		c0.337-0.386,0.506-0.975,0.506-1.764c0-0.747-0.175-1.311-0.509-1.694c-0.337-0.384-0.76-0.577-1.263-0.577
		c-0.511,0-0.935,0.19-1.271,0.574S257.887,86.61,257.887,87.384z"/>
	<path fill="#F5F5F5" stroke="#F5F5F5" stroke-width="0.5" stroke-miterlimit="10" d="M263.671,90.398v-6.03h0.92v0.913
		c0.234-0.427,0.451-0.708,0.649-0.845c0.198-0.138,0.418-0.206,0.656-0.206c0.345,0,0.694,0.109,1.05,0.331l-0.352,0.948
		c-0.25-0.147-0.5-0.222-0.749-0.222c-0.222,0-0.424,0.066-0.597,0.201c-0.172,0.135-0.303,0.321-0.384,0.559
		c-0.113,0.363-0.171,0.76-0.171,1.19v3.158h-1.022L263.671,90.398L263.671,90.398z"/>
	<path fill="#F5F5F5" stroke="#F5F5F5" stroke-width="0.5" stroke-miterlimit="10" d="M271.682,88.458l1.056,0.131
		c-0.167,0.618-0.475,1.097-0.926,1.435c-0.45,0.34-1.025,0.511-1.726,0.511c-0.876,0-1.58-0.272-2.092-0.815
		c-0.517-0.544-0.78-1.306-0.78-2.285c0-1.014,0.263-1.8,0.787-2.362c0.522-0.56,1.195-0.84,2.036-0.84
		c0.806,0,1.467,0.274,1.974,0.825c0.509,0.549,0.767,1.321,0.767,2.318c0,0.06-0.004,0.149-0.008,0.271h-4.5
		c0.038,0.665,0.224,1.169,0.562,1.521c0.341,0.35,0.758,0.528,1.265,0.528c0.375,0,0.694-0.101,0.955-0.297
		C271.316,89.202,271.526,88.888,271.682,88.458z M268.326,86.805h3.366c-0.045-0.506-0.174-0.888-0.383-1.143
		c-0.325-0.392-0.747-0.589-1.269-0.589c-0.467,0-0.867,0.157-1.186,0.47C268.538,85.858,268.36,86.279,268.326,86.805z"/>
</g>
<g>
	<path fill="#C6C6C5" d="M37.887,67.58c-0.021,0.369-0.538,0.369-0.557,0C37.309,67.21,37.866,67.216,37.887,67.58
		c0.101,1.864,3.007,1.874,2.907,0c-0.097-1.797-1.388-3.089-3.185-3.185c-1.794-0.097-3.096,1.532-3.186,3.185
		c-0.097,1.796,1.533,3.095,3.186,3.184c1.794,0.097,3.096-1.532,3.185-3.184C40.894,65.706,37.986,65.716,37.887,67.58z"/>
</g>
<g>
	<path fill="#C6C6C5" d="M67.082,65.846c-0.152,2.83-4.235,2.83-4.387,0C62.542,63.013,66.93,63.028,67.082,65.846
		c0.101,1.865,3.007,1.875,2.907,0c-0.155-2.882-2.219-4.945-5.102-5.101c-2.875-0.155-4.956,2.45-5.1,5.101
		c-0.155,2.875,2.451,4.957,5.1,5.101c2.876,0.155,4.958-2.443,5.102-5.101C70.089,63.972,67.181,63.981,67.082,65.846z"/>
</g>
<g>
	<path fill="#C6C6C5" d="M107.005,60.988c-0.489,9.088-13.612,9.088-14.102,0C92.414,51.894,106.519,51.943,107.005,60.988
		c0.101,1.864,3.007,1.875,2.907,0c-0.303-5.634-4.323-9.654-9.957-9.957c-5.624-0.302-9.679,4.779-9.958,9.957
		c-0.302,5.625,4.779,9.678,9.958,9.956c5.623,0.302,9.679-4.785,9.957-9.956C110.012,59.113,107.106,59.123,107.005,60.988z"/>
</g>
<g>
	<path fill="#C6C6C5" d="M210.271,52.563c-0.311,8.791-6.928,15.413-15.722,15.723c-8.788,0.316-15.43-7.392-15.725-15.723
		c-0.307-8.787,7.394-15.428,15.725-15.72C203.338,36.534,209.979,44.235,210.271,52.563c0.061,1.711,2.723,1.718,2.661,0
		c-0.361-10.272-8.11-18.021-18.383-18.382c-10.266-0.361-18.041,8.653-18.389,18.382c-0.361,10.267,8.66,18.04,18.389,18.385
		c10.266,0.359,18.04-8.658,18.383-18.385C212.994,50.846,210.332,50.852,210.271,52.563z"/>
</g>
<g>
	<path fill="#C6C6C5" d="M275.659,47.558c-0.294,11.599-9.28,20.588-20.88,20.881c-11.602,0.298-20.599-9.722-20.889-20.881
		c-0.296-11.598,9.729-20.596,20.889-20.877C266.378,26.386,275.377,36.402,275.659,47.558c0.041,1.614,2.551,1.621,2.509,0
		c-0.328-12.974-10.414-23.058-23.389-23.386c-12.979-0.329-23.071,10.903-23.396,23.386c-0.332,12.975,10.905,23.072,23.396,23.391
		c12.975,0.332,23.07-10.908,23.389-23.391C278.21,45.94,275.7,45.945,275.659,47.558z"/>
</g>
<g>
	<path fill="#C6C6C5" d="M153.477,57.229c-0.749,13.931-20.87,13.931-21.62,0c-0.329-6.115,5.177-10.505,10.811-10.808
		C148.781,46.091,153.172,51.596,153.477,57.229c0.101,1.864,3.007,1.874,2.906,0c-0.952-17.665-26.481-17.665-27.433,0
		c-0.417,7.751,6.581,13.333,13.718,13.715c7.75,0.418,13.331-6.58,13.715-13.715C156.484,55.355,153.577,55.364,153.477,57.229z"/>
</g>
<g>
	<path fill="#C6C6C5" d="M13.278,68.826c-0.013,0.224-0.328,0.224-0.339,0C12.926,68.601,13.266,68.603,13.278,68.826
		c0.061,1.136,1.832,1.143,1.771,0c-0.06-1.095-0.846-1.879-1.94-1.94c-1.093-0.06-1.885,0.933-1.939,1.94
		c-0.059,1.095,0.933,1.886,1.939,1.94c1.093,0.059,1.886-0.933,1.94-1.94C15.109,67.685,13.339,67.691,13.278,68.826z"/>
</g>
</svg>
