<?xml version="1.0" encoding="utf-8"?>
<!-- Generator: Adobe Illustrator 16.0.4, SVG Export Plug-In . SVG Version: 6.00 Build 0)  -->
<!DOCTYPE svg PUBLIC "-//W3C//DTD SVG 1.1//EN" "http://www.w3.org/Graphics/SVG/1.1/DTD/svg11.dtd">
<svg version="1.1" id="Layer_1" xmlns="http://www.w3.org/2000/svg" xmlns:xlink="http://www.w3.org/1999/xlink" x="0px" y="0px"
	 width="320px" height="210px" viewBox="0 0 320 210" enable-background="new 0 0 320 210" xml:space="preserve">
<symbol  id="Arrow_25" viewBox="-22.859 -13.141 45.718 26.281">
	<polygon fill="none" points="-22.859,-13.141 22.859,-13.141 22.859,13.141 -22.859,13.141 	"/>
	<g>
		<polygon fill="#F5F5F5" points="-5.512,2.214 8.487,2.214 8.487,-3.877 22.405,4.15 8.487,12.172 8.487,6.085 -5.512,6.085 		"/>
	</g>
</symbol>
<g>
	<g>
		<path fill="#C6C6C5" d="M23.24,163.427c-0.443,8.229-12.325,8.229-12.769,0C10.029,155.195,22.8,155.234,23.24,163.427
			c0.104,1.899,3.064,1.91,2.961,0c-0.286-5.284-4.059-9.061-9.345-9.346c-5.278-0.285-9.086,4.485-9.348,9.346
			c-0.283,5.278,4.487,9.085,9.348,9.345c5.276,0.287,9.084-4.481,9.345-9.345C26.306,161.52,23.344,161.527,23.24,163.427z"/>
	</g>
</g>
<g enable-background="new    ">
	<path fill="#F5F5F5" stroke="#F5F5F5" stroke-width="0.5" stroke-miterlimit="10" d="M32.573,162.706
		c0-1.001,0.104-1.808,0.309-2.42c0.206-0.61,0.514-1.082,0.92-1.415c0.406-0.329,0.918-0.498,1.535-0.498
		c0.456,0,0.854,0.095,1.197,0.275c0.344,0.185,0.627,0.449,0.85,0.795c0.223,0.343,0.399,0.765,0.527,1.259
		c0.127,0.495,0.19,1.166,0.19,2.002c0,0.998-0.103,1.796-0.307,2.407c-0.205,0.606-0.51,1.082-0.917,1.421
		c-0.406,0.331-0.921,0.499-1.542,0.499c-0.817,0-1.46-0.293-1.926-0.883C32.853,165.448,32.573,164.3,32.573,162.706z
		 M33.643,162.706c0,1.394,0.164,2.325,0.488,2.782c0.326,0.453,0.728,0.691,1.207,0.691s0.88-0.232,1.206-0.695
		s0.489-1.39,0.489-2.778c0-1.394-0.163-2.322-0.489-2.776c-0.325-0.457-0.73-0.688-1.216-0.688c-0.478,0-0.86,0.201-1.145,0.605
		C33.824,160.361,33.643,161.314,33.643,162.706z"/>
	<path fill="#F5F5F5" stroke="#F5F5F5" stroke-width="0.5" stroke-miterlimit="10" d="M39.358,160.445
		c0-0.605,0.152-1.122,0.457-1.541c0.305-0.422,0.747-0.639,1.325-0.639c0.532,0,0.972,0.188,1.322,0.565
		c0.349,0.385,0.523,0.938,0.523,1.676c0,0.722-0.176,1.271-0.528,1.656c-0.353,0.396-0.788,0.585-1.304,0.585
		c-0.514,0-0.939-0.188-1.281-0.572C39.53,161.795,39.358,161.217,39.358,160.445z M41.169,158.98c-0.259,0-0.473,0.109-0.646,0.336
		c-0.171,0.225-0.257,0.635-0.257,1.23c0,0.544,0.086,0.928,0.261,1.146c0.173,0.226,0.388,0.336,0.642,0.336
		c0.263,0,0.479-0.11,0.651-0.338c0.171-0.229,0.257-0.633,0.257-1.227c0-0.547-0.087-0.932-0.261-1.152
		C41.643,159.094,41.428,158.98,41.169,158.98z M41.174,167.202l4.639-8.938h0.843l-4.621,8.938H41.174L41.174,167.202z
		 M44.843,164.898c0-0.61,0.152-1.129,0.456-1.547c0.305-0.418,0.748-0.636,1.331-0.636c0.532,0,0.972,0.187,1.322,0.568
		c0.35,0.382,0.522,0.937,0.522,1.672c0,0.72-0.176,1.271-0.529,1.66c-0.353,0.389-0.789,0.584-1.311,0.584
		c-0.513,0-0.939-0.191-1.28-0.576C45.013,166.238,44.843,165.667,44.843,164.898z M46.658,163.436c-0.262,0-0.479,0.109-0.65,0.336
		c-0.171,0.226-0.257,0.633-0.257,1.232c0,0.538,0.086,0.919,0.261,1.145c0.173,0.227,0.387,0.336,0.642,0.336
		c0.267,0,0.484-0.109,0.656-0.336c0.171-0.226,0.258-0.633,0.258-1.227c0-0.548-0.087-0.934-0.261-1.154
		C47.133,163.543,46.917,163.436,46.658,163.436z"/>
	<path fill="#F5F5F5" stroke="#F5F5F5" stroke-width="0.5" stroke-miterlimit="10" d="M52.888,163.816
		c0-1.137,0.316-1.979,0.949-2.526c0.528-0.454,1.173-0.683,1.932-0.683c0.844,0,1.535,0.274,2.07,0.828
		c0.536,0.557,0.804,1.316,0.804,2.293c0,0.791-0.118,1.414-0.355,1.867c-0.236,0.45-0.582,0.803-1.035,1.055
		c-0.453,0.25-0.948,0.375-1.483,0.375c-0.86,0-1.555-0.275-2.085-0.826C53.153,165.646,52.888,164.854,52.888,163.816z
		 M53.958,163.816c0,0.785,0.171,1.379,0.515,1.766c0.342,0.395,0.775,0.588,1.295,0.588c0.516,0,0.946-0.191,1.29-0.592
		c0.344-0.393,0.515-0.993,0.515-1.801c0-0.758-0.173-1.336-0.518-1.723c-0.344-0.392-0.773-0.589-1.286-0.589
		c-0.52,0-0.953,0.193-1.295,0.584C54.129,162.443,53.958,163.032,53.958,163.816z"/>
	<path fill="#F5F5F5" stroke="#F5F5F5" stroke-width="0.5" stroke-miterlimit="10" d="M59.853,166.889v-6.143h0.937v0.927
		c0.238-0.433,0.459-0.721,0.662-0.86c0.203-0.139,0.426-0.209,0.668-0.209c0.351,0,0.707,0.109,1.07,0.34l-0.359,0.967
		c-0.254-0.148-0.509-0.229-0.763-0.229c-0.227,0-0.432,0.062-0.613,0.205c-0.18,0.141-0.31,0.327-0.387,0.566
		c-0.116,0.367-0.174,0.773-0.174,1.214v3.217L59.853,166.889L59.853,166.889z"/>
	<path fill="#F5F5F5" stroke="#F5F5F5" stroke-width="0.5" stroke-miterlimit="10" d="M72.797,158.41h1.123v4.898
		c0,0.853-0.097,1.527-0.29,2.028c-0.192,0.502-0.541,0.912-1.044,1.226c-0.503,0.312-1.165,0.471-1.982,0.471
		c-0.795,0-1.443-0.139-1.95-0.409c-0.506-0.271-0.867-0.668-1.083-1.188c-0.216-0.514-0.324-1.223-0.324-2.119v-4.9h1.123v4.895
		c0,0.736,0.069,1.276,0.207,1.627c0.136,0.35,0.372,0.614,0.705,0.806c0.334,0.188,0.742,0.282,1.223,0.282
		c0.826,0,1.414-0.188,1.765-0.56c0.35-0.378,0.526-1.094,0.526-2.161L72.797,158.41L72.797,158.41z"/>
	<path fill="#F5F5F5" stroke="#F5F5F5" stroke-width="0.5" stroke-miterlimit="10" d="M75.655,166.889v-6.143h0.937v0.873
		c0.452-0.674,1.104-1.012,1.955-1.012c0.37,0,0.711,0.063,1.021,0.199c0.309,0.135,0.543,0.309,0.697,0.521
		c0.154,0.216,0.263,0.473,0.324,0.771c0.039,0.188,0.06,0.53,0.06,1.006v3.776h-1.042v-3.735c0-0.424-0.041-0.74-0.122-0.951
		s-0.225-0.377-0.431-0.506c-0.207-0.129-0.449-0.188-0.726-0.188c-0.444,0-0.827,0.146-1.147,0.427
		c-0.322,0.278-0.482,0.816-0.482,1.604v3.353L75.655,166.889L75.655,166.889z"/>
	<path fill="#F5F5F5" stroke="#F5F5F5" stroke-width="0.5" stroke-miterlimit="10" d="M82.248,166.889v-8.479h1.041v4.834
		l2.464-2.498H87.1l-2.348,2.277l2.585,3.863h-1.285l-2.029-3.141l-0.735,0.706v2.435h-1.04V166.889L82.248,166.889z"/>
	<path fill="#F5F5F5" stroke="#F5F5F5" stroke-width="0.5" stroke-miterlimit="10" d="M88.165,166.889v-6.143h0.938v0.873
		c0.45-0.674,1.103-1.012,1.954-1.012c0.369,0,0.709,0.063,1.02,0.199c0.31,0.135,0.543,0.309,0.697,0.521
		c0.154,0.216,0.263,0.473,0.324,0.771c0.039,0.188,0.059,0.53,0.059,1.006v3.776h-1.041v-3.735c0-0.424-0.041-0.74-0.122-0.951
		c-0.082-0.211-0.225-0.377-0.431-0.506c-0.207-0.129-0.447-0.188-0.725-0.188c-0.443,0-0.827,0.146-1.148,0.427
		c-0.322,0.278-0.483,0.816-0.483,1.604v3.353L88.165,166.889L88.165,166.889z"/>
	<path fill="#F5F5F5" stroke="#F5F5F5" stroke-width="0.5" stroke-miterlimit="10" d="M94.367,163.816
		c0-1.137,0.316-1.979,0.949-2.526c0.529-0.454,1.173-0.683,1.932-0.683c0.843,0,1.534,0.274,2.071,0.828
		c0.536,0.557,0.804,1.316,0.804,2.293c0,0.791-0.118,1.414-0.356,1.867c-0.236,0.45-0.582,0.803-1.035,1.055
		c-0.454,0.25-0.948,0.375-1.483,0.375c-0.86,0-1.555-0.275-2.086-0.826C94.632,165.646,94.367,164.854,94.367,163.816z
		 M95.437,163.816c0,0.785,0.171,1.379,0.515,1.766c0.342,0.395,0.774,0.588,1.295,0.588c0.515,0,0.946-0.191,1.29-0.592
		c0.344-0.393,0.515-0.993,0.515-1.801c0-0.758-0.172-1.336-0.517-1.723c-0.344-0.39-0.774-0.589-1.286-0.589
		c-0.521,0-0.954,0.193-1.295,0.584C95.607,162.443,95.437,163.032,95.437,163.816z"/>
	<path fill="#F5F5F5" stroke="#F5F5F5" stroke-width="0.5" stroke-miterlimit="10" d="M102.475,166.889l-1.88-6.143h1.077
		l0.977,3.544l0.364,1.321c0.016-0.067,0.121-0.488,0.318-1.27l0.977-3.598h1.07l0.919,3.561l0.307,1.172l0.353-1.185l1.052-3.558
		h1.012l-1.919,6.146h-1.083l-0.977-3.68l-0.237-1.049l-1.243,4.728h-1.087V166.889L102.475,166.889z"/>
	<path fill="#F5F5F5" stroke="#F5F5F5" stroke-width="0.5" stroke-miterlimit="10" d="M109.897,166.889v-6.143h0.936v0.873
		c0.452-0.674,1.104-1.012,1.955-1.012c0.37,0,0.711,0.063,1.021,0.199c0.31,0.135,0.543,0.309,0.697,0.521
		c0.154,0.216,0.263,0.473,0.324,0.771c0.039,0.188,0.059,0.53,0.059,1.006v3.776h-1.042v-3.735c0-0.424-0.041-0.74-0.121-0.951
		c-0.082-0.211-0.225-0.377-0.432-0.506c-0.206-0.129-0.449-0.188-0.726-0.188c-0.443,0-0.826,0.146-1.148,0.427
		c-0.322,0.278-0.482,0.816-0.482,1.604v3.353L109.897,166.889L109.897,166.889z"/>
</g>
<g>
	<g>
		<path fill="#15B6FF" d="M143.072,189.093c-0.443,8.228-12.326,8.228-12.769,0C129.858,180.859,142.631,180.9,143.072,189.093
			c0.103,1.899,3.065,1.911,2.962,0c-0.285-5.286-4.058-9.061-9.345-9.346c-5.278-0.285-9.085,4.485-9.347,9.346
			c-0.285,5.278,4.486,9.085,9.347,9.347c5.275,0.285,9.083-4.483,9.345-9.347C146.137,187.184,143.174,187.193,143.072,189.093z"/>
	</g>
</g>
<g enable-background="new    ">
	<path fill="#F5F5F5" stroke="#F5F5F5" stroke-width="0.5" stroke-miterlimit="10" d="M152.404,191.134l1.093-0.092
		c0.081,0.532,0.269,0.933,0.563,1.2c0.296,0.27,0.651,0.402,1.067,0.402c0.501,0,0.926-0.189,1.272-0.566
		c0.347-0.38,0.52-0.881,0.52-1.502c0-0.598-0.167-1.062-0.5-1.409c-0.333-0.345-0.77-0.515-1.31-0.515
		c-0.335,0-0.638,0.076-0.908,0.228c-0.271,0.153-0.482,0.349-0.637,0.595l-0.977-0.127l0.821-4.354h4.216v0.996h-3.384
		l-0.457,2.279c0.509-0.354,1.043-0.527,1.602-0.527c0.741,0,1.365,0.256,1.874,0.766c0.509,0.516,0.764,1.17,0.764,1.977
		c0,0.771-0.226,1.434-0.671,1.992c-0.544,0.686-1.286,1.032-2.228,1.032c-0.77,0-1.401-0.216-1.889-0.647
		C152.749,192.424,152.473,191.848,152.404,191.134z"/>
	<path fill="#F5F5F5" stroke="#F5F5F5" stroke-width="0.5" stroke-miterlimit="10" d="M162.914,193.355h-1.041v-6.635
		c-0.251,0.237-0.58,0.479-0.986,0.717c-0.407,0.242-0.771,0.422-1.097,0.539v-1.009c0.582-0.272,1.092-0.604,1.528-0.995
		c0.436-0.392,0.742-0.767,0.925-1.135h0.677L162.914,193.355L162.914,193.355z"/>
	<path fill="#F5F5F5" stroke="#F5F5F5" stroke-width="0.5" stroke-miterlimit="10" d="M168.755,190.812v-1.051h3.2v1.051H168.755z"
		/>
	<path fill="#F5F5F5" stroke="#F5F5F5" stroke-width="0.5" stroke-miterlimit="10" d="M176.176,185.984v-1h5.492v0.812
		c-0.543,0.572-1.077,1.336-1.605,2.286c-0.528,0.955-0.938,1.934-1.228,2.939c-0.21,0.709-0.344,1.485-0.399,2.332h-1.069
		c0.015-0.672,0.146-1.475,0.392-2.418c0.251-0.945,0.611-1.854,1.081-2.735c0.47-0.878,0.968-1.618,1.498-2.22L176.176,185.984
		L176.176,185.984z"/>
	<path fill="#F5F5F5" stroke="#F5F5F5" stroke-width="0.5" stroke-miterlimit="10" d="M182.695,191.134l1.095-0.092
		c0.08,0.532,0.267,0.933,0.558,1.2c0.295,0.27,0.649,0.402,1.066,0.402c0.502,0,0.926-0.189,1.271-0.566
		c0.348-0.38,0.517-0.881,0.517-1.502c0-0.598-0.165-1.062-0.499-1.409c-0.334-0.345-0.771-0.515-1.312-0.515
		c-0.334,0-0.637,0.076-0.908,0.228c-0.267,0.153-0.479,0.349-0.635,0.595l-0.979-0.127l0.822-4.354h4.219v0.996h-3.387
		l-0.459,2.279c0.515-0.354,1.047-0.527,1.603-0.527c0.741,0,1.37,0.256,1.872,0.766c0.509,0.516,0.761,1.17,0.761,1.977
		c0,0.771-0.228,1.434-0.669,1.992c-0.548,0.686-1.291,1.032-2.229,1.032c-0.771,0-1.402-0.216-1.889-0.647
		C183.032,192.426,182.766,191.848,182.695,191.134z"/>
	<path fill="#F5F5F5" stroke="#F5F5F5" stroke-width="0.5" stroke-miterlimit="10" d="M189.48,186.912
		c0-0.605,0.15-1.122,0.455-1.547c0.307-0.424,0.746-0.637,1.326-0.637c0.529,0,0.973,0.188,1.32,0.569
		c0.352,0.38,0.523,0.938,0.523,1.675c0,0.721-0.18,1.268-0.529,1.656c-0.354,0.391-0.787,0.582-1.305,0.582
		c-0.516,0-0.939-0.189-1.281-0.57C189.648,188.259,189.48,187.684,189.48,186.912z M191.289,185.449
		c-0.256,0-0.471,0.111-0.645,0.335c-0.172,0.228-0.256,0.638-0.256,1.231c0,0.543,0.086,0.926,0.26,1.146
		c0.174,0.225,0.389,0.331,0.641,0.331c0.264,0,0.48-0.109,0.65-0.335c0.174-0.225,0.26-0.633,0.26-1.227
		c0-0.547-0.086-0.928-0.262-1.152C191.766,185.559,191.548,185.449,191.289,185.449z M191.295,193.667l4.641-8.937h0.844
		l-4.62,8.937H191.295z M194.965,191.367c0-0.61,0.152-1.126,0.457-1.547c0.305-0.424,0.747-0.637,1.329-0.637
		c0.532,0,0.974,0.188,1.322,0.569c0.351,0.379,0.522,0.938,0.522,1.677c0,0.719-0.178,1.271-0.529,1.657
		c-0.35,0.39-0.789,0.578-1.311,0.578c-0.514,0-0.938-0.188-1.279-0.572C195.134,192.708,194.965,192.133,194.965,191.367z
		 M196.779,189.902c-0.262,0-0.479,0.105-0.649,0.334c-0.171,0.226-0.26,0.637-0.26,1.23c0,0.54,0.089,0.924,0.262,1.146
		c0.173,0.225,0.392,0.338,0.644,0.338c0.268,0,0.484-0.111,0.656-0.338c0.172-0.228,0.258-0.635,0.258-1.225
		c0-0.55-0.086-0.933-0.262-1.154C197.255,190.012,197.039,189.902,196.779,189.902z"/>
</g>
<g>
	<g>
		<path fill="#CB181D" d="M23.24,189.014c-0.443,8.228-12.325,8.228-12.769,0C10.029,180.777,22.8,180.82,23.24,189.014
			c0.104,1.897,3.064,1.907,2.961,0c-0.286-5.287-4.059-9.063-9.345-9.349c-5.278-0.283-9.086,4.487-9.348,9.349
			c-0.283,5.273,4.487,9.082,9.348,9.342c5.275,0.287,9.084-4.481,9.345-9.342C26.306,187.102,23.344,187.113,23.24,189.014z"/>
	</g>
</g>
<g enable-background="new    ">
	<path fill="#F5F5F5" stroke="#F5F5F5" stroke-width="0.5" stroke-miterlimit="10" d="M36.497,192.878h-1.042v-6.636
		c-0.25,0.238-0.58,0.475-0.987,0.72c-0.406,0.241-0.772,0.417-1.096,0.536v-1.008c0.583-0.273,1.091-0.604,1.527-0.995
		c0.437-0.394,0.744-0.769,0.927-1.132h0.671V192.878L36.497,192.878z"/>
	<path fill="#F5F5F5" stroke="#F5F5F5" stroke-width="0.5" stroke-miterlimit="10" d="M42.338,190.333v-1.047h3.198v1.047H42.338z"
		/>
	<path fill="#F5F5F5" stroke="#F5F5F5" stroke-width="0.5" stroke-miterlimit="10" d="M55.161,191.879v0.999h-5.605
		c-0.008-0.251,0.033-0.489,0.122-0.724c0.143-0.381,0.371-0.758,0.685-1.127c0.314-0.368,0.768-0.799,1.362-1.285
		c0.922-0.76,1.544-1.354,1.869-1.797c0.324-0.441,0.486-0.859,0.486-1.252c0-0.411-0.147-0.762-0.442-1.047
		c-0.295-0.279-0.68-0.431-1.154-0.431c-0.502,0-0.902,0.149-1.204,0.449c-0.301,0.306-0.453,0.722-0.457,1.253l-1.07-0.104
		c0.074-0.803,0.35-1.41,0.827-1.832c0.478-0.418,1.121-0.627,1.926-0.627c0.812,0,1.458,0.229,1.931,0.682
		c0.474,0.447,0.712,1.006,0.712,1.676c0,0.342-0.069,0.678-0.208,1.003c-0.14,0.327-0.37,0.675-0.692,1.038
		c-0.322,0.361-0.857,0.859-1.605,1.491c-0.625,0.526-1.026,0.881-1.204,1.065c-0.178,0.188-0.323,0.377-0.439,0.566L55.161,191.879
		L55.161,191.879z"/>
	<path fill="#F5F5F5" stroke="#F5F5F5" stroke-width="0.5" stroke-miterlimit="10" d="M56.278,190.657l1.093-0.095
		c0.081,0.529,0.269,0.93,0.563,1.203c0.295,0.266,0.651,0.4,1.067,0.4c0.502,0,0.926-0.188,1.272-0.568
		c0.346-0.38,0.521-0.88,0.521-1.502c0-0.597-0.167-1.062-0.5-1.406c-0.334-0.344-0.77-0.514-1.311-0.514
		c-0.335,0-0.637,0.072-0.908,0.225c-0.27,0.15-0.482,0.35-0.637,0.597l-0.977-0.128l0.821-4.354H61.5v0.998h-3.384l-0.457,2.276
		c0.509-0.354,1.043-0.53,1.603-0.53c0.74,0,1.364,0.26,1.874,0.771c0.508,0.511,0.763,1.172,0.763,1.978
		c0,0.765-0.223,1.429-0.671,1.989c-0.544,0.686-1.286,1.031-2.227,1.031c-0.772,0-1.401-0.221-1.889-0.648
		C56.622,191.945,56.347,191.371,56.278,190.657z"/>
	<path fill="#F5F5F5" stroke="#F5F5F5" stroke-width="0.5" stroke-miterlimit="10" d="M63.062,186.436
		c0-0.604,0.151-1.119,0.458-1.543c0.304-0.426,0.746-0.639,1.324-0.639c0.532,0,0.972,0.189,1.323,0.569
		c0.349,0.381,0.522,0.938,0.522,1.675c0,0.718-0.177,1.271-0.53,1.658c-0.352,0.389-0.787,0.582-1.304,0.582
		c-0.513,0-0.94-0.191-1.281-0.572C63.233,187.781,63.062,187.205,63.062,186.436z M64.874,184.971c-0.259,0-0.473,0.11-0.645,0.336
		c-0.171,0.223-0.258,0.633-0.258,1.231c0,0.544,0.087,0.925,0.261,1.149c0.173,0.22,0.389,0.328,0.642,0.328
		c0.261,0,0.479-0.108,0.649-0.332c0.172-0.229,0.258-0.64,0.258-1.229c0-0.548-0.086-0.933-0.26-1.152
		C65.347,185.081,65.131,184.971,64.874,184.971z M64.879,193.191l4.638-8.939h0.845l-4.623,8.939H64.879L64.879,193.191z
		 M68.545,190.889c0-0.609,0.152-1.127,0.457-1.547c0.305-0.422,0.748-0.632,1.331-0.632c0.532,0,0.972,0.187,1.321,0.565
		c0.35,0.382,0.524,0.938,0.524,1.673c0,0.722-0.177,1.271-0.529,1.663c-0.353,0.388-0.79,0.58-1.311,0.58
		c-0.513,0-0.939-0.19-1.28-0.576C68.717,192.23,68.545,191.654,68.545,190.889z M70.362,189.424c-0.263,0-0.479,0.113-0.651,0.338
		c-0.171,0.225-0.257,0.635-0.257,1.23c0,0.54,0.087,0.923,0.261,1.145c0.173,0.225,0.388,0.338,0.641,0.338
		c0.267,0,0.485-0.109,0.657-0.338c0.172-0.226,0.257-0.634,0.257-1.226c0-0.55-0.086-0.933-0.26-1.154
		C70.834,189.537,70.62,189.424,70.362,189.424z"/>
</g>
<g>
	<g>
		<path fill="#0057FF" d="M228.768,163.346c-0.441,8.229-12.326,8.229-12.77,0C215.555,155.111,228.326,155.154,228.768,163.346
			c0.104,1.899,3.062,1.911,2.961,0c-0.283-5.285-4.057-9.062-9.346-9.35c-5.275-0.283-9.085,4.49-9.348,9.35
			c-0.283,5.279,4.488,9.082,9.348,9.344c5.275,0.285,9.083-4.48,9.346-9.344C231.832,161.438,228.869,161.443,228.768,163.346z"/>
	</g>
</g>
<g enable-background="new    ">
	<path fill="#F5F5F5" stroke="#F5F5F5" stroke-width="0.5" stroke-miterlimit="10" d="M238.171,159.842v-0.999h5.49v0.806
		c-0.539,0.572-1.075,1.338-1.604,2.285c-0.529,0.957-0.939,1.934-1.229,2.942c-0.207,0.712-0.342,1.487-0.396,2.33h-1.07
		c0.013-0.67,0.146-1.474,0.393-2.418s0.607-1.854,1.08-2.733c0.473-0.88,0.967-1.619,1.497-2.219h-4.155L238.171,159.842
		L238.171,159.842z"/>
	<path fill="#F5F5F5" stroke="#F5F5F5" stroke-width="0.5" stroke-miterlimit="10" d="M250.091,160.809l-1.038,0.082
		c-0.093-0.408-0.225-0.705-0.392-0.89c-0.274-0.299-0.629-0.448-1.04-0.448c-0.333,0-0.623,0.098-0.874,0.278
		c-0.328,0.239-0.586,0.591-0.776,1.049c-0.188,0.458-0.285,1.112-0.293,1.959c0.25-0.383,0.555-0.665,0.92-0.849
		c0.36-0.188,0.742-0.277,1.137-0.277c0.695,0,1.287,0.258,1.773,0.766c0.487,0.514,0.731,1.172,0.731,1.981
		c0,0.53-0.112,1.026-0.345,1.483c-0.232,0.455-0.545,0.805-0.949,1.048c-0.399,0.241-0.854,0.362-1.364,0.362
		c-0.867,0-1.58-0.318-2.121-0.957c-0.548-0.64-0.821-1.689-0.821-3.154c0-1.639,0.303-2.829,0.906-3.574
		c0.529-0.646,1.242-0.969,2.137-0.969c0.666,0,1.213,0.188,1.639,0.557C249.751,159.634,250.005,160.15,250.091,160.809z
		 M245.84,164.464c0,0.358,0.075,0.703,0.229,1.03c0.148,0.326,0.365,0.576,0.639,0.749c0.273,0.17,0.562,0.258,0.859,0.258
		c0.441,0,0.82-0.178,1.136-0.53c0.312-0.352,0.472-0.838,0.472-1.447c0-0.588-0.152-1.049-0.47-1.383
		c-0.312-0.339-0.704-0.507-1.179-0.507c-0.474,0-0.871,0.166-1.197,0.507C246.001,163.475,245.84,163.917,245.84,164.464z"/>
	<path fill="#F5F5F5" stroke="#F5F5F5" stroke-width="0.5" stroke-miterlimit="10" d="M254.453,164.667v-1.047h3.197v1.047H254.453z
		"/>
	<path fill="#F5F5F5" stroke="#F5F5F5" stroke-width="0.5" stroke-miterlimit="10" d="M265.727,167.212h-1.041v-6.639
		c-0.25,0.239-0.582,0.477-0.986,0.72c-0.405,0.243-0.771,0.418-1.096,0.536v-1.007c0.582-0.273,1.09-0.604,1.526-0.995
		c0.437-0.394,0.744-0.769,0.927-1.132h0.672v8.513h-0.002V167.212L265.727,167.212z"/>
	<path fill="#F5F5F5" stroke="#F5F5F5" stroke-width="0.5" stroke-miterlimit="10" d="M268.391,163.029
		c0-1.004,0.104-1.809,0.312-2.42c0.206-0.61,0.512-1.084,0.919-1.414c0.403-0.332,0.92-0.498,1.537-0.498
		c0.454,0,0.854,0.092,1.196,0.275c0.35,0.184,0.631,0.446,0.851,0.791c0.226,0.346,0.399,0.766,0.524,1.262
		c0.127,0.496,0.191,1.162,0.191,1.998c0,1-0.104,1.799-0.311,2.406c-0.202,0.61-0.51,1.086-0.914,1.422
		c-0.406,0.334-0.922,0.504-1.541,0.504c-0.819,0-1.463-0.297-1.928-0.883C268.672,165.771,268.391,164.621,268.391,163.029z
		 M269.461,163.029c0,1.393,0.164,2.316,0.489,2.779c0.323,0.461,0.727,0.69,1.207,0.69c0.479,0,0.885-0.229,1.212-0.694
		c0.316-0.464,0.482-1.389,0.482-2.777c0-1.396-0.164-2.32-0.482-2.777c-0.327-0.462-0.734-0.686-1.219-0.686
		c-0.476,0-0.855,0.199-1.142,0.604C269.641,160.684,269.461,161.641,269.461,163.029z"/>
	<path fill="#F5F5F5" stroke="#F5F5F5" stroke-width="0.5" stroke-miterlimit="10" d="M274.98,163.029
		c0-1.004,0.104-1.809,0.309-2.42c0.206-0.61,0.514-1.084,0.92-1.414c0.406-0.332,0.92-0.498,1.537-0.498
		c0.46,0,0.854,0.092,1.201,0.275c0.345,0.184,0.627,0.446,0.847,0.791c0.228,0.346,0.397,0.766,0.524,1.262
		c0.129,0.496,0.19,1.162,0.19,1.998c0,1-0.104,1.799-0.308,2.406c-0.204,0.61-0.518,1.086-0.924,1.422
		c-0.405,0.334-0.924,0.504-1.543,0.504c-0.816,0-1.459-0.297-1.926-0.883C275.26,165.771,274.98,164.621,274.98,163.029z
		 M276.052,163.029c0,1.393,0.161,2.316,0.488,2.779c0.323,0.461,0.728,0.69,1.207,0.69s0.885-0.229,1.211-0.694
		c0.321-0.464,0.487-1.389,0.487-2.777c0-1.396-0.164-2.32-0.487-2.777c-0.326-0.462-0.731-0.686-1.213-0.686
		c-0.479,0-0.86,0.199-1.146,0.604C276.229,160.684,276.052,161.641,276.052,163.029z"/>
	<path fill="#F5F5F5" stroke="#F5F5F5" stroke-width="0.5" stroke-miterlimit="10" d="M281.766,160.77
		c0-0.604,0.148-1.121,0.457-1.545c0.31-0.424,0.744-0.637,1.329-0.637c0.527,0,0.966,0.189,1.321,0.568
		c0.35,0.38,0.52,0.938,0.52,1.676c0,0.716-0.178,1.27-0.528,1.658c-0.353,0.387-0.786,0.58-1.3,0.58
		c-0.513,0-0.938-0.189-1.28-0.572C281.936,162.115,281.766,161.54,281.766,160.77z M283.576,159.305
		c-0.26,0-0.473,0.11-0.646,0.334c-0.171,0.229-0.256,0.637-0.256,1.231c0,0.546,0.087,0.927,0.266,1.149
		c0.174,0.224,0.392,0.332,0.639,0.332c0.268,0,0.479-0.11,0.65-0.336c0.17-0.229,0.258-0.638,0.258-1.228
		c0-0.548-0.088-0.933-0.262-1.151C284.05,159.415,283.833,159.305,283.576,159.305z M283.58,167.525l4.643-8.941h0.84l-4.619,8.941
		H283.58L283.58,167.525z M287.247,165.223c0-0.607,0.151-1.13,0.456-1.549c0.306-0.42,0.748-0.633,1.332-0.633
		c0.531,0,0.973,0.186,1.322,0.568c0.35,0.38,0.522,0.936,0.522,1.672c0,0.721-0.177,1.27-0.528,1.66
		c-0.354,0.39-0.789,0.584-1.312,0.584c-0.515,0-0.938-0.191-1.281-0.576C287.419,166.564,287.247,165.988,287.247,165.223z
		 M289.062,163.758c-0.264,0-0.479,0.112-0.651,0.338c-0.171,0.223-0.257,0.635-0.257,1.23c0,0.539,0.087,0.923,0.262,1.146
		c0.175,0.221,0.389,0.334,0.641,0.334c0.269,0,0.486-0.111,0.658-0.334c0.172-0.228,0.258-0.636,0.258-1.229
		c0-0.552-0.087-0.935-0.261-1.154C289.538,163.87,289.32,163.758,289.062,163.758z"/>
</g>
<g>
	<g>
		<path fill="#FC9272" d="M143.676,163.262c-0.443,8.229-12.325,8.229-12.769,0C130.464,155.027,143.235,155.07,143.676,163.262
			c0.103,1.899,3.065,1.911,2.961,0c-0.285-5.283-4.058-9.061-9.345-9.346c-5.277-0.285-9.085,4.486-9.347,9.346
			c-0.283,5.278,4.487,9.086,9.347,9.348c5.276,0.285,9.085-4.484,9.345-9.348C146.74,161.354,143.779,161.361,143.676,163.262z"/>
	</g>
</g>
<g enable-background="new    ">
	<path fill="#F5F5F5" stroke="#F5F5F5" stroke-width="0.5" stroke-miterlimit="10" d="M158.479,166.932v0.996h-5.604
		c-0.008-0.248,0.032-0.49,0.121-0.718c0.144-0.385,0.372-0.763,0.684-1.132c0.314-0.369,0.769-0.797,1.363-1.285
		c0.922-0.754,1.544-1.354,1.869-1.794c0.325-0.438,0.485-0.86,0.485-1.252c0-0.413-0.147-0.763-0.442-1.045
		c-0.295-0.286-0.679-0.431-1.155-0.431c-0.501,0-0.901,0.148-1.203,0.451c-0.302,0.307-0.454,0.719-0.458,1.254l-1.07-0.108
		c0.073-0.8,0.349-1.407,0.827-1.827c0.478-0.417,1.12-0.628,1.926-0.628c0.813,0,1.458,0.226,1.932,0.68
		c0.475,0.45,0.717,1.007,0.717,1.679c0,0.338-0.069,0.672-0.208,0.998c-0.145,0.328-0.369,0.674-0.69,1.039
		c-0.321,0.36-0.857,0.858-1.605,1.488c-0.624,0.528-1.025,0.887-1.203,1.068c-0.177,0.188-0.324,0.375-0.438,0.566H158.479
		L158.479,166.932z"/>
	<path fill="#F5F5F5" stroke="#F5F5F5" stroke-width="0.5" stroke-miterlimit="10" d="M164.998,161.527l-1.035,0.08
		c-0.098-0.408-0.227-0.707-0.395-0.893c-0.28-0.297-0.629-0.447-1.041-0.447c-0.332,0-0.621,0.096-0.877,0.275
		c-0.322,0.239-0.586,0.59-0.771,1.047c-0.188,0.46-0.287,1.112-0.3,1.965c0.255-0.385,0.554-0.666,0.925-0.854
		c0.363-0.185,0.742-0.275,1.139-0.275c0.689,0,1.287,0.263,1.773,0.767c0.488,0.513,0.727,1.17,0.727,1.979
		c0,0.532-0.106,1.028-0.347,1.481c-0.229,0.459-0.548,0.809-0.944,1.052c-0.398,0.243-0.854,0.362-1.369,0.362
		c-0.866,0-1.573-0.316-2.119-0.957c-0.551-0.639-0.821-1.688-0.821-3.152c0-1.643,0.308-2.832,0.908-3.577
		c0.529-0.646,1.246-0.971,2.135-0.971c0.668,0,1.213,0.188,1.639,0.562C164.654,160.352,164.913,160.866,164.998,161.527z
		 M160.747,165.182c0,0.356,0.077,0.701,0.229,1.03c0.15,0.328,0.362,0.578,0.637,0.749c0.27,0.172,0.557,0.257,0.857,0.257
		c0.438,0,0.815-0.177,1.131-0.53c0.314-0.353,0.474-0.836,0.474-1.446c0-0.584-0.154-1.046-0.47-1.384
		c-0.314-0.336-0.709-0.508-1.183-0.508c-0.471,0-0.866,0.17-1.194,0.508C160.909,164.193,160.747,164.635,160.747,165.182z"/>
	<path fill="#F5F5F5" stroke="#F5F5F5" stroke-width="0.5" stroke-miterlimit="10" d="M169.357,165.385v-1.045h3.201v1.045H169.357z
		"/>
	<path fill="#F5F5F5" stroke="#F5F5F5" stroke-width="0.5" stroke-miterlimit="10" d="M176.713,165.709l1.094-0.092
		c0.08,0.529,0.27,0.93,0.562,1.199c0.295,0.271,0.65,0.399,1.066,0.399c0.5,0,0.924-0.188,1.271-0.563
		c0.348-0.377,0.516-0.879,0.516-1.506c0-0.594-0.166-1.06-0.5-1.404c-0.332-0.344-0.771-0.516-1.309-0.516
		c-0.336,0-0.641,0.075-0.91,0.229c-0.27,0.146-0.479,0.352-0.637,0.594l-0.977-0.129l0.822-4.354h4.215v0.996h-3.383l-0.457,2.278
		c0.514-0.351,1.042-0.53,1.604-0.53c0.74,0,1.365,0.262,1.869,0.771c0.516,0.517,0.767,1.172,0.767,1.979
		c0,0.766-0.229,1.428-0.675,1.991c-0.545,0.685-1.287,1.03-2.229,1.03c-0.771,0-1.4-0.223-1.888-0.646
		C177.048,167.003,176.782,166.423,176.713,165.709z"/>
	<path fill="#F5F5F5" stroke="#F5F5F5" stroke-width="0.5" stroke-miterlimit="10" d="M183.3,163.748
		c0-1.007,0.104-1.811,0.31-2.422c0.207-0.611,0.518-1.082,0.92-1.413c0.406-0.335,0.92-0.5,1.535-0.5
		c0.461,0,0.854,0.092,1.205,0.272c0.347,0.186,0.625,0.445,0.844,0.791c0.229,0.35,0.4,0.767,0.527,1.26
		c0.127,0.494,0.191,1.164,0.191,2c0,0.998-0.104,1.802-0.307,2.41c-0.205,0.609-0.517,1.084-0.924,1.418
		c-0.404,0.334-0.925,0.5-1.539,0.5c-0.817,0-1.463-0.295-1.927-0.881C183.58,166.49,183.3,165.341,183.3,163.748z M184.369,163.748
		c0,1.393,0.162,2.318,0.488,2.775c0.322,0.463,0.728,0.69,1.207,0.69c0.479,0,0.883-0.229,1.209-0.694
		c0.324-0.463,0.488-1.386,0.488-2.775c0-1.396-0.164-2.322-0.488-2.78c-0.323-0.455-0.728-0.687-1.211-0.687
		c-0.479,0-0.861,0.199-1.146,0.604C184.55,161.4,184.369,162.355,184.369,163.748z"/>
	<path fill="#F5F5F5" stroke="#F5F5F5" stroke-width="0.5" stroke-miterlimit="10" d="M190.086,161.486
		c0-0.606,0.15-1.121,0.457-1.547c0.309-0.422,0.75-0.635,1.33-0.635c0.531,0,0.966,0.187,1.32,0.568
		c0.351,0.379,0.521,0.938,0.521,1.671c0,0.72-0.178,1.271-0.526,1.66c-0.349,0.389-0.791,0.582-1.303,0.582
		c-0.511,0-0.937-0.19-1.281-0.572C190.256,162.835,190.086,162.259,190.086,161.486z M191.896,160.023
		c-0.267,0-0.475,0.109-0.646,0.336c-0.173,0.224-0.259,0.634-0.259,1.229c0,0.544,0.088,0.926,0.261,1.148
		c0.175,0.223,0.389,0.33,0.645,0.33c0.263,0,0.473-0.109,0.648-0.334c0.171-0.226,0.257-0.633,0.257-1.227
		c0-0.548-0.086-0.931-0.265-1.154C192.369,160.133,192.152,160.023,191.896,160.023z M191.9,168.242l4.64-8.938h0.842l-4.624,8.938
		H191.9z M195.568,165.939c0-0.612,0.148-1.125,0.455-1.549c0.31-0.423,0.748-0.635,1.332-0.635c0.531,0,0.974,0.191,1.321,0.57
		c0.351,0.381,0.524,0.938,0.524,1.676c0,0.716-0.178,1.271-0.53,1.656c-0.354,0.389-0.789,0.582-1.312,0.582
		c-0.514,0-0.939-0.19-1.279-0.575C195.738,167.282,195.568,166.706,195.568,165.939z M197.385,164.479
		c-0.263,0-0.479,0.108-0.648,0.334c-0.174,0.228-0.26,0.64-0.26,1.231c0,0.54,0.088,0.927,0.262,1.146
		c0.175,0.229,0.39,0.336,0.643,0.336c0.27,0,0.485-0.106,0.657-0.336c0.171-0.225,0.257-0.633,0.257-1.227
		c0-0.547-0.086-0.927-0.261-1.152C197.857,164.587,197.643,164.479,197.385,164.479z"/>
</g>
<g enable-background="new    ">
	<path fill="#F5F5F5" stroke="#F5F5F5" stroke-width="0.25" stroke-miterlimit="10" d="M5.999,136.557v-9.893h3.205
		c1.215,0,2.006,0.05,2.375,0.148c0.566,0.143,1.042,0.473,1.423,0.965c0.382,0.496,0.573,1.141,0.573,1.93
		c0,0.605-0.109,1.118-0.331,1.529c-0.22,0.416-0.5,0.74-0.84,0.977c-0.339,0.234-0.686,0.393-1.036,0.473
		c-0.477,0.097-1.168,0.145-2.073,0.145H7.996v3.729H5.999V136.557z M7.996,128.338v2.807h1.092c0.787,0,1.314-0.052,1.579-0.153
		c0.266-0.104,0.473-0.267,0.623-0.486c0.151-0.22,0.227-0.473,0.227-0.764c0-0.361-0.106-0.658-0.317-0.894
		c-0.21-0.229-0.479-0.38-0.803-0.436c-0.239-0.049-0.718-0.066-1.438-0.066H7.996V128.338z"/>
	<path fill="#F5F5F5" stroke="#F5F5F5" stroke-width="0.25" stroke-miterlimit="10" d="M19.354,134.275l1.889,0.315
		c-0.243,0.693-0.626,1.22-1.151,1.584c-0.524,0.359-1.18,0.542-1.968,0.542c-1.246,0-2.169-0.406-2.767-1.218
		c-0.472-0.649-0.709-1.474-0.709-2.472c0-1.186,0.31-2.114,0.932-2.788c0.621-0.671,1.406-1.007,2.355-1.007
		c1.065,0,1.908,0.35,2.524,1.055c0.618,0.702,0.912,1.783,0.885,3.232h-4.75c0.015,0.562,0.167,1,0.459,1.312
		s0.658,0.473,1.093,0.473c0.296,0,0.546-0.08,0.749-0.24C19.097,134.9,19.25,134.636,19.354,134.275z M19.462,132.357
		c-0.014-0.553-0.155-0.967-0.426-1.256c-0.27-0.285-0.598-0.432-0.985-0.432c-0.414,0-0.756,0.148-1.026,0.454
		s-0.403,0.712-0.397,1.228h2.834V132.357z"/>
	<path fill="#F5F5F5" stroke="#F5F5F5" stroke-width="0.25" stroke-miterlimit="10" d="M24.705,136.557h-1.896v-7.168h1.762v1.019
		c0.3-0.479,0.573-0.802,0.813-0.951c0.242-0.153,0.515-0.228,0.82-0.228c0.432,0,0.849,0.119,1.25,0.354l-0.587,1.656
		c-0.32-0.21-0.618-0.31-0.891-0.31c-0.266,0-0.49,0.07-0.676,0.219c-0.184,0.146-0.33,0.41-0.435,0.793
		c-0.106,0.384-0.159,1.183-0.159,2.406L24.705,136.557L24.705,136.557z"/>
	<path fill="#F5F5F5" stroke="#F5F5F5" stroke-width="0.25" stroke-miterlimit="10" d="M34.517,131.507l-1.87,0.339
		c-0.063-0.371-0.205-0.654-0.428-0.843c-0.223-0.188-0.511-0.282-0.867-0.282c-0.472,0-0.849,0.162-1.129,0.485
		c-0.282,0.327-0.422,0.873-0.422,1.635c0,0.849,0.144,1.452,0.428,1.8c0.286,0.349,0.669,0.529,1.151,0.529
		c0.361,0,0.655-0.104,0.884-0.311c0.229-0.203,0.392-0.555,0.486-1.053l1.863,0.313c-0.192,0.854-0.564,1.505-1.113,1.937
		c-0.549,0.436-1.284,0.654-2.206,0.654c-1.049,0-1.884-0.327-2.508-0.994c-0.623-0.658-0.936-1.578-0.936-2.742
		c0-1.181,0.314-2.104,0.938-2.765c0.625-0.658,1.471-0.989,2.537-0.989c0.872,0,1.567,0.188,2.081,0.562
		C33.922,130.166,34.292,130.739,34.517,131.507z"/>
	<path fill="#F5F5F5" stroke="#F5F5F5" stroke-width="0.25" stroke-miterlimit="10" d="M40.105,134.275l1.889,0.315
		c-0.244,0.693-0.626,1.22-1.152,1.584c-0.523,0.359-1.179,0.542-1.967,0.542c-1.247,0-2.169-0.406-2.768-1.218
		c-0.473-0.649-0.709-1.474-0.709-2.472c0-1.186,0.31-2.114,0.932-2.788c0.62-0.671,1.406-1.007,2.355-1.007
		c1.065,0,1.908,0.35,2.524,1.055c0.618,0.702,0.912,1.783,0.884,3.232h-4.75c0.014,0.562,0.166,1,0.458,1.312
		s0.658,0.473,1.094,0.473c0.296,0,0.546-0.08,0.749-0.24C39.849,134.9,40.001,134.636,40.105,134.275z M40.213,132.357
		c-0.015-0.553-0.155-0.967-0.426-1.256c-0.269-0.285-0.598-0.432-0.986-0.432c-0.414,0-0.756,0.148-1.026,0.454
		s-0.402,0.712-0.397,1.228h2.835V132.357L40.213,132.357z"/>
	<path fill="#F5F5F5" stroke="#F5F5F5" stroke-width="0.25" stroke-miterlimit="10" d="M50.158,136.557h-1.896V132.9
		c0-0.775-0.041-1.275-0.121-1.504c-0.082-0.227-0.212-0.403-0.396-0.527c-0.182-0.128-0.402-0.188-0.658-0.188
		c-0.329,0-0.623,0.09-0.884,0.268c-0.261,0.185-0.439,0.424-0.536,0.717c-0.097,0.3-0.145,0.844-0.145,1.648v3.244h-1.896v-7.164
		h1.761v1.049c0.625-0.81,1.413-1.211,2.363-1.211c0.419,0,0.801,0.072,1.147,0.226c0.347,0.149,0.608,0.347,0.786,0.576
		c0.178,0.233,0.301,0.5,0.37,0.797c0.071,0.299,0.105,0.722,0.105,1.276V136.557L50.158,136.557z"/>
	<path fill="#F5F5F5" stroke="#F5F5F5" stroke-width="0.25" stroke-miterlimit="10" d="M55.37,129.389v1.512h-1.295v2.889
		c0,0.586,0.013,0.927,0.038,1.023c0.024,0.101,0.081,0.177,0.169,0.236c0.087,0.065,0.195,0.096,0.319,0.096
		c0.176,0,0.43-0.06,0.763-0.182l0.162,1.469c-0.441,0.188-0.94,0.283-1.499,0.283c-0.342,0-0.65-0.062-0.925-0.175
		c-0.274-0.112-0.476-0.267-0.604-0.444c-0.127-0.188-0.217-0.433-0.266-0.74c-0.041-0.227-0.062-0.666-0.062-1.336v-3.123h-0.871
		v-1.512h0.871v-1.42l1.904-1.109v2.529h1.296V129.389z"/>
	<path fill="#F5F5F5" stroke="#F5F5F5" stroke-width="0.25" stroke-miterlimit="10" d="M58.102,131.575l-1.72-0.308
		c0.192-0.693,0.526-1.207,0.999-1.543c0.473-0.328,1.174-0.496,2.106-0.496c0.846,0,1.475,0.102,1.889,0.301
		c0.414,0.197,0.705,0.453,0.873,0.76c0.169,0.309,0.253,0.877,0.253,1.699l-0.021,2.212c0,0.63,0.03,1.094,0.091,1.396
		c0.061,0.301,0.174,0.617,0.34,0.961h-1.876c-0.049-0.125-0.11-0.312-0.183-0.559c-0.031-0.107-0.053-0.188-0.067-0.227
		c-0.323,0.315-0.67,0.557-1.04,0.713c-0.369,0.149-0.762,0.23-1.181,0.23c-0.739,0-1.318-0.197-1.745-0.598
		c-0.425-0.398-0.638-0.905-0.638-1.516c0-0.406,0.097-0.765,0.291-1.088c0.194-0.312,0.465-0.556,0.814-0.727
		c0.349-0.168,0.851-0.312,1.508-0.439c0.887-0.168,1.501-0.32,1.842-0.468v-0.188c0-0.362-0.09-0.627-0.271-0.779
		c-0.179-0.153-0.519-0.23-1.019-0.23c-0.337,0-0.6,0.062-0.79,0.196C58.373,131.009,58.219,131.244,58.102,131.575z M60.64,133.115
		c-0.243,0.082-0.629,0.178-1.154,0.289c-0.527,0.113-0.872,0.224-1.034,0.33c-0.247,0.177-0.371,0.397-0.371,0.67
		c0,0.268,0.098,0.492,0.297,0.688c0.199,0.191,0.451,0.289,0.757,0.289c0.341,0,0.669-0.109,0.977-0.337
		c0.229-0.172,0.381-0.379,0.453-0.628c0.05-0.163,0.074-0.477,0.074-0.93L60.64,133.115L60.64,133.115z"/>
	<path fill="#F5F5F5" stroke="#F5F5F5" stroke-width="0.25" stroke-miterlimit="10" d="M64.196,137.025l2.165,0.268
		c0.036,0.251,0.119,0.43,0.25,0.52c0.179,0.137,0.464,0.201,0.85,0.201c0.495,0,0.866-0.072,1.114-0.223
		c0.166-0.105,0.292-0.262,0.378-0.48c0.058-0.153,0.088-0.444,0.088-0.869v-1.047c-0.567,0.771-1.282,1.162-2.146,1.162
		c-0.963,0-1.726-0.404-2.287-1.221c-0.441-0.645-0.662-1.445-0.662-2.402c0-1.207,0.289-2.117,0.868-2.754
		c0.578-0.638,1.295-0.949,2.155-0.949c0.888,0,1.617,0.391,2.194,1.166v-1.002h1.774v6.432c0,0.843-0.07,1.477-0.21,1.896
		c-0.138,0.418-0.334,0.75-0.586,0.985c-0.254,0.235-0.589,0.425-1.009,0.562c-0.421,0.133-0.953,0.196-1.596,0.196
		c-1.213,0-2.077-0.208-2.585-0.624c-0.509-0.414-0.763-0.943-0.763-1.583C64.188,137.197,64.191,137.117,64.196,137.025z
		 M65.89,132.824c0,0.76,0.147,1.314,0.442,1.671c0.294,0.349,0.658,0.528,1.09,0.528c0.462,0,0.854-0.188,1.174-0.545
		c0.319-0.36,0.479-0.9,0.479-1.61c0-0.741-0.153-1.295-0.459-1.656c-0.306-0.358-0.693-0.54-1.162-0.54
		c-0.453,0-0.829,0.18-1.123,0.528C66.037,131.562,65.89,132.102,65.89,132.824z"/>
	<path fill="#F5F5F5" stroke="#F5F5F5" stroke-width="0.25" stroke-miterlimit="10" d="M76.963,134.275l1.889,0.315
		c-0.242,0.693-0.626,1.22-1.15,1.584c-0.524,0.359-1.18,0.542-1.967,0.542c-1.247,0-2.169-0.406-2.768-1.218
		c-0.473-0.649-0.708-1.474-0.708-2.472c0-1.186,0.31-2.114,0.931-2.788c0.621-0.671,1.405-1.007,2.356-1.007
		c1.066,0,1.907,0.35,2.524,1.055c0.616,0.702,0.912,1.783,0.884,3.232h-4.75c0.015,0.562,0.167,1,0.46,1.312
		c0.292,0.312,0.658,0.473,1.092,0.473c0.297,0,0.547-0.08,0.749-0.24C76.707,134.9,76.86,134.636,76.963,134.275z M77.071,132.357
		c-0.014-0.553-0.155-0.967-0.425-1.256c-0.271-0.285-0.598-0.432-0.985-0.432c-0.414,0-0.757,0.148-1.026,0.454
		c-0.27,0.306-0.403,0.712-0.398,1.228h2.834V132.357L77.071,132.357z"/>
	<path fill="#F5F5F5" stroke="#F5F5F5" stroke-width="0.25" stroke-miterlimit="10" d="M83.901,132.87
		c0-0.628,0.155-1.239,0.466-1.829c0.312-0.593,0.751-1.043,1.319-1.35c0.568-0.312,1.205-0.463,1.906-0.463
		c1.084,0,1.974,0.349,2.665,1.051c0.693,0.701,1.04,1.593,1.04,2.669c0,1.086-0.349,1.979-1.049,2.694
		c-0.699,0.715-1.581,1.068-2.643,1.068c-0.657,0-1.282-0.146-1.878-0.445c-0.596-0.298-1.05-0.729-1.36-1.303
		C84.055,134.393,83.901,133.695,83.901,132.87z M85.844,132.975c0,0.709,0.169,1.254,0.506,1.631
		c0.337,0.379,0.754,0.565,1.25,0.565s0.91-0.188,1.244-0.565c0.335-0.379,0.503-0.93,0.503-1.647c0-0.701-0.167-1.242-0.503-1.624
		c-0.334-0.379-0.75-0.562-1.244-0.562c-0.495,0-0.912,0.187-1.25,0.562C86.013,131.718,85.844,132.264,85.844,132.975z"/>
	<path fill="#F5F5F5" stroke="#F5F5F5" stroke-width="0.25" stroke-miterlimit="10" d="M91.951,129.389h1.052v-0.539
		c0-0.602,0.064-1.054,0.193-1.349c0.128-0.299,0.365-0.54,0.708-0.722c0.345-0.188,0.781-0.279,1.307-0.279
		c0.54,0,1.068,0.082,1.585,0.243l-0.257,1.323c-0.301-0.069-0.591-0.105-0.87-0.105c-0.275,0-0.472,0.061-0.591,0.189
		c-0.119,0.132-0.178,0.375-0.178,0.74v0.512h1.418v1.488H94.9v5.674h-1.896v-5.674h-1.052L91.951,129.389L91.951,129.389z"/>
	<path fill="#F5F5F5" stroke="#F5F5F5" stroke-width="0.25" stroke-miterlimit="10" d="M103.113,126.664v3.637
		c0.612-0.715,1.342-1.072,2.193-1.072c0.437,0,0.831,0.08,1.181,0.241c0.351,0.162,0.616,0.369,0.792,0.62
		c0.178,0.253,0.299,0.53,0.364,0.842c0.066,0.307,0.098,0.78,0.098,1.422v4.203h-1.896v-3.785c0-0.754-0.037-1.225-0.107-1.428
		c-0.071-0.201-0.2-0.363-0.381-0.484c-0.182-0.114-0.411-0.178-0.685-0.178c-0.315,0-0.596,0.07-0.843,0.228
		c-0.247,0.149-0.429,0.385-0.543,0.69c-0.114,0.312-0.171,0.765-0.171,1.366v3.591h-1.896v-9.893H103.113L103.113,126.664z"/>
	<path fill="#F5F5F5" stroke="#F5F5F5" stroke-width="0.25" stroke-miterlimit="10" d="M111.083,131.575l-1.721-0.308
		c0.194-0.693,0.525-1.207,0.999-1.543c0.473-0.328,1.174-0.496,2.106-0.496c0.846,0,1.475,0.102,1.889,0.301
		c0.413,0.197,0.704,0.453,0.874,0.76c0.169,0.309,0.252,0.877,0.252,1.699l-0.021,2.212c0,0.63,0.03,1.094,0.09,1.396
		c0.062,0.301,0.174,0.617,0.34,0.961h-1.875c-0.049-0.125-0.11-0.312-0.184-0.559c-0.032-0.107-0.054-0.188-0.066-0.227
		c-0.324,0.315-0.671,0.557-1.04,0.713c-0.368,0.149-0.763,0.23-1.181,0.23c-0.739,0-1.318-0.197-1.744-0.598
		c-0.425-0.398-0.638-0.905-0.638-1.516c0-0.406,0.097-0.765,0.291-1.088c0.193-0.312,0.466-0.556,0.814-0.727
		c0.349-0.168,0.851-0.312,1.508-0.439c0.886-0.168,1.5-0.32,1.842-0.468v-0.188c0-0.362-0.089-0.627-0.269-0.779
		c-0.18-0.153-0.52-0.23-1.019-0.23c-0.338,0-0.6,0.062-0.79,0.196C111.353,131.009,111.2,131.244,111.083,131.575z M113.62,133.115
		c-0.242,0.082-0.627,0.178-1.153,0.289c-0.526,0.113-0.871,0.224-1.033,0.33c-0.247,0.177-0.371,0.397-0.371,0.67
		c0,0.268,0.099,0.492,0.298,0.688c0.198,0.191,0.45,0.289,0.756,0.289c0.341,0,0.668-0.109,0.978-0.337
		c0.229-0.172,0.381-0.379,0.453-0.628c0.05-0.163,0.074-0.477,0.074-0.93L113.62,133.115L113.62,133.115z"/>
	<path fill="#F5F5F5" stroke="#F5F5F5" stroke-width="0.25" stroke-miterlimit="10" d="M117.352,136.557v-9.893h1.897v9.893H117.352
		L117.352,136.557z"/>
	<path fill="#F5F5F5" stroke="#F5F5F5" stroke-width="0.25" stroke-miterlimit="10" d="M121.191,128.416v-1.752h1.896v1.752H121.191
		z M121.191,136.557v-7.168h1.896v7.168H121.191z"/>
	<path fill="#F5F5F5" stroke="#F5F5F5" stroke-width="0.25" stroke-miterlimit="10" d="M124.951,136.557v-9.893h1.896v3.562
		c0.584-0.668,1.277-0.996,2.079-0.996c0.873,0,1.596,0.31,2.165,0.945c0.572,0.633,0.857,1.545,0.857,2.727
		c0,1.222-0.291,2.166-0.873,2.824c-0.583,0.66-1.29,0.994-2.123,0.994c-0.409,0-0.812-0.104-1.211-0.311
		c-0.397-0.205-0.742-0.512-1.028-0.911v1.053h-1.76L124.951,136.557L124.951,136.557z M126.832,132.818
		c0,0.742,0.118,1.291,0.351,1.646c0.329,0.504,0.766,0.756,1.31,0.756c0.418,0,0.775-0.182,1.068-0.536
		c0.294-0.357,0.442-0.92,0.442-1.688c0-0.819-0.149-1.409-0.445-1.771c-0.297-0.359-0.678-0.543-1.14-0.543
		c-0.454,0-0.833,0.178-1.133,0.528C126.983,131.562,126.832,132.1,126.832,132.818z"/>
	<path fill="#F5F5F5" stroke="#F5F5F5" stroke-width="0.25" stroke-miterlimit="10" d="M138.19,136.557v-1.072
		c-0.261,0.384-0.604,0.681-1.029,0.904c-0.425,0.221-0.874,0.33-1.347,0.33c-0.482,0-0.913-0.104-1.295-0.316
		c-0.382-0.211-0.658-0.508-0.831-0.891c-0.172-0.383-0.257-0.912-0.257-1.587v-4.536h1.896v3.295c0,1.006,0.035,1.625,0.106,1.853
		c0.069,0.228,0.195,0.403,0.381,0.538c0.184,0.14,0.418,0.197,0.702,0.197c0.324,0,0.615-0.09,0.87-0.269
		c0.257-0.178,0.433-0.397,0.527-0.66c0.095-0.265,0.142-0.907,0.142-1.933v-3.025h1.896v7.168h-1.762L138.19,136.557
		L138.19,136.557z"/>
	<path fill="#F5F5F5" stroke="#F5F5F5" stroke-width="0.25" stroke-miterlimit="10" d="M145.202,129.389v1.512h-1.295v2.889
		c0,0.586,0.013,0.927,0.038,1.023c0.024,0.101,0.081,0.177,0.169,0.236c0.087,0.065,0.194,0.096,0.32,0.096
		c0.176,0,0.43-0.06,0.762-0.182l0.162,1.469c-0.441,0.188-0.94,0.283-1.499,0.283c-0.342,0-0.65-0.062-0.925-0.175
		c-0.274-0.112-0.476-0.267-0.604-0.444c-0.127-0.188-0.217-0.433-0.267-0.74c-0.041-0.227-0.061-0.666-0.061-1.336v-3.123h-0.871
		v-1.512h0.871v-1.42l1.904-1.109v2.529h1.296V129.389L145.202,129.389z"/>
	<path fill="#F5F5F5" stroke="#F5F5F5" stroke-width="0.25" stroke-miterlimit="10" d="M149.918,132.87
		c0-0.628,0.155-1.239,0.467-1.829c0.311-0.593,0.75-1.043,1.318-1.35c0.568-0.312,1.204-0.463,1.906-0.463
		c1.084,0,1.974,0.349,2.666,1.051c0.692,0.701,1.039,1.593,1.039,2.669c0,1.086-0.35,1.979-1.049,2.694
		c-0.699,0.715-1.58,1.068-2.641,1.068c-0.658,0-1.283-0.146-1.88-0.445c-0.596-0.298-1.049-0.729-1.359-1.303
		C150.073,134.393,149.918,133.695,149.918,132.87z M151.863,132.975c0,0.709,0.169,1.254,0.506,1.631
		c0.337,0.379,0.753,0.565,1.249,0.565c0.497,0,0.911-0.188,1.246-0.565c0.335-0.379,0.503-0.93,0.503-1.647
		c0-0.701-0.168-1.242-0.503-1.624c-0.334-0.379-0.75-0.562-1.246-0.562c-0.495,0-0.912,0.187-1.249,0.562
		C152.032,131.718,151.863,132.264,151.863,132.975z"/>
	<path fill="#F5F5F5" stroke="#F5F5F5" stroke-width="0.25" stroke-miterlimit="10" d="M160.77,136.557l-2.888-7.168h1.99
		l1.351,3.655l0.392,1.222c0.104-0.309,0.17-0.513,0.194-0.613c0.062-0.202,0.131-0.403,0.203-0.606l1.361-3.653h1.951l-2.848,7.166
		h-1.707V136.557z"/>
	<path fill="#F5F5F5" stroke="#F5F5F5" stroke-width="0.25" stroke-miterlimit="10" d="M170.637,134.275l1.887,0.315
		c-0.238,0.693-0.623,1.22-1.147,1.584c-0.522,0.359-1.183,0.542-1.968,0.542c-1.246,0-2.17-0.406-2.768-1.218
		c-0.475-0.649-0.716-1.474-0.716-2.472c0-1.186,0.31-2.114,0.931-2.788c0.623-0.673,1.408-1.007,2.354-1.007
		c1.067,0,1.913,0.35,2.528,1.055c0.619,0.702,0.912,1.783,0.886,3.232h-4.75c0.017,0.562,0.166,1,0.459,1.312
		c0.292,0.312,0.655,0.473,1.089,0.473c0.303,0,0.551-0.08,0.751-0.24C170.375,134.9,170.531,134.636,170.637,134.275z
		 M170.743,132.357c-0.017-0.553-0.153-0.967-0.427-1.256c-0.271-0.285-0.599-0.432-0.984-0.432c-0.412,0-0.757,0.148-1.027,0.454
		c-0.268,0.306-0.404,0.712-0.396,1.228h2.834V132.357L170.743,132.357z"/>
	<path fill="#F5F5F5" stroke="#F5F5F5" stroke-width="0.25" stroke-miterlimit="10" d="M175.984,136.557h-1.895v-7.168h1.764v1.019
		c0.303-0.479,0.571-0.802,0.808-0.951c0.237-0.153,0.515-0.228,0.819-0.228c0.434,0,0.845,0.119,1.256,0.354l-0.594,1.656
		c-0.315-0.21-0.617-0.31-0.889-0.31c-0.27,0-0.486,0.07-0.68,0.219c-0.188,0.146-0.329,0.41-0.436,0.793
		c-0.104,0.384-0.158,1.183-0.158,2.406L175.984,136.557L175.984,136.557L175.984,136.557z"/>
	<path fill="#F5F5F5" stroke="#F5F5F5" stroke-width="0.25" stroke-miterlimit="10" d="M182.918,133.93l1.835-0.223
		c0.062,0.467,0.216,0.827,0.474,1.074c0.258,0.248,0.567,0.371,0.933,0.371c0.394,0,0.721-0.149,0.987-0.446
		c0.27-0.297,0.403-0.697,0.403-1.2c0-0.48-0.129-0.855-0.386-1.134c-0.262-0.276-0.568-0.419-0.938-0.419
		c-0.242,0-0.533,0.048-0.871,0.143l0.211-1.546c0.514,0.019,0.904-0.1,1.172-0.334c0.27-0.233,0.402-0.551,0.402-0.938
		c0-0.336-0.102-0.598-0.3-0.799c-0.194-0.194-0.461-0.297-0.789-0.297c-0.321,0-0.599,0.112-0.834,0.336
		c-0.226,0.229-0.364,0.558-0.416,0.986l-1.75-0.297c0.12-0.6,0.31-1.078,0.556-1.432c0.244-0.36,0.592-0.642,1.023-0.849
		c0.438-0.202,0.93-0.307,1.475-0.307c0.93,0,1.678,0.299,2.24,0.891c0.467,0.488,0.695,1.036,0.695,1.646
		c0,0.868-0.475,1.561-1.421,2.073c0.567,0.123,1.021,0.396,1.358,0.818c0.342,0.428,0.512,0.934,0.512,1.533
		c0,0.869-0.313,1.607-0.95,2.221c-0.638,0.611-1.424,0.916-2.365,0.916c-0.896,0-1.64-0.257-2.229-0.769
		C183.354,135.439,183.012,134.764,182.918,133.93z"/>
	<path fill="#F5F5F5" stroke="#F5F5F5" stroke-width="0.25" stroke-miterlimit="10" d="M197.076,134.794v1.763h-6.645
		c0.065-0.666,0.286-1.297,0.646-1.893c0.358-0.6,1.069-1.389,2.131-2.372c0.854-0.797,1.38-1.339,1.573-1.62
		c0.266-0.393,0.391-0.779,0.391-1.166c0-0.423-0.113-0.749-0.342-0.971c-0.229-0.229-0.542-0.342-0.941-0.342
		c-0.395,0-0.712,0.115-0.945,0.354c-0.232,0.233-0.366,0.637-0.401,1.188l-1.89-0.188c0.109-1.045,0.468-1.792,1.06-2.246
		c0.597-0.45,1.336-0.68,2.229-0.68c0.977,0,1.744,0.267,2.302,0.789c0.556,0.524,0.838,1.182,0.838,1.965
		c0,0.444-0.08,0.869-0.24,1.271c-0.159,0.398-0.411,0.826-0.759,1.265c-0.23,0.293-0.643,0.714-1.243,1.262
		c-0.599,0.543-0.978,0.913-1.138,1.087c-0.157,0.186-0.286,0.354-0.389,0.526L197.076,134.794L197.076,134.794z"/>
	<path fill="#F5F5F5" stroke="#F5F5F5" stroke-width="0.25" stroke-miterlimit="10" d="M202.602,128.416v-1.752h1.896v1.752H202.602
		z M202.602,136.557v-7.168h1.896v7.168H202.602z"/>
	<path fill="#F5F5F5" stroke="#F5F5F5" stroke-width="0.25" stroke-miterlimit="10" d="M212.961,136.557h-1.896V132.9
		c0-0.775-0.041-1.275-0.121-1.504c-0.082-0.227-0.213-0.403-0.395-0.527c-0.186-0.128-0.402-0.188-0.658-0.188
		c-0.328,0-0.623,0.09-0.885,0.268c-0.268,0.185-0.439,0.424-0.538,0.717c-0.102,0.3-0.145,0.844-0.145,1.648v3.244h-1.896v-7.164
		h1.759v1.049c0.627-0.81,1.416-1.211,2.363-1.211c0.418,0,0.805,0.072,1.146,0.226c0.35,0.149,0.609,0.347,0.787,0.576
		c0.18,0.233,0.304,0.5,0.369,0.797c0.068,0.299,0.104,0.722,0.104,1.276v4.451h0.002v-0.002H212.961L212.961,136.557z"/>
	<path fill="#F5F5F5" stroke="#F5F5F5" stroke-width="0.25" stroke-miterlimit="10" d="M221.134,131.507l-1.87,0.339
		c-0.062-0.371-0.207-0.654-0.429-0.843c-0.229-0.188-0.517-0.28-0.869-0.28c-0.474,0-0.851,0.16-1.133,0.485
		c-0.278,0.327-0.421,0.873-0.421,1.638c0,0.846,0.143,1.45,0.43,1.797c0.284,0.349,0.67,0.528,1.15,0.528
		c0.359,0,0.654-0.103,0.885-0.308c0.227-0.203,0.391-0.557,0.48-1.055l1.867,0.315c-0.191,0.853-0.562,1.503-1.111,1.935
		c-0.555,0.436-1.286,0.656-2.207,0.656c-1.047,0-1.885-0.33-2.508-0.992c-0.621-0.662-0.935-1.582-0.935-2.746
		c0-1.181,0.312-2.104,0.938-2.765c0.627-0.655,1.471-0.985,2.537-0.985c0.871,0,1.563,0.184,2.084,0.559
		C220.539,130.166,220.908,130.739,221.134,131.507z"/>
	<path fill="#F5F5F5" stroke="#F5F5F5" stroke-width="0.25" stroke-miterlimit="10" d="M224.46,126.664v3.637
		c0.612-0.715,1.343-1.072,2.192-1.072c0.437,0,0.828,0.08,1.18,0.241c0.354,0.162,0.615,0.369,0.794,0.62
		c0.185,0.253,0.304,0.53,0.362,0.842c0.062,0.307,0.104,0.78,0.104,1.422v4.203h-1.9v-3.785c0-0.754-0.027-1.225-0.104-1.428
		c-0.064-0.201-0.193-0.363-0.381-0.484c-0.188-0.114-0.41-0.178-0.688-0.178c-0.311,0-0.597,0.07-0.84,0.228
		c-0.248,0.149-0.436,0.385-0.546,0.69c-0.114,0.312-0.175,0.765-0.175,1.366v3.591h-1.896v-9.893H224.46L224.46,126.664z"/>
	<path fill="#F5F5F5" stroke="#F5F5F5" stroke-width="0.25" stroke-miterlimit="10" d="M235.162,134.275l1.891,0.315
		c-0.242,0.693-0.627,1.22-1.152,1.584c-0.522,0.359-1.178,0.542-1.969,0.542c-1.248,0-2.162-0.406-2.766-1.218
		c-0.475-0.649-0.709-1.474-0.709-2.472c0-1.186,0.311-2.114,0.932-2.788c0.618-0.675,1.404-1.007,2.354-1.007
		c1.063,0,1.907,0.35,2.524,1.055c0.613,0.702,0.912,1.783,0.885,3.232H232.4c0.014,0.562,0.168,1,0.459,1.312
		s0.658,0.473,1.092,0.473c0.297,0,0.548-0.08,0.75-0.24C234.907,134.896,235.059,134.636,235.162,134.275z M235.271,132.357
		c-0.016-0.553-0.155-0.967-0.426-1.256c-0.271-0.285-0.601-0.432-0.986-0.432c-0.412,0-0.754,0.148-1.025,0.454
		s-0.402,0.712-0.398,1.228h2.832v0.006H235.271z"/>
	<path fill="#F5F5F5" stroke="#F5F5F5" stroke-width="0.25" stroke-miterlimit="10" d="M238.029,134.511l1.904-0.288
		c0.08,0.366,0.244,0.648,0.489,0.84c0.249,0.191,0.599,0.285,1.039,0.285c0.492,0,0.861-0.09,1.106-0.269
		c0.168-0.128,0.25-0.295,0.25-0.507c0-0.146-0.047-0.264-0.135-0.358c-0.096-0.09-0.308-0.174-0.637-0.249
		c-1.529-0.339-2.496-0.643-2.906-0.925c-0.566-0.388-0.851-0.925-0.851-1.612c0-0.621,0.244-1.143,0.735-1.563
		c0.49-0.427,1.254-0.636,2.283-0.636c0.979,0,1.707,0.153,2.188,0.477c0.475,0.314,0.8,0.789,0.984,1.419l-1.789,0.331
		c-0.075-0.279-0.227-0.494-0.435-0.641c-0.216-0.146-0.519-0.225-0.917-0.225c-0.499,0-0.854,0.062-1.07,0.206
		c-0.147,0.103-0.22,0.229-0.22,0.388c0,0.137,0.063,0.25,0.188,0.346c0.172,0.129,0.762,0.309,1.773,0.533
		c1.006,0.229,1.711,0.515,2.115,0.842c0.393,0.341,0.598,0.809,0.598,1.412c0,0.656-0.273,1.221-0.824,1.693
		c-0.553,0.475-1.361,0.709-2.44,0.709c-0.974,0-1.749-0.195-2.317-0.596C238.578,135.729,238.206,135.191,238.029,134.511z"/>
</g>
<g enable-background="new    ">
	<path fill="#F5F5F5" stroke="#F5F5F5" stroke-width="0.25" stroke-miterlimit="10" d="M9.212,11.057V2.838H6.277V1.167h7.861v1.671
		h-2.929v8.219H9.212z"/>
	<path fill="#F5F5F5" stroke="#F5F5F5" stroke-width="0.25" stroke-miterlimit="10" d="M13.952,7.373c0-0.631,0.155-1.24,0.466-1.83
		c0.31-0.591,0.75-1.04,1.318-1.35c0.569-0.309,1.204-0.464,1.906-0.464c1.084,0,1.974,0.349,2.666,1.054
		c0.693,0.705,1.04,1.592,1.04,2.669c0,1.084-0.35,1.982-1.049,2.694c-0.699,0.716-1.581,1.07-2.642,1.07
		c-0.657,0-1.284-0.147-1.88-0.446c-0.596-0.296-1.049-0.729-1.359-1.302C14.108,8.895,13.952,8.197,13.952,7.373z M15.893,7.476
		c0,0.71,0.169,1.254,0.506,1.632c0.338,0.378,0.753,0.566,1.25,0.566c0.496,0,0.911-0.188,1.245-0.566
		c0.335-0.378,0.502-0.926,0.502-1.647c0-0.702-0.168-1.242-0.502-1.621c-0.334-0.378-0.75-0.566-1.245-0.566
		c-0.496,0-0.911,0.188-1.25,0.566C16.062,6.22,15.893,6.764,15.893,7.476z"/>
	<path fill="#F5F5F5" stroke="#F5F5F5" stroke-width="0.25" stroke-miterlimit="10" d="M26.118,3.893v1.51h-1.295v2.889
		c0,0.586,0.013,0.926,0.038,1.021c0.024,0.099,0.081,0.178,0.168,0.24c0.088,0.062,0.195,0.095,0.321,0.095
		c0.175,0,0.43-0.061,0.763-0.182l0.161,1.471c-0.442,0.186-0.94,0.283-1.498,0.283c-0.342,0-0.651-0.061-0.925-0.173
		c-0.274-0.114-0.476-0.265-0.604-0.444c-0.128-0.186-0.217-0.431-0.267-0.74c-0.041-0.222-0.062-0.667-0.062-1.337v-3.12h-0.871
		v-1.51h0.87V2.469l1.903-1.104v2.529L26.118,3.893L26.118,3.893z"/>
	<path fill="#F5F5F5" stroke="#F5F5F5" stroke-width="0.25" stroke-miterlimit="10" d="M28.849,6.078L27.128,5.77
		c0.193-0.693,0.527-1.208,1-1.541c0.473-0.332,1.174-0.499,2.105-0.499c0.847,0,1.476,0.103,1.889,0.301
		c0.413,0.201,0.704,0.456,0.874,0.761c0.169,0.308,0.252,0.875,0.252,1.698l-0.021,2.212c0,0.629,0.031,1.093,0.091,1.393
		c0.061,0.302,0.174,0.62,0.34,0.963h-1.875c-0.05-0.125-0.112-0.31-0.183-0.558c-0.031-0.112-0.055-0.185-0.067-0.224
		c-0.324,0.314-0.67,0.554-1.04,0.709c-0.369,0.156-0.762,0.234-1.181,0.234c-0.738,0-1.318-0.201-1.744-0.598
		c-0.426-0.4-0.638-0.906-0.638-1.518c0-0.405,0.097-0.763,0.291-1.087c0.194-0.313,0.466-0.556,0.814-0.727
		c0.347-0.168,0.851-0.314,1.508-0.441c0.886-0.168,1.501-0.32,1.842-0.466V6.193c0-0.364-0.09-0.625-0.271-0.78
		c-0.179-0.154-0.519-0.231-1.019-0.231c-0.338,0-0.6,0.065-0.79,0.198C29.12,5.511,28.968,5.747,28.849,6.078z M31.388,7.616
		c-0.242,0.082-0.628,0.178-1.154,0.291c-0.525,0.112-0.87,0.224-1.032,0.331c-0.247,0.175-0.371,0.396-0.371,0.668
		c0,0.266,0.098,0.494,0.297,0.688c0.199,0.193,0.449,0.29,0.756,0.29c0.341,0,0.668-0.112,0.978-0.337
		c0.229-0.172,0.38-0.381,0.453-0.63c0.049-0.162,0.073-0.471,0.073-0.926V7.616L31.388,7.616z"/>
	<path fill="#F5F5F5" stroke="#F5F5F5" stroke-width="0.25" stroke-miterlimit="10" d="M35.12,11.057V1.166h1.896v9.891H35.12z"/>
	<path fill="#F5F5F5" stroke="#F5F5F5" stroke-width="0.25" stroke-miterlimit="10" d="M42.745,3.893h1.769v1.052
		c0.229-0.36,0.54-0.653,0.931-0.879c0.392-0.227,0.826-0.337,1.302-0.337c0.833,0,1.539,0.323,2.118,0.976
		c0.579,0.653,0.872,1.561,0.872,2.728c0,1.196-0.292,2.125-0.878,2.789c-0.583,0.666-1.293,0.998-2.125,0.998
		c-0.396,0-0.756-0.079-1.077-0.236c-0.32-0.156-0.66-0.427-1.016-0.809v3.61h-1.896V3.893L42.745,3.893z M44.621,7.354
		c0,0.804,0.16,1.4,0.479,1.786c0.32,0.386,0.709,0.577,1.167,0.577c0.441,0,0.807-0.178,1.1-0.529
		c0.292-0.352,0.438-0.93,0.438-1.737c0-0.753-0.151-1.31-0.452-1.674c-0.302-0.365-0.676-0.548-1.121-0.548
		c-0.462,0-0.848,0.179-1.155,0.536C44.774,6.122,44.621,6.653,44.621,7.354z"/>
	<path fill="#F5F5F5" stroke="#F5F5F5" stroke-width="0.25" stroke-miterlimit="10" d="M50.803,7.373c0-0.631,0.154-1.24,0.467-1.83
		c0.312-0.59,0.75-1.04,1.318-1.35c0.569-0.31,1.205-0.464,1.907-0.464c1.084,0,1.974,0.349,2.665,1.054
		c0.693,0.705,1.04,1.592,1.04,2.669c0,1.084-0.35,1.982-1.049,2.694c-0.699,0.716-1.581,1.07-2.642,1.07
		c-0.658,0-1.283-0.147-1.879-0.446c-0.596-0.296-1.05-0.729-1.359-1.302C50.958,8.895,50.803,8.197,50.803,7.373z M52.747,7.476
		c0,0.71,0.169,1.254,0.507,1.632c0.337,0.378,0.753,0.566,1.249,0.566c0.495,0,0.911-0.188,1.245-0.566s0.502-0.926,0.502-1.647
		c0-0.702-0.168-1.242-0.502-1.621c-0.335-0.378-0.751-0.566-1.245-0.566c-0.495,0-0.912,0.188-1.249,0.566
		C52.915,6.22,52.747,6.764,52.747,7.476z"/>
	<path fill="#F5F5F5" stroke="#F5F5F5" stroke-width="0.25" stroke-miterlimit="10" d="M64.4,11.057V9.986
		c-0.261,0.382-0.604,0.681-1.029,0.904c-0.425,0.222-0.873,0.329-1.348,0.329c-0.481,0-0.913-0.104-1.294-0.315
		c-0.382-0.213-0.658-0.51-0.831-0.892c-0.172-0.382-0.257-0.911-0.257-1.583V3.896h1.896v3.293c0,1.008,0.035,1.625,0.105,1.853
		c0.07,0.226,0.196,0.407,0.381,0.54c0.185,0.131,0.419,0.198,0.702,0.198c0.325,0,0.614-0.09,0.872-0.267
		c0.256-0.181,0.432-0.399,0.525-0.661c0.095-0.266,0.142-0.91,0.142-1.934V3.894h1.896v7.167h-1.762L64.4,11.057L64.4,11.057z"/>
	<path fill="#F5F5F5" stroke="#F5F5F5" stroke-width="0.25" stroke-miterlimit="10" d="M74.644,11.057h-1.896V7.399
		c0-0.771-0.041-1.275-0.122-1.501c-0.081-0.228-0.212-0.401-0.396-0.529c-0.182-0.127-0.401-0.189-0.658-0.189
		c-0.329,0-0.623,0.092-0.885,0.27c-0.26,0.18-0.438,0.419-0.536,0.716c-0.097,0.298-0.145,0.845-0.145,1.647v3.247H68.11V3.893
		h1.762v1.053c0.624-0.81,1.412-1.214,2.362-1.214c0.419,0,0.8,0.074,1.146,0.226c0.347,0.149,0.609,0.343,0.786,0.578
		c0.178,0.233,0.301,0.499,0.371,0.797c0.069,0.298,0.104,0.721,0.104,1.274L74.644,11.057L74.644,11.057z"/>
	<path fill="#F5F5F5" stroke="#F5F5F5" stroke-width="0.25" stroke-miterlimit="10" d="M83.141,11.057h-1.762v-1.05
		c-0.292,0.41-0.638,0.715-1.035,0.914c-0.397,0.201-0.799,0.303-1.204,0.303c-0.824,0-1.529-0.331-2.116-0.997
		c-0.588-0.665-0.88-1.588-0.88-2.775c0-1.213,0.286-2.139,0.856-2.771c0.572-0.635,1.294-0.949,2.166-0.949
		c0.801,0,1.494,0.331,2.079,0.999V1.169h1.896V11.057L83.141,11.057z M78.079,7.319c0,0.762,0.106,1.316,0.317,1.661
		c0.306,0.494,0.733,0.743,1.282,0.743c0.437,0,0.807-0.186,1.115-0.556c0.305-0.371,0.459-0.926,0.459-1.663
		c0-0.824-0.149-1.417-0.446-1.779c-0.298-0.363-0.678-0.545-1.141-0.545c-0.45,0-0.826,0.18-1.13,0.538
		C78.231,6.075,78.079,6.61,78.079,7.319z"/>
	<path fill="#F5F5F5" stroke="#F5F5F5" stroke-width="0.25" stroke-miterlimit="10" d="M84.341,9.014l1.903-0.291
		c0.082,0.368,0.246,0.647,0.493,0.84c0.246,0.191,0.594,0.287,1.039,0.287c0.491,0,0.86-0.09,1.107-0.269
		c0.166-0.128,0.25-0.296,0.25-0.508c0-0.145-0.045-0.263-0.136-0.356c-0.094-0.091-0.305-0.173-0.635-0.251
		c-1.529-0.336-2.5-0.643-2.908-0.925c-0.567-0.387-0.85-0.925-0.85-1.613c0-0.62,0.246-1.143,0.736-1.566
		c0.49-0.425,1.251-0.635,2.281-0.635c0.98,0,1.709,0.158,2.186,0.477c0.477,0.317,0.806,0.792,0.985,1.42l-1.788,0.331
		c-0.077-0.279-0.222-0.493-0.435-0.64c-0.213-0.149-0.52-0.223-0.915-0.223c-0.499,0-0.857,0.067-1.073,0.208
		c-0.143,0.101-0.216,0.228-0.216,0.387c0,0.134,0.063,0.249,0.189,0.344c0.17,0.126,0.761,0.304,1.771,0.533
		c1.01,0.229,1.715,0.511,2.116,0.844c0.396,0.339,0.593,0.807,0.593,1.411c0,0.657-0.274,1.22-0.823,1.695
		c-0.549,0.473-1.36,0.709-2.437,0.709c-0.976,0-1.749-0.195-2.317-0.595C84.888,10.229,84.517,9.693,84.341,9.014z"/>
	<path fill="#F5F5F5" stroke="#F5F5F5" stroke-width="0.25" stroke-miterlimit="10" d="M96.097,7.373c0-0.631,0.155-1.24,0.467-1.83
		c0.311-0.591,0.75-1.04,1.319-1.35c0.568-0.309,1.204-0.464,1.906-0.464c1.083,0,1.974,0.349,2.666,1.054
		c0.694,0.705,1.04,1.592,1.04,2.669c0,1.084-0.349,1.982-1.049,2.694c-0.699,0.716-1.581,1.07-2.641,1.07
		c-0.658,0-1.284-0.147-1.88-0.446c-0.596-0.296-1.049-0.729-1.359-1.302C96.252,8.895,96.097,8.197,96.097,7.373z M98.039,7.476
		c0,0.71,0.169,1.254,0.508,1.632c0.337,0.376,0.753,0.566,1.249,0.566s0.91-0.188,1.245-0.566c0.334-0.378,0.502-0.926,0.502-1.647
		c0-0.702-0.168-1.242-0.502-1.621c-0.335-0.378-0.75-0.566-1.245-0.566s-0.912,0.188-1.249,0.566
		C98.209,6.22,98.039,6.764,98.039,7.476z"/>
	<path fill="#F5F5F5" stroke="#F5F5F5" stroke-width="0.25" stroke-miterlimit="10" d="M104.147,3.893h1.053v-0.54
		c0-0.602,0.064-1.052,0.192-1.349c0.127-0.297,0.364-0.539,0.708-0.724c0.345-0.187,0.779-0.28,1.306-0.28
		c0.541,0,1.069,0.081,1.585,0.242l-0.256,1.323c-0.301-0.071-0.591-0.106-0.871-0.106c-0.273,0-0.471,0.062-0.59,0.19
		c-0.12,0.13-0.178,0.375-0.178,0.74v0.508h1.417v1.491h-1.417v5.676h-1.897V5.386h-1.053L104.147,3.893L104.147,3.893z"/>
	<path fill="#F5F5F5" stroke="#F5F5F5" stroke-width="0.25" stroke-miterlimit="10" d="M115.308,1.165v3.639
		c0.612-0.718,1.343-1.074,2.193-1.074c0.436,0,0.83,0.081,1.18,0.243c0.35,0.162,0.615,0.37,0.792,0.62
		c0.177,0.253,0.299,0.531,0.364,0.837c0.064,0.308,0.098,0.782,0.098,1.425v4.203h-1.896V7.272c0-0.751-0.037-1.228-0.107-1.429
		c-0.071-0.202-0.199-0.363-0.382-0.482c-0.182-0.119-0.41-0.18-0.685-0.18c-0.316,0-0.596,0.075-0.844,0.228
		c-0.246,0.153-0.427,0.385-0.542,0.69c-0.115,0.309-0.171,0.764-0.171,1.367v3.589h-1.896v-9.89H115.308L115.308,1.165z"/>
	<path fill="#F5F5F5" stroke="#F5F5F5" stroke-width="0.25" stroke-miterlimit="10" d="M123.279,6.078l-1.721-0.308
		c0.192-0.693,0.526-1.208,0.999-1.541c0.473-0.332,1.174-0.499,2.106-0.499c0.847,0,1.476,0.103,1.889,0.301
		c0.414,0.201,0.705,0.456,0.873,0.761c0.169,0.308,0.253,0.875,0.253,1.698l-0.021,2.212c0,0.629,0.031,1.093,0.091,1.393
		c0.06,0.302,0.174,0.62,0.34,0.963h-1.876c-0.049-0.125-0.11-0.31-0.182-0.558c-0.032-0.112-0.054-0.185-0.068-0.224
		c-0.323,0.314-0.67,0.554-1.039,0.709c-0.369,0.156-0.762,0.234-1.181,0.234c-0.738,0-1.318-0.201-1.744-0.598
		c-0.425-0.4-0.638-0.906-0.638-1.518c0-0.405,0.096-0.763,0.291-1.087c0.193-0.313,0.465-0.556,0.813-0.727
		c0.348-0.168,0.851-0.314,1.508-0.441c0.886-0.168,1.5-0.32,1.842-0.466V6.193c0-0.364-0.089-0.625-0.27-0.78
		c-0.179-0.154-0.519-0.231-1.019-0.231c-0.337,0-0.6,0.065-0.79,0.198C123.549,5.511,123.395,5.747,123.279,6.078z M125.816,7.616
		c-0.244,0.082-0.629,0.178-1.154,0.291c-0.527,0.112-0.871,0.224-1.032,0.331c-0.247,0.175-0.371,0.396-0.371,0.668
		c0,0.266,0.099,0.494,0.297,0.688c0.199,0.193,0.451,0.29,0.756,0.29c0.341,0,0.668-0.112,0.978-0.337
		c0.229-0.172,0.38-0.381,0.452-0.63c0.049-0.162,0.075-0.471,0.075-0.926L125.816,7.616L125.816,7.616z"/>
	<path fill="#F5F5F5" stroke="#F5F5F5" stroke-width="0.25" stroke-miterlimit="10" d="M129.547,11.057V1.166h1.896v9.891H129.547z"
		/>
	<path fill="#F5F5F5" stroke="#F5F5F5" stroke-width="0.25" stroke-miterlimit="10" d="M133.387,2.918V1.165h1.896v1.754
		L133.387,2.918L133.387,2.918z M133.387,11.057V3.892h1.896v7.167L133.387,11.057L133.387,11.057z"/>
	<path fill="#F5F5F5" stroke="#F5F5F5" stroke-width="0.25" stroke-miterlimit="10" d="M137.146,11.057V1.166h1.896v3.562
		c0.583-0.666,1.277-0.999,2.078-0.999c0.873,0,1.595,0.315,2.166,0.949c0.572,0.633,0.857,1.541,0.857,2.722
		c0,1.225-0.292,2.165-0.873,2.829c-0.583,0.661-1.291,0.991-2.123,0.991c-0.409,0-0.813-0.103-1.211-0.308s-0.742-0.51-1.03-0.908
		v1.051h-1.761L137.146,11.057L137.146,11.057z M139.029,7.319c0,0.743,0.118,1.292,0.35,1.646c0.329,0.505,0.766,0.756,1.31,0.756
		c0.418,0,0.775-0.18,1.069-0.537c0.294-0.358,0.442-0.922,0.442-1.69c0-0.818-0.148-1.411-0.446-1.772
		c-0.297-0.36-0.677-0.544-1.14-0.544c-0.455,0-0.832,0.177-1.133,0.53C139.181,6.062,139.029,6.6,139.029,7.319z"/>
	<path fill="#F5F5F5" stroke="#F5F5F5" stroke-width="0.25" stroke-miterlimit="10" d="M150.386,11.057V9.986
		c-0.261,0.382-0.604,0.681-1.029,0.904c-0.424,0.222-0.874,0.329-1.347,0.329c-0.482,0-0.913-0.104-1.295-0.315
		c-0.382-0.213-0.658-0.51-0.83-0.892c-0.172-0.382-0.256-0.911-0.256-1.583V3.896h1.897v3.293c0,1.008,0.034,1.625,0.104,1.853
		c0.071,0.226,0.196,0.407,0.381,0.54c0.186,0.131,0.418,0.198,0.702,0.198c0.324,0,0.614-0.09,0.871-0.267
		c0.255-0.181,0.432-0.399,0.525-0.661c0.095-0.266,0.143-0.91,0.143-1.934V3.894h1.896v7.167h-1.761L150.386,11.057L150.386,11.057
		L150.386,11.057z"/>
	<path fill="#F5F5F5" stroke="#F5F5F5" stroke-width="0.25" stroke-miterlimit="10" d="M157.397,3.893v1.51h-1.295v2.889
		c0,0.586,0.012,0.926,0.038,1.021c0.024,0.099,0.081,0.178,0.169,0.24s0.194,0.095,0.32,0.095c0.176,0,0.429-0.061,0.762-0.182
		l0.162,1.471c-0.437,0.186-0.941,0.283-1.499,0.283c-0.341,0-0.65-0.061-0.925-0.173c-0.275-0.114-0.477-0.265-0.604-0.444
		c-0.128-0.186-0.217-0.431-0.267-0.74c-0.041-0.222-0.061-0.667-0.061-1.337v-3.12h-0.87v-1.51h0.87V2.469l1.903-1.104v2.529
		L157.397,3.893L157.397,3.893z"/>
	<path fill="#F5F5F5" stroke="#F5F5F5" stroke-width="0.25" stroke-miterlimit="10" d="M162.499,3.893h1.769v1.052
		c0.229-0.36,0.539-0.653,0.934-0.879c0.39-0.227,0.824-0.337,1.295-0.337c0.837,0,1.543,0.323,2.12,0.976
		c0.573,0.653,0.866,1.561,0.866,2.728c0,1.196-0.293,2.125-0.877,2.789c-0.584,0.666-1.295,0.998-2.125,0.998
		c-0.393,0-0.756-0.079-1.076-0.236c-0.319-0.156-0.659-0.427-1.012-0.809v3.61h-1.896L162.499,3.893L162.499,3.893z M164.375,7.354
		c0,0.804,0.159,1.4,0.479,1.786c0.32,0.386,0.709,0.577,1.168,0.577c0.442,0,0.81-0.178,1.101-0.529
		c0.291-0.352,0.438-0.93,0.438-1.737c0-0.753-0.149-1.31-0.451-1.674c-0.303-0.365-0.676-0.548-1.123-0.548
		c-0.461,0-0.846,0.179-1.151,0.536C164.525,6.122,164.375,6.653,164.375,7.354z"/>
	<path fill="#F5F5F5" stroke="#F5F5F5" stroke-width="0.25" stroke-miterlimit="10" d="M175.146,8.777l1.891,0.318
		c-0.244,0.693-0.628,1.219-1.154,1.583c-0.521,0.362-1.179,0.543-1.966,0.543c-1.247,0-2.17-0.407-2.767-1.218
		c-0.476-0.653-0.711-1.477-0.711-2.472c0-1.188,0.312-2.118,0.933-2.789c0.619-0.673,1.405-1.007,2.356-1.007
		c1.064,0,1.904,0.35,2.523,1.055c0.615,0.703,0.912,1.783,0.883,3.234h-4.75c0.016,0.562,0.166,1.001,0.461,1.312
		c0.293,0.311,0.655,0.47,1.092,0.47c0.297,0,0.547-0.082,0.748-0.244C174.891,9.399,175.042,9.136,175.146,8.777z M175.253,6.86
		c-0.013-0.549-0.155-0.967-0.426-1.252c-0.269-0.287-0.599-0.43-0.986-0.43c-0.411,0-0.76,0.149-1.024,0.453
		c-0.271,0.302-0.4,0.71-0.396,1.229H175.253L175.253,6.86z"/>
	<path fill="#F5F5F5" stroke="#F5F5F5" stroke-width="0.25" stroke-miterlimit="10" d="M180.498,11.057h-1.896V3.892h1.762V4.91
		c0.306-0.481,0.572-0.8,0.814-0.952c0.239-0.152,0.516-0.229,0.821-0.229c0.433,0,0.847,0.119,1.248,0.357l-0.586,1.654
		c-0.32-0.208-0.615-0.31-0.892-0.31c-0.268,0-0.49,0.073-0.677,0.222c-0.184,0.145-0.329,0.409-0.435,0.794
		c-0.106,0.382-0.158,1.18-0.158,2.403v2.207L180.498,11.057L180.498,11.057z"/>
	<path fill="#F5F5F5" stroke="#F5F5F5" stroke-width="0.25" stroke-miterlimit="10" d="M187.23,9.014l1.903-0.291
		c0.08,0.368,0.244,0.647,0.49,0.84c0.248,0.191,0.599,0.287,1.04,0.287c0.492,0,0.859-0.09,1.105-0.269
		c0.168-0.128,0.25-0.296,0.25-0.508c0-0.145-0.047-0.263-0.135-0.356c-0.096-0.091-0.307-0.173-0.635-0.251
		c-1.529-0.336-2.499-0.643-2.909-0.925c-0.565-0.387-0.85-0.925-0.85-1.613c0-0.62,0.243-1.143,0.735-1.566
		c0.488-0.425,1.256-0.635,2.282-0.635c0.979,0,1.706,0.158,2.187,0.477c0.478,0.317,0.804,0.792,0.986,1.42l-1.789,0.331
		c-0.076-0.279-0.225-0.493-0.434-0.64c-0.215-0.149-0.518-0.223-0.918-0.223c-0.499,0-0.854,0.067-1.07,0.208
		c-0.146,0.101-0.219,0.227-0.219,0.387c0,0.134,0.062,0.249,0.188,0.344c0.17,0.126,0.762,0.304,1.771,0.533
		c1.008,0.229,1.712,0.511,2.117,0.844c0.396,0.339,0.598,0.807,0.598,1.411c0,0.657-0.271,1.22-0.823,1.695
		c-0.552,0.473-1.36,0.709-2.439,0.709c-0.975,0-1.751-0.195-2.318-0.595C187.779,10.231,187.408,9.693,187.23,9.014z"/>
	<path fill="#F5F5F5" stroke="#F5F5F5" stroke-width="0.25" stroke-miterlimit="10" d="M198.873,3.893v1.51h-1.297v2.889
		c0,0.586,0.021,0.926,0.037,1.021c0.023,0.099,0.082,0.178,0.17,0.24c0.087,0.062,0.193,0.095,0.318,0.095
		c0.178,0,0.435-0.061,0.765-0.182l0.159,1.471c-0.438,0.186-0.938,0.283-1.498,0.283c-0.348,0-0.65-0.061-0.928-0.173
		c-0.272-0.114-0.474-0.265-0.602-0.444c-0.132-0.186-0.223-0.431-0.27-0.74c-0.039-0.222-0.062-0.667-0.062-1.337v-3.12h-0.872
		v-1.51h0.874V2.469l1.901-1.104v2.529L198.873,3.893L198.873,3.893z"/>
	<path fill="#F5F5F5" stroke="#F5F5F5" stroke-width="0.25" stroke-miterlimit="10" d="M201.604,6.078l-1.719-0.308
		c0.193-0.693,0.527-1.208,0.999-1.541c0.472-0.332,1.173-0.499,2.104-0.499c0.844,0,1.476,0.103,1.888,0.301
		c0.413,0.201,0.705,0.456,0.872,0.761c0.171,0.308,0.255,0.875,0.255,1.698l-0.021,2.212c0,0.629,0.029,1.093,0.091,1.393
		c0.061,0.302,0.177,0.62,0.343,0.963h-1.872c-0.05-0.125-0.106-0.31-0.187-0.558c-0.032-0.112-0.059-0.185-0.064-0.224
		c-0.322,0.314-0.674,0.554-1.04,0.709c-0.37,0.156-0.761,0.234-1.178,0.234c-0.739,0-1.317-0.201-1.747-0.598
		c-0.428-0.4-0.641-0.906-0.641-1.518c0-0.405,0.103-0.763,0.291-1.087c0.189-0.313,0.467-0.556,0.812-0.727
		c0.352-0.168,0.85-0.314,1.505-0.441c0.886-0.168,1.502-0.32,1.841-0.466V6.193c0-0.364-0.091-0.625-0.269-0.78
		c-0.183-0.154-0.519-0.231-1.017-0.231c-0.34,0-0.598,0.065-0.795,0.198C201.876,5.511,201.723,5.747,201.604,6.078z
		 M204.143,7.616c-0.242,0.082-0.625,0.178-1.151,0.291c-0.527,0.113-0.87,0.224-1.033,0.331c-0.248,0.175-0.371,0.396-0.371,0.668
		c0,0.266,0.103,0.494,0.297,0.688c0.198,0.193,0.45,0.29,0.757,0.29c0.35,0,0.674-0.112,0.979-0.337
		c0.229-0.172,0.38-0.381,0.449-0.63c0.051-0.162,0.072-0.471,0.072-0.926V7.616H204.143z"/>
	<path fill="#F5F5F5" stroke="#F5F5F5" stroke-width="0.25" stroke-miterlimit="10" d="M211.16,3.893v1.51h-1.295v2.889
		c0,0.586,0.011,0.926,0.029,1.021c0.021,0.099,0.078,0.178,0.176,0.24c0.087,0.062,0.188,0.095,0.313,0.095
		c0.183,0,0.433-0.061,0.763-0.182l0.162,1.471c-0.438,0.186-0.939,0.283-1.504,0.283c-0.346,0-0.646-0.061-0.926-0.173
		c-0.273-0.114-0.477-0.265-0.604-0.444c-0.131-0.186-0.221-0.431-0.27-0.74c-0.039-0.222-0.062-0.667-0.062-1.337v-3.12h-0.87
		v-1.51h0.87V2.469l1.904-1.104v2.529L211.16,3.893L211.16,3.893z"/>
	<path fill="#F5F5F5" stroke="#F5F5F5" stroke-width="0.25" stroke-miterlimit="10" d="M212.477,2.918V1.165h1.896v1.754
		L212.477,2.918L212.477,2.918z M212.477,11.057V3.892h1.896v7.167L212.477,11.057L212.477,11.057z"/>
	<path fill="#F5F5F5" stroke="#F5F5F5" stroke-width="0.25" stroke-miterlimit="10" d="M215.876,7.373
		c0-0.631,0.155-1.24,0.466-1.83c0.312-0.59,0.75-1.04,1.321-1.35c0.567-0.309,1.204-0.464,1.905-0.464
		c1.082,0,1.974,0.349,2.666,1.054c0.691,0.705,1.039,1.592,1.039,2.669c0,1.084-0.351,1.982-1.049,2.694
		c-0.699,0.716-1.58,1.07-2.643,1.07c-0.659,0-1.286-0.147-1.881-0.446c-0.596-0.296-1.051-0.729-1.359-1.302
		C216.034,8.894,215.876,8.197,215.876,7.373z M217.822,7.476c0,0.71,0.168,1.254,0.506,1.632c0.339,0.378,0.753,0.566,1.249,0.566
		c0.493,0,0.909-0.188,1.245-0.566c0.34-0.378,0.508-0.926,0.508-1.647c0-0.702-0.168-1.242-0.508-1.621
		c-0.336-0.378-0.749-0.566-1.245-0.566c-0.494,0-0.91,0.188-1.249,0.566C217.99,6.22,217.822,6.764,217.822,7.476z"/>
	<path fill="#F5F5F5" stroke="#F5F5F5" stroke-width="0.25" stroke-miterlimit="10" d="M231.275,11.057h-1.896V7.399
		c0-0.771-0.039-1.275-0.119-1.501c-0.081-0.228-0.215-0.401-0.396-0.529c-0.182-0.127-0.401-0.189-0.658-0.189
		c-0.329,0-0.624,0.092-0.882,0.27c-0.265,0.18-0.44,0.419-0.539,0.716c-0.099,0.298-0.146,0.845-0.146,1.647v3.247h-1.896V3.893
		h1.762v1.053c0.626-0.81,1.414-1.214,2.364-1.214c0.417,0,0.801,0.074,1.146,0.226c0.348,0.149,0.607,0.343,0.789,0.578
		c0.176,0.233,0.299,0.499,0.368,0.797c0.065,0.298,0.104,0.721,0.104,1.274v4.45H231.275z"/>
</g>
<g enable-background="new    ">
	<path fill="#F5F5F5" stroke="#F5F5F5" stroke-width="0.5" stroke-miterlimit="10" d="M13.046,89.216v-5.333h-0.919v-0.808h0.919
		v-0.653c0-0.413,0.036-0.719,0.109-0.921c0.101-0.269,0.276-0.488,0.53-0.657c0.253-0.168,0.606-0.252,1.062-0.252
		c0.293,0,0.617,0.035,0.971,0.103l-0.156,0.908c-0.216-0.039-0.42-0.06-0.613-0.06c-0.316,0-0.541,0.067-0.671,0.203
		c-0.131,0.136-0.196,0.389-0.196,0.759v0.566h1.197v0.809h-1.197v5.333h-1.035L13.046,89.216L13.046,89.216z"/>
	<path fill="#F5F5F5" stroke="#F5F5F5" stroke-width="0.5" stroke-miterlimit="10" d="M20.293,87.237l1.077,0.135
		c-0.17,0.629-0.484,1.117-0.942,1.462c-0.458,0.347-1.046,0.52-1.759,0.52c-0.899,0-1.611-0.274-2.138-0.83
		c-0.527-0.556-0.79-1.332-0.79-2.328c0-1.034,0.268-1.835,0.8-2.406c0.532-0.571,1.222-0.855,2.07-0.855
		c0.822,0,1.493,0.278,2.014,0.84c0.521,0.559,0.781,1.344,0.781,2.361c0,0.061-0.001,0.154-0.005,0.277h-4.582
		c0.039,0.676,0.229,1.191,0.573,1.549c0.343,0.358,0.77,0.538,1.283,0.538c0.382,0,0.708-0.101,0.978-0.3
		C19.921,88,20.136,87.679,20.293,87.237z M16.875,85.554h3.431c-0.045-0.515-0.177-0.903-0.394-1.163
		c-0.331-0.401-0.761-0.6-1.29-0.6c-0.478,0-0.88,0.159-1.206,0.479C17.089,84.59,16.909,85.018,16.875,85.554z"/>
	<path fill="#F5F5F5" stroke="#F5F5F5" stroke-width="0.5" stroke-miterlimit="10" d="M23.81,89.216l-1.878-6.145h1.076l0.977,3.545
		l0.365,1.319c0.017-0.064,0.122-0.487,0.318-1.265l0.977-3.6h1.07l0.92,3.562l0.308,1.172l0.352-1.186l1.053-3.552h1.012
		l-1.919,6.144h-1.082l-0.976-3.68l-0.237-1.048l-1.244,4.725H23.81V89.216z"/>
	<path fill="#F5F5F5" stroke="#F5F5F5" stroke-width="0.5" stroke-miterlimit="10" d="M35.437,87.237l1.075,0.135
		c-0.17,0.629-0.483,1.117-0.942,1.462c-0.459,0.347-1.045,0.52-1.759,0.52c-0.897,0-1.61-0.274-2.137-0.83
		c-0.525-0.555-0.79-1.332-0.79-2.328c0-1.034,0.266-1.835,0.799-2.406c0.532-0.571,1.222-0.855,2.07-0.855
		c0.821,0,1.493,0.278,2.013,0.84c0.521,0.559,0.782,1.344,0.782,2.361c0,0.061-0.002,0.154-0.006,0.277H31.96
		c0.039,0.676,0.229,1.191,0.573,1.549c0.344,0.358,0.771,0.538,1.285,0.538c0.382,0,0.708-0.101,0.978-0.3
		C35.064,88,35.278,87.679,35.437,87.237z M32.019,85.554h3.43c-0.046-0.515-0.178-0.903-0.393-1.163
		c-0.331-0.401-0.761-0.6-1.29-0.6c-0.478,0-0.881,0.159-1.208,0.479C32.233,84.59,32.053,85.018,32.019,85.554z"/>
	<path fill="#F5F5F5" stroke="#F5F5F5" stroke-width="0.5" stroke-miterlimit="10" d="M37.807,89.216v-6.145h0.937v0.931
		c0.239-0.434,0.459-0.721,0.662-0.863c0.203-0.14,0.426-0.207,0.668-0.207c0.35,0,0.708,0.11,1.07,0.336l-0.358,0.966
		c-0.255-0.148-0.509-0.226-0.763-0.226c-0.228,0-0.433,0.066-0.613,0.206c-0.18,0.14-0.311,0.327-0.388,0.57
		c-0.116,0.37-0.174,0.774-0.174,1.213v3.216h-1.042L37.807,89.216L37.807,89.216z"/>
</g>
<use xlink:href="#Arrow_25"  width="45.718" height="26.281" id="XMLID_2_" x="-22.859" y="-13.141" transform="matrix(0.3998 0 0 -0.4921 234.835 89.1021)" overflow="visible"/>
<line fill="none" stroke="#F5F5F5" stroke-width="1.6" stroke-miterlimit="10" x1="241.783" y1="87.116" x2="47.574" y2="86.987"/>
<g enable-background="new    ">
	<path fill="#F5F5F5" stroke="#F5F5F5" stroke-width="0.5" stroke-miterlimit="10" d="M251.131,89.948v-6.144h0.932v0.862
		c0.189-0.302,0.449-0.543,0.771-0.725c0.313-0.183,0.681-0.272,1.089-0.272c0.453,0,0.827,0.095,1.119,0.283
		s0.497,0.453,0.617,0.793c0.484-0.72,1.115-1.076,1.896-1.076c0.608,0,1.08,0.169,1.407,0.506c0.328,0.338,0.491,0.857,0.491,1.56
		v4.215h-1.039v-3.87c0-0.418-0.032-0.718-0.104-0.901c-0.065-0.183-0.188-0.329-0.367-0.44c-0.182-0.113-0.389-0.169-0.627-0.169
		c-0.433,0-0.789,0.143-1.076,0.432c-0.283,0.289-0.43,0.748-0.43,1.378v3.568h-1.041v-3.991c0-0.463-0.086-0.808-0.256-1.042
		c-0.172-0.232-0.447-0.347-0.837-0.347c-0.293,0-0.562,0.076-0.812,0.23c-0.245,0.154-0.432,0.381-0.538,0.678
		c-0.109,0.298-0.171,0.726-0.171,1.286v3.187L251.131,89.948L251.131,89.948z"/>
	<path fill="#F5F5F5" stroke="#F5F5F5" stroke-width="0.5" stroke-miterlimit="10" d="M260.611,86.876
		c0-1.138,0.313-1.982,0.947-2.529c0.528-0.455,1.174-0.682,1.934-0.682c0.845,0,1.541,0.277,2.076,0.832
		c0.535,0.553,0.801,1.317,0.801,2.292c0,0.792-0.115,1.414-0.352,1.867c-0.238,0.453-0.586,0.804-1.039,1.054
		c-0.451,0.252-0.949,0.377-1.484,0.377c-0.859,0-1.551-0.276-2.082-0.829C260.877,88.708,260.611,87.914,260.611,86.876z
		 M261.682,86.876c0,0.787,0.172,1.376,0.517,1.767c0.343,0.39,0.772,0.586,1.296,0.586c0.514,0,0.945-0.196,1.292-0.592
		c0.342-0.393,0.515-0.993,0.515-1.797c0-0.761-0.179-1.336-0.52-1.726c-0.346-0.391-0.774-0.588-1.287-0.588
		c-0.521,0-0.953,0.193-1.296,0.584C261.854,85.503,261.682,86.088,261.682,86.876z"/>
	<path fill="#F5F5F5" stroke="#F5F5F5" stroke-width="0.5" stroke-miterlimit="10" d="M267.574,89.948v-6.144h0.938v0.931
		c0.239-0.436,0.461-0.722,0.662-0.862c0.2-0.141,0.426-0.209,0.669-0.209c0.353,0,0.705,0.111,1.068,0.337l-0.359,0.966
		c-0.255-0.149-0.509-0.226-0.761-0.226c-0.229,0-0.434,0.067-0.609,0.204c-0.176,0.138-0.311,0.328-0.393,0.57
		c-0.114,0.37-0.176,0.774-0.176,1.212v3.218h-1.04L267.574,89.948L267.574,89.948z"/>
	<path fill="#F5F5F5" stroke="#F5F5F5" stroke-width="0.5" stroke-miterlimit="10" d="M275.736,87.971l1.078,0.133
		c-0.172,0.63-0.485,1.118-0.944,1.462c-0.46,0.346-1.044,0.521-1.759,0.521c-0.896,0-1.61-0.277-2.133-0.831
		c-0.526-0.555-0.795-1.331-0.795-2.328c0-1.034,0.269-1.834,0.803-2.406c0.533-0.571,1.218-0.856,2.074-0.856
		c0.819,0,1.494,0.279,2.013,0.841c0.518,0.559,0.78,1.346,0.78,2.361c0,0.062-0.004,0.152-0.008,0.276h-4.588
		c0.04,0.678,0.229,1.191,0.573,1.55c0.349,0.356,0.771,0.538,1.29,0.538c0.382,0,0.706-0.103,0.975-0.303
		C275.364,88.729,275.578,88.409,275.736,87.971z M272.318,86.287h3.428c-0.046-0.516-0.178-0.905-0.391-1.165
		c-0.33-0.399-0.76-0.6-1.293-0.6c-0.479,0-0.883,0.159-1.209,0.479C272.533,85.322,272.352,85.75,272.318,86.287z"/>
</g>
<g>
	<path fill="#C6C6C5" d="M41.527,66.699c-0.021,0.376-0.548,0.376-0.567,0C40.938,66.322,41.506,66.328,41.527,66.699
		c0.103,1.898,3.064,1.909,2.962,0c-0.099-1.831-1.414-3.147-3.245-3.245c-1.828-0.099-3.154,1.561-3.247,3.245
		c-0.098,1.83,1.562,3.153,3.247,3.244c1.828,0.099,3.154-1.562,3.245-3.244C44.591,64.789,41.627,64.799,41.527,66.699z"/>
</g>
<g>
	<path fill="#C6C6C5" d="M71.273,64.932c-0.155,2.883-4.315,2.883-4.47,0C66.647,62.045,71.118,62.061,71.273,64.932
		c0.103,1.9,3.063,1.911,2.961,0c-0.158-2.937-2.261-5.039-5.198-5.197c-2.929-0.159-5.049,2.496-5.196,5.197
		c-0.159,2.929,2.497,5.05,5.196,5.197c2.931,0.158,5.051-2.489,5.198-5.197C74.337,63.023,71.375,63.031,71.273,64.932z"/>
</g>
<g>
	<path fill="#C6C6C5" d="M111.95,59.982c-0.498,9.26-13.869,9.26-14.369,0C97.084,50.716,111.455,50.766,111.95,59.982
		c0.103,1.899,3.064,1.91,2.962,0c-0.31-5.74-4.405-9.836-10.146-10.145c-5.73-0.308-9.862,4.869-10.146,10.145
		c-0.308,5.731,4.869,9.861,10.146,10.144c5.729,0.308,9.861-4.875,10.146-10.144C115.015,58.071,112.053,58.082,111.95,59.982z"/>
</g>
<g>
	<path fill="#C6C6C5" d="M217.167,51.398c-0.317,8.957-7.062,15.704-16.021,16.02c-8.953,0.322-15.722-7.531-16.021-16.02
		c-0.312-8.953,7.533-15.72,16.021-16.017C210.104,35.066,216.868,42.913,217.167,51.398c0.062,1.743,2.774,1.751,2.71,0
		c-0.368-10.466-8.263-18.361-18.73-18.729c-10.459-0.368-18.381,8.816-18.733,18.729c-0.369,10.461,8.819,18.381,18.733,18.732
		c10.461,0.366,18.381-8.822,18.73-18.732C219.941,49.649,217.229,49.654,217.167,51.398z"/>
</g>
<g>
	<path fill="#C6C6C5" d="M284.789,46.298c-0.3,11.818-9.455,20.977-21.273,21.276c-11.822,0.303-20.988-9.906-21.283-21.276
		c-0.303-11.817,9.912-20.985,21.283-21.271C275.333,24.726,284.502,34.932,284.789,46.298c0.042,1.645,2.6,1.652,2.557,0
		c-0.334-13.219-10.609-23.494-23.83-23.828c-13.225-0.335-23.508,11.109-23.838,23.828c-0.339,13.221,11.11,23.508,23.838,23.833
		c13.221,0.338,23.506-11.114,23.83-23.833C287.389,44.65,284.831,44.655,284.789,46.298z"/>
</g>
<g>
	<path fill="#C6C6C5" d="M159.3,56.152c-0.763,14.195-21.264,14.195-22.028,0c-0.335-6.23,5.275-10.703,11.015-11.012
		C154.515,44.804,158.989,50.413,159.3,56.152c0.103,1.899,3.063,1.91,2.962,0c-0.971-17.999-26.982-17.999-27.952,0
		c-0.425,7.897,6.705,13.585,13.977,13.974c7.896,0.426,13.583-6.704,13.975-13.974C162.363,54.243,159.402,54.252,159.3,56.152z"/>
</g>
<g>
	<path fill="#C6C6C5" d="M17.453,67.968c-0.013,0.228-0.334,0.228-0.346,0C17.094,67.739,17.441,67.741,17.453,67.968
		c0.062,1.157,1.867,1.164,1.804,0c-0.061-1.116-0.862-1.915-1.977-1.977c-1.113-0.061-1.92,0.951-1.975,1.977
		c-0.061,1.115,0.95,1.921,1.975,1.977c1.114,0.061,1.922-0.951,1.977-1.977C19.319,66.806,17.516,66.812,17.453,67.968z"/>
</g>
</svg>
