<?xml version="1.0" encoding="utf-8"?>
<!-- Generator: Adobe Illustrator 16.0.4, SVG Export Plug-In . SVG Version: 6.00 Build 0)  -->
<!DOCTYPE svg PUBLIC "-//W3C//DTD SVG 1.1//EN" "http://www.w3.org/Graphics/SVG/1.1/DTD/svg11.dtd">
<svg version="1.1" id="Layer_1" xmlns="http://www.w3.org/2000/svg" xmlns:xlink="http://www.w3.org/1999/xlink" x="0px" y="0px"
	 width="320px" height="210px" viewBox="0 0 320 210" enable-background="new 0 0 320 210" xml:space="preserve">
<symbol  id="Arrow_25" viewBox="-22.859 -13.141 45.718 26.281">
	<polygon fill="none" points="-22.859,-13.141 22.859,-13.141 22.859,13.141 -22.859,13.141 	"/>
	<g>
		<polygon fill="#F5F5F5" points="-5.512,2.214 8.487,2.214 8.487,-3.877 22.405,4.15 8.487,12.172 8.487,6.085 -5.512,6.085 		"/>
	</g>
</symbol>
<g>
</g>
<g>
	<g>
		<g>
			<path fill="#C6C6C5" d="M24.465,39.823c-0.449,8.335-12.486,8.335-12.935,0C11.081,31.482,24.019,31.526,24.465,39.823
				c0.104,1.924,3.104,1.934,3,0c-0.289-5.356-4.111-9.179-9.467-9.468c-5.346-0.288-9.203,4.545-9.468,9.468
				c-0.288,5.346,4.545,9.202,9.468,9.467c5.345,0.288,9.202-4.544,9.467-9.467C27.569,37.889,24.569,37.899,24.465,39.823z"/>
		</g>
	</g>
	<g enable-background="new    ">
		<path fill="#F5F5F5" d="M33.919,39.094c0-1.016,0.104-1.833,0.313-2.452s0.52-1.097,0.932-1.433s0.931-0.504,1.556-0.504
			c0.461,0,0.865,0.093,1.213,0.278s0.635,0.453,0.861,0.803s0.404,0.775,0.533,1.277s0.193,1.179,0.193,2.03
			c0,1.008-0.104,1.821-0.311,2.44s-0.517,1.098-0.929,1.436s-0.933,0.507-1.562,0.507c-0.828,0-1.479-0.297-1.951-0.891
			C34.202,41.871,33.919,40.707,33.919,39.094z M35.003,39.094c0,1.41,0.165,2.349,0.495,2.815s0.737,0.7,1.222,0.7
			s0.892-0.234,1.222-0.703s0.495-1.406,0.495-2.812c0-1.414-0.165-2.354-0.495-2.818s-0.741-0.697-1.233-0.697
			c-0.484,0-0.871,0.205-1.16,0.615C35.185,36.717,35.003,37.684,35.003,39.094z"/>
		<path fill="#F5F5F5" d="M40.792,36.803c0-0.613,0.154-1.135,0.463-1.564s0.756-0.645,1.342-0.645c0.539,0,0.985,0.192,1.339,0.577
			s0.53,0.95,0.53,1.696c0,0.727-0.179,1.286-0.536,1.679s-0.798,0.589-1.321,0.589c-0.52,0-0.952-0.193-1.298-0.58
			S40.792,37.584,40.792,36.803z M42.626,35.32c-0.262,0-0.479,0.113-0.653,0.34s-0.261,0.643-0.261,1.248
			c0,0.551,0.088,0.938,0.264,1.163s0.393,0.337,0.65,0.337c0.266,0,0.485-0.113,0.659-0.34s0.261-0.641,0.261-1.242
			c0-0.555-0.088-0.944-0.264-1.169S42.888,35.32,42.626,35.32z M42.632,43.646l4.699-9.053h0.855l-4.682,9.053H42.632z
			 M46.347,41.314c0-0.617,0.154-1.14,0.463-1.567s0.758-0.642,1.348-0.642c0.539,0,0.985,0.192,1.339,0.577s0.53,0.95,0.53,1.696
			c0,0.727-0.179,1.286-0.536,1.679s-0.8,0.589-1.327,0.589c-0.52,0-0.952-0.194-1.298-0.583S46.347,42.092,46.347,41.314z
			 M48.187,39.832c-0.266,0-0.485,0.113-0.659,0.34s-0.261,0.643-0.261,1.248c0,0.547,0.088,0.934,0.264,1.16s0.393,0.34,0.65,0.34
			c0.27,0,0.491-0.113,0.665-0.34s0.261-0.641,0.261-1.242c0-0.555-0.088-0.944-0.264-1.169S48.448,39.832,48.187,39.832z"/>
		<path fill="#F5F5F5" d="M54.497,40.219c0-1.152,0.32-2.006,0.961-2.561c0.535-0.461,1.188-0.691,1.957-0.691
			c0.855,0,1.555,0.28,2.098,0.841s0.814,1.335,0.814,2.323c0,0.801-0.12,1.431-0.36,1.89s-0.59,0.815-1.049,1.069
			s-0.96,0.381-1.503,0.381c-0.871,0-1.575-0.279-2.112-0.838S54.497,41.27,54.497,40.219z M55.581,40.219
			c0,0.797,0.174,1.394,0.521,1.79s0.785,0.595,1.312,0.595c0.523,0,0.959-0.199,1.307-0.598s0.521-1.006,0.521-1.822
			c0-0.77-0.175-1.353-0.524-1.749s-0.784-0.595-1.304-0.595c-0.527,0-0.965,0.197-1.312,0.592S55.581,39.422,55.581,40.219z"/>
		<path fill="#F5F5F5" d="M61.552,43.33v-6.223h0.949v0.943c0.242-0.441,0.466-0.732,0.671-0.873s0.431-0.211,0.677-0.211
			c0.355,0,0.717,0.113,1.084,0.34l-0.363,0.979c-0.258-0.152-0.516-0.229-0.773-0.229c-0.23,0-0.438,0.069-0.621,0.208
			s-0.314,0.331-0.393,0.577c-0.117,0.375-0.176,0.785-0.176,1.23v3.258H61.552z"/>
		<path fill="#F5F5F5" d="M74.665,34.74h1.137v4.963c0,0.863-0.098,1.549-0.293,2.057s-0.548,0.921-1.058,1.239
			s-1.179,0.478-2.007,0.478c-0.805,0-1.463-0.139-1.975-0.416s-0.877-0.679-1.096-1.204s-0.328-1.243-0.328-2.153V34.74h1.137
			v4.957c0,0.746,0.069,1.296,0.208,1.649s0.377,0.626,0.715,0.817s0.751,0.287,1.239,0.287c0.836,0,1.432-0.189,1.787-0.568
			s0.533-1.107,0.533-2.186V34.74z"/>
		<path fill="#F5F5F5" d="M77.56,43.33v-6.223h0.949v0.885c0.457-0.684,1.117-1.025,1.98-1.025c0.375,0,0.72,0.067,1.034,0.202
			s0.55,0.312,0.706,0.53s0.266,0.479,0.328,0.779c0.039,0.195,0.059,0.537,0.059,1.025v3.826h-1.055v-3.785
			c0-0.43-0.041-0.751-0.123-0.964s-0.228-0.383-0.437-0.51s-0.454-0.19-0.735-0.19c-0.449,0-0.837,0.143-1.163,0.428
			s-0.489,0.826-0.489,1.623v3.398H77.56z"/>
		<path fill="#F5F5F5" d="M84.239,43.33v-8.59h1.055v4.898l2.496-2.531h1.365l-2.379,2.309l2.619,3.914h-1.301l-2.057-3.182
			l-0.744,0.715v2.467H84.239z"/>
		<path fill="#F5F5F5" d="M90.233,43.33v-6.223h0.949v0.885c0.457-0.684,1.117-1.025,1.98-1.025c0.375,0,0.72,0.067,1.034,0.202
			s0.55,0.312,0.706,0.53s0.266,0.479,0.328,0.779c0.039,0.195,0.059,0.537,0.059,1.025v3.826h-1.055v-3.785
			c0-0.43-0.041-0.751-0.123-0.964s-0.228-0.383-0.437-0.51s-0.454-0.19-0.735-0.19c-0.449,0-0.837,0.143-1.163,0.428
			s-0.489,0.826-0.489,1.623v3.398H90.233z"/>
		<path fill="#F5F5F5" d="M96.515,40.219c0-1.152,0.32-2.006,0.961-2.561c0.535-0.461,1.188-0.691,1.957-0.691
			c0.855,0,1.555,0.28,2.098,0.841s0.814,1.335,0.814,2.323c0,0.801-0.12,1.431-0.36,1.89s-0.59,0.815-1.049,1.069
			s-0.96,0.381-1.503,0.381c-0.871,0-1.575-0.279-2.112-0.838S96.515,41.27,96.515,40.219z M97.599,40.219
			c0,0.797,0.174,1.394,0.521,1.79s0.785,0.595,1.312,0.595c0.523,0,0.959-0.199,1.307-0.598s0.521-1.006,0.521-1.822
			c0-0.77-0.175-1.353-0.524-1.749s-0.784-0.595-1.304-0.595c-0.527,0-0.965,0.197-1.312,0.592S97.599,39.422,97.599,40.219z"/>
		<path fill="#F5F5F5" d="M104.729,43.33l-1.904-6.223h1.09l0.99,3.592l0.369,1.336c0.016-0.066,0.123-0.494,0.322-1.283l0.99-3.645
			h1.084l0.932,3.609l0.311,1.189l0.357-1.201l1.066-3.598h1.025l-1.945,6.223h-1.096l-0.99-3.727l-0.24-1.061l-1.26,4.787H104.729z
			"/>
		<path fill="#F5F5F5" d="M112.247,43.33v-6.223h0.949v0.885c0.457-0.684,1.117-1.025,1.98-1.025c0.375,0,0.72,0.067,1.034,0.202
			s0.55,0.312,0.706,0.53s0.266,0.479,0.328,0.779c0.039,0.195,0.059,0.537,0.059,1.025v3.826h-1.055v-3.785
			c0-0.43-0.041-0.751-0.123-0.964s-0.228-0.383-0.437-0.51s-0.454-0.19-0.735-0.19c-0.449,0-0.837,0.143-1.163,0.428
			s-0.489,0.826-0.489,1.623v3.398H112.247z"/>
	</g>
</g>
<g>
	<g>
		<g>
			<path fill="#88A61B" d="M145.853,65.823c-0.449,8.335-12.486,8.335-12.935,0C132.468,57.482,145.406,57.526,145.853,65.823
				c0.104,1.924,3.104,1.934,3,0c-0.289-5.356-4.111-9.179-9.467-9.468c-5.346-0.288-9.203,4.545-9.468,9.468
				c-0.288,5.346,4.545,9.202,9.468,9.467c5.345,0.288,9.202-4.544,9.467-9.467C148.957,63.889,145.956,63.899,145.853,65.823z"/>
		</g>
	</g>
	<g enable-background="new    ">
		<path fill="#F5F5F5" d="M155.307,67.891l1.107-0.094c0.082,0.539,0.272,0.944,0.571,1.216s0.659,0.407,1.081,0.407
			c0.508,0,0.938-0.191,1.289-0.574s0.527-0.891,0.527-1.523c0-0.602-0.169-1.076-0.507-1.424s-0.78-0.521-1.327-0.521
			c-0.34,0-0.646,0.077-0.92,0.231s-0.488,0.354-0.645,0.601l-0.99-0.129l0.832-4.412h4.271v1.008h-3.428l-0.463,2.309
			c0.516-0.359,1.057-0.539,1.623-0.539c0.75,0,1.383,0.26,1.898,0.779s0.773,1.188,0.773,2.004c0,0.777-0.227,1.449-0.68,2.016
			c-0.551,0.695-1.303,1.043-2.256,1.043c-0.781,0-1.419-0.219-1.913-0.656S155.377,68.613,155.307,67.891z"/>
		<path fill="#F5F5F5" d="M165.953,70.141h-1.055V63.42c-0.254,0.242-0.587,0.484-0.999,0.727s-0.782,0.424-1.11,0.545v-1.02
			c0.59-0.277,1.105-0.613,1.547-1.008s0.754-0.777,0.938-1.148h0.68V70.141z"/>
		<path fill="#F5F5F5" d="M171.871,67.562v-1.061h3.24v1.061H171.871z"/>
		<path fill="#F5F5F5" d="M179.389,62.676v-1.014h5.561v0.82c-0.547,0.582-1.089,1.355-1.626,2.32s-0.952,1.957-1.245,2.977
			c-0.211,0.719-0.346,1.506-0.404,2.361h-1.084c0.012-0.676,0.145-1.492,0.398-2.449s0.618-1.88,1.093-2.769
			s0.979-1.638,1.515-2.247H179.389z"/>
		<path fill="#F5F5F5" d="M185.992,67.891l1.107-0.094c0.082,0.539,0.272,0.944,0.571,1.216s0.659,0.407,1.081,0.407
			c0.508,0,0.938-0.191,1.289-0.574s0.527-0.891,0.527-1.523c0-0.602-0.169-1.076-0.507-1.424s-0.78-0.521-1.327-0.521
			c-0.34,0-0.646,0.077-0.92,0.231s-0.488,0.354-0.645,0.601l-0.99-0.129l0.832-4.412h4.271v1.008h-3.428l-0.463,2.309
			c0.516-0.359,1.057-0.539,1.623-0.539c0.75,0,1.383,0.26,1.898,0.779s0.773,1.188,0.773,2.004c0,0.777-0.227,1.449-0.68,2.016
			c-0.551,0.695-1.303,1.043-2.256,1.043c-0.781,0-1.419-0.219-1.913-0.656S186.062,68.613,185.992,67.891z"/>
		<path fill="#F5F5F5" d="M192.865,63.613c0-0.613,0.154-1.135,0.463-1.564s0.756-0.645,1.342-0.645
			c0.539,0,0.985,0.192,1.339,0.577s0.53,0.95,0.53,1.696c0,0.727-0.179,1.286-0.536,1.679s-0.798,0.589-1.321,0.589
			c-0.52,0-0.952-0.193-1.298-0.58S192.865,64.395,192.865,63.613z M194.699,62.131c-0.262,0-0.479,0.113-0.653,0.34
			s-0.261,0.643-0.261,1.248c0,0.551,0.088,0.938,0.264,1.163s0.393,0.337,0.65,0.337c0.266,0,0.485-0.113,0.659-0.34
			s0.261-0.641,0.261-1.242c0-0.555-0.088-0.944-0.264-1.169S194.961,62.131,194.699,62.131z M194.705,70.457l4.699-9.053h0.855
			l-4.682,9.053H194.705z M198.42,68.125c0-0.617,0.154-1.14,0.463-1.567s0.758-0.642,1.348-0.642c0.539,0,0.985,0.192,1.339,0.577
			s0.53,0.95,0.53,1.696c0,0.727-0.179,1.286-0.536,1.679s-0.8,0.589-1.327,0.589c-0.52,0-0.952-0.194-1.298-0.583
			S198.42,68.902,198.42,68.125z M200.26,66.643c-0.266,0-0.485,0.113-0.659,0.34s-0.261,0.643-0.261,1.248
			c0,0.547,0.088,0.934,0.264,1.16s0.393,0.34,0.65,0.34c0.27,0,0.491-0.113,0.665-0.34s0.261-0.641,0.261-1.242
			c0-0.555-0.088-0.944-0.264-1.169S200.521,66.643,200.26,66.643z"/>
	</g>
</g>
<g>
	<g>
		<g>
			<path fill="#D92525" d="M24.465,65.741c-0.449,8.334-12.486,8.334-12.935,0C11.081,57.399,24.019,57.443,24.465,65.741
				c0.104,1.924,3.104,1.934,3,0c-0.289-5.356-4.111-9.18-9.467-9.469c-5.346-0.288-9.203,4.546-9.468,9.469
				c-0.288,5.345,4.545,9.201,9.468,9.466c5.344,0.288,9.202-4.544,9.467-9.466C27.569,63.807,24.569,63.817,24.465,65.741z"/>
		</g>
	</g>
	<g enable-background="new    ">
		<path fill="#F5F5F5" d="M37.892,69.657h-1.055v-6.721c-0.254,0.242-0.587,0.484-0.999,0.727s-0.782,0.424-1.11,0.545v-1.02
			c0.59-0.277,1.105-0.613,1.547-1.008s0.754-0.777,0.938-1.148h0.68V69.657z"/>
		<path fill="#F5F5F5" d="M43.81,67.079v-1.061h3.24v1.061H43.81z"/>
		<path fill="#F5F5F5" d="M56.8,68.644v1.014h-5.678c-0.008-0.254,0.033-0.498,0.123-0.732c0.145-0.387,0.376-0.768,0.694-1.143
			s0.778-0.809,1.38-1.301c0.934-0.766,1.564-1.372,1.893-1.819s0.492-0.87,0.492-1.269c0-0.418-0.149-0.771-0.448-1.058
			s-0.688-0.431-1.169-0.431c-0.508,0-0.914,0.152-1.219,0.457s-0.459,0.727-0.463,1.266l-1.084-0.111
			c0.074-0.809,0.354-1.425,0.838-1.849s1.135-0.636,1.951-0.636c0.824,0,1.477,0.229,1.957,0.686s0.721,1.023,0.721,1.699
			c0,0.344-0.07,0.682-0.211,1.014s-0.374,0.682-0.7,1.049s-0.868,0.871-1.626,1.512c-0.633,0.531-1.039,0.892-1.219,1.081
			s-0.328,0.38-0.445,0.571H56.8z"/>
		<path fill="#F5F5F5" d="M57.931,67.407l1.107-0.094c0.082,0.539,0.272,0.944,0.571,1.216s0.659,0.407,1.081,0.407
			c0.508,0,0.938-0.191,1.289-0.574s0.527-0.891,0.527-1.523c0-0.602-0.169-1.076-0.507-1.424s-0.78-0.521-1.327-0.521
			c-0.34,0-0.646,0.077-0.92,0.231s-0.488,0.354-0.645,0.601l-0.99-0.129l0.832-4.412h4.271v1.008h-3.428l-0.463,2.309
			c0.516-0.359,1.057-0.539,1.623-0.539c0.75,0,1.383,0.26,1.898,0.779s0.773,1.188,0.773,2.004c0,0.777-0.227,1.449-0.68,2.016
			c-0.551,0.695-1.303,1.043-2.256,1.043c-0.781,0-1.419-0.219-1.913-0.656S58.001,68.13,57.931,67.407z"/>
		<path fill="#F5F5F5" d="M64.804,63.13c0-0.613,0.154-1.135,0.463-1.564s0.756-0.645,1.342-0.645c0.539,0,0.985,0.192,1.339,0.577
			s0.53,0.95,0.53,1.696c0,0.727-0.179,1.286-0.536,1.679s-0.798,0.589-1.321,0.589c-0.52,0-0.952-0.193-1.298-0.58
			S64.804,63.911,64.804,63.13z M66.638,61.647c-0.262,0-0.479,0.113-0.653,0.34s-0.261,0.643-0.261,1.248
			c0,0.551,0.088,0.938,0.264,1.163s0.393,0.337,0.65,0.337c0.266,0,0.485-0.113,0.659-0.34s0.261-0.641,0.261-1.242
			c0-0.555-0.088-0.944-0.264-1.169S66.899,61.647,66.638,61.647z M66.644,69.974l4.699-9.053h0.855l-4.682,9.053H66.644z
			 M70.358,67.642c0-0.617,0.154-1.14,0.463-1.567s0.758-0.642,1.348-0.642c0.539,0,0.985,0.192,1.339,0.577s0.53,0.95,0.53,1.696
			c0,0.727-0.179,1.286-0.536,1.679s-0.8,0.589-1.327,0.589c-0.52,0-0.952-0.194-1.298-0.583S70.358,68.419,70.358,67.642z
			 M72.198,66.159c-0.266,0-0.485,0.113-0.659,0.34s-0.261,0.643-0.261,1.248c0,0.547,0.088,0.934,0.264,1.16s0.393,0.34,0.65,0.34
			c0.27,0,0.491-0.113,0.665-0.34s0.261-0.641,0.261-1.242c0-0.555-0.088-0.944-0.264-1.169S72.46,66.159,72.198,66.159z"/>
	</g>
</g>
<g>
	<g>
		<g>
			<path fill="#05A8F2" d="M239.662,39.741c-0.449,8.334-12.485,8.334-12.936,0C226.277,31.399,239.215,31.443,239.662,39.741
				c0.104,1.924,3.104,1.934,3,0c-0.288-5.356-4.11-9.18-9.467-9.469c-5.346-0.288-9.203,4.546-9.469,9.469
				c-0.287,5.345,4.547,9.201,9.469,9.466c5.344,0.288,9.201-4.544,9.467-9.466C242.768,37.807,239.766,37.817,239.662,39.741z"/>
		</g>
	</g>
	<g enable-background="new    ">
		<path fill="#F5F5F5" d="M249.187,36.192v-1.014h5.561v0.82c-0.547,0.582-1.089,1.355-1.626,2.32s-0.952,1.957-1.245,2.977
			c-0.211,0.719-0.346,1.506-0.404,2.361h-1.084c0.012-0.676,0.145-1.492,0.398-2.449s0.618-1.88,1.093-2.769
			s0.979-1.638,1.515-2.247H249.187z"/>
		<path fill="#F5F5F5" d="M261.263,37.171l-1.049,0.082c-0.094-0.414-0.227-0.715-0.398-0.902c-0.285-0.301-0.637-0.451-1.055-0.451
			c-0.336,0-0.631,0.094-0.885,0.281c-0.332,0.242-0.594,0.596-0.785,1.061s-0.291,1.127-0.299,1.986
			c0.254-0.387,0.564-0.674,0.932-0.861s0.752-0.281,1.154-0.281c0.703,0,1.302,0.259,1.796,0.776s0.741,1.187,0.741,2.007
			c0,0.539-0.116,1.04-0.349,1.503s-0.552,0.817-0.958,1.063s-0.867,0.369-1.383,0.369c-0.879,0-1.596-0.323-2.15-0.97
			s-0.832-1.712-0.832-3.196c0-1.66,0.307-2.867,0.92-3.621c0.535-0.656,1.256-0.984,2.162-0.984c0.676,0,1.229,0.189,1.661,0.568
			S261.177,36.503,261.263,37.171z M256.956,40.874c0,0.363,0.077,0.711,0.231,1.043s0.37,0.585,0.647,0.759
			s0.568,0.261,0.873,0.261c0.445,0,0.828-0.18,1.148-0.539s0.48-0.848,0.48-1.465c0-0.594-0.158-1.062-0.475-1.403
			s-0.715-0.513-1.195-0.513c-0.477,0-0.881,0.171-1.213,0.513S256.956,40.319,256.956,40.874z"/>
		<path fill="#F5F5F5" d="M265.681,41.079v-1.061h3.24v1.061H265.681z"/>
		<path fill="#F5F5F5" d="M277.101,43.657h-1.055v-6.721c-0.254,0.242-0.587,0.484-0.999,0.727s-0.782,0.424-1.11,0.545v-1.02
			c0.59-0.277,1.105-0.613,1.547-1.008s0.754-0.777,0.938-1.148h0.68V43.657z"/>
		<path fill="#F5F5F5" d="M279.802,39.421c0-1.016,0.104-1.833,0.313-2.452s0.52-1.097,0.932-1.433s0.931-0.504,1.556-0.504
			c0.461,0,0.865,0.093,1.213,0.278s0.635,0.453,0.861,0.803s0.404,0.775,0.533,1.277s0.193,1.179,0.193,2.03
			c0,1.008-0.104,1.821-0.311,2.44s-0.517,1.098-0.929,1.436s-0.933,0.507-1.562,0.507c-0.828,0-1.479-0.297-1.951-0.891
			C280.085,42.198,279.802,41.034,279.802,39.421z M280.886,39.421c0,1.41,0.165,2.349,0.495,2.815s0.737,0.7,1.222,0.7
			s0.892-0.234,1.222-0.703s0.495-1.406,0.495-2.812c0-1.414-0.165-2.354-0.495-2.818s-0.741-0.697-1.233-0.697
			c-0.484,0-0.871,0.205-1.16,0.615C281.067,37.044,280.886,38.011,280.886,39.421z"/>
		<path fill="#F5F5F5" d="M286.476,39.421c0-1.016,0.104-1.833,0.313-2.452s0.52-1.097,0.932-1.433s0.931-0.504,1.556-0.504
			c0.461,0,0.865,0.093,1.213,0.278s0.635,0.453,0.861,0.803s0.404,0.775,0.533,1.277s0.193,1.179,0.193,2.03
			c0,1.008-0.104,1.821-0.311,2.44s-0.517,1.098-0.929,1.436s-0.933,0.507-1.562,0.507c-0.828,0-1.479-0.297-1.951-0.891
			C286.759,42.198,286.476,41.034,286.476,39.421z M287.56,39.421c0,1.41,0.165,2.349,0.495,2.815s0.737,0.7,1.222,0.7
			s0.892-0.234,1.222-0.703s0.495-1.406,0.495-2.812c0-1.414-0.165-2.354-0.495-2.818s-0.741-0.697-1.233-0.697
			c-0.484,0-0.871,0.205-1.16,0.615C287.741,37.044,287.56,38.011,287.56,39.421z"/>
		<path fill="#F5F5F5" d="M293.349,37.13c0-0.613,0.154-1.135,0.463-1.564s0.756-0.645,1.342-0.645c0.539,0,0.985,0.192,1.339,0.577
			s0.53,0.95,0.53,1.696c0,0.727-0.179,1.286-0.536,1.679s-0.798,0.589-1.321,0.589c-0.52,0-0.952-0.193-1.298-0.58
			S293.349,37.911,293.349,37.13z M295.183,35.647c-0.262,0-0.479,0.113-0.653,0.34s-0.261,0.643-0.261,1.248
			c0,0.551,0.088,0.938,0.264,1.163s0.393,0.337,0.65,0.337c0.266,0,0.485-0.113,0.659-0.34s0.261-0.641,0.261-1.242
			c0-0.555-0.088-0.944-0.264-1.169S295.444,35.647,295.183,35.647z M295.188,43.974l4.699-9.053h0.855l-4.682,9.053H295.188z
			 M298.903,41.642c0-0.617,0.154-1.14,0.463-1.567s0.758-0.642,1.348-0.642c0.539,0,0.985,0.192,1.339,0.577s0.53,0.95,0.53,1.696
			c0,0.727-0.179,1.286-0.536,1.679s-0.8,0.589-1.327,0.589c-0.52,0-0.952-0.194-1.298-0.583S298.903,42.419,298.903,41.642z
			 M300.743,40.159c-0.266,0-0.485,0.113-0.659,0.34s-0.261,0.643-0.261,1.248c0,0.547,0.088,0.934,0.264,1.16s0.393,0.34,0.65,0.34
			c0.27,0,0.491-0.113,0.665-0.34s0.261-0.641,0.261-1.242c0-0.555-0.088-0.944-0.264-1.169S301.005,40.159,300.743,40.159z"/>
	</g>
</g>
<g>
	<g>
		<g>
			<path fill="#F29F05" d="M146.465,39.657c-0.449,8.336-12.486,8.336-12.935,0C133.081,31.316,146.019,31.36,146.465,39.657
				c0.104,1.924,3.104,1.934,3,0c-0.289-5.356-4.111-9.179-9.467-9.468c-5.346-0.288-9.203,4.545-9.468,9.468
				c-0.288,5.345,4.545,9.203,9.468,9.468c5.345,0.288,9.202-4.546,9.467-9.468C149.569,37.723,146.569,37.733,146.465,39.657z"/>
		</g>
	</g>
	<g enable-background="new    ">
		<path fill="#F5F5F5" d="M161.462,43.371v1.014h-5.678c-0.008-0.254,0.033-0.498,0.123-0.732c0.145-0.387,0.376-0.768,0.694-1.143
			s0.778-0.809,1.38-1.301c0.934-0.766,1.564-1.372,1.893-1.819s0.492-0.87,0.492-1.269c0-0.418-0.149-0.771-0.448-1.058
			s-0.688-0.431-1.169-0.431c-0.508,0-0.914,0.152-1.219,0.457s-0.459,0.727-0.463,1.266l-1.084-0.111
			c0.074-0.809,0.354-1.425,0.838-1.849s1.135-0.636,1.951-0.636c0.824,0,1.477,0.229,1.957,0.686s0.721,1.023,0.721,1.699
			c0,0.344-0.07,0.682-0.211,1.014s-0.374,0.682-0.7,1.049s-0.868,0.871-1.626,1.512c-0.633,0.531-1.039,0.892-1.219,1.081
			s-0.328,0.38-0.445,0.571H161.462z"/>
		<path fill="#F5F5F5" d="M168.065,37.898l-1.049,0.082c-0.094-0.414-0.227-0.715-0.398-0.902c-0.285-0.301-0.637-0.451-1.055-0.451
			c-0.336,0-0.631,0.094-0.885,0.281c-0.332,0.242-0.594,0.596-0.785,1.061s-0.291,1.127-0.299,1.986
			c0.254-0.387,0.564-0.674,0.932-0.861s0.752-0.281,1.154-0.281c0.703,0,1.302,0.259,1.796,0.776s0.741,1.187,0.741,2.007
			c0,0.539-0.116,1.04-0.349,1.503s-0.552,0.817-0.958,1.063s-0.867,0.369-1.383,0.369c-0.879,0-1.596-0.323-2.15-0.97
			s-0.832-1.712-0.832-3.196c0-1.66,0.307-2.867,0.92-3.621c0.535-0.656,1.256-0.984,2.162-0.984c0.676,0,1.229,0.189,1.661,0.568
			S167.979,37.23,168.065,37.898z M163.759,41.602c0,0.363,0.077,0.711,0.231,1.043s0.37,0.585,0.647,0.759s0.568,0.261,0.873,0.261
			c0.445,0,0.828-0.18,1.148-0.539s0.48-0.848,0.48-1.465c0-0.594-0.158-1.062-0.475-1.403s-0.715-0.513-1.195-0.513
			c-0.477,0-0.881,0.171-1.213,0.513S163.759,41.047,163.759,41.602z"/>
		<path fill="#F5F5F5" d="M172.483,41.807v-1.061h3.24v1.061H172.483z"/>
		<path fill="#F5F5F5" d="M179.931,42.135l1.107-0.094c0.082,0.539,0.272,0.944,0.571,1.216s0.659,0.407,1.081,0.407
			c0.508,0,0.938-0.191,1.289-0.574s0.527-0.891,0.527-1.523c0-0.602-0.169-1.076-0.507-1.424s-0.78-0.521-1.327-0.521
			c-0.34,0-0.646,0.077-0.92,0.231s-0.488,0.354-0.645,0.601l-0.99-0.129l0.832-4.412h4.271v1.008h-3.428l-0.463,2.309
			c0.516-0.359,1.057-0.539,1.623-0.539c0.75,0,1.383,0.26,1.898,0.779s0.773,1.188,0.773,2.004c0,0.777-0.227,1.449-0.68,2.016
			c-0.551,0.695-1.303,1.043-2.256,1.043c-0.781,0-1.419-0.219-1.913-0.656S180.001,42.857,179.931,42.135z"/>
		<path fill="#F5F5F5" d="M186.604,40.148c0-1.016,0.104-1.833,0.313-2.452s0.52-1.097,0.932-1.433s0.931-0.504,1.556-0.504
			c0.461,0,0.865,0.093,1.213,0.278s0.635,0.453,0.861,0.803s0.404,0.775,0.533,1.277s0.193,1.179,0.193,2.03
			c0,1.008-0.104,1.821-0.311,2.44s-0.517,1.098-0.929,1.436s-0.933,0.507-1.562,0.507c-0.828,0-1.479-0.297-1.951-0.891
			C186.888,42.926,186.604,41.762,186.604,40.148z M187.688,40.148c0,1.41,0.165,2.349,0.495,2.815s0.737,0.7,1.222,0.7
			s0.892-0.234,1.222-0.703s0.495-1.406,0.495-2.812c0-1.414-0.165-2.354-0.495-2.818s-0.741-0.697-1.233-0.697
			c-0.484,0-0.871,0.205-1.16,0.615C187.87,37.771,187.688,38.738,187.688,40.148z"/>
		<path fill="#F5F5F5" d="M193.478,37.857c0-0.613,0.154-1.135,0.463-1.564s0.756-0.645,1.342-0.645
			c0.539,0,0.985,0.192,1.339,0.577s0.53,0.95,0.53,1.696c0,0.727-0.179,1.286-0.536,1.679s-0.798,0.589-1.321,0.589
			c-0.52,0-0.952-0.193-1.298-0.58S193.478,38.639,193.478,37.857z M195.312,36.375c-0.262,0-0.479,0.113-0.653,0.34
			s-0.261,0.643-0.261,1.248c0,0.551,0.088,0.938,0.264,1.163s0.393,0.337,0.65,0.337c0.266,0,0.485-0.113,0.659-0.34
			s0.261-0.641,0.261-1.242c0-0.555-0.088-0.944-0.264-1.169S195.573,36.375,195.312,36.375z M195.317,44.701l4.699-9.053h0.855
			l-4.682,9.053H195.317z M199.032,42.369c0-0.617,0.154-1.14,0.463-1.567s0.758-0.642,1.348-0.642c0.539,0,0.985,0.192,1.339,0.577
			s0.53,0.95,0.53,1.696c0,0.727-0.179,1.286-0.536,1.679s-0.8,0.589-1.327,0.589c-0.52,0-0.952-0.194-1.298-0.583
			S199.032,43.146,199.032,42.369z M200.872,40.887c-0.266,0-0.485,0.113-0.659,0.34s-0.261,0.643-0.261,1.248
			c0,0.547,0.088,0.934,0.264,1.16s0.393,0.34,0.65,0.34c0.27,0,0.491-0.113,0.665-0.34s0.261-0.641,0.261-1.242
			c0-0.555-0.088-0.944-0.264-1.169S201.134,40.887,200.872,40.887z"/>
	</g>
</g>
<g enable-background="new    ">
	<path fill="#F5F5F5" d="M12.073,201.403v-5.402h-0.932v-0.82h0.932v-0.662c0-0.418,0.037-0.729,0.111-0.932
		c0.102-0.273,0.28-0.495,0.536-0.665s0.614-0.255,1.075-0.255c0.297,0,0.625,0.035,0.984,0.105l-0.158,0.92
		c-0.219-0.039-0.426-0.059-0.621-0.059c-0.32,0-0.547,0.068-0.68,0.205s-0.199,0.393-0.199,0.768v0.574h1.213v0.82h-1.213v5.402
		H12.073z"/>
	<path fill="#F5F5F5" d="M19.415,199.399l1.09,0.135c-0.172,0.637-0.49,1.131-0.955,1.482s-1.059,0.527-1.781,0.527
		c-0.91,0-1.632-0.28-2.165-0.841s-0.8-1.347-0.8-2.358c0-1.047,0.27-1.859,0.809-2.438s1.238-0.867,2.098-0.867
		c0.832,0,1.512,0.283,2.039,0.85s0.791,1.363,0.791,2.391c0,0.062-0.002,0.156-0.006,0.281h-4.641
		c0.039,0.684,0.232,1.207,0.58,1.57s0.781,0.545,1.301,0.545c0.387,0,0.717-0.102,0.99-0.305S19.255,199.845,19.415,199.399z
		 M15.952,197.694h3.475c-0.047-0.523-0.18-0.916-0.398-1.178c-0.336-0.406-0.771-0.609-1.307-0.609
		c-0.484,0-0.892,0.162-1.222,0.486S15.987,197.151,15.952,197.694z"/>
	<path fill="#F5F5F5" d="M22.978,201.403l-1.904-6.223h1.09l0.99,3.592l0.369,1.336c0.016-0.066,0.123-0.494,0.322-1.283l0.99-3.645
		h1.084l0.932,3.609l0.311,1.189l0.357-1.201l1.066-3.598h1.025l-1.945,6.223h-1.096l-0.99-3.727l-0.24-1.061l-1.26,4.787H22.978z"
		/>
	<path fill="#F5F5F5" d="M34.755,199.399l1.09,0.135c-0.172,0.637-0.49,1.131-0.955,1.482s-1.059,0.527-1.781,0.527
		c-0.91,0-1.632-0.28-2.165-0.841s-0.8-1.347-0.8-2.358c0-1.047,0.27-1.859,0.809-2.438s1.238-0.867,2.098-0.867
		c0.832,0,1.512,0.283,2.039,0.85s0.791,1.363,0.791,2.391c0,0.062-0.002,0.156-0.006,0.281h-4.641
		c0.039,0.684,0.232,1.207,0.58,1.57s0.781,0.545,1.301,0.545c0.387,0,0.717-0.102,0.99-0.305S34.595,199.845,34.755,199.399z
		 M31.292,197.694h3.475c-0.047-0.523-0.18-0.916-0.398-1.178c-0.336-0.406-0.771-0.609-1.307-0.609
		c-0.484,0-0.892,0.162-1.222,0.486S31.327,197.151,31.292,197.694z"/>
	<path fill="#F5F5F5" d="M37.157,201.403v-6.223h0.949v0.943c0.242-0.441,0.466-0.732,0.671-0.873s0.431-0.211,0.677-0.211
		c0.355,0,0.717,0.113,1.084,0.34l-0.363,0.979c-0.258-0.152-0.516-0.229-0.773-0.229c-0.23,0-0.438,0.069-0.621,0.208
		s-0.314,0.331-0.393,0.577c-0.117,0.375-0.176,0.785-0.176,1.23v3.258H37.157z"/>
</g>
<g>
	<g>
		<path fill="#C6C6C5" d="M14.911,179.592c-0.021,0.381-0.555,0.381-0.575,0C14.315,179.211,14.89,179.216,14.911,179.592
			c0.104,1.924,3.104,1.934,3,0c-0.1-1.855-1.432-3.188-3.287-3.287c-1.852-0.1-3.196,1.581-3.288,3.287
			c-0.1,1.854,1.582,3.195,3.288,3.287c1.852,0.1,3.195-1.581,3.287-3.287C18.015,177.658,15.014,177.668,14.911,179.592z"/>
	</g>
</g>
<g>
	<g>
		<path fill="#C6C6C5" d="M39.044,177.802c-0.157,2.921-4.371,2.921-4.528,0C34.358,174.879,38.887,174.895,39.044,177.802
			c0.104,1.925,3.104,1.935,3,0c-0.16-2.975-2.29-5.104-5.265-5.265c-2.968-0.16-5.116,2.529-5.264,5.265
			c-0.16,2.968,2.53,5.116,5.264,5.265c2.968,0.16,5.117-2.524,5.265-5.265C42.148,175.868,39.147,175.878,39.044,177.802z"/>
	</g>
</g>
<g>
	<g>
		<path fill="#C6C6C5" d="M75.25,172.788c-0.505,9.38-14.05,9.38-14.555,0C60.19,163.402,74.748,163.453,75.25,172.788
			c0.104,1.924,3.104,1.935,3,0c-0.313-5.815-4.462-9.964-10.277-10.277c-5.804-0.312-9.99,4.933-10.278,10.277
			c-0.312,5.805,4.932,9.989,10.278,10.276c5.804,0.312,9.99-4.938,10.277-10.276C78.354,170.854,75.354,170.863,75.25,172.788z"/>
	</g>
</g>
<g>
	<g>
		<path fill="#C6C6C5" d="M176.08,162.343c-0.35,9.91-7.811,17.374-17.723,17.724c-9.906,0.354-17.393-8.332-17.723-17.724
			c-0.348-9.905,8.333-17.391,17.723-17.721C168.264,144.273,175.75,152.954,176.08,162.343c0.068,1.929,3.068,1.937,3,0
			c-0.407-11.579-9.143-20.313-20.723-20.721c-11.571-0.407-20.336,9.754-20.723,20.721c-0.407,11.573,9.756,20.337,20.723,20.724
			c11.572,0.406,20.336-9.758,20.723-20.724C179.148,160.407,176.148,160.414,176.08,162.343z"/>
	</g>
</g>
<g>
	<g>
		<path fill="#C6C6C5" d="M249.58,157.093c-0.352,13.872-11.1,24.622-24.973,24.974c-13.871,0.354-24.635-11.629-24.978-24.974
			c-0.353-13.87,11.636-24.633,24.978-24.97C238.479,131.771,249.242,143.751,249.58,157.093c0.049,1.931,3.049,1.937,3,0
			c-0.393-15.518-12.455-27.577-27.973-27.97c-15.521-0.393-27.594,13.041-27.978,27.97c-0.396,15.517,13.042,27.595,27.978,27.974
			c15.517,0.396,27.595-13.045,27.973-27.974C252.629,155.157,249.629,155.162,249.58,157.093z"/>
	</g>
</g>
<g>
	<g>
		<path fill="#C6C6C5" d="M120.215,168.908c-0.774,14.379-21.54,14.379-22.314,0c-0.34-6.311,5.343-10.842,11.158-11.155
			C115.368,157.413,119.901,163.094,120.215,168.908c0.104,1.924,3.104,1.934,3,0c-0.982-18.232-27.332-18.232-28.314,0
			c-0.431,8,6.792,13.761,14.158,14.156c7.999,0.432,13.76-6.791,14.156-14.156C123.319,166.975,120.318,166.984,120.215,168.908z"
			/>
	</g>
</g>
<use xlink:href="#Arrow_25"  width="45.718" height="26.281" id="XMLID_2_" x="-22.859" y="-13.141" transform="matrix(0.405 0 0 -0.4985 199.7832 201.2861)" overflow="visible"/>
<line fill="none" stroke="#F5F5F5" stroke-width="1.6" stroke-miterlimit="10" x1="197.551" y1="199.275" x2="47.489" y2="199.145"/>
<g enable-background="new    ">
	<path fill="#F5F5F5" d="M6.999,13.604V3.582h3.247c1.23,0,2.033,0.05,2.406,0.15c0.574,0.15,1.055,0.478,1.442,0.98
		c0.387,0.504,0.581,1.154,0.581,1.952c0,0.615-0.112,1.133-0.335,1.552s-0.507,0.748-0.851,0.988
		c-0.344,0.238-0.694,0.397-1.049,0.475c-0.483,0.096-1.183,0.144-2.099,0.144H9.022v3.78H6.999z M9.022,5.277v2.844h1.107
		c0.797,0,1.331-0.053,1.6-0.157s0.479-0.269,0.632-0.492s0.229-0.483,0.229-0.779c0-0.364-0.107-0.665-0.321-0.902
		s-0.485-0.385-0.813-0.444C11.214,5.3,10.729,5.277,10,5.277H9.022z"/>
	<path fill="#F5F5F5" d="M20.527,11.293l1.914,0.321c-0.246,0.702-0.635,1.236-1.166,1.603c-0.531,0.367-1.195,0.551-1.993,0.551
		c-1.262,0-2.197-0.412-2.803-1.237c-0.479-0.661-0.718-1.495-0.718-2.502c0-1.203,0.314-2.146,0.943-2.827
		c0.629-0.681,1.424-1.021,2.386-1.021c1.08,0,1.932,0.356,2.557,1.07c0.625,0.713,0.923,1.806,0.896,3.277h-4.812
		c0.014,0.569,0.168,1.013,0.465,1.33c0.296,0.316,0.666,0.475,1.107,0.475c0.301,0,0.554-0.082,0.759-0.246
		S20.422,11.657,20.527,11.293z M20.637,9.352c-0.014-0.556-0.157-0.979-0.431-1.268c-0.273-0.29-0.606-0.435-0.998-0.435
		c-0.419,0-0.766,0.152-1.039,0.458s-0.408,0.72-0.403,1.244H20.637z"/>
	<path fill="#F5F5F5" d="M25.948,13.604h-1.921v-7.26h1.784v1.032c0.305-0.487,0.58-0.809,0.824-0.964s0.521-0.232,0.831-0.232
		c0.438,0,0.859,0.121,1.265,0.362l-0.595,1.675c-0.324-0.21-0.625-0.314-0.902-0.314c-0.269,0-0.497,0.074-0.684,0.223
		c-0.187,0.147-0.334,0.415-0.441,0.803s-0.161,1.198-0.161,2.434V13.604z"/>
	<path fill="#F5F5F5" d="M35.888,8.49l-1.894,0.342c-0.064-0.378-0.208-0.663-0.434-0.854S33.042,7.69,32.682,7.69
		c-0.479,0-0.86,0.165-1.145,0.495c-0.285,0.331-0.427,0.884-0.427,1.658c0,0.861,0.145,1.47,0.434,1.825s0.678,0.533,1.166,0.533
		c0.365,0,0.663-0.104,0.896-0.312c0.232-0.207,0.396-0.563,0.492-1.069l1.887,0.321c-0.196,0.866-0.572,1.52-1.128,1.962
		s-1.301,0.663-2.235,0.663c-1.062,0-1.908-0.335-2.54-1.005s-0.947-1.598-0.947-2.782c0-1.198,0.317-2.132,0.95-2.799
		c0.633-0.668,1.49-1.002,2.57-1.002c0.884,0,1.587,0.19,2.109,0.57C35.285,7.131,35.66,7.711,35.888,8.49z"/>
	<path fill="#F5F5F5" d="M41.548,11.293l1.914,0.321c-0.246,0.702-0.635,1.236-1.166,1.603c-0.531,0.367-1.195,0.551-1.993,0.551
		c-1.262,0-2.197-0.412-2.803-1.237c-0.479-0.661-0.718-1.495-0.718-2.502c0-1.203,0.314-2.146,0.943-2.827
		c0.629-0.681,1.424-1.021,2.386-1.021c1.08,0,1.932,0.356,2.557,1.07c0.625,0.713,0.923,1.806,0.896,3.277h-4.812
		c0.014,0.569,0.168,1.013,0.465,1.33c0.296,0.316,0.666,0.475,1.107,0.475c0.301,0,0.554-0.082,0.759-0.246
		S41.443,11.657,41.548,11.293z M41.657,9.352c-0.014-0.556-0.157-0.979-0.431-1.268c-0.273-0.29-0.606-0.435-0.998-0.435
		c-0.419,0-0.766,0.152-1.039,0.458s-0.408,0.72-0.403,1.244H41.657z"/>
	<path fill="#F5F5F5" d="M51.733,13.604h-1.921V9.898c0-0.784-0.041-1.291-0.123-1.521c-0.082-0.229-0.215-0.408-0.4-0.536
		s-0.407-0.191-0.667-0.191c-0.333,0-0.631,0.091-0.896,0.273s-0.445,0.424-0.543,0.725s-0.147,0.856-0.147,1.668v3.288h-1.921
		v-7.26H46.9V7.41c0.633-0.82,1.431-1.23,2.393-1.23c0.424,0,0.811,0.076,1.162,0.229c0.351,0.153,0.616,0.348,0.796,0.585
		s0.305,0.506,0.376,0.807s0.106,0.731,0.106,1.292V13.604z"/>
	<path fill="#F5F5F5" d="M57.011,6.344v1.531h-1.312v2.926c0,0.593,0.013,0.938,0.038,1.035c0.025,0.099,0.082,0.18,0.171,0.243
		s0.197,0.096,0.325,0.096c0.178,0,0.435-0.062,0.772-0.185l0.164,1.49c-0.447,0.191-0.953,0.287-1.518,0.287
		c-0.346,0-0.659-0.059-0.937-0.174c-0.278-0.117-0.482-0.268-0.612-0.451c-0.13-0.186-0.22-0.435-0.27-0.749
		c-0.041-0.224-0.062-0.675-0.062-1.354V7.875h-0.882V6.344h0.882V4.901l1.928-1.121v2.563H57.011z"/>
	<path fill="#F5F5F5" d="M59.779,8.559l-1.743-0.314c0.196-0.702,0.533-1.222,1.012-1.559s1.189-0.506,2.133-0.506
		c0.857,0,1.495,0.102,1.914,0.305c0.419,0.202,0.714,0.46,0.885,0.771c0.171,0.312,0.256,0.886,0.256,1.72l-0.021,2.242
		c0,0.638,0.031,1.108,0.092,1.411c0.062,0.304,0.177,0.628,0.345,0.975h-1.9c-0.05-0.128-0.112-0.316-0.185-0.567
		c-0.032-0.114-0.055-0.189-0.068-0.226c-0.328,0.319-0.679,0.559-1.053,0.718s-0.772,0.239-1.196,0.239
		c-0.748,0-1.336-0.203-1.767-0.608s-0.646-0.918-0.646-1.538c0-0.41,0.098-0.775,0.294-1.098c0.196-0.32,0.471-0.566,0.824-0.738
		c0.353-0.17,0.862-0.319,1.528-0.447c0.898-0.169,1.52-0.326,1.866-0.472V8.675c0-0.369-0.091-0.632-0.273-0.79
		c-0.182-0.156-0.526-0.235-1.032-0.235c-0.342,0-0.608,0.067-0.8,0.202C60.053,7.985,59.898,8.222,59.779,8.559z M62.35,10.117
		c-0.246,0.082-0.636,0.18-1.169,0.294s-0.882,0.226-1.046,0.335c-0.25,0.178-0.376,0.403-0.376,0.677
		c0,0.269,0.1,0.501,0.301,0.697s0.456,0.294,0.766,0.294c0.346,0,0.677-0.114,0.991-0.342c0.232-0.173,0.385-0.385,0.458-0.636
		c0.05-0.164,0.075-0.477,0.075-0.937V10.117z"/>
	<path fill="#F5F5F5" d="M65.952,14.082l2.194,0.267c0.037,0.255,0.121,0.431,0.253,0.526c0.182,0.137,0.469,0.205,0.861,0.205
		c0.501,0,0.877-0.075,1.128-0.226c0.168-0.101,0.296-0.262,0.383-0.485c0.059-0.159,0.089-0.453,0.089-0.882v-1.06
		c-0.574,0.784-1.299,1.176-2.174,1.176c-0.975,0-1.748-0.412-2.317-1.237c-0.447-0.651-0.67-1.463-0.67-2.434
		c0-1.217,0.293-2.146,0.878-2.789s1.313-0.964,2.184-0.964c0.898,0,1.638,0.395,2.222,1.183V6.344h1.798v6.515
		c0,0.856-0.071,1.497-0.212,1.921s-0.339,0.757-0.595,0.998s-0.596,0.431-1.022,0.567s-0.965,0.205-1.617,0.205
		c-1.23,0-2.103-0.211-2.618-0.632c-0.515-0.422-0.772-0.956-0.772-1.604C65.945,14.251,65.948,14.173,65.952,14.082z M67.668,9.823
		c0,0.771,0.149,1.334,0.448,1.692c0.298,0.357,0.667,0.536,1.104,0.536c0.469,0,0.866-0.184,1.189-0.55
		c0.324-0.367,0.485-0.911,0.485-1.631c0-0.752-0.155-1.311-0.465-1.675s-0.702-0.547-1.176-0.547c-0.46,0-0.84,0.179-1.138,0.536
		C67.817,8.544,67.668,9.09,67.668,9.823z"/>
	<path fill="#F5F5F5" d="M78.886,11.293l1.914,0.321c-0.246,0.702-0.635,1.236-1.166,1.603c-0.531,0.367-1.195,0.551-1.993,0.551
		c-1.262,0-2.197-0.412-2.803-1.237c-0.479-0.661-0.718-1.495-0.718-2.502c0-1.203,0.314-2.146,0.943-2.827
		c0.629-0.681,1.424-1.021,2.386-1.021c1.08,0,1.932,0.356,2.557,1.07c0.625,0.713,0.923,1.806,0.896,3.277H76.09
		c0.014,0.569,0.168,1.013,0.465,1.33c0.296,0.316,0.666,0.475,1.107,0.475c0.301,0,0.554-0.082,0.759-0.246
		S78.781,11.657,78.886,11.293z M78.995,9.352c-0.014-0.556-0.157-0.979-0.431-1.268c-0.273-0.29-0.606-0.435-0.998-0.435
		c-0.419,0-0.766,0.152-1.039,0.458s-0.408,0.72-0.403,1.244H78.995z"/>
	<path fill="#F5F5F5" d="M85.913,9.871c0-0.638,0.157-1.256,0.472-1.853s0.76-1.053,1.336-1.367s1.22-0.472,1.931-0.472
		c1.098,0,1.999,0.356,2.7,1.07c0.702,0.713,1.053,1.614,1.053,2.703c0,1.099-0.354,2.009-1.063,2.73
		c-0.708,0.723-1.601,1.084-2.676,1.084c-0.666,0-1.3-0.15-1.904-0.451s-1.063-0.742-1.377-1.322
		C86.07,11.412,85.913,10.705,85.913,9.871z M87.882,9.974c0,0.72,0.171,1.271,0.513,1.654s0.763,0.574,1.265,0.574
		s0.922-0.191,1.261-0.574s0.509-0.938,0.509-1.668c0-0.711-0.17-1.258-0.509-1.641s-0.76-0.574-1.261-0.574
		s-0.923,0.191-1.265,0.574S87.882,9.254,87.882,9.974z"/>
	<path fill="#F5F5F5" d="M94.068,6.344h1.066V5.797c0-0.61,0.065-1.066,0.195-1.367s0.369-0.546,0.718-0.734
		c0.349-0.189,0.79-0.284,1.323-0.284c0.547,0,1.083,0.082,1.606,0.246l-0.26,1.34c-0.305-0.073-0.599-0.109-0.882-0.109
		c-0.278,0-0.478,0.065-0.598,0.194c-0.121,0.131-0.181,0.38-0.181,0.749v0.513h1.436v1.511h-1.436v5.749h-1.921V7.854h-1.066V6.344
		z"/>
	<path fill="#F5F5F5" d="M105.375,3.582v3.685c0.62-0.725,1.36-1.087,2.222-1.087c0.442,0,0.841,0.082,1.196,0.246
		s0.623,0.374,0.803,0.629s0.303,0.538,0.369,0.848s0.099,0.791,0.099,1.442v4.259h-1.921V9.769c0-0.761-0.037-1.244-0.109-1.449
		s-0.202-0.368-0.386-0.489c-0.185-0.12-0.416-0.181-0.694-0.181c-0.319,0-0.604,0.077-0.854,0.232s-0.434,0.389-0.55,0.7
		c-0.116,0.312-0.174,0.774-0.174,1.385v3.637h-1.921V3.582H105.375z"/>
	<path fill="#F5F5F5" d="M113.448,8.559l-1.743-0.314c0.196-0.702,0.533-1.222,1.012-1.559s1.189-0.506,2.133-0.506
		c0.857,0,1.495,0.102,1.914,0.305c0.419,0.202,0.714,0.46,0.885,0.771c0.171,0.312,0.256,0.886,0.256,1.72l-0.021,2.242
		c0,0.638,0.031,1.108,0.092,1.411c0.062,0.304,0.177,0.628,0.345,0.975h-1.9c-0.05-0.128-0.112-0.316-0.185-0.567
		c-0.032-0.114-0.055-0.189-0.068-0.226c-0.328,0.319-0.679,0.559-1.053,0.718s-0.772,0.239-1.196,0.239
		c-0.748,0-1.336-0.203-1.767-0.608s-0.646-0.918-0.646-1.538c0-0.41,0.098-0.775,0.294-1.098c0.196-0.32,0.471-0.566,0.824-0.738
		c0.353-0.17,0.862-0.319,1.528-0.447c0.898-0.169,1.52-0.326,1.866-0.472V8.675c0-0.369-0.091-0.632-0.273-0.79
		c-0.182-0.156-0.526-0.235-1.032-0.235c-0.342,0-0.608,0.067-0.8,0.202C113.722,7.985,113.567,8.222,113.448,8.559z
		 M116.019,10.117c-0.246,0.082-0.636,0.18-1.169,0.294s-0.882,0.226-1.046,0.335c-0.25,0.178-0.376,0.403-0.376,0.677
		c0,0.269,0.1,0.501,0.301,0.697s0.456,0.294,0.766,0.294c0.346,0,0.677-0.114,0.991-0.342c0.232-0.173,0.385-0.385,0.458-0.636
		c0.05-0.164,0.075-0.477,0.075-0.937V10.117z"/>
	<path fill="#F5F5F5" d="M119.799,13.604V3.582h1.921v10.021H119.799z"/>
	<path fill="#F5F5F5" d="M123.688,5.359V3.582h1.921v1.777H123.688z M123.688,13.604v-7.26h1.921v7.26H123.688z"/>
	<path fill="#F5F5F5" d="M127.496,13.604V3.582h1.921v3.609c0.592-0.675,1.294-1.012,2.105-1.012c0.884,0,1.616,0.32,2.194,0.961
		c0.579,0.64,0.868,1.56,0.868,2.758c0,1.239-0.295,2.194-0.885,2.864s-1.307,1.005-2.15,1.005c-0.415,0-0.824-0.104-1.227-0.311
		c-0.403-0.208-0.751-0.515-1.042-0.92v1.066H127.496z M129.403,9.816c0,0.752,0.119,1.308,0.355,1.668
		c0.333,0.511,0.775,0.766,1.326,0.766c0.424,0,0.785-0.182,1.083-0.543c0.298-0.363,0.448-0.934,0.448-1.713
		c0-0.829-0.15-1.428-0.451-1.795c-0.301-0.366-0.686-0.55-1.155-0.55c-0.46,0-0.843,0.179-1.148,0.536
		C129.556,8.544,129.403,9.087,129.403,9.816z"/>
	<path fill="#F5F5F5" d="M140.908,13.604v-1.087c-0.264,0.388-0.612,0.692-1.042,0.916s-0.885,0.335-1.364,0.335
		c-0.488,0-0.925-0.107-1.312-0.321s-0.667-0.515-0.841-0.902s-0.26-0.923-0.26-1.606V6.344h1.921V9.68
		c0,1.021,0.035,1.646,0.106,1.877c0.071,0.229,0.199,0.412,0.386,0.547c0.187,0.134,0.424,0.201,0.711,0.201
		c0.328,0,0.622-0.09,0.882-0.27c0.26-0.181,0.438-0.404,0.533-0.67c0.096-0.268,0.144-0.92,0.144-1.959V6.344h1.921v7.26H140.908z"
		/>
	<path fill="#F5F5F5" d="M148.011,6.344v1.531h-1.312v2.926c0,0.593,0.013,0.938,0.038,1.035c0.025,0.099,0.082,0.18,0.171,0.243
		s0.197,0.096,0.325,0.096c0.178,0,0.435-0.062,0.772-0.185l0.164,1.49c-0.447,0.191-0.953,0.287-1.518,0.287
		c-0.346,0-0.659-0.059-0.937-0.174c-0.278-0.117-0.482-0.268-0.612-0.451c-0.13-0.186-0.22-0.435-0.27-0.749
		c-0.041-0.224-0.062-0.675-0.062-1.354V7.875h-0.882V6.344h0.882V4.901l1.928-1.121v2.563H148.011z"/>
	<path fill="#F5F5F5" d="M152.789,9.871c0-0.638,0.157-1.256,0.472-1.853s0.76-1.053,1.336-1.367s1.22-0.472,1.931-0.472
		c1.098,0,1.999,0.356,2.7,1.07c0.702,0.713,1.053,1.614,1.053,2.703c0,1.099-0.354,2.009-1.063,2.73
		c-0.708,0.723-1.601,1.084-2.676,1.084c-0.666,0-1.3-0.15-1.904-0.451s-1.063-0.742-1.377-1.322
		C152.946,11.412,152.789,10.705,152.789,9.871z M154.758,9.974c0,0.72,0.171,1.271,0.513,1.654s0.763,0.574,1.265,0.574
		s0.922-0.191,1.261-0.574s0.509-0.938,0.509-1.668c0-0.711-0.17-1.258-0.509-1.641s-0.76-0.574-1.261-0.574
		s-0.923,0.191-1.265,0.574S154.758,9.254,154.758,9.974z"/>
	<path fill="#F5F5F5" d="M163.781,13.604l-2.926-7.26h2.017l1.367,3.705l0.396,1.237c0.104-0.314,0.171-0.521,0.198-0.622
		c0.064-0.205,0.133-0.41,0.205-0.615l1.381-3.705h1.976l-2.885,7.26H163.781z"/>
	<path fill="#F5F5F5" d="M173.775,11.293l1.914,0.321c-0.246,0.702-0.635,1.236-1.166,1.603c-0.53,0.367-1.195,0.551-1.992,0.551
		c-1.262,0-2.197-0.412-2.803-1.237c-0.479-0.661-0.718-1.495-0.718-2.502c0-1.203,0.314-2.146,0.943-2.827
		c0.629-0.681,1.425-1.021,2.386-1.021c1.08,0,1.932,0.356,2.557,1.07c0.625,0.713,0.923,1.806,0.896,3.277h-4.812
		c0.014,0.569,0.169,1.013,0.465,1.33c0.296,0.316,0.665,0.475,1.107,0.475c0.301,0,0.554-0.082,0.759-0.246
		S173.67,11.657,173.775,11.293z M173.885,9.352c-0.014-0.556-0.157-0.979-0.431-1.268c-0.273-0.29-0.606-0.435-0.998-0.435
		c-0.419,0-0.766,0.152-1.039,0.458s-0.407,0.72-0.403,1.244H173.885z"/>
	<path fill="#F5F5F5" d="M179.196,13.604h-1.921v-7.26h1.784v1.032c0.306-0.487,0.58-0.809,0.823-0.964
		c0.244-0.155,0.521-0.232,0.831-0.232c0.438,0,0.858,0.121,1.265,0.362l-0.595,1.675c-0.323-0.21-0.624-0.314-0.902-0.314
		c-0.269,0-0.497,0.074-0.684,0.223c-0.187,0.147-0.334,0.415-0.44,0.803c-0.107,0.388-0.161,1.198-0.161,2.434V13.604z"/>
	<path fill="#F5F5F5" d="M186.217,10.944l1.859-0.226c0.06,0.474,0.219,0.836,0.479,1.087s0.574,0.376,0.943,0.376
		c0.396,0,0.73-0.15,1.001-0.451c0.271-0.301,0.407-0.706,0.407-1.217c0-0.483-0.13-0.866-0.39-1.148s-0.576-0.424-0.95-0.424
		c-0.246,0-0.54,0.048-0.882,0.144l0.212-1.565c0.52,0.014,0.916-0.1,1.189-0.338c0.273-0.24,0.41-0.558,0.41-0.954
		c0-0.337-0.101-0.606-0.301-0.807s-0.467-0.301-0.8-0.301c-0.328,0-0.608,0.114-0.841,0.342s-0.374,0.561-0.424,0.998l-1.771-0.301
		c0.123-0.606,0.309-1.091,0.557-1.452c0.249-0.363,0.596-0.647,1.039-0.855c0.445-0.207,0.942-0.311,1.494-0.311
		c0.943,0,1.7,0.301,2.27,0.902c0.47,0.492,0.704,1.048,0.704,1.668c0,0.88-0.48,1.581-1.442,2.105
		c0.574,0.123,1.033,0.398,1.377,0.827c0.345,0.429,0.517,0.945,0.517,1.552c0,0.88-0.321,1.629-0.964,2.249s-1.442,0.93-2.399,0.93
		c-0.907,0-1.659-0.261-2.256-0.782C186.658,12.47,186.312,11.787,186.217,10.944z"/>
	<path fill="#F5F5F5" d="M200.559,11.819v1.784h-6.733c0.073-0.675,0.292-1.313,0.656-1.918c0.364-0.604,1.085-1.404,2.16-2.402
		c0.866-0.807,1.396-1.354,1.593-1.641c0.265-0.396,0.396-0.788,0.396-1.176c0-0.429-0.115-0.758-0.346-0.988
		c-0.229-0.229-0.548-0.345-0.953-0.345c-0.401,0-0.72,0.121-0.957,0.362s-0.374,0.643-0.41,1.203l-1.914-0.191
		c0.114-1.058,0.472-1.816,1.073-2.276s1.354-0.69,2.256-0.69c0.989,0,1.766,0.267,2.331,0.8s0.848,1.196,0.848,1.989
		c0,0.451-0.081,0.881-0.242,1.289c-0.162,0.407-0.419,0.835-0.77,1.281c-0.232,0.296-0.651,0.723-1.258,1.278
		s-0.99,0.925-1.152,1.107c-0.161,0.183-0.292,0.36-0.393,0.533H200.559z"/>
	<path fill="#F5F5F5" d="M206.157,5.359V3.582h1.921v1.777H206.157z M206.157,13.604v-7.26h1.921v7.26H206.157z"/>
	<path fill="#F5F5F5" d="M216.65,13.604h-1.921V9.898c0-0.784-0.041-1.291-0.123-1.521c-0.082-0.229-0.215-0.408-0.4-0.536
		c-0.184-0.128-0.406-0.191-0.666-0.191c-0.333,0-0.631,0.091-0.896,0.273s-0.445,0.424-0.544,0.725
		c-0.098,0.301-0.146,0.856-0.146,1.668v3.288h-1.921v-7.26h1.784V7.41c0.634-0.82,1.431-1.23,2.393-1.23
		c0.424,0,0.812,0.076,1.162,0.229c0.351,0.153,0.616,0.348,0.797,0.585c0.18,0.237,0.305,0.506,0.375,0.807
		c0.071,0.301,0.106,0.731,0.106,1.292V13.604z"/>
	<path fill="#F5F5F5" d="M224.929,8.49l-1.894,0.342c-0.063-0.378-0.209-0.663-0.434-0.854c-0.227-0.191-0.519-0.287-0.879-0.287
		c-0.479,0-0.86,0.165-1.145,0.495c-0.285,0.331-0.428,0.884-0.428,1.658c0,0.861,0.145,1.47,0.434,1.825
		c0.29,0.355,0.679,0.533,1.166,0.533c0.364,0,0.663-0.104,0.896-0.312c0.232-0.207,0.396-0.563,0.492-1.069l1.887,0.321
		c-0.196,0.866-0.572,1.52-1.128,1.962s-1.301,0.663-2.235,0.663c-1.062,0-1.908-0.335-2.54-1.005
		c-0.631-0.67-0.946-1.598-0.946-2.782c0-1.198,0.316-2.132,0.95-2.799c0.634-0.668,1.49-1.002,2.57-1.002
		c0.884,0,1.587,0.19,2.109,0.57C224.326,7.131,224.701,7.711,224.929,8.49z"/>
	<path fill="#F5F5F5" d="M228.299,3.582v3.685c0.62-0.725,1.36-1.087,2.222-1.087c0.442,0,0.841,0.082,1.196,0.246
		s0.623,0.374,0.804,0.629c0.18,0.255,0.303,0.538,0.369,0.848c0.065,0.31,0.099,0.791,0.099,1.442v4.259h-1.921V9.769
		c0-0.761-0.036-1.244-0.109-1.449s-0.201-0.368-0.387-0.489c-0.184-0.12-0.415-0.181-0.693-0.181c-0.319,0-0.604,0.077-0.854,0.232
		s-0.435,0.389-0.55,0.7c-0.117,0.312-0.175,0.774-0.175,1.385v3.637h-1.921V3.582H228.299z"/>
	<path fill="#F5F5F5" d="M239.141,11.293l1.914,0.321c-0.246,0.702-0.635,1.236-1.166,1.603c-0.53,0.367-1.194,0.551-1.992,0.551
		c-1.263,0-2.196-0.412-2.803-1.237c-0.479-0.661-0.718-1.495-0.718-2.502c0-1.203,0.314-2.146,0.943-2.827
		c0.629-0.681,1.424-1.021,2.386-1.021c1.08,0,1.933,0.356,2.557,1.07c0.624,0.713,0.923,1.806,0.896,3.277h-4.812
		c0.014,0.569,0.169,1.013,0.465,1.33c0.296,0.316,0.665,0.475,1.107,0.475c0.301,0,0.554-0.082,0.759-0.246
		S239.036,11.657,239.141,11.293z M239.25,9.352c-0.014-0.556-0.157-0.979-0.431-1.268c-0.273-0.29-0.606-0.435-0.998-0.435
		c-0.419,0-0.766,0.152-1.039,0.458s-0.408,0.72-0.403,1.244H239.25z"/>
	<path fill="#F5F5F5" d="M242.046,11.532l1.928-0.294c0.082,0.374,0.248,0.657,0.499,0.852c0.251,0.193,0.602,0.29,1.053,0.29
		c0.497,0,0.87-0.091,1.121-0.273c0.169-0.128,0.253-0.299,0.253-0.513c0-0.146-0.046-0.267-0.137-0.362
		c-0.096-0.091-0.31-0.176-0.643-0.253c-1.55-0.342-2.531-0.654-2.946-0.937c-0.574-0.392-0.861-0.937-0.861-1.634
		c0-0.629,0.248-1.157,0.745-1.586s1.267-0.643,2.311-0.643c0.993,0,1.731,0.162,2.215,0.485s0.815,0.802,0.998,1.436l-1.812,0.335
		c-0.077-0.282-0.225-0.499-0.44-0.649c-0.217-0.15-0.525-0.226-0.927-0.226c-0.506,0-0.868,0.07-1.087,0.212
		c-0.146,0.101-0.219,0.23-0.219,0.39c0,0.137,0.063,0.253,0.191,0.349c0.173,0.128,0.771,0.308,1.795,0.54
		c1.022,0.232,1.737,0.518,2.143,0.854c0.401,0.342,0.602,0.818,0.602,1.429c0,0.665-0.278,1.237-0.834,1.716
		s-1.379,0.718-2.468,0.718c-0.989,0-1.771-0.2-2.349-0.602C242.601,12.765,242.224,12.221,242.046,11.532z"/>
</g>
<g enable-background="new    ">
	<path fill="#F5F5F5" d="M10.255,117.229v-8.326H7.281v-1.695h7.964v1.695h-2.967v8.326H10.255z"/>
	<path fill="#F5F5F5" d="M15.054,113.496c0-0.638,0.157-1.256,0.472-1.853s0.76-1.053,1.336-1.367s1.22-0.472,1.931-0.472
		c1.098,0,1.999,0.356,2.7,1.07c0.702,0.713,1.053,1.614,1.053,2.703c0,1.099-0.354,2.009-1.063,2.73
		c-0.708,0.723-1.601,1.084-2.676,1.084c-0.666,0-1.3-0.15-1.904-0.451s-1.063-0.742-1.377-1.322
		C15.211,115.037,15.054,114.33,15.054,113.496z M17.022,113.599c0,0.72,0.171,1.271,0.513,1.654s0.763,0.574,1.265,0.574
		s0.922-0.191,1.261-0.574s0.509-0.938,0.509-1.668c0-0.711-0.17-1.258-0.509-1.641s-0.76-0.574-1.261-0.574
		s-0.923,0.191-1.265,0.574S17.022,112.879,17.022,113.599z"/>
	<path fill="#F5F5F5" d="M27.379,109.969v1.531h-1.312v2.926c0,0.593,0.013,0.938,0.038,1.035c0.025,0.099,0.082,0.18,0.171,0.243
		s0.197,0.096,0.325,0.096c0.178,0,0.435-0.062,0.772-0.185l0.164,1.49c-0.447,0.191-0.953,0.287-1.518,0.287
		c-0.346,0-0.659-0.059-0.937-0.174c-0.278-0.117-0.482-0.268-0.612-0.451c-0.13-0.186-0.22-0.435-0.27-0.749
		c-0.041-0.224-0.062-0.675-0.062-1.354V111.5h-0.882v-1.531h0.882v-1.442l1.928-1.121v2.563H27.379z"/>
	<path fill="#F5F5F5" d="M30.147,112.184l-1.743-0.314c0.196-0.702,0.533-1.222,1.012-1.559s1.189-0.506,2.133-0.506
		c0.857,0,1.495,0.102,1.914,0.305c0.419,0.202,0.714,0.46,0.885,0.771c0.171,0.312,0.256,0.886,0.256,1.72l-0.021,2.242
		c0,0.638,0.031,1.108,0.092,1.411c0.062,0.304,0.177,0.628,0.345,0.975h-1.9c-0.05-0.128-0.112-0.316-0.185-0.567
		c-0.032-0.114-0.055-0.189-0.068-0.226c-0.328,0.319-0.679,0.559-1.053,0.718s-0.772,0.239-1.196,0.239
		c-0.748,0-1.336-0.203-1.767-0.608s-0.646-0.918-0.646-1.538c0-0.41,0.098-0.775,0.294-1.098c0.196-0.32,0.471-0.566,0.824-0.738
		c0.353-0.17,0.862-0.319,1.528-0.447c0.898-0.169,1.52-0.326,1.866-0.472V112.3c0-0.369-0.091-0.632-0.273-0.79
		c-0.182-0.156-0.526-0.235-1.032-0.235c-0.342,0-0.608,0.067-0.8,0.202C30.421,111.61,30.266,111.847,30.147,112.184z
		 M32.718,113.742c-0.246,0.082-0.636,0.18-1.169,0.294s-0.882,0.226-1.046,0.335c-0.25,0.178-0.376,0.403-0.376,0.677
		c0,0.269,0.1,0.501,0.301,0.697s0.456,0.294,0.766,0.294c0.346,0,0.677-0.114,0.991-0.342c0.232-0.173,0.385-0.385,0.458-0.636
		c0.05-0.164,0.075-0.477,0.075-0.937V113.742z"/>
	<path fill="#F5F5F5" d="M36.498,117.229v-10.021h1.921v10.021H36.498z"/>
	<path fill="#F5F5F5" d="M44.223,109.969h1.791v1.066c0.232-0.364,0.547-0.661,0.943-0.889s0.836-0.342,1.319-0.342
		c0.843,0,1.559,0.33,2.146,0.991s0.882,1.581,0.882,2.762c0,1.212-0.296,2.154-0.889,2.827c-0.592,0.672-1.31,1.008-2.153,1.008
		c-0.401,0-0.765-0.08-1.09-0.239s-0.669-0.433-1.029-0.82v3.657h-1.921V109.969z M46.123,113.476c0,0.815,0.162,1.419,0.485,1.808
		c0.324,0.391,0.718,0.585,1.183,0.585c0.447,0,0.818-0.179,1.114-0.536c0.296-0.358,0.444-0.945,0.444-1.761
		c0-0.761-0.153-1.326-0.458-1.695s-0.684-0.554-1.135-0.554c-0.469,0-0.859,0.182-1.169,0.543
		C46.278,112.229,46.123,112.765,46.123,113.476z"/>
	<path fill="#F5F5F5" d="M52.385,113.496c0-0.638,0.157-1.256,0.472-1.853s0.76-1.053,1.336-1.367s1.22-0.472,1.931-0.472
		c1.098,0,1.999,0.356,2.7,1.07c0.702,0.713,1.053,1.614,1.053,2.703c0,1.099-0.354,2.009-1.063,2.73
		c-0.708,0.723-1.601,1.084-2.676,1.084c-0.666,0-1.3-0.15-1.904-0.451s-1.063-0.742-1.377-1.322
		C52.542,115.037,52.385,114.33,52.385,113.496z M54.354,113.599c0,0.72,0.171,1.271,0.513,1.654s0.763,0.574,1.265,0.574
		s0.922-0.191,1.261-0.574s0.509-0.938,0.509-1.668c0-0.711-0.17-1.258-0.509-1.641s-0.76-0.574-1.261-0.574
		s-0.923,0.191-1.265,0.574S54.354,112.879,54.354,113.599z"/>
	<path fill="#F5F5F5" d="M66.159,117.229v-1.087c-0.264,0.388-0.612,0.692-1.042,0.916s-0.885,0.335-1.364,0.335
		c-0.488,0-0.925-0.107-1.312-0.321s-0.667-0.515-0.841-0.902s-0.26-0.923-0.26-1.606v-4.594h1.921v3.336
		c0,1.021,0.035,1.646,0.106,1.877c0.071,0.229,0.199,0.412,0.386,0.547c0.187,0.134,0.424,0.201,0.711,0.201
		c0.328,0,0.622-0.09,0.882-0.27c0.26-0.181,0.438-0.404,0.533-0.67c0.096-0.268,0.144-0.92,0.144-1.959v-3.062h1.921v7.26H66.159z"
		/>
	<path fill="#F5F5F5" d="M76.536,117.229h-1.921v-3.705c0-0.784-0.041-1.291-0.123-1.521c-0.082-0.229-0.215-0.408-0.4-0.536
		s-0.407-0.191-0.667-0.191c-0.333,0-0.631,0.091-0.896,0.273s-0.445,0.424-0.543,0.725s-0.147,0.856-0.147,1.668v3.288h-1.921
		v-7.26h1.784v1.066c0.633-0.82,1.431-1.23,2.393-1.23c0.424,0,0.811,0.076,1.162,0.229c0.351,0.153,0.616,0.348,0.796,0.585
		s0.305,0.506,0.376,0.807s0.106,0.731,0.106,1.292V117.229z"/>
	<path fill="#F5F5F5" d="M85.143,117.229h-1.784v-1.066c-0.296,0.415-0.646,0.724-1.049,0.926c-0.403,0.203-0.81,0.305-1.22,0.305
		c-0.834,0-1.548-0.336-2.143-1.008c-0.595-0.673-0.892-1.61-0.892-2.813c0-1.23,0.29-2.166,0.868-2.806
		c0.579-0.641,1.31-0.961,2.194-0.961c0.811,0,1.513,0.337,2.105,1.012v-3.609h1.921V117.229z M80.016,113.441
		c0,0.774,0.107,1.335,0.321,1.682c0.31,0.501,0.743,0.752,1.299,0.752c0.442,0,0.818-0.188,1.128-0.564
		c0.31-0.375,0.465-0.938,0.465-1.685c0-0.834-0.15-1.435-0.451-1.802c-0.301-0.366-0.686-0.55-1.155-0.55
		c-0.456,0-0.837,0.181-1.145,0.544C80.169,112.18,80.016,112.722,80.016,113.441z"/>
	<path fill="#F5F5F5" d="M86.359,115.157l1.928-0.294c0.082,0.374,0.249,0.657,0.499,0.852c0.25,0.193,0.602,0.29,1.053,0.29
		c0.497,0,0.871-0.091,1.121-0.273c0.168-0.128,0.253-0.299,0.253-0.513c0-0.146-0.045-0.267-0.137-0.362
		c-0.096-0.091-0.31-0.176-0.643-0.253c-1.549-0.342-2.532-0.654-2.946-0.937c-0.574-0.392-0.861-0.937-0.861-1.634
		c0-0.629,0.249-1.157,0.745-1.586s1.267-0.643,2.311-0.643c0.994,0,1.732,0.162,2.215,0.485s0.816,0.802,0.998,1.436l-1.812,0.335
		c-0.078-0.282-0.225-0.499-0.441-0.649s-0.525-0.226-0.926-0.226c-0.506,0-0.868,0.07-1.087,0.212
		c-0.146,0.101-0.219,0.23-0.219,0.39c0,0.137,0.064,0.253,0.191,0.349c0.173,0.128,0.771,0.308,1.794,0.54s1.737,0.518,2.143,0.854
		c0.401,0.342,0.602,0.818,0.602,1.429c0,0.665-0.278,1.237-0.834,1.716s-1.378,0.718-2.468,0.718c-0.989,0-1.771-0.2-2.348-0.602
		S86.537,115.846,86.359,115.157z"/>
	<path fill="#F5F5F5" d="M98.268,113.496c0-0.638,0.157-1.256,0.472-1.853s0.76-1.053,1.336-1.367s1.22-0.472,1.931-0.472
		c1.098,0,1.999,0.356,2.7,1.07c0.702,0.713,1.053,1.614,1.053,2.703c0,1.099-0.354,2.009-1.063,2.73
		c-0.708,0.723-1.601,1.084-2.676,1.084c-0.666,0-1.3-0.15-1.904-0.451s-1.063-0.742-1.377-1.322
		C98.425,115.037,98.268,114.33,98.268,113.496z M100.236,113.599c0,0.72,0.171,1.271,0.513,1.654s0.763,0.574,1.265,0.574
		s0.922-0.191,1.261-0.574s0.509-0.938,0.509-1.668c0-0.711-0.17-1.258-0.509-1.641s-0.76-0.574-1.261-0.574
		s-0.923,0.191-1.265,0.574S100.236,112.879,100.236,113.599z"/>
	<path fill="#F5F5F5" d="M106.423,109.969h1.066v-0.547c0-0.61,0.065-1.066,0.195-1.367s0.369-0.546,0.718-0.734
		c0.349-0.189,0.79-0.284,1.323-0.284c0.547,0,1.083,0.082,1.606,0.246l-0.26,1.34c-0.305-0.073-0.599-0.109-0.882-0.109
		c-0.278,0-0.478,0.065-0.598,0.194c-0.121,0.131-0.181,0.38-0.181,0.749v0.513h1.436v1.511h-1.436v5.749h-1.921v-5.749h-1.066
		V109.969z"/>
	<path fill="#F5F5F5" d="M117.729,107.207v3.685c0.62-0.725,1.36-1.087,2.222-1.087c0.442,0,0.841,0.082,1.196,0.246
		s0.623,0.374,0.803,0.629s0.303,0.538,0.369,0.848s0.099,0.791,0.099,1.442v4.259h-1.921v-3.835c0-0.761-0.037-1.244-0.109-1.449
		s-0.202-0.368-0.386-0.489c-0.185-0.12-0.416-0.181-0.694-0.181c-0.319,0-0.604,0.077-0.854,0.232s-0.434,0.389-0.55,0.7
		c-0.116,0.312-0.174,0.774-0.174,1.385v3.637h-1.921v-10.021H117.729z"/>
	<path fill="#F5F5F5" d="M125.803,112.184l-1.743-0.314c0.196-0.702,0.533-1.222,1.012-1.559s1.189-0.506,2.133-0.506
		c0.857,0,1.495,0.102,1.914,0.305c0.419,0.202,0.714,0.46,0.885,0.771c0.171,0.312,0.256,0.886,0.256,1.72l-0.021,2.242
		c0,0.638,0.031,1.108,0.092,1.411c0.062,0.304,0.177,0.628,0.345,0.975h-1.9c-0.05-0.128-0.112-0.316-0.185-0.567
		c-0.032-0.114-0.055-0.189-0.068-0.226c-0.328,0.319-0.679,0.559-1.053,0.718s-0.772,0.239-1.196,0.239
		c-0.748,0-1.336-0.203-1.767-0.608s-0.646-0.918-0.646-1.538c0-0.41,0.098-0.775,0.294-1.098c0.196-0.32,0.471-0.566,0.824-0.738
		c0.353-0.17,0.862-0.319,1.528-0.447c0.898-0.169,1.52-0.326,1.866-0.472V112.3c0-0.369-0.091-0.632-0.273-0.79
		c-0.182-0.156-0.526-0.235-1.032-0.235c-0.342,0-0.608,0.067-0.8,0.202C126.076,111.61,125.921,111.847,125.803,112.184z
		 M128.373,113.742c-0.246,0.082-0.636,0.18-1.169,0.294s-0.882,0.226-1.046,0.335c-0.25,0.178-0.376,0.403-0.376,0.677
		c0,0.269,0.1,0.501,0.301,0.697s0.456,0.294,0.766,0.294c0.346,0,0.677-0.114,0.991-0.342c0.232-0.173,0.385-0.385,0.458-0.636
		c0.05-0.164,0.075-0.477,0.075-0.937V113.742z"/>
	<path fill="#F5F5F5" d="M132.153,117.229v-10.021h1.921v10.021H132.153z"/>
	<path fill="#F5F5F5" d="M136.043,108.984v-1.777h1.921v1.777H136.043z M136.043,117.229v-7.26h1.921v7.26H136.043z"/>
	<path fill="#F5F5F5" d="M139.851,117.229v-10.021h1.921v3.609c0.592-0.675,1.294-1.012,2.105-1.012c0.884,0,1.616,0.32,2.194,0.961
		c0.579,0.64,0.868,1.56,0.868,2.758c0,1.239-0.295,2.194-0.885,2.864s-1.307,1.005-2.15,1.005c-0.415,0-0.824-0.104-1.227-0.311
		c-0.403-0.208-0.751-0.515-1.042-0.92v1.066H139.851z M141.758,113.441c0,0.752,0.119,1.308,0.355,1.668
		c0.333,0.511,0.775,0.766,1.326,0.766c0.424,0,0.785-0.182,1.083-0.543c0.298-0.363,0.448-0.934,0.448-1.713
		c0-0.829-0.15-1.428-0.451-1.795c-0.301-0.366-0.686-0.55-1.155-0.55c-0.46,0-0.843,0.179-1.148,0.536
		C141.911,112.169,141.758,112.712,141.758,113.441z"/>
	<path fill="#F5F5F5" d="M153.263,117.229v-1.087c-0.264,0.388-0.612,0.692-1.042,0.916s-0.885,0.335-1.364,0.335
		c-0.488,0-0.925-0.107-1.312-0.321s-0.667-0.515-0.841-0.902s-0.26-0.923-0.26-1.606v-4.594h1.921v3.336
		c0,1.021,0.035,1.646,0.106,1.877c0.071,0.229,0.199,0.412,0.386,0.547c0.187,0.134,0.424,0.201,0.711,0.201
		c0.328,0,0.622-0.09,0.882-0.27c0.26-0.181,0.438-0.404,0.533-0.67c0.096-0.268,0.144-0.92,0.144-1.959v-3.062h1.921v7.26H153.263z
		"/>
	<path fill="#F5F5F5" d="M160.365,109.969v1.531h-1.312v2.926c0,0.593,0.013,0.938,0.038,1.035c0.025,0.099,0.082,0.18,0.171,0.243
		s0.197,0.096,0.325,0.096c0.178,0,0.435-0.062,0.772-0.185l0.164,1.49c-0.447,0.191-0.953,0.287-1.518,0.287
		c-0.346,0-0.659-0.059-0.937-0.174c-0.278-0.117-0.482-0.268-0.612-0.451c-0.13-0.186-0.22-0.435-0.27-0.749
		c-0.041-0.224-0.062-0.675-0.062-1.354V111.5h-0.882v-1.531h0.882v-1.442l1.928-1.121v2.563H160.365z"/>
	<path fill="#F5F5F5" d="M165.533,109.969h1.791v1.066c0.232-0.364,0.547-0.661,0.943-0.889s0.836-0.342,1.319-0.342
		c0.843,0,1.559,0.33,2.146,0.991s0.882,1.581,0.882,2.762c0,1.212-0.297,2.154-0.889,2.827c-0.592,0.672-1.311,1.008-2.153,1.008
		c-0.401,0-0.765-0.08-1.091-0.239c-0.325-0.159-0.668-0.433-1.028-0.82v3.657h-1.921V109.969z M167.434,113.476
		c0,0.815,0.162,1.419,0.485,1.808c0.323,0.391,0.718,0.585,1.183,0.585c0.447,0,0.818-0.179,1.114-0.536
		c0.296-0.358,0.444-0.945,0.444-1.761c0-0.761-0.152-1.326-0.458-1.695s-0.684-0.554-1.135-0.554c-0.47,0-0.858,0.182-1.169,0.543
		C167.588,112.229,167.434,112.765,167.434,113.476z"/>
	<path fill="#F5F5F5" d="M178.344,114.918l1.914,0.321c-0.246,0.702-0.635,1.236-1.166,1.603c-0.53,0.367-1.195,0.551-1.992,0.551
		c-1.262,0-2.197-0.412-2.803-1.237c-0.479-0.661-0.718-1.495-0.718-2.502c0-1.203,0.314-2.146,0.943-2.827
		c0.629-0.681,1.425-1.021,2.386-1.021c1.08,0,1.932,0.356,2.557,1.07c0.625,0.713,0.923,1.806,0.896,3.277h-4.812
		c0.014,0.569,0.169,1.013,0.465,1.33c0.296,0.316,0.665,0.475,1.107,0.475c0.301,0,0.554-0.082,0.759-0.246
		S178.238,115.282,178.344,114.918z M178.453,112.977c-0.014-0.556-0.157-0.979-0.431-1.268c-0.273-0.29-0.606-0.435-0.998-0.435
		c-0.419,0-0.766,0.152-1.039,0.458s-0.407,0.72-0.403,1.244H178.453z"/>
	<path fill="#F5F5F5" d="M183.765,117.229h-1.921v-7.26h1.784v1.032c0.306-0.487,0.58-0.809,0.823-0.964
		c0.244-0.155,0.521-0.232,0.831-0.232c0.438,0,0.858,0.121,1.265,0.362l-0.595,1.675c-0.323-0.21-0.624-0.314-0.902-0.314
		c-0.269,0-0.497,0.074-0.684,0.223c-0.187,0.147-0.334,0.415-0.44,0.803c-0.107,0.388-0.161,1.198-0.161,2.434V117.229z"/>
	<path fill="#F5F5F5" d="M190.587,115.157l1.928-0.294c0.082,0.374,0.248,0.657,0.499,0.852c0.251,0.193,0.602,0.29,1.053,0.29
		c0.497,0,0.87-0.091,1.121-0.273c0.169-0.128,0.253-0.299,0.253-0.513c0-0.146-0.046-0.267-0.137-0.362
		c-0.096-0.091-0.31-0.176-0.643-0.253c-1.55-0.342-2.531-0.654-2.946-0.937c-0.574-0.392-0.861-0.937-0.861-1.634
		c0-0.629,0.248-1.157,0.745-1.586s1.267-0.643,2.311-0.643c0.993,0,1.731,0.162,2.215,0.485s0.815,0.802,0.998,1.436l-1.812,0.335
		c-0.077-0.282-0.225-0.499-0.44-0.649c-0.217-0.15-0.525-0.226-0.927-0.226c-0.506,0-0.868,0.07-1.087,0.212
		c-0.146,0.101-0.219,0.23-0.219,0.39c0,0.137,0.063,0.253,0.191,0.349c0.173,0.128,0.771,0.308,1.795,0.54
		c1.022,0.232,1.737,0.518,2.143,0.854c0.401,0.342,0.602,0.818,0.602,1.429c0,0.665-0.278,1.237-0.834,1.716
		s-1.379,0.718-2.468,0.718c-0.989,0-1.771-0.2-2.349-0.602C191.142,116.39,190.765,115.846,190.587,115.157z"/>
	<path fill="#F5F5F5" d="M202.379,109.969v1.531h-1.312v2.926c0,0.593,0.013,0.938,0.037,1.035c0.025,0.099,0.082,0.18,0.172,0.243
		c0.088,0.063,0.196,0.096,0.324,0.096c0.178,0,0.436-0.062,0.772-0.185l0.164,1.49c-0.446,0.191-0.952,0.287-1.518,0.287
		c-0.347,0-0.658-0.059-0.937-0.174c-0.278-0.117-0.482-0.268-0.611-0.451c-0.131-0.186-0.221-0.435-0.271-0.749
		c-0.041-0.224-0.062-0.675-0.062-1.354V111.5h-0.882v-1.531h0.882v-1.442l1.928-1.121v2.563H202.379z"/>
	<path fill="#F5F5F5" d="M205.147,112.184l-1.743-0.314c0.196-0.702,0.533-1.222,1.012-1.559s1.189-0.506,2.133-0.506
		c0.856,0,1.495,0.102,1.914,0.305c0.419,0.202,0.715,0.46,0.885,0.771c0.172,0.312,0.257,0.886,0.257,1.72l-0.021,2.242
		c0,0.638,0.031,1.108,0.092,1.411c0.062,0.304,0.177,0.628,0.346,0.975h-1.9c-0.05-0.128-0.111-0.316-0.185-0.567
		c-0.032-0.114-0.055-0.189-0.068-0.226c-0.328,0.319-0.679,0.559-1.053,0.718s-0.772,0.239-1.196,0.239
		c-0.747,0-1.336-0.203-1.768-0.608c-0.43-0.405-0.646-0.918-0.646-1.538c0-0.41,0.098-0.775,0.294-1.098
		c0.196-0.32,0.471-0.566,0.824-0.738c0.353-0.17,0.862-0.319,1.527-0.447c0.897-0.169,1.52-0.326,1.866-0.472V112.3
		c0-0.369-0.091-0.632-0.273-0.79c-0.183-0.156-0.526-0.235-1.032-0.235c-0.342,0-0.608,0.067-0.8,0.202
		C205.421,111.61,205.266,111.847,205.147,112.184z M207.718,113.742c-0.246,0.082-0.636,0.18-1.169,0.294s-0.882,0.226-1.046,0.335
		c-0.251,0.178-0.376,0.403-0.376,0.677c0,0.269,0.101,0.501,0.301,0.697s0.456,0.294,0.766,0.294c0.347,0,0.677-0.114,0.991-0.342
		c0.232-0.173,0.385-0.385,0.458-0.636c0.05-0.164,0.075-0.477,0.075-0.937V113.742z"/>
	<path fill="#F5F5F5" d="M214.827,109.969v1.531h-1.312v2.926c0,0.593,0.013,0.938,0.037,1.035c0.025,0.099,0.082,0.18,0.172,0.243
		c0.088,0.063,0.196,0.096,0.324,0.096c0.178,0,0.436-0.062,0.772-0.185l0.164,1.49c-0.446,0.191-0.952,0.287-1.518,0.287
		c-0.347,0-0.658-0.059-0.937-0.174c-0.278-0.117-0.482-0.268-0.611-0.451c-0.131-0.186-0.221-0.435-0.271-0.749
		c-0.041-0.224-0.062-0.675-0.062-1.354V111.5h-0.882v-1.531h0.882v-1.442l1.928-1.121v2.563H214.827z"/>
	<path fill="#F5F5F5" d="M216.16,108.984v-1.777h1.921v1.777H216.16z M216.16,117.229v-7.26h1.921v7.26H216.16z"/>
	<path fill="#F5F5F5" d="M219.605,113.496c0-0.638,0.157-1.256,0.472-1.853s0.76-1.053,1.337-1.367
		c0.576-0.314,1.22-0.472,1.931-0.472c1.099,0,1.998,0.356,2.7,1.07c0.702,0.713,1.053,1.614,1.053,2.703
		c0,1.099-0.354,2.009-1.062,2.73c-0.709,0.723-1.602,1.084-2.677,1.084c-0.665,0-1.3-0.15-1.903-0.451
		c-0.604-0.301-1.063-0.742-1.378-1.322C219.763,115.037,219.605,114.33,219.605,113.496z M221.574,113.599
		c0,0.72,0.171,1.271,0.513,1.654s0.764,0.574,1.265,0.574s0.922-0.191,1.262-0.574c0.339-0.383,0.509-0.938,0.509-1.668
		c0-0.711-0.17-1.258-0.509-1.641c-0.34-0.383-0.761-0.574-1.262-0.574s-0.923,0.191-1.265,0.574S221.574,112.879,221.574,113.599z"
		/>
	<path fill="#F5F5F5" d="M235.205,117.229h-1.921v-3.705c0-0.784-0.041-1.291-0.123-1.521c-0.082-0.229-0.215-0.408-0.4-0.536
		c-0.184-0.128-0.406-0.191-0.666-0.191c-0.333,0-0.631,0.091-0.896,0.273s-0.445,0.424-0.544,0.725
		c-0.098,0.301-0.146,0.856-0.146,1.668v3.288h-1.921v-7.26h1.784v1.066c0.634-0.82,1.431-1.23,2.393-1.23
		c0.424,0,0.812,0.076,1.162,0.229c0.351,0.153,0.616,0.348,0.797,0.585c0.18,0.237,0.305,0.506,0.375,0.807
		c0.071,0.301,0.106,0.731,0.106,1.292V117.229z"/>
</g>
<g enable-background="new    ">
	<path fill="#F5F5F5" d="M214.291,202.144v-6.223h0.943v0.873c0.195-0.305,0.455-0.55,0.779-0.735s0.693-0.278,1.107-0.278
		c0.461,0,0.839,0.096,1.134,0.287s0.503,0.459,0.624,0.803c0.492-0.727,1.133-1.09,1.922-1.09c0.617,0,1.092,0.171,1.424,0.513
		s0.498,0.868,0.498,1.579v4.271h-1.049v-3.92c0-0.422-0.034-0.726-0.103-0.911s-0.192-0.335-0.372-0.448s-0.391-0.17-0.633-0.17
		c-0.438,0-0.801,0.146-1.09,0.437s-0.434,0.757-0.434,1.397v3.615h-1.055v-4.043c0-0.469-0.086-0.82-0.258-1.055
		s-0.453-0.352-0.844-0.352c-0.297,0-0.571,0.078-0.823,0.234s-0.435,0.385-0.548,0.686s-0.17,0.734-0.17,1.301v3.229H214.291z"/>
	<path fill="#F5F5F5" d="M223.895,199.032c0-1.152,0.32-2.006,0.961-2.561c0.535-0.461,1.188-0.691,1.957-0.691
		c0.855,0,1.555,0.28,2.098,0.841s0.814,1.335,0.814,2.323c0,0.801-0.12,1.431-0.36,1.89s-0.59,0.815-1.049,1.069
		s-0.96,0.381-1.503,0.381c-0.871,0-1.575-0.279-2.112-0.838S223.895,200.083,223.895,199.032z M224.979,199.032
		c0,0.797,0.174,1.394,0.521,1.79s0.785,0.595,1.312,0.595c0.523,0,0.959-0.199,1.307-0.598s0.521-1.006,0.521-1.822
		c0-0.77-0.175-1.353-0.524-1.749s-0.784-0.595-1.304-0.595c-0.527,0-0.965,0.197-1.312,0.592S224.979,198.235,224.979,199.032z"/>
	<path fill="#F5F5F5" d="M230.949,202.144v-6.223h0.949v0.943c0.242-0.441,0.466-0.732,0.671-0.873s0.431-0.211,0.677-0.211
		c0.355,0,0.717,0.113,1.084,0.34l-0.363,0.979c-0.258-0.152-0.516-0.229-0.773-0.229c-0.23,0-0.438,0.069-0.621,0.208
		s-0.314,0.331-0.393,0.577c-0.117,0.375-0.176,0.785-0.176,1.23v3.258H230.949z"/>
	<path fill="#F5F5F5" d="M239.217,200.14l1.09,0.135c-0.172,0.637-0.49,1.131-0.955,1.482s-1.059,0.527-1.781,0.527
		c-0.91,0-1.632-0.28-2.165-0.841s-0.8-1.347-0.8-2.358c0-1.047,0.27-1.859,0.809-2.438s1.238-0.867,2.098-0.867
		c0.832,0,1.512,0.283,2.039,0.85s0.791,1.363,0.791,2.391c0,0.062-0.002,0.156-0.006,0.281h-4.641
		c0.039,0.684,0.232,1.207,0.58,1.57s0.781,0.545,1.301,0.545c0.387,0,0.717-0.102,0.99-0.305S239.057,200.585,239.217,200.14z
		 M235.754,198.435h3.475c-0.047-0.523-0.18-0.916-0.398-1.178c-0.336-0.406-0.771-0.609-1.307-0.609
		c-0.484,0-0.892,0.162-1.222,0.486S235.789,197.892,235.754,198.435z"/>
</g>
<g>
</g>
<g>
</g>
<g>
</g>
<g>
</g>
<g>
</g>
<g>
</g>
<g>
</g>
<g>
</g>
<g>
</g>
<g>
</g>
<g>
</g>
<g>
</g>
<g>
</g>
<g>
</g>
<g>
</g>
<g>
</g>
<g>
</g>
<g>
</g>
</svg>
