<?xml version="1.0" encoding="utf-8"?>
<!-- Generator: Adobe Illustrator 16.0.4, SVG Export Plug-In . SVG Version: 6.00 Build 0)  -->
<!DOCTYPE svg PUBLIC "-//W3C//DTD SVG 1.1//EN" "http://www.w3.org/Graphics/SVG/1.1/DTD/svg11.dtd">
<svg version="1.1" id="Layer_2" xmlns="http://www.w3.org/2000/svg" xmlns:xlink="http://www.w3.org/1999/xlink" x="0px" y="0px"
	 width="360px" height="200px" viewBox="0 0 360 200" enable-background="new 0 0 360 200" xml:space="preserve">
<symbol  id="Arrow_25" viewBox="-22.859 -13.141 45.718 26.281">
	<polygon fill="none" points="-22.859,-13.141 22.859,-13.141 22.859,13.141 -22.859,13.141 	"/>
	<g>
		<polygon fill="#F5F5F5" points="-5.512,2.214 8.487,2.214 8.487,-3.877 22.405,4.15 8.487,12.172 8.487,6.085 -5.512,6.085 		"/>
	</g>
</symbol>
<g>
	<g>
		<g>
			<path fill="#C6C6C5" d="M25.465,37.823c-0.449,8.335-12.486,8.335-12.935,0C12.081,29.482,25.019,29.526,25.465,37.823
				c0.104,1.924,3.104,1.934,3,0c-0.289-5.356-4.111-9.179-9.467-9.468c-5.346-0.288-9.203,4.545-9.468,9.468
				c-0.288,5.346,4.545,9.202,9.468,9.467c5.345,0.288,9.202-4.544,9.467-9.467C28.569,35.889,25.569,35.899,25.465,37.823z"/>
		</g>
	</g>
	<text transform="matrix(1 0 0 1 34.4209 41.3301)" fill="#F5F5F5" font-family="'ArialMT'" font-size="12">0% or Unknown</text>
</g>
<g>
	<g>
		<g>
			<path fill="#88A61B" d="M143.853,63.823c-0.449,8.335-12.486,8.335-12.935,0C130.468,55.482,143.406,55.526,143.853,63.823
				c0.104,1.924,3.104,1.934,3,0c-0.289-5.356-4.111-9.179-9.467-9.468c-5.346-0.288-9.203,4.545-9.468,9.468
				c-0.288,5.346,4.545,9.202,9.468,9.467c5.345,0.288,9.202-4.544,9.467-9.467C146.957,61.889,143.956,61.899,143.853,63.823z"/>
		</g>
	</g>
	<text transform="matrix(1 0 0 1 152.8086 68.1406)" fill="#F5F5F5" font-family="'ArialMT'" font-size="12">51 - 75%</text>
</g>
<g>
	<g>
		<path fill="#D92525" d="M25.465,63.741c-0.449,8.334-12.486,8.334-12.935,0C12.081,55.399,25.019,55.443,25.465,63.741
			c0.104,1.924,3.104,1.934,3,0c-0.289-5.356-4.111-9.18-9.467-9.469c-5.346-0.288-9.203,4.546-9.468,9.469
			c-0.288,5.345,4.545,9.201,9.468,9.466c5.344,0.288,9.202-4.544,9.467-9.466C28.569,61.807,25.569,61.817,25.465,63.741z"/>
	</g>
</g>
<text transform="matrix(1 0 0 1 34.4209 67.6572)" fill="#F5F5F5" font-family="'ArialMT'" font-size="12">1 - 25%</text>
<g>
	<g>
		<g>
			<path fill="#05A8F2" d="M230.662,37.741c-0.449,8.334-12.485,8.334-12.936,0C217.277,29.399,230.215,29.443,230.662,37.741
				c0.104,1.924,3.104,1.934,3,0c-0.288-5.356-4.11-9.18-9.467-9.469c-5.346-0.288-9.203,4.546-9.469,9.469
				c-0.287,5.345,4.547,9.201,9.469,9.466c5.344,0.288,9.201-4.544,9.467-9.466C233.768,35.807,230.766,35.817,230.662,37.741z"/>
		</g>
	</g>
	<text transform="matrix(1 0 0 1 239.6182 41.6572)" fill="#F5F5F5" font-family="'ArialMT'" font-size="12">76 - 100%</text>
</g>
<g>
	<g>
		<g>
			<path fill="#F29F05" d="M144.465,37.657c-0.449,8.336-12.486,8.336-12.935,0C131.081,29.316,144.019,29.36,144.465,37.657
				c0.104,1.924,3.104,1.934,3,0c-0.289-5.356-4.111-9.179-9.467-9.468c-5.346-0.288-9.203,4.545-9.468,9.468
				c-0.288,5.345,4.545,9.203,9.468,9.468c5.345,0.288,9.202-4.546,9.467-9.468C147.569,35.723,144.569,35.733,144.465,37.657z"/>
		</g>
	</g>
	<text transform="matrix(1 0 0 1 153.4209 42.3848)" fill="#F5F5F5" font-family="'ArialMT'" font-size="12">26 - 50%</text>
</g>
<text transform="matrix(1 0 0 1 11.0303 185.4033)" fill="#F5F5F5" font-family="'ArialMT'" font-size="12">fewer</text>
<text transform="matrix(1 0 0 1 40.3745 185.4033)" fill="#F5F5F5" font-family="'MyriadPro-Regular'" font-size="11.3387">                                           </text>
<g>
	<g>
		<path fill="#C6C6C5" d="M14.911,163.592c-0.021,0.381-0.555,0.381-0.575,0C14.315,163.211,14.89,163.216,14.911,163.592
			c0.104,1.924,3.104,1.934,3,0c-0.1-1.855-1.432-3.188-3.287-3.287c-1.852-0.1-3.196,1.581-3.288,3.287
			c-0.1,1.854,1.582,3.195,3.288,3.287c1.852,0.1,3.195-1.581,3.287-3.287C18.015,161.658,15.014,161.668,14.911,163.592z"/>
	</g>
</g>
<g>
	<g>
		<path fill="#C6C6C5" d="M40.044,161.802c-0.157,2.921-4.371,2.921-4.528,0C35.358,158.879,39.887,158.895,40.044,161.802
			c0.104,1.925,3.104,1.935,3,0c-0.16-2.975-2.29-5.104-5.265-5.265c-2.968-0.16-5.116,2.529-5.264,5.265
			c-0.16,2.968,2.53,5.116,5.264,5.265c2.968,0.16,5.117-2.525,5.265-5.265C43.148,159.868,40.147,159.878,40.044,161.802z"/>
	</g>
</g>
<g>
	<g>
		<path fill="#C6C6C5" d="M73.25,156.788c-0.505,9.38-14.05,9.38-14.555,0C58.19,147.402,72.748,147.453,73.25,156.788
			c0.104,1.924,3.104,1.935,3,0c-0.313-5.815-4.462-9.964-10.277-10.277c-5.804-0.312-9.99,4.933-10.278,10.277
			c-0.312,5.805,4.932,9.989,10.278,10.276c5.804,0.312,9.99-4.937,10.277-10.276C76.354,154.854,73.354,154.864,73.25,156.788z"/>
	</g>
</g>
<g>
	<g>
		<path fill="#C6C6C5" d="M171.08,146.343c-0.349,9.91-7.811,17.374-17.722,17.724c-9.907,0.353-17.393-8.332-17.723-17.724
			c-0.348-9.905,8.333-17.391,17.723-17.721C163.263,128.273,170.75,136.954,171.08,146.343c0.068,1.929,3.068,1.937,3,0
			c-0.407-11.579-9.143-20.313-20.722-20.721c-11.572-0.407-20.337,9.754-20.723,20.721c-0.407,11.573,9.756,20.337,20.723,20.724
			c11.572,0.406,20.336-9.758,20.722-20.724C174.148,144.407,171.148,144.414,171.08,146.343z"/>
	</g>
</g>
<g>
	<g>
		<path fill="#C6C6C5" d="M243.58,141.093c-0.352,13.872-11.1,24.622-24.973,24.974c-13.871,0.354-24.635-11.629-24.977-24.974
			c-0.352-13.87,11.635-24.633,24.977-24.97C232.479,115.771,243.242,127.751,243.58,141.093c0.049,1.931,3.049,1.937,3,0
			c-0.393-15.518-12.455-27.577-27.973-27.97c-15.52-0.393-27.594,13.041-27.977,27.97c-0.395,15.517,13.042,27.595,27.977,27.974
			c15.517,0.396,27.595-13.045,27.973-27.974C246.629,139.157,243.629,139.162,243.58,141.093z"/>
	</g>
</g>
<g>
	<g>
		<path fill="#C6C6C5" d="M114.215,152.908c-0.774,14.379-21.54,14.379-22.314,0c-0.34-6.311,5.343-10.842,11.158-11.155
			C109.368,141.413,113.901,147.094,114.215,152.908c0.104,1.924,3.104,1.934,3,0c-0.982-18.232-27.332-18.232-28.314,0
			c-0.431,8,6.792,13.761,14.158,14.156c7.999,0.432,13.76-6.791,14.156-14.156C117.319,150.975,114.318,150.984,114.215,152.908z"
			/>
	</g>
</g>
<use xlink:href="#Arrow_25"  width="45.718" height="26.281" id="XMLID_2_" x="-22.859" y="-13.141" transform="matrix(0.405 0 0 -0.4985 185.7832 185.2861)" overflow="visible"/>
<line fill="none" stroke="#F5F5F5" stroke-width="1.6" stroke-miterlimit="10" x1="183.552" y1="183.275" x2="47.489" y2="183.145"/>
<text transform="matrix(1 0 0 1 6.9805 14.6035)" fill="#F5F5F5" font-family="'Arial-BoldMT'" font-size="12">Percentage of halibut over 32 inches</text>
<text transform="matrix(1 0 0 1 6.9805 108.2285)" fill="#F5F5F5" font-family="'Arial-BoldMT'" font-size="12">Total pounds of halibut per station</text>
<text transform="matrix(1 0 0 1 203.5 186.1436)" fill="#F5F5F5" font-family="'ArialMT'" font-size="12">more</text>
</svg>
